<?xml version="1.0" encoding="utf-8"?>
<!-- Generator: Adobe Illustrator 21.0.0, SVG Export Plug-In . SVG Version: 6.00 Build 0)  -->
<svg version="1.1" id="Layer_1" xmlns="http://www.w3.org/2000/svg" xmlns:xlink="http://www.w3.org/1999/xlink" x="0px" y="0px"
	 viewBox="0 0 708.7 566.9" enable-background="new 0 0 708.7 566.9" xml:space="preserve">
<g>
	<g>
		<path fill="#96353A" d="M424.1,55.5c-15.7-11.7-34.9-19.1-57.9-20.3C324.3,33,279.3,44,252.4,78.5c-27.3,35-31.1,86.6-23.2,128.7
			c5.8,30.8,17.7,56.9,37.6,79.9c25.3,29.6,65.2,50.2,98.1,56.7c22.2,4,47.7,5.3,67.4-5.7c0,0-7.3-8.2-10-13.4
			c20.2-23.7,44.2-40.5,53.1-76.4C491,185.1,477.8,95.3,424.1,55.5z"/>
		<g>
			<path fill="#FDC896" d="M436.6,145.3c-2.3,7.1-3.6,14.4-4.4,23.4c16.2-3.2,14.3,18.1-0.3,15.9c-0.7,19.1-15.2,34.6-32,40.9
				c-8,3-18.7,4.1-26,8.4c-7.7,4.5-8.2,10-11.6,16c-7.9,13.9-10.8-5.7-19.2-12.5c-5.7-4.6-17-2.6-23.7-3c-8.8-0.5-17.8-2.5-26-5.6
				c-17.1-6.5-20.5-24.6-28.8-39.7c-15.8,4.8-15.9-17.3-3.3-15.4c0.4-7-1-13.4,0.5-20.9c8.4-1.9,17.5-1.7,26.1-2.5
				c29.9-3,77.4-9.2,94.9-38.4C382.8,111.9,387.5,141.6,436.6,145.3z"/>
			<g>
				<path fill="#4B3021" d="M356,217.9c-2.2-0.1-4.3-0.7-6.3-1.9c-6.2-3.6-10.2-12.1-9.8-20.1c-0.7,0.2-1.3,0.4-2.1,0.7
					c-2.5,0.8-5.3,1.7-8.1,2.9c-0.4,0.2-1,0-1.2-0.4s0-1,0.4-1.2c2.9-1.3,5.7-2.2,8.3-3c1.2-0.4,2.3-0.7,3.3-1.1
					c0.3-0.1,0.6,0,0.8,0.1c0.2,0.2,0.4,0.5,0.3,0.8c-0.9,7.7,2.9,16.3,8.8,19.8c3.3,1.9,8.6,3.1,15.5-1.9
					c4.8-4.4,6.4-13.8,4.7-19.4c-0.1-0.5,0.1-0.9,0.6-1.1c0.5-0.1,1,0.1,1.1,0.6c1.8,6.3,0.1,16.3-5.3,21.2
					C363.4,216.7,359.6,218,356,217.9z"/>
			</g>
			<path fill="#F79A7A" d="M409.7,192.5c-0.6,0.8-1.4,1.4-2.4,2c-6.3,3.8-25.3,5.2-15.9-5.4C396.3,183.6,418.3,181.7,409.7,192.5z"
				/>
			<path fill="#F79A7A" d="M299.9,199.7c0.8,0.7,1.8,1.3,3,1.7c7.6,2.8,28.4,0.5,16.1-9.1C312.6,187.4,288.4,189.7,299.9,199.7z"/>
		</g>
		
			<ellipse transform="matrix(0.9981 -6.231756e-02 6.231756e-02 0.9981 -9.3961 24.5531)" fill="#4B3021" cx="388.9" cy="162.9" rx="6.7" ry="10.8"/>
		
			<ellipse transform="matrix(0.9981 -6.221259e-02 6.221259e-02 0.9981 -9.7256 19.8571)" fill="#4B3021" cx="314" cy="166.1" rx="6.7" ry="10.8"/>
		<g>
			<g>
				<path fill="#FDC896" d="M508.7,411.4c-4.5-2.7-11.9-12.6-18.2-13.5c-6.3-1-7.9,5.7-7.9,5.7s-2.3,0.8-11.5-2.2
					c-13.7-4.4-27.1-9.2-38.9-12.2c-0.5-0.1-0.9-0.2-1.3-0.3c-8.4,8.7-17.9,16-28.1,21.9c32.7,5.6,76.4,13.7,91.8,15.9
					c22.5,3.1,32.1-1.1,32.4-8.4C527.4,411.1,513.2,414.2,508.7,411.4z"/>
				<path fill="#F7941D" d="M509.6,407.3c-4.5-2.7-12.8-8.5-19.1-9.4c-6.3-1-7.9,5.7-7.9,5.7l0,0c2.5,2.9,8.2,8.5,16.8,11.1
					c7.1,2.2,10.8,2,15.2,5.7c2.6,2.1,2.9,4.8,2.7,6.6c6.6-1.4,9.7-4.5,9.9-8.6C527.4,411.1,514.2,410,509.6,407.3z"/>
				<g>
					<path fill="#F7941D" d="M475.6,423.6c0.7,0.1,1.5,0.3,2.2,0.4c0.4-1.7,0.7-3.5,0.9-5.4c-0.5-1.3-1.1-2.5-1.7-3.8
						C476.7,417.8,476.2,420.8,475.6,423.6z"/>
					<path fill="#F7941D" d="M480.2,403.6c-0.6-0.1-1.3-0.2-2.1-0.3c-0.1,1.9-0.3,4.6-0.6,7.5c0.6,1.2,1.2,2.4,1.8,3.6
						C479.8,410.1,480.1,406.1,480.2,403.6z"/>
					<path fill="#F7941D" d="M482.9,424.4c-0.8-3.4-2.1-6.8-3.6-10c-0.6-1.3-1.2-2.5-1.8-3.6c-1.2-2.2-3-6.1-4.4-8.8
						c-0.6-0.2-1.3-0.4-2-0.6c-0.5-0.2-0.9-0.3-1.4-0.5c1.8,3,5.2,9.5,7.3,13.9c0.6,1.2,1.2,2.5,1.7,3.8c0.8,1.9,1.5,3.9,2,5.9
						c0.5,0.1,1,0.2,1.4,0.2C482.4,424.6,482.6,424.5,482.9,424.4z"/>
				</g>
			</g>
			<path fill="#FDC896" d="M488.7,227.4c0,0,10-7.4,5.4-10.2c-3.1-1.8-11,4.9-11,4.9s7-11.3,3.5-13.4c-4.7-2.9-11.5,9.8-11.5,9.8
				s-4-9.7-7.6-9.9c-3-0.2,0.2,8.8,1.5,12.8c-3.5,3.4-11,6.9-11.7,7.2c-12.3,6.1-16.5,5.7-29.1,11.1c-5.3,2.3-10.6,4.6-15.9,6.7
				c-3.5,1.4-6.7,2-9.8,2c-5.2-1.9-10.5-3.2-16.4-3.6c-0.7,0-1.5-0.1-2.2-0.1c-3.3-0.7-6.7-1.3-10-2c-0.6-0.4-1.3-0.9-1.8-1.5
				c-1.1-1.2-1-6-0.3-7c-10.9,0.2-21.7-0.3-32.5-1.2c1.7,1.2,2.6,6.5,1,8.2c-0.6,0.6-1.2,1.1-1.8,1.5c-3.4,0.7-6.7,1.3-10,2
				c-0.7,0-1.5,0-2.2,0.1c-5.9,0.4-11.2,1.7-16.4,3.6c-3.1,0-6.3-0.6-9.8-2c-5.3-2.1-10.7-4.4-15.9-6.7c-12.6-5.5-16.7-5.4-29-11.5
				c-0.7-0.4-8.2-3.8-11.7-7.2c1.3-4,4.5-13,1.5-12.8c-3.6,0.2-7.6,9.9-7.6,9.9s-6.8-12.6-11.5-9.8c-3.5,2.2,3.5,13.4,3.5,13.4
				s-7.8-6.8-11-4.9c-4.7,2.7,5.4,10.2,5.4,10.2s-12.4,1.4-10,5.2c2.1,3.2,12.1,1.8,12.1,1.8s-8,5.7-8.3,8.3
				c-0.3,3.1,6.2,0.2,7.2-0.3c1.7-0.7,3.4-1.8,5.1-2.5c2.7-1.1,3.4,1.6,5.2,3.6c3.6,3.9,1.7,2.1,6,5.3c4.7,3.5,9.4,6.8,14.1,10.2
				c10.5,7.4,12.5,9.4,23.6,15.9c5.2,3.1,10.5,6.1,16,8.6c2,0.9,3.9,1.8,5.9,2.7c0,1.2,0,2.4,0,3.6c0.5-0.2,0.9-0.3,1.4-0.5
				c0,9.5,0,19.7,0,29.4c0,0.3,0,0.6,0,0.8c-0.3,0.3-0.5,0.7-0.8,1l0.2,10.8c0.5,0,0.9-0.1,1.4-0.1c0.5,3.1,1.1,6.1,1.5,12.4
				c0.1,1.4,0.2,2.9,0.4,4.4c7.7,1.1,15.4,2.2,23.1,3l0,0c0.1,0.5,0.3,0.9,0.4,1.4c1.1,0,2.4,0,3.8,0.1c9.6,0.1,16.2,0.4,24.4,0.3
				c8.2,0.1,14.8-0.1,24.4-0.3c1.4,0,2.7,0,3.8-0.1c0.1-0.5,0.3-0.9,0.4-1.4l0,0c7.7-0.8,15.4-1.8,23.1-3c0.2-1.5,0.3-2.9,0.4-4.4
				c0.5-6.2,1.1-9.3,1.5-12.4c0.5,0.1,2.6-1.6,3-1.6c0.3-11.6,1.6-22.7,1.8-34.4c0.1-4.2-0.2-9.2,3.5-11.7
				c4.8-3.4,10.7-5.6,15.8-8.6c11-6.5,13.1-8.2,23.6-15.5c4.7-3.3,9.5-6.7,14.1-10.2c4.3-3.2,2.4-1.4,6-5.3c1.8-2,2.5-4.7,5.2-3.6
				c1.7,0.7,3.4,1.7,5.1,2.5c1.1,0.4,7.6,3.4,7.2,0.3c-0.3-2.5-8.3-8.3-8.3-8.3s10,1.4,12.1-1.8
				C501.2,228.8,488.7,227.4,488.7,227.4z"/>
			<path fill="#F7941D" d="M346.6,486.1c0,0,10.5,34.6-3.4,35.1c-12.2,0.4-16.4-4-16.2-18.2c0.2-12,2.2-10.2,1.2-17.1
				C328.2,486,344,471.8,346.6,486.1z"/>
			<path fill="#FDC896" d="M314,414.1c-0.9,8.2-1.4,19.2,0.9,28.9c3.6,15.6,11.4,37.7,13.5,45.1s2.1,13.4,9.8,13.9
				c9.7,0.7,9.3-6.3,8.6-14.2c-0.7-7.8,0-17.4,0.5-42.2c0.2-9.5-0.3-20.9-0.9-29.8C335.6,415.5,324.8,414.9,314,414.1z"/>
			<g>
				<path fill="#F7941D" d="M346.5,483.5c0-0.6,0-1.2,0-1.8c-1.6-0.3-4.1-0.7-6.9-1.3c-1,0.4-2,0.8-3.1,1.1
					C340.8,482.5,344.6,483.2,346.5,483.5z"/>
				<path fill="#F7941D" d="M324.5,475.8c0.3,0.8,0.5,1.7,0.8,2.4c2.3,0.9,5,1.8,7.8,2.5c1.1-0.3,2.2-0.7,3.2-1
					C332,478.7,327.6,477.3,324.5,475.8z"/>
				<path fill="#F7941D" d="M336.3,479.7c-1,0.4-2.1,0.7-3.2,1c-2.2,0.6-4.4,1.1-6.6,1.3c0.2,0.6,0.4,1.2,0.5,1.7
					c3.2-0.3,6.4-1.1,9.4-2.1c1.1-0.4,2.1-0.7,3.1-1.1c2.8-1.1,5.1-2.2,6.9-3.1c0-0.7,0-1.4,0-2.2
					C344.6,476.1,340.8,478.1,336.3,479.7z"/>
			</g>
			<path fill="#EE4481" d="M349.4,341.1c-88.2-3.7-110.2,28.5-113.5,31l0,0c-0.8,4.6,0.8,9.2,4.2,12.7s8.3,5.6,13.5,5.7
				c0.4,4.5,3.1,8.7,7.3,11.4c3.1,2.1,6.8,3.2,10.7,3.3c1.3,0,2.6-0.1,3.8-0.3c1.5,4.3,5.1,7.8,9.8,9.7c4.6,1.9,10.1,2,14.8,0.4
				c2.5,3.9,6.7,6.7,11.7,7.8c4.9,1.1,10.1,0.4,14.3-2c3.2,3.4,7.8,5.5,12.8,5.9c0.4,0,0.8,0.1,1.2,0.1c4.6,0.1,9-1.3,12.5-3.8
				c3.7,2.9,8.5,4.5,13.5,4.2c5-0.2,9.7-2.3,13-5.6c4.2,2.5,9.4,3.3,14.3,2.4c5-1,9.3-3.7,11.9-7.5c4.7,1.8,10.1,1.8,14.8,0
				c4.7-1.8,8.4-5.3,10-9.5c1.1,0.2,2.3,0.3,3.4,0.4c4.1,0.1,7.9-0.9,11.2-3c4.2-2.6,6.9-6.7,7.5-11.2c5.2,0,10.2-2,13.6-5.4
				c3.5-3.5,5.1-8,4.4-12.6c-3.6-2.5-5.6-3.5-12.6-7.7C451.7,364,401.4,343.3,349.4,341.1z"/>
			<path fill="#F7941D" d="M355.2,355.9c-20.6-2.3-57.6-1.5-58.9-9.4c-0.3-1.6,1.5-4.1,2.1-5.6c1.2-3,1.9-6,1.9-9.3
				c0-8-1.4-16-1.1-24.1c0.2-7,1.3-14.6-1.1-21.3c2.4-1.3,6.8-4.4,8.3-9.8c1.6-5.7,0.9-24.8-0.9-29.4c2.7,0.1,5.2,0.1,7.6,0.1
				c1,4.8-2.5,23.5,6.1,28.6c11.4,6.7,51.1,9.3,67.1,2.1c10-4.5,12.9-27.8,11.9-32.4c2.5,0.1,5.9,2,8.9,2.9
				c-0.2,4.2-9.4,27.5-7.2,32.9c3,7.4,12,11,15.3,12.1c0.7,6.6-0.7,42.7-4.4,60.5C406.3,354.4,380.4,358.7,355.2,355.9z"/>
			<path fill="#FFFFFF" d="M297.7,342.5c-0.9,2-1.6,3.5-1.5,4.1c1.3,7.8,38.3,7.1,58.9,9.4c25.2,2.8,51.1-1.6,55.6-2
				c0.4-2.1,0.9-4.5,1.2-7.1C352.3,353.6,312.3,346.1,297.7,342.5z"/>
		</g>
	</g>
	<g>
		<g>
			<path fill="#F8B72E" d="M287.5,81.8c0,0-1.5-7.5-7.6-17.5c-6.2-10-17.9-20.8-17.9-20.8s6.3-0.9,15.5,1.2
				c9.5,2.2,14.6,4.9,14.6,4.9s-2.2-6.2-2-15.8c0.4-12.9,3.1-21.5,3.1-21.5s13.8,13.2,19.4,21.4c2.4-9.4,10.8-26.3,10.8-26.3
				s5,6.9,9.5,16.8c4,8.7,4.5,18.2,4.5,18.2s4-4.2,12.3-9.2c8-4.8,14.3-6,14.3-6s-7.7,13.9-10.5,25.3c-2.7,11.4-1.8,19-1.8,19
				S317.1,68.6,287.5,81.8z"/>
			
				<ellipse transform="matrix(0.9874 -0.1585 0.1585 0.9874 -3.4299 41.3799)" fill="#904199" cx="257.7" cy="42.2" rx="2.9" ry="2.9"/>
			
				<ellipse transform="matrix(0.9874 -0.1582 0.1582 0.9874 0.6919 58.5168)" fill="#904199" cx="367.9" cy="24.9" rx="2.9" ry="2.9"/>
			
				<ellipse transform="matrix(0.9874 -0.1582 0.1582 0.9874 2.431 46.3424)" fill="#904199" cx="292.3" cy="7.9" rx="2.9" ry="2.9"/>
			<ellipse transform="matrix(0.9874 -0.1581 0.1581 0.9874 3.6027 51.1023)" fill="#904199" cx="323" cy="2.9" rx="2.9" ry="2.9"/>
		</g>
	</g>
	<g>
		<g>
			<path fill="#EE4481" d="M366,284.9c0,2.2-1.5,5.4-3.4,5.4s-8.3-3.1-8.3-5.3s6.5-5.9,8.5-5.9C364.6,279.1,366,282.6,366,284.9z"/>
			<path fill="#EE4481" d="M342.8,284.5c0,2.1,1.4,5,3.2,5c1.8,0,7.7-2.8,7.7-4.9s-6-5.4-7.8-5.4C344,279.2,342.8,282.5,342.8,284.5
				z"/>
		</g>
		<ellipse fill="#F1F2F2" cx="353.9" cy="285.1" rx="2.6" ry="3"/>
	</g>
	
		<ellipse transform="matrix(3.771258e-02 -0.9993 0.9993 3.771258e-02 -99.3339 639.723)" fill="#FFFFFF" cx="282.5" cy="371.4" rx="5.4" ry="5.4"/>
	
		<ellipse transform="matrix(3.771314e-02 -0.9993 0.9993 3.771314e-02 -52.6325 729.4982)" fill="#FFFFFF" cx="352.5" cy="392.1" rx="5.4" ry="5.4"/>
	
		<ellipse transform="matrix(3.771306e-02 -0.9993 0.9993 3.771306e-02 35.8014 782.0849)" fill="#FFFFFF" cx="424" cy="372.5" rx="5.4" ry="5.4"/>
	<g>
		<path fill="#FFFFFF" d="M255.3,361.5c0.8-0.6,0.9-1.8,0.3-2.6c-0.6-0.8-1.8-0.9-2.6-0.3s-1,1.8-0.3,2.6
			C253.4,362,254.5,362.1,255.3,361.5z"/>
		<path fill="#FFFFFF" d="M257.5,364.1c-0.8,0.7-0.9,1.8-0.2,2.6c0.7,0.8,1.9,0.8,2.6,0.2c0.7-0.7,0.8-1.8,0.1-2.6
			C259.4,363.5,258.2,363.4,257.5,364.1z"/>
		<path fill="#FFFFFF" d="M264.8,371.9c0.7-0.7,0.7-1.9,0-2.6s-1.9-0.7-2.6,0s-0.7,1.9,0,2.6C262.9,372.7,264.1,372.6,264.8,371.9z"
			/>
		<path fill="#FFFFFF" d="M267.3,374.2c-0.7,0.7-0.6,1.9,0.2,2.6c0.8,0.7,2,0.6,2.6-0.1c0.7-0.8,0.6-1.9-0.2-2.6
			C269.1,373.4,268,373.5,267.3,374.2z"/>
		<path fill="#FFFFFF" d="M275.2,378.6c-0.8-0.6-1.9-0.5-2.6,0.3c-0.6,0.8-0.5,2,0.3,2.6s2,0.5,2.6-0.3
			C276.2,380.3,276,379.2,275.2,378.6z"/>
		<path fill="#FFFFFF" d="M281.3,385.2c0.6-0.8,0.3-2-0.5-2.5c-0.8-0.6-2-0.4-2.6,0.4s-0.4,2,0.5,2.6
			C279.6,386.3,280.7,386.1,281.3,385.2z"/>
		<path fill="#FFFFFF" d="M287.3,389c0.5-0.9,0.2-2-0.6-2.5c-0.9-0.5-2-0.3-2.5,0.6s-0.3,2,0.6,2.5
			C285.6,390.2,286.8,389.9,287.3,389z"/>
		<path fill="#FFFFFF" d="M293.5,392.4c0.5-0.9,0.1-2-0.8-2.5s-2-0.1-2.5,0.8s-0.1,2,0.8,2.5C291.9,393.6,293.1,393.3,293.5,392.4z"
			/>
		<path fill="#FFFFFF" d="M299,392.9c-0.9-0.4-2,0-2.4,0.9s0,2,0.9,2.5c1,0.4,2.1,0,2.5-0.9C300.3,394.4,299.9,393.3,299,392.9z"/>
		<path fill="#FFFFFF" d="M306.5,398c0.3-1-0.1-2-1.1-2.4c-0.9-0.4-2,0.1-2.4,1s0.1,2,1.1,2.4S306.2,398.9,306.5,398z"/>
		<path fill="#FFFFFF" d="M312,397.9c-1-0.3-2,0.2-2.3,1.2s0.2,2,1.2,2.3s2-0.2,2.3-1.2C313.5,399.2,312.9,398.2,312,397.9z"/>
		<path fill="#FFFFFF" d="M317.8,403.3c1,0.3,2-0.3,2.3-1.3c0.2-1-0.4-2-1.3-2.2c-1-0.3-2,0.3-2.2,1.3
			C316.2,402.1,316.8,403.1,317.8,403.3z"/>
		<path fill="#FFFFFF" d="M327,403.5c0.2-1-0.5-2-1.5-2.1c-1-0.2-2,0.4-2.2,1.4s0.4,2,1.5,2.2C325.8,405.1,326.8,404.5,327,403.5z"
			/>
		<path fill="#FFFFFF" d="M330.3,404c-0.2,1,0.5,1.9,1.6,2.1c1,0.1,2-0.6,2.1-1.6s-0.6-1.9-1.6-2.1C331.4,402.4,330.4,403,330.3,404
			z"/>
		<path fill="#FFFFFF" d="M341,405.3c0.1-1-0.7-1.9-1.7-2s-1.9,0.6-2,1.6s0.6,1.9,1.7,2C340,407.1,340.9,406.3,341,405.3z"/>
		<path fill="#FFFFFF" d="M344.3,405.6c-0.1,1,0.7,1.9,1.8,1.9c1,0,1.9-0.7,1.9-1.8c0-1-0.8-1.9-1.8-1.9
			C345.3,403.8,344.4,404.6,344.3,405.6z"/>
		<path fill="#FFFFFF" d="M355.1,405.9c0-1-0.8-1.8-1.8-1.8s-1.8,0.8-1.9,1.8c0,1,0.8,1.9,1.8,1.9
			C354.3,407.7,355.1,406.9,355.1,405.9z"/>
		<path fill="#FFFFFF" d="M360.2,404c-1,0-1.8,0.9-1.8,1.9s0.9,1.8,1.9,1.8s1.8-0.9,1.8-1.9C362.1,404.7,361.3,403.9,360.2,404z"/>
		<path fill="#FFFFFF" d="M369.2,405.2c-0.1-1-1-1.7-2-1.7c-1,0.1-1.8,1-1.7,2c0.1,1,1,1.8,2,1.7
			C368.6,407.1,369.3,406.2,369.2,405.2z"/>
		<path fill="#FFFFFF" d="M374.2,402.8c-1,0.1-1.7,1-1.6,2s1,1.7,2.1,1.6c1-0.1,1.7-1.1,1.6-2.1
			C376.1,403.4,375.2,402.7,374.2,402.8z"/>
		<path fill="#FFFFFF" d="M381.7,405.4c1-0.2,1.7-1.2,1.5-2.1c-0.2-1-1.2-1.6-2.1-1.5c-1,0.2-1.7,1.1-1.5,2.1
			C379.7,404.9,380.7,405.6,381.7,405.4z"/>
		<path fill="#FFFFFF" d="M387.9,400.4c-1,0.2-1.6,1.2-1.4,2.2s1.2,1.6,2.2,1.4s1.6-1.2,1.4-2.2
			C389.9,400.7,388.9,400.1,387.9,400.4z"/>
		<path fill="#FFFFFF" d="M395.7,402.1c1-0.3,1.6-1.3,1.3-2.3c-0.3-1-1.3-1.5-2.3-1.2s-1.5,1.3-1.3,2.3
			C393.6,401.8,394.7,402.4,395.7,402.1z"/>
		<path fill="#FFFFFF" d="M401.3,396.5c-1,0.3-1.5,1.4-1.2,2.3c0.3,1,1.4,1.5,2.4,1.1c1-0.3,1.5-1.4,1.1-2.4
			C403.3,396.7,402.2,396.2,401.3,396.5z"/>
		<path fill="#FFFFFF" d="M407.8,394c-0.9,0.4-1.4,1.4-1,2.4c0.4,0.9,1.5,1.4,2.4,1c1-0.4,1.4-1.5,1-2.4S408.8,393.6,407.8,394z"/>
		<path fill="#FFFFFF" d="M415.8,394.5c0.9-0.5,1.3-1.6,0.9-2.5s-1.5-1.3-2.5-0.8c-0.9,0.4-1.3,1.5-0.9,2.4
			C413.7,394.6,414.8,395,415.8,394.5z"/>
		<path fill="#FFFFFF" d="M422.2,391.3c0.9-0.5,1.2-1.6,0.7-2.5s-1.6-1.2-2.5-0.7s-1.2,1.6-0.8,2.5
			C420.1,391.4,421.2,391.8,422.2,391.3z"/>
		<path fill="#FFFFFF" d="M426.4,384.6c-0.9,0.5-1.1,1.7-0.6,2.5c0.5,0.9,1.7,1.1,2.6,0.6s1.2-1.7,0.6-2.5
			C428.4,384.3,427.3,384,426.4,384.6z"/>
		<path fill="#FFFFFF" d="M434.8,381.2c-0.6-0.8-1.7-1-2.6-0.4c-0.8,0.6-1,1.7-0.5,2.6c0.6,0.8,1.7,1.1,2.6,0.5
			C435.2,383.1,435.4,382,434.8,381.2z"/>
		<path fill="#FFFFFF" d="M440.1,379.5c0.8-0.6,1-1.8,0.3-2.6c-0.6-0.8-1.8-0.9-2.6-0.3c-0.8,0.6-0.9,1.8-0.3,2.6
			C438.1,380,439.3,380.1,440.1,379.5z"/>
		<path fill="#FFFFFF" d="M443.3,372.2c-0.8,0.7-0.9,1.8-0.2,2.6c0.7,0.8,1.8,0.9,2.6,0.2c0.8-0.7,0.9-1.9,0.2-2.6
			C445.2,371.6,444,371.5,443.3,372.2z"/>
		<path fill="#FFFFFF" d="M448.4,367.4c-0.7,0.7-0.8,1.9-0.1,2.6c0.7,0.7,1.9,0.8,2.6,0c0.8-0.7,0.8-1.9,0.1-2.6
			C450.3,366.8,449.1,366.7,448.4,367.4z"/>
	</g>
</g>
</svg>
