<?xml version="1.0" encoding="utf-8"?>
<!-- Generator: Adobe Illustrator 21.0.0, SVG Export Plug-In . SVG Version: 6.00 Build 0)  -->
<svg version="1.1" id="Objects" xmlns="http://www.w3.org/2000/svg" xmlns:xlink="http://www.w3.org/1999/xlink" x="0px" y="0px"
	 viewBox="0 0 708.7 566.9" enable-background="new 0 0 708.7 566.9" xml:space="preserve">
<rect x="286.2" y="272.7" fill-rule="evenodd" clip-rule="evenodd" fill="#91BBDE" width="138.9" height="96.6"/>
<g>
	<path fill-rule="evenodd" clip-rule="evenodd" fill="#315C80" d="M279.6,134.9c-15.9,8-9.8,21.9-22.6,35.5
		c-12.8,13.6-41,54.6-35.3,81.8c5.7,27.2,53.6,21.4,59.6-8.7c6-30.1,14.9-55.7,26.8-64.9c11.9-9.1,13.3-5.5,6.8-15.3
		C308.3,153.5,296.7,126.3,279.6,134.9z"/>
	<g>
		<path fill-rule="evenodd" clip-rule="evenodd" fill="#52BAAC" d="M293.9,119.2c3.6-7.4,16.1-31.8,17.9-39.8
			c1.8-8,8.4-16.7,17.1-15.9c8.7,0.8,13.2-2,15.6,3.2c2.4,5.2-0.6,6.8,1.1,13.4c1.7,6.5-7.5,21.1-12.9,28.3s-6.5,22.1-3.1,32.6
			c5.5,17.2-3.9,29.3-19.6,26.8c-15.6-2.5-25.7-18.2-23-35.2C287.7,128.1,291.7,123.6,293.9,119.2z"/>
		<g>
			<path fill-rule="evenodd" clip-rule="evenodd" fill="#84E0D4" d="M329.6,141L329.6,141c0.6,1.8,1,3.6,1.2,5.2
				c-8.1,1.2-17.3,1.4-25.4-1.9c-6.1-2.5-12.7-8.8-16.5-16c0.7-2.1,2.2-4,3.6-6c3.2,9.3,8.6,14.4,15,17
				C314.3,142.1,322.3,142,329.6,141z"/>
			<path fill-rule="evenodd" clip-rule="evenodd" fill="#84E0D4" d="M295.6,115.6c0.8-1.6,1.7-3.5,2.7-5.5
				c6.2,9.5,12.8,14.1,19.6,15.9c3.2,0.8,6.5,1.1,9.7,1c0,1.8,0,3.6,0.2,5.4c-3.7,0.1-7.5-0.1-11.3-1.2
				C309.3,129.2,302.2,124.7,295.6,115.6z"/>
			<path fill-rule="evenodd" clip-rule="evenodd" fill="#84E0D4" d="M300.4,106c0.8-1.7,1.6-3.4,2.5-5.1
				c7.1,6.9,13.6,10.4,19.7,11.9c2.5,0.6,5,0.9,7.4,1c-0.6,1.7-1.1,3.4-1.5,5.3c-2.3-0.1-4.7-0.5-7.2-1.1
				C314.7,116.4,307.8,112.8,300.4,106z"/>
			<path fill-rule="evenodd" clip-rule="evenodd" fill="#84E0D4" d="M305.7,94.9c0.8-1.8,1.6-3.5,2.3-5.1c10,8.1,20.7,9.4,30.8,9.6
				c-1.1,1.9-2.3,3.6-3.4,5.3C325.6,104.2,315.4,102.4,305.7,94.9z"/>
		</g>
	</g>
</g>
<g>
	<path fill-rule="evenodd" clip-rule="evenodd" fill="#666666" d="M381.1,176c-12.8,12.3-2.9,23.8-11,40.6
		c-8.1,16.8-22.8,64.3-9.2,88.6c13.6,24.3,57.6,4.4,54.3-26.1c-3.3-30.5-2.5-57.6,6.1-69.9c8.6-12.3,11-9.2,1.9-16.6
		C414.1,185.2,394.9,162.7,381.1,176z"/>
	<g>
		<path fill-rule="evenodd" clip-rule="evenodd" fill="#52BAAC" d="M390.1,156.7c1.2-8.1,5.9-35.1,5.2-43.3
			c-0.7-8.1,3-18.5,11.5-20.3c8.5-1.8,12-5.8,15.9-1.6c3.9,4.2,1.5,6.7,5.1,12.4c3.6,5.7-0.8,22.3-3.8,30.9c-3,8.6,0.4,23,6.8,32.1
			c10.4,14.8,5.1,29.1-10.7,31.5c-15.6,2.3-30-9.7-32.4-26.8C386.9,167.1,389.3,161.7,390.1,156.7z"/>
		<g>
			<path fill-rule="evenodd" clip-rule="evenodd" fill="#84E0D4" d="M430.6,166.9L430.6,166.9c1.1,1.6,2,3.1,2.8,4.6
				c-7.4,3.6-16.1,6.5-24.9,5.8c-6.6-0.5-14.7-4.6-20.5-10.3c0.1-2.2,0.9-4.5,1.6-6.8c5.8,7.9,12.5,11.2,19.3,11.7
				C416.4,172.5,424,170.1,430.6,166.9z"/>
			<path fill-rule="evenodd" clip-rule="evenodd" fill="#84E0D4" d="M390.7,152.8c0.3-1.8,0.6-3.8,1-6.1c8.7,7.2,16.4,9.6,23.4,9.3
				c3.3-0.1,6.5-0.9,9.6-2c0.5,1.7,1.1,3.4,1.8,5.1c-3.5,1.3-7.2,2.1-11.1,2.3C407.8,161.7,399.6,159.5,390.7,152.8z"/>
			<path fill-rule="evenodd" clip-rule="evenodd" fill="#84E0D4" d="M392.3,142.2c0.3-1.8,0.6-3.7,0.8-5.6
				c8.8,4.5,16.1,5.9,22.3,5.5c2.6-0.2,5-0.6,7.3-1.3c-0.1,1.8,0,3.6,0.2,5.5c-2.3,0.6-4.7,1-7.2,1.1
				C409.1,147.9,401.4,146.6,392.3,142.2z"/>
			<path fill-rule="evenodd" clip-rule="evenodd" fill="#84E0D4" d="M394.1,130c0.2-1.9,0.5-3.8,0.6-5.6c12,4.8,22.6,2.8,32.3,0
				c-0.5,2.1-1.1,4.2-1.7,6.1C415.9,133,405.6,134.3,394.1,130z"/>
		</g>
	</g>
</g>
<g>
	<g>
		<path fill-rule="evenodd" clip-rule="evenodd" fill="#666666" d="M415.9,166.2c16.8,5.7,12.8,20.3,27.3,32
			c14.5,11.7,48.2,48.4,46.2,76.1c-1.9,27.7-50.2,28.6-60.2-0.4c-10.1-29-22.4-53.1-35.5-60.5c-13-7.4-13.9-3.6-8.8-14.2
			C390,188.7,397.7,160.1,415.9,166.2z"/>
		<path fill-rule="evenodd" clip-rule="evenodd" fill="#315C80" d="M399.5,152.6c-4.6-6.8-20.4-29.3-23.2-36.9
			c-2.9-7.7-10.6-15.4-19.1-13.4c-8.5,2-13.3-0.1-15,5.3c-1.7,5.5,1.5,6.7,0.7,13.4c-0.8,6.7,10.3,19.8,16.7,26.3
			c6.4,6.4,9.5,21,7.6,31.9c-3,17.8,7.9,28.5,23.1,23.8c15.1-4.6,22.9-21.6,17.9-38.1C406.9,160.6,402.3,156.8,399.5,152.6z"/>
	</g>
	<path fill-rule="evenodd" clip-rule="evenodd" fill="#79A5C9" d="M345.4,129.3c9.7-2.1,21.8-4.9,30.3-15.1
		c-3.3-7.1-10.6-13.7-18.5-11.9c-8.5,2-13.3-0.1-15,5.3c-1.7,5.5,1.5,6.7,0.7,13.4C342.6,123.3,343.7,126.2,345.4,129.3z"/>
	<path fill-rule="evenodd" clip-rule="evenodd" fill="#79A5C9" d="M367.6,176.5c10,0.9,26.6,7.9,33.3,20.4c-2.9,2.8-6.5,5-10.5,6.2
		c-15.3,4.6-26.2-6-23.1-23.8C367.4,178.3,367.5,177.4,367.6,176.5z"/>
</g>
<path fill-rule="evenodd" clip-rule="evenodd" fill="#666666" d="M488.3,245.3c-6,18.1-64.4,64.7-90.9,71.7
	c-26.4,7-52.5-19.3-30.8-40.1c28.7-27.5,57.5-50.8,73.5-58C456,211.8,496.5,220.9,488.3,245.3z"/>
<path fill-rule="evenodd" clip-rule="evenodd" fill="#454545" d="M364.9,276.7c14.1-8.5,35.8-5.1,47.4,4.3
	C423.9,290.5,395.2,238.4,364.9,276.7z"/>
<path fill-rule="evenodd" clip-rule="evenodd" fill="#18364F" d="M434.9,271.9c-14.1-8.5-35.8-5.1-47.4,4.3
	C375.9,285.7,404.5,233.6,434.9,271.9z"/>
<g>
	<path fill-rule="evenodd" clip-rule="evenodd" fill="#FFA200" d="M320.3,154c14,10.9,5.4,23.4,15.3,39.2
		c9.9,15.8,29.5,61.5,18.6,87.1c-10.9,25.6-56.8,10.5-56.7-20.2c0-30.7-3.7-57.5-13.6-68.8c-9.9-11.3-12-8-3.7-16.3
		C288.5,166.6,305.2,142.2,320.3,154z"/>
	<g>
		<path fill-rule="evenodd" clip-rule="evenodd" fill="#52BAAC" d="M309.4,135.8c-2.1-8-9.6-34.3-9.8-42.5c-0.2-8.2-5-18-13.6-19
			c-8.6-0.9-12.6-4.5-16,0.1c-3.4,4.6-0.8,6.8-3.7,12.9c-3,6.1,3.2,22.1,7.1,30.3c3.9,8.2,2,22.9-3.3,32.6
			c-8.7,15.8-1.9,29.5,14,30.1c15.7,0.6,28.8-12.8,29.4-30.1C313.7,145.7,310.7,140.6,309.4,135.8z"/>
		<g>
			<path fill-rule="evenodd" clip-rule="evenodd" fill="#84E0D4" d="M270.1,150.2L270.1,150.2c-0.9,1.7-1.7,3.3-2.2,4.9
				c7.7,2.8,16.7,4.7,25.3,3.1c6.5-1.2,14.2-6.1,19.3-12.4c-0.3-2.2-1.3-4.4-2.4-6.6c-4.9,8.5-11.3,12.4-18,13.7
				C284.9,154.3,277,152.6,270.1,150.2z"/>
			<path fill-rule="evenodd" clip-rule="evenodd" fill="#84E0D4" d="M308.4,131.9c-0.5-1.7-1-3.7-1.6-5.9
				c-7.9,8.1-15.3,11.3-22.3,11.7c-3.3,0.2-6.5-0.2-9.7-1c-0.3,1.8-0.7,3.5-1.3,5.2c3.6,0.9,7.4,1.3,11.3,1.1
				C292.3,142.6,300.2,139.6,308.4,131.9z"/>
			<path fill-rule="evenodd" clip-rule="evenodd" fill="#84E0D4" d="M305.6,121.5c-0.5-1.8-0.9-3.6-1.4-5.5
				c-8.3,5.4-15.4,7.5-21.6,7.8c-2.6,0.1-5.1-0.1-7.4-0.5c0.3,1.7,0.4,3.6,0.4,5.5c2.3,0.3,4.7,0.5,7.3,0.4
				C289.5,128.9,297,126.8,305.6,121.5z"/>
			<path fill-rule="evenodd" clip-rule="evenodd" fill="#84E0D4" d="M302.6,109.6c-0.4-1.9-0.9-3.7-1.2-5.5
				c-11.4,6-22.2,5.2-32.1,3.4c0.7,2,1.5,4,2.3,5.8C281.2,114.9,291.5,115.1,302.6,109.6z"/>
		</g>
	</g>
</g>
<path fill-rule="evenodd" clip-rule="evenodd" fill="#FFA200" d="M226.6,245.2c6.1,17.6,64.4,59,90.9,63.7
	c19.4,3.4,38.7-11.2,38.9-26.6c0.1-5.6,4.1-22.7-1.6-27.7c-28.7-25-63.9-34.2-79.9-40C258.8,208.8,218.4,221.5,226.6,245.2z"/>
<path fill-rule="evenodd" clip-rule="evenodd" fill="#D18604" d="M274.5,271.9c14.1-8.5,35.8-5.1,47.4,4.3
	C333.5,285.7,304.8,233.6,274.5,271.9z"/>
<path fill-rule="evenodd" clip-rule="evenodd" fill="#52BAAC" d="M112.9,263.5c-0.8-11.5-8.1-63.2,21.2-64.2
	c29.4-1,24.4,20.7,26.7,30.4C163.3,239.4,136.3,291.3,112.9,263.5z"/>
<path fill-rule="evenodd" clip-rule="evenodd" fill="#52BAAC" d="M303.1,263.5c0.8-11.5,8.1-63.2-21.2-64.2
	c-29.4-1-24.4,20.7-26.7,30.4C252.8,239.4,279.8,291.3,303.1,263.5z"/>
<path fill-rule="evenodd" clip-rule="evenodd" fill="#379E90" d="M207.6,170.1c40.6,0,74.2,49.3,74.2,75.5
	c0,26.2-30.3,71.5-70.9,71.5c-40.6,0-76.1-45.3-76.1-71.5C134.9,219.4,167,170.1,207.6,170.1z"/>
<path fill-rule="evenodd" clip-rule="evenodd" fill="#F24660" d="M482.5,293c40.5,0,73.5-21.3,73.5-47.4c0-26.1-33-47.4-73.5-47.4
	s-73.5,21.3-73.5,47.4C409.1,271.7,442.1,293,482.5,293z"/>
<path fill-rule="evenodd" clip-rule="evenodd" fill="#753C20" d="M478.7,23.1c95.2,0,140.5,130.3,75.4,196.3
	c-29.4-8-62.6-19.1-153.7-0.6C335.2,152.8,383.5,23.1,478.7,23.1z"/>
<path fill-rule="evenodd" clip-rule="evenodd" fill="#F24660" d="M387.1,263.5c-0.8-11.5-8.1-63.2,21.2-64.2
	c29.4-1,24.4,20.7,26.7,30.4C437.5,239.4,410.5,291.3,387.1,263.5z"/>
<path fill-rule="evenodd" clip-rule="evenodd" fill="#F24660" d="M407.3,301.3c14.4,0,26.2-11.4,26.2-25.3s-11.8-25.3-26.2-25.3
	c-14.4,0-26.2,11.4-26.2,25.3S392.9,301.3,407.3,301.3z"/>
<g>
	<path fill-rule="evenodd" clip-rule="evenodd" fill="#F2AC71" d="M569.3,116.7c-8-2.1-17.2,5.6-20.4,17.4
		c-3.3,11.7,0.6,23,8.6,25.1c8,2.1,17.2-5.6,20.4-17.4C581.2,130.1,577.3,118.9,569.3,116.7z"/>
	<path fill-rule="evenodd" clip-rule="evenodd" fill="#F2AC71" d="M385.9,116.7c7.9-2.1,17.5,5.6,21.5,17.4c4,11.7,0.9,23-7,25.1
		c-7.9,2.1-17.5-5.6-21.5-17.4C374.9,130.1,378,118.9,385.9,116.7z"/>
</g>
<path fill-rule="evenodd" clip-rule="evenodd" fill="#F2AC71" d="M480.8,229.3c16.2,0,46.4-11,64.6-33.9
	c18.2-22.8,23.2-71.8,19.4-96.4c-3.8-24.6-35.3-70.5-90-70.5c-54.7,0-83.3,45.9-85.5,70.5c-2.2,24.6,11.4,72.8,25.4,92.4
	C428.8,211,464.6,229.3,480.8,229.3z"/>
<path fill-rule="evenodd" clip-rule="evenodd" fill="#753C20" d="M503.4,117.9c6.8-1,10.3-4.6,21.3-2.3c7.4,1.6,10.9-0.3,2-3.1
	c-7.8-2.5-15.5-2.9-23.7-1.9C495.7,111.5,497.3,118.8,503.4,117.9z"/>
<path fill-rule="evenodd" clip-rule="evenodd" fill="#CC8C58" d="M476.9,173.4c14.3-1.9,11.4-11.3,11.3-20
	C492.8,164.2,497.1,174.1,476.9,173.4z"/>
<path fill-rule="evenodd" clip-rule="evenodd" fill="#753C20" d="M457.4,117.6c-6.9-1-15.3-2.8-22.7-1.7c-7.4,1.1-9.7-0.6-0.9-3.4
	c7.6-2.5,15.3-2.9,23.6-1.9C464.7,111.5,463.6,118.5,457.4,117.6z"/>
<path fill-rule="evenodd" clip-rule="evenodd" fill="#F49B74" d="M520.7,156.8c9.4,1.8,16.3,7.1,15.4,11.7c-0.9,4.6-9.3,6.8-18.7,5
	c-9.4-1.8-16.3-7.1-15.4-11.7C502.9,157.2,511.3,154.9,520.7,156.8z"/>
<path fill-rule="evenodd" clip-rule="evenodd" fill="#F49B74" d="M440.7,156.8c-9.3,1.8-15.8,7.1-14.6,11.7c1.2,4.6,9.7,6.8,19,5
	c9.3-1.8,15.8-7.1,14.6-11.7C458.5,157.2,450,154.9,440.7,156.8z"/>
<line fill-rule="evenodd" clip-rule="evenodd" fill="none" stroke="#F24660" stroke-width="2.4001" stroke-miterlimit="22.9256" x1="530.6" y1="145.1" x2="553.1" y2="124.2"/>
<g>
	<g>
		
			<path fill-rule="evenodd" clip-rule="evenodd" fill="none" stroke="#F24660" stroke-width="2.4001" stroke-miterlimit="22.9256" d="
			M443.6,126.1c-11.4,0-20.3,9.2-19.9,20.6c0.4,11.4,9.9,20.6,21.2,20.6c11.4,0,20.3-9.2,19.9-20.6
			C464.5,135.3,455,126.1,443.6,126.1z"/>
		
			<path fill-rule="evenodd" clip-rule="evenodd" fill="none" stroke="#F24660" stroke-width="2.4001" stroke-miterlimit="22.9256" d="
			M510.1,126.1c-11.4,0-20.3,9.2-19.9,20.6c0.4,11.4,9.9,20.6,21.2,20.6c11.4,0,20.3-9.2,19.9-20.6
			C531,135.3,521.5,126.1,510.1,126.1z"/>
	</g>
	
		<path fill-rule="evenodd" clip-rule="evenodd" fill="none" stroke="#F24660" stroke-width="2.4001" stroke-miterlimit="22.9256" d="
		M490.7,151.5c-1.3-5.5-6.9-9.7-13.4-9.7c-6.5,0-11.8,4.2-12.8,9.7"/>
</g>
<line fill-rule="evenodd" clip-rule="evenodd" fill="none" stroke="#F24660" stroke-width="2.4001" stroke-miterlimit="22.9256" x1="423.9" y1="143.9" x2="402.9" y2="124.2"/>
<path fill-rule="evenodd" clip-rule="evenodd" fill="#753C20" d="M412.7,101.2c-6.6,18.5-9,39.4-8.5,46.3
	c0.5,6.8-22.4-19.8-18.7-41.9C389.1,83.5,421.1,79.1,412.7,101.2z"/>
<path fill-rule="evenodd" clip-rule="evenodd" fill="#753C20" d="M540.1,99.3c4.7,13.7,13.3,38.2,12.8,45.1
	c-0.5,6.8,20-16.8,16.3-38.9C565.5,83.5,531.7,77.3,540.1,99.3z"/>
<path fill-rule="evenodd" clip-rule="evenodd" fill="#753C20" d="M385.1,105.8c7.2,0.6,17.8,1,30.2,1.2
	c4.8-20.5,18.6-35.5,23.8-40.6c-8.4,15.9-12.9,29.7-13.2,40.7c15.2,0.1,32.3-0.1,49.6-0.4c0.2-11,1.4-25.4,4.1-43.7
	c2.3,8.5,3.2,25.5,3.9,43.5c12.9-0.3,25.7-0.8,37.6-1.3c-1.2-10.3-5.5-22.8-12.9-37c4.8,4.9,16.7,18.4,22.4,36.5
	c15.7-0.9,29.1-1.9,38-3.1c-5.4-27.2-27.7-72.3-92.3-73.7C411.7,26.4,385.2,72.2,385.1,105.8z"/>
<g>
	<path fill-rule="evenodd" clip-rule="evenodd" fill="#F2AC71" d="M116.3,116.7c7.9-2.1,17.3,5.6,21,17.4c3.7,11.7,0.2,23-7.8,25.1
		c-7.9,2.1-17.3-5.6-21-17.4C104.9,130.1,108.4,118.9,116.3,116.7z"/>
	<path fill-rule="evenodd" clip-rule="evenodd" fill="#F2AC71" d="M299.7,116.7c-7.9-2.1-17.3,5.6-21,17.4
		c-3.7,11.7-0.2,23,7.8,25.1c7.9,2.1,17.3-5.6,21-17.4C311.1,130.1,307.7,118.9,299.7,116.7z"/>
</g>
<path fill-rule="evenodd" clip-rule="evenodd" fill="#F2AC71" d="M209.2,233.3c-16.2,0-61.8-22.2-74.4-37.9
	c-12.6-15.6-17.5-71.8-14.5-96.4c3-24.6,33-70.5,87.7-70.5s84.7,45.9,87.7,70.5c3,24.6-1.9,80.8-14.5,96.4
	C268.6,211,225.4,233.3,209.2,233.3z"/>
<path fill-rule="evenodd" clip-rule="evenodd" fill="#F49B74" d="M169.6,156.6c-7.4,1.5-12.7,5.6-11.8,9.2c0.8,3.6,7.5,5.4,14.9,3.9
	c7.4-1.5,12.7-5.6,11.8-9.2C183.6,156.9,177,155.2,169.6,156.6z"/>
<path fill-rule="evenodd" clip-rule="evenodd" fill="#4E2700" d="M232.6,118.8c6.9-0.3,15.8-1.9,23.1-0.1c7.3,1.8,9.5-0.3,0.9-4
	c-7.5-3.2-15-4.4-23.3-4.1C225.9,110.7,226.4,119.1,232.6,118.8z"/>
<path fill-rule="evenodd" clip-rule="evenodd" fill="#CC8C58" d="M210.5,173.4c-14.4-1.9-11.8-11.3-11.9-20
	C194.3,164.2,190.3,174.1,210.5,173.4z"/>
<path fill-rule="evenodd" clip-rule="evenodd" fill="#381C00" d="M119.4,134.7c-3.9-20.9-12.7-62.3-3.1-67.1
	c9.6-4.8,19.3-7.2,12.9-15.3c-6.4-8,11.3-35.4,43.4-35.4c32.2,0,79.6,16.9,101.3,22.5c21.7,5.6,20.4,4,26.9,0.8
	c6.4-3.2-9.6,20.9,1.6,20.9c11.3,0,1.8,17.5-3.1,54.7c-5,37.2-10.3,43.1-13.8,4.3c-4.5-50.4-9.4-46.1-31.8-33.2
	c-28.2,16.3-41.2,16.8-83.6-0.6c-36.4-14.9-35.8,17.4-38.2,46.1C129.4,161.2,122.7,151.9,119.4,134.7z"/>
<path fill-rule="evenodd" clip-rule="evenodd" fill="#4E2700" d="M182.1,118.8c-6.9-0.3-15.8-1.9-23.1-0.1c-7.3,1.8-9.5-0.3-0.9-4
	c7.5-3.2,15-4.4,23.3-4.1C188.9,110.7,188.3,119.1,182.1,118.8z"/>
<path fill-rule="evenodd" clip-rule="evenodd" fill="#542C03" d="M155.8,32.8c19.9-13.3,67.8-1.9,95.4,10.5
	c27.5,12.3,49.4,1.8,35.6,11.9c-10.7,7.8,12,13.6,9.9,30.2c-2.8,22.8-8,0.3-10.5-7.2c-4.3-12.8-22.2-18.6-39-6.9
	c-23.5,16.2-73.9,3.8-85.3-2.9c-11.4-6.6-24.3,4.7-29.4,13.5c-6.7,11.6-8.1,19.3-10.8,9c-4.3-16.8,7.3-19.2,15.8-28.1
	C147.6,52.2,137.3,45.3,155.8,32.8z"/>
<path fill-rule="evenodd" clip-rule="evenodd" fill="#F49B74" d="M258.4,151c7.5-0.9,13.8,1.4,14.1,5.1c0.3,3.7-5.5,7.4-12.9,8.3
	c-7.5,0.9-13.8-1.4-14.1-5.1C245.2,155.6,251,151.9,258.4,151z"/>
<path fill-rule="evenodd" clip-rule="evenodd" fill="#CC8C58" d="M413.9,190.1c4.3-2.5,13.6-0.7,19.1,5.4c5.4,6.1,6.1,12.7,6.1,12.7
	s8.4,3.9,7.7,9.8C446.2,223.9,409.9,202.8,413.9,190.1z"/>
<path fill-rule="evenodd" clip-rule="evenodd" fill="#F2AC71" d="M436.8,210c19.4,7.9,16.5,28,2.4,61.7
	c-14.1,33.7-27.5,29.9-41.6,22c-10.5-8.8-6.3-25.9,0.8-33c7.1-7.2,28.9-30.9,26.3-31.9c-2.6-1-22.2-12-23-22
	c-0.8-10,5.6-16.9,15.3-16.9S439.7,203.8,436.8,210z"/>
<path fill-rule="evenodd" clip-rule="evenodd" fill="#CC8C58" d="M436.7,210c-6.7-2.9-11.8-10.4-17.4-9.5
	C423.3,200.5,426.6,207,436.7,210z"/>
<path fill-rule="evenodd" clip-rule="evenodd" fill="#F24660" d="M577.3,263.5c0.8-11.5,8.1-63.2-21.2-64.2
	c-29.4-1-24.4,20.7-26.7,30.4C527,239.4,554,291.3,577.3,263.5z"/>
<path fill-rule="evenodd" clip-rule="evenodd" fill="#F24660" d="M557.1,301.3c14.4,0,26.2-11.4,26.2-25.3s-11.8-25.3-26.2-25.3
	c-14.4,0-26.2,11.4-26.2,25.3S542.7,301.3,557.1,301.3z"/>
<path fill-rule="evenodd" clip-rule="evenodd" fill="#CC8C58" d="M550.5,190.1c-4.3-2.5-13.6-0.7-19.1,5.4
	c-5.4,6.1-6.1,12.7-6.1,12.7s-8.4,3.9-7.7,9.8C518.3,223.9,554.6,202.8,550.5,190.1z"/>
<path fill-rule="evenodd" clip-rule="evenodd" fill="#F2AC71" d="M527.7,210c-19.4,7.9-16.5,28-2.4,61.7
	c14.1,33.7,27.5,29.9,41.6,22c10.5-8.8,6.3-25.9-0.8-33c-7.1-7.2-28.9-30.9-26.3-31.9c2.6-1,22.2-12,23-22
	c0.8-10-5.6-16.9-15.3-16.9C537.8,190,524.7,203.8,527.7,210z"/>
<path fill-rule="evenodd" clip-rule="evenodd" fill="#CC8C58" d="M527.7,210c6.7-2.9,11.8-10.4,17.4-9.5
	C541.1,200.5,537.9,207,527.7,210z"/>
<path fill-rule="evenodd" clip-rule="evenodd" fill="#52BAAC" d="M282.9,301.3c14.4,0,26.2-11.4,26.2-25.3s-11.8-25.3-26.2-25.3
	c-14.4,0-26.2,11.4-26.2,25.3S268.5,301.3,282.9,301.3z"/>
<path fill-rule="evenodd" clip-rule="evenodd" fill="#CC8C58" d="M276.3,190.1c-4.3-2.5-13.6-0.7-19.1,5.4
	c-5.4,6.1-6.1,12.7-6.1,12.7s-8.4,3.9-7.7,9.8C244.1,223.9,280.4,202.8,276.3,190.1z"/>
<path fill-rule="evenodd" clip-rule="evenodd" fill="#F2AC71" d="M253.5,210c-19.4,7.9-16.5,28-2.4,61.7
	c14.1,33.7,27.5,29.9,41.6,22c10.5-8.8,6.3-25.9-0.8-33c-7.1-7.2-28.9-30.9-26.3-31.9c2.6-1,22.2-12,23-22
	c0.8-10-5.6-16.9-15.3-16.9S250.5,203.8,253.5,210z"/>
<path fill-rule="evenodd" clip-rule="evenodd" fill="#CC8C58" d="M253.5,210c6.7-2.9,11.8-10.4,17.4-9.5
	C266.9,200.5,263.7,207,253.5,210z"/>
<path fill-rule="evenodd" clip-rule="evenodd" fill="#914C2A" d="M476,25.6c-14.5,0.5-57.2,12-75.6,43.2c-18.4,31.2-21.6,40-12.4,32
	c9.2-8,10.4-7.6,12,0.4c1.6,8,2,7.6,10.8-10.4c8.8-18,50.4-56,44-42.4c-6.4,13.6-15.2,51.2-8,35.6c7.2-15.6,19.6-39.2,16.4-20.4
	c-3.2,18.8,2,30.8,6,9.6c4-21.2,18-48.4,21.6-26.8c3.6,21.6,13.6,42.8,10.4,23.6c-3.2-19.2,5.2-24,14.4-12c9.2,12,20.8,28,18.8,14.4
	c-2-13.6-5.7-20.5,4.8-10c10.8,10.8,27.3,59.2,23.6,38c-2.4-13.6-2.4-31.2-25.6-51.6C516.8,30.9,495.2,24.9,476,25.6z"/>
<polygon fill-rule="evenodd" clip-rule="evenodd" fill="#808080" points="577.8,311.4 642.8,420 380.8,471.1 375,350.9 "/>
<rect x="228.8" y="232.4" transform="matrix(0.1909 -0.9816 0.9816 0.1909 -140.4118 501.0363)" fill-rule="evenodd" clip-rule="evenodd" fill="#379E90" width="9.8" height="206.6"/>
<path fill-rule="evenodd" clip-rule="evenodd" fill="#DCCEB1" d="M615.6,425.3l-233.6,45.6L356.2,446c31.1-32.4,154-86.3,252.8-54.1
	C608.7,404.5,610.6,415.8,615.6,425.3z"/>
<path fill-rule="evenodd" clip-rule="evenodd" fill="#BAAB8E" d="M609.1,391.8l-40.6-67.5c-77.6-25.3-189.7-17.7-214.1,7.8
	l1.9,113.9C393.5,412.9,498.1,367.5,609.1,391.8z"/>
<polygon fill-rule="evenodd" clip-rule="evenodd" fill="#808080" points="133.3,311.1 68.3,419.7 330.3,470.9 336.1,350.6 "/>
<path fill-rule="evenodd" clip-rule="evenodd" fill="#DCCEB1" d="M96.7,425.3l233.6,45.6l25.9-24.9c-31.1-32.4-154.2-86.3-253-54.1
	C103.6,404.5,101.7,415.8,96.7,425.3z"/>
<path fill-rule="evenodd" clip-rule="evenodd" fill="#BAAB8E" d="M356.2,446c14.3,0,26,11.6,26,26c0,0.3,0,0.7,0,1
	c-8.3,1.1-16.7,1.7-25.1,1.7c-9,0-18-0.6-26.8-1.9c0-0.3,0-0.5,0-0.8C330.3,457.6,341.9,446,356.2,446z"/>
<rect x="192" y="317.8" transform="matrix(0.1909 -0.9816 0.9816 0.1909 -282.6609 559.7635)" fill-rule="evenodd" clip-rule="evenodd" fill="#666666" width="12.5" height="267.2"/>
<rect x="380.7" y="445.2" transform="matrix(0.9816 -0.1909 0.1909 0.9816 -76.7479 106.3487)" fill-rule="evenodd" clip-rule="evenodd" fill="#666666" width="265.8" height="12.5"/>
<path fill="#666666" d="M384.1,483.2c-9,1.2-18.1,1.8-27.3,1.8c-9.6,0-19.3-0.7-28.7-2.1l2.4-12.3c8.6,1.2,17.5,1.8,26.3,1.8
	c8.4,0,16.8-0.6,25.1-1.6l2.4,12.1L384.1,483.2z"/>
<path fill-rule="evenodd" clip-rule="evenodd" fill="#C4F5EE" d="M103.2,391.8l54.4-103.2c77.6-25.3,172.3,18,196.7,43.4l1.9,113.9
	C325.1,413.5,202,359.6,103.2,391.8z"/>
<path fill-rule="evenodd" clip-rule="evenodd" fill="#A6E6DC" d="M595.3,356.2l-52.8-81.4c-79.3-20-163.8,31.9-188.2,57.4l1.9,113.9
	C388.4,408,493.8,337.8,595.3,356.2z"/>
<path fill-rule="evenodd" clip-rule="evenodd" fill="#BAAB8E" d="M282.2,420.2c-12-6.3-80.7-22-112.8-22.9
	C203.3,391.9,272.8,410.6,282.2,420.2z"/>
<path fill-rule="evenodd" clip-rule="evenodd" fill="#BAAB8E" d="M324.6,463.1c-11.7-6.7-67.7-21.8-99.8-23.8
	C258.8,435,315.5,453.3,324.6,463.1z"/>
<path fill-rule="evenodd" clip-rule="evenodd" fill="#BAAB8E" d="M219,422.8c-18.8-5.2-71.3-15.1-103.4-17
	C152,400.7,205.3,413.2,219,422.8z"/>
<path fill-rule="evenodd" clip-rule="evenodd" fill="#BAAB8E" d="M326.5,452.7c-11.5-7.1-66.9-24.4-98.8-27.6
	C261.8,422.2,317.8,442.6,326.5,452.7z"/>
<g>
	<path fill-rule="evenodd" clip-rule="evenodd" fill="#52BAAC" d="M131,311.1c17.1,0,31-12.5,31-27.8c0-15.3-13.9-27.8-31-27.8
		c-17.1,0-31,12.5-31,27.8C99.9,298.6,113.9,311.1,131,311.1z"/>
	<path fill-rule="evenodd" clip-rule="evenodd" fill="#F2AC71" d="M191.4,317.5c16.2,7.2-9.3,30.9-23.3,17.8
		c-9.2-8.6-16.4-9.1-29-15.2c-32.9-16-25.4-35.5-14.9-44.7c10.4-9,26.6-2,32.4,6.2C162.5,289.8,179.9,312.4,191.4,317.5z"/>
	<path fill-rule="evenodd" clip-rule="evenodd" fill="#F2AC71" d="M223.7,333c6,2.5,12,6.4,7.8,9.7
		C227.3,346.2,212.6,331.6,223.7,333z"/>
	<path fill-rule="evenodd" clip-rule="evenodd" fill="#CC8C58" d="M223.7,333c2.8,1.9,7.9,5.8,7.8,9.7
		C231.4,346.7,214.8,335.3,223.7,333z"/>
	<path fill-rule="evenodd" clip-rule="evenodd" fill="#F2AC71" d="M195.6,354.6c2.7,4.6,11.1,9.4,16.2,3.1c0,0,4.3,2.1,8.1-0.4
		c3.7-2.5,2.8-5.5,2.8-5.5s12.4,8.6,16.3,5.3c3.9-3.4-2.1-5.8-6.4-12.7c-4.3-6.9-15.2-19.1-19.8-20.7c-4.6-1.5-11.4-0.8-21.4-6.3
		c-10-5.5-31.4,6.7-23.8,17.1C170.1,338,191,365.6,195.6,354.6z"/>
	<path fill-rule="evenodd" clip-rule="evenodd" fill="#CC8C58" d="M222.8,351.8c-3-2.9-8.1-12.1-13.1-11.7
		C215.3,343.9,217.6,349.6,222.8,351.8z"/>
	<path fill-rule="evenodd" clip-rule="evenodd" fill="#CC8C58" d="M211.9,357.7c-3.3-2.1-8.5-11-13.1-11.7
		C203.4,350,206.1,355.6,211.9,357.7z"/>
	<path fill-rule="evenodd" clip-rule="evenodd" fill="#CC8C58" d="M195.6,354.6c-1.7-1.1-2.9-4.3-5.6-4.9
		C192.4,352.2,193.1,354.6,195.6,354.6z"/>
</g>
<g>
	<path fill-rule="evenodd" clip-rule="evenodd" fill="#C98664" d="M313.1,336h4.9v17.5c-1.7,1.3-3.4,1.4-4.9,0V336z"/>
	<ellipse fill-rule="evenodd" clip-rule="evenodd" fill="#52BAAC" cx="315.6" cy="319.9" rx="14.1" ry="22.7"/>
</g>
<g>
	<path fill-rule="evenodd" clip-rule="evenodd" fill="#C98664" d="M228.4,314.7h5.5v11c-1.9,0.8-3.8,0.9-5.5,0V314.7z"/>
	<path fill-rule="evenodd" clip-rule="evenodd" fill="#FFA200" d="M231.2,260.2c10.2,16.2,15.9,34.4,16,55
		c-10.4,3.3-21.1,3.7-31.9,0C216.2,296.9,222.3,278.6,231.2,260.2z"/>
</g>
<path fill-rule="evenodd" clip-rule="evenodd" fill="#E8DEC7" d="M280.9,424.7c-12-6.3-68.4-19.7-100.5-20.6
	C214.8,400.5,272,416.6,280.9,424.7z"/>
<path fill-rule="evenodd" clip-rule="evenodd" fill="#E8DEC7" d="M326.7,458.4c-10.3-7.4-65.9-23.5-99.5-25.2
	C261.4,429.4,317.8,448.4,326.7,458.4z"/>
<path fill-rule="evenodd" clip-rule="evenodd" fill="#E8DEC7" d="M215,429.4c-10.9-6.4-67.8-17-101.4-15.5
	C147.1,406.7,205.1,420.3,215,429.4z"/>
<path fill-rule="evenodd" clip-rule="evenodd" fill="#BAAB8E" d="M395.4,433.8c21.4-11.6,117.5-35.7,149.6-36.6
	C511.2,391.9,414.3,417.5,395.4,433.8z"/>
<path fill-rule="evenodd" clip-rule="evenodd" fill="#BAAB8E" d="M498.2,436.5c18.8-5.2,71.3-15.1,103.4-17
	C565.2,414.4,512,426.9,498.2,436.5z"/>
<path fill-rule="evenodd" clip-rule="evenodd" fill="#BAAB8E" d="M388,452.7c11.5-7.1,66.9-24.4,98.8-27.6
	C452.6,422.2,396.7,442.6,388,452.7z"/>
<path fill-rule="evenodd" clip-rule="evenodd" fill="#E8DEC7" d="M396.8,440.4c12-6.3,105.2-35.5,137.3-36.4
	C499.6,400.5,413.6,428.1,396.8,440.4z"/>
<path fill-rule="evenodd" clip-rule="evenodd" fill="#E8DEC7" d="M387.7,458.4c10.3-7.4,65.9-23.5,99.5-25.2
	C453.1,429.4,396.7,448.4,387.7,458.4z"/>
<path fill-rule="evenodd" clip-rule="evenodd" fill="#E8DEC7" d="M498,430.3c10.9-6.4,67.8-17,101.4-15.5
	C565.8,407.7,507.8,421.2,498,430.3z"/>
<g>
	<path fill-rule="evenodd" clip-rule="evenodd" fill="#C98664" d="M329.6,400.6h5.5v11c-1.9,0.8-3.8,0.9-5.5,0V400.6z"/>
	<path fill-rule="evenodd" clip-rule="evenodd" fill="#FFA200" d="M332.4,346.1c10.2,16.2,15.9,34.4,16,55c-10.4,3.3-21,3.7-31.9,0
		C317.4,382.8,323.5,364.4,332.4,346.1z"/>
</g>
<g>
	<path fill-rule="evenodd" clip-rule="evenodd" fill="#C98664" d="M158.9,346.2h4.9v17.2c-1.7,1.2-3.3,1.3-4.9,0V346.2z"/>
	<ellipse fill-rule="evenodd" clip-rule="evenodd" fill="#52BAAC" cx="161.4" cy="334.6" rx="17.3" ry="18.1"/>
</g>
<g>
	<polygon fill-rule="evenodd" clip-rule="evenodd" fill="#FFA200" points="404.3,334.8 426.8,355.3 462.4,345.4 455.9,320.5 	"/>
	<polygon fill-rule="evenodd" clip-rule="evenodd" fill="#FFA200" points="510.7,305.3 455.5,320.6 462.4,345.4 497,335.8 	"/>
	<path fill-rule="evenodd" clip-rule="evenodd" fill="#52BAAC" d="M411.1,329.7l43.5-12c0,0-17.8-64.3-20.5-74.2
		C404.2,281,411.1,329.7,411.1,329.7z"/>
	<path fill-rule="evenodd" clip-rule="evenodd" fill="#379E90" d="M439.7,252.1c2.4,8.5,17.8,64.4,17.8,64.4l37.8-10.5
		C495.4,306.1,478.7,266.7,439.7,252.1z"/>
	<polygon fill-rule="evenodd" clip-rule="evenodd" fill="#F24660" points="408.5,338.6 412.5,342.3 458.4,329.6 457.2,325.1 	"/>
	<polygon fill-rule="evenodd" clip-rule="evenodd" fill="#F24660" points="508.1,311 456.8,325.2 458,329.7 505.7,316.5 	"/>
</g>
<g>
	<g>
		<path fill-rule="evenodd" clip-rule="evenodd" fill="#379E90" d="M404.6,342.9c-12.3,7.8-16,24-8.2,36.3l22.3-14.1L404.6,342.9z"
			/>
		<path fill-rule="evenodd" clip-rule="evenodd" fill="#52BAAC" d="M409.2,350.2c-8.3,5.2-10.8,16.2-5.5,24.5l15-9.5L409.2,350.2z"
			/>
		<path fill-rule="evenodd" clip-rule="evenodd" fill="#7DD4C8" d="M414.6,358.8c-3.5,2.2-4.6,6.9-2.4,10.5l6.4-4.1L414.6,358.8z"/>
	</g>
	<g>
		<path fill-rule="evenodd" clip-rule="evenodd" fill="#379E90" d="M439.6,328.4c-13.5,5.5-19.9,20.9-14.3,34.4l24.4-10L439.6,328.4
			z"/>
		<path fill-rule="evenodd" clip-rule="evenodd" fill="#52BAAC" d="M442.9,336.4c-9.1,3.7-13.4,14.1-9.6,23.1l16.4-6.8L442.9,336.4z
			"/>
		<path fill-rule="evenodd" clip-rule="evenodd" fill="#7DD4C8" d="M446.8,345.8c-3.9,1.6-5.7,6-4.1,9.9l7-2.9L446.8,345.8z"/>
	</g>
	<g>
		<path fill-rule="evenodd" clip-rule="evenodd" fill="#379E90" d="M476.9,316.8c-13.9,4.2-21.7,19-17.5,32.9l25.2-7.7L476.9,316.8z
			"/>
		<path fill-rule="evenodd" clip-rule="evenodd" fill="#52BAAC" d="M479.4,325c-9.4,2.9-14.6,12.8-11.8,22.1l17-5.2L479.4,325z"/>
		
			<path fill-rule="evenodd" clip-rule="evenodd" fill="#A9D3F5" stroke="#7DD4C8" stroke-width="0.216" stroke-miterlimit="22.9256" d="
			M482.4,334.7c-4,1.2-6.3,5.5-5,9.5l7.3-2.2L482.4,334.7z"/>
	</g>
	<g>
		<path fill-rule="evenodd" clip-rule="evenodd" fill="#379E90" d="M514.9,309.2c-14.2,2.9-23.4,16.9-20.5,31.1l25.8-5.3
			L514.9,309.2z"/>
		<path fill-rule="evenodd" clip-rule="evenodd" fill="#52BAAC" d="M516.6,317.6c-9.6,2-15.8,11.4-13.8,20.9l17.4-3.6L516.6,317.6z"
			/>
		<path fill-rule="evenodd" clip-rule="evenodd" fill="#7DD4C8" d="M518.7,327.5c-4.1,0.8-6.8,4.9-5.9,9l7.4-1.5L518.7,327.5z"/>
	</g>
	<g>
		<path fill-rule="evenodd" clip-rule="evenodd" fill="#379E90" d="M553.8,306.2c-14.5,1-25.5,13.5-24.5,28.1l26.3-1.8L553.8,306.2z
			"/>
		<path fill-rule="evenodd" clip-rule="evenodd" fill="#52BAAC" d="M554.4,314.8c-9.8,0.7-17.2,9.1-16.5,18.9l17.7-1.2L554.4,314.8z
			"/>
		<path fill-rule="evenodd" clip-rule="evenodd" fill="#7DD4C8" d="M555.1,324.9c-4.2,0.3-7.4,3.9-7.1,8.1l7.6-0.5L555.1,324.9z"/>
	</g>
</g>
<g>
	<path fill-rule="evenodd" clip-rule="evenodd" fill="#F24660" d="M268.4,323.6l-9.7-4.1c-4.1-1.7-10.4,1.6-15.2,2.4
		c-3.4,0.6-4.8,0-6.4-0.2c-2.3-0.4-4,0.5-5,1.3c-1,0.8-2.3,3.2-2.8,4.3c-0.6,1.3,0.1,2.3,1,2.7l41.1,17.3c0.9,0.4,1.8-0.5,2.2-1.4
		c0.7-1.3,2-3.8,2.2-5.3C276.8,335.8,276.2,327,268.4,323.6z"/>
	<path fill-rule="evenodd" clip-rule="evenodd" fill="#C93047" d="M229.3,327.4c0.1-0.2,0.2-0.3,0.2-0.5l44.6,18.1
		c-0.2,0.4-0.4,0.8-0.6,1.1c-0.4,0.8-1.3,1.7-2.2,1.4L230.3,330C229.4,329.7,228.8,328.7,229.3,327.4z"/>
	<path fill-rule="evenodd" clip-rule="evenodd" fill="#C93047" d="M269.3,346.5c1.8-4.2-0.2-7-3.4-8.4c-3.3-1.4-6.6-0.8-8.4,3.4
		L269.3,346.5z"/>
	
		<ellipse transform="matrix(0.3889 -0.9213 0.9213 0.3889 -156.0574 452.9191)" fill-rule="evenodd" clip-rule="evenodd" fill="#666666" cx="263.4" cy="344.1" rx="5" ry="5"/>
	
		<ellipse transform="matrix(0.3889 -0.9213 0.9213 0.3889 -156.0538 452.9319)" fill-rule="evenodd" clip-rule="evenodd" fill="#CCCCCC" cx="263.4" cy="344.1" rx="3.4" ry="3.4"/>
	<path fill-rule="evenodd" clip-rule="evenodd" fill="#C93047" d="M244.4,336c1.8-4.2-0.2-7-3.4-8.4c-3.3-1.4-6.6-0.8-8.4,3.4
		L244.4,336z"/>
	
		<ellipse transform="matrix(0.3888 -0.9213 0.9213 0.3888 -161.5849 423.5786)" fill-rule="evenodd" clip-rule="evenodd" fill="#666666" cx="238.5" cy="333.6" rx="5" ry="5"/>
	
		<ellipse transform="matrix(0.3889 -0.9213 0.9213 0.3889 -161.5929 423.5447)" fill-rule="evenodd" clip-rule="evenodd" fill="#CCCCCC" cx="238.5" cy="333.6" rx="3.4" ry="3.4"/>
	<path fill-rule="evenodd" clip-rule="evenodd" fill="#FFFFFF" d="M257.7,320.5c0,0-6.1-1.4-12.1,3.5l9,3.8L257.7,320.5z"/>
	
		<rect x="258" y="321.4" transform="matrix(0.3889 -0.9213 0.9213 0.3889 -140.8073 440.9054)" fill-rule="evenodd" clip-rule="evenodd" fill="#FFFFFF" width="8" height="10.3"/>
	<path fill-rule="evenodd" clip-rule="evenodd" fill="#FFFFFF" d="M269.3,325.4l-3.1,7.3c0,0,4.5,1.9,7.2,3
		C276.2,336.9,274.5,327.8,269.3,325.4z"/>
	<path fill-rule="evenodd" clip-rule="evenodd" fill="#C93047" d="M253.3,328.8c-0.1,0.2,0,0.4,0.2,0.5l1.3,0.5
		c0.2,0.1,0.4,0,0.5-0.2l0.1-0.3c0.1-0.2,0-0.4-0.2-0.5l-1.3-0.5c-0.2-0.1-0.4,0-0.5,0.2L253.3,328.8z"/>
	<path fill-rule="evenodd" clip-rule="evenodd" fill="#C93047" d="M263.2,333c-0.1,0.2,0,0.4,0.2,0.5l1.3,0.5c0.2,0.1,0.4,0,0.5-0.2
		l0.1-0.3c0.1-0.2,0-0.4-0.2-0.5l-1.3-0.5c-0.2-0.1-0.4,0-0.5,0.2L263.2,333z"/>
	<path fill-rule="evenodd" clip-rule="evenodd" fill="#C93047" d="M244.4,323.8c-0.1,0.3,0.1,0.6,0.4,0.6l1.7,0.5
		c0.3,0.1,0.6-0.1,0.6-0.4l0.1-0.4c0.1-0.3-0.1-0.6-0.4-0.6l-1.7-0.5c-0.3-0.1-0.6,0.1-0.6,0.4L244.4,323.8z"/>
	<path fill-rule="evenodd" clip-rule="evenodd" fill="#FFFFFF" d="M234,322c0.4,0.6,0.6,1.5,0.2,2.3c-0.5,1.2-1.8,1.7-2.8,1.3
		c-0.3-0.1-0.6-0.3-0.8-0.6c0.5-0.8,1-1.5,1.5-1.9C232.6,322.7,233.2,322.3,234,322z"/>
</g>
<g>
	<path fill-rule="evenodd" clip-rule="evenodd" fill="#C98664" d="M286,369h5.3v19c-1.9,1.4-3.7,1.5-5.3,0V369z"/>
	<ellipse fill-rule="evenodd" clip-rule="evenodd" fill="#52BAAC" cx="288.7" cy="356.3" rx="19" ry="19.9"/>
</g>
<path fill-rule="evenodd" clip-rule="evenodd" fill="#CC8C58" d="M519.8,182.2c-8.1,4.5-18.5,6.5-35.3,6.8
	c-16.6,0.3-28.5-3.1-40.5-6.7c-2.9-0.9-2.4,0.4-3.9,1c-1.8,0.8-0.3,2.6,3.3,3.8c8.4,2.8,11.2,26.4,40.4,27.2
	c28.6,0.8,23.4-19.7,37.4-27.3C526.7,184,525.6,178.9,519.8,182.2z"/>
<path fill-rule="evenodd" clip-rule="evenodd" fill="#96653C" d="M519.7,183.4c-8.1,4.5-18.5,6.7-35.3,7c-16.6,0.3-29-3.6-41.1-7.3
	c-5.4-1.6-6.1,0.1,0.3,2.5c8.2,3.1,11.3,25.6,40.2,25.8c27.9,0.2,21.9-17.7,35.9-25.3C525.3,183.2,525.5,180.1,519.7,183.4z"/>
<path fill-rule="evenodd" clip-rule="evenodd" fill="#CC8C58" d="M526.8,187.7c-2.3-5.8-6-6.8-10.6-7.8
	C522,178.8,527.6,180.3,526.8,187.7z"/>
<path fill-rule="evenodd" clip-rule="evenodd" fill="#CC8C58" d="M447.6,182.1c-6.3-0.1-9,3.1-11.3,6.8
	C436.1,183.1,441,178.6,447.6,182.1z"/>
<g>
	<path fill-rule="evenodd" clip-rule="evenodd" fill="#5E3D22" d="M503.9,205.5c-11.1-9.5-27.8-11.2-42.7-1c5.2,3.9,12.2,6.9,22.7,7
		C494.4,211.5,500.1,209,503.9,205.5z"/>
	<path fill-rule="evenodd" clip-rule="evenodd" fill="#FE7970" d="M499.4,208.6c-9.9-9.2-22.9-9.6-33.2-1c4.5,2.3,10.3,3.8,17.7,3.9
		C490.9,211.5,495.8,210.4,499.4,208.6z"/>
</g>
<path fill-rule="evenodd" clip-rule="evenodd" fill="#222A2B" d="M495.7,150.3c12.3-8.5,24.4-5.4,31.1-2.1
	C523.1,141.5,504.9,135.7,495.7,150.3z"/>
<path fill-rule="evenodd" clip-rule="evenodd" fill="#222A2B" d="M462.3,150.3c-12.3-8.5-24.4-5.4-31.1-2.1
	C434.9,141.5,453,135.7,462.3,150.3z"/>
<path fill-rule="evenodd" clip-rule="evenodd" fill="#FFFFFF" d="M507.3,188.1c-6.1,1.4-13.5,2.2-22.9,2.3
	c-9.6,0.2-17.8-1.1-25.3-2.9c5.1,4.6,12.4,8.3,24.8,8C497.7,195.3,503.6,192.1,507.3,188.1z"/>
<path fill-rule="evenodd" clip-rule="evenodd" fill="#CC8C58" d="M249.3,176.5c-7.6,5.6-17.9,8.8-34.9,11.2
	c-16.7,2.3-29.1,0.5-41.8-1.7c-3.1-0.5-2.4,0.7-3.8,1.5c-1.7,1,0,2.7,3.8,3.4c8.9,1.7,28.2,25.1,44.3,22.4
	c14.4-2.3,21.2-22.8,34.4-32.2C256.5,177.5,254.8,172.4,249.3,176.5z"/>
<path fill-rule="evenodd" clip-rule="evenodd" fill="#96653C" d="M249.4,177.7c-7.6,5.6-17.8,9.1-34.8,11.5
	c-16.7,2.3-29.7-0.1-42.4-2.3c-5.6-1-6.1,0.9,0.6,2.5c8.7,2.1,29.3,23.1,43.9,21.1c12.1-1.7,19.9-20.7,33.2-30.1
	C255,176.8,254.9,173.7,249.4,177.7z"/>
<path fill-rule="evenodd" clip-rule="evenodd" fill="#5E3D22" d="M189.9,199.8c8.7,5.9,18.7,11.8,26.7,10.7
	c7.1-1,12.7-7.8,18.7-15.3c-5.4-2.2-11.4-3.4-17.7-3.4C207.5,191.8,197.9,194.8,189.9,199.8z"/>
<path fill-rule="evenodd" clip-rule="evenodd" fill="#CC8C58" d="M257.1,181.2c-3.1-5.6-6.9-6.1-11.7-6.6
	C251.1,172.9,257,173.7,257.1,181.2z"/>
<path fill-rule="evenodd" clip-rule="evenodd" fill="#CC8C58" d="M176.3,185.4c-6.4,0.7-8.7,4.3-10.5,8.3
	C164.8,187.9,169.3,182.6,176.3,185.4z"/>
<path fill-rule="evenodd" clip-rule="evenodd" fill="#FFFFFF" d="M178.8,188.1c6.6,9.9,55.5,5.4,62.5-5.7c-6.6,3-15.1,5.2-26.8,6.8
	C200.8,191.1,189.5,189.8,178.8,188.1z"/>
<path fill-rule="evenodd" clip-rule="evenodd" fill="#FE7970" d="M231.9,199.5c-4.5-2.5-9.8-3.9-15.5-4c-8.2-0.1-15.8,2.8-21.7,7.4
	c7.4,4.7,15.3,8.5,21.9,7.6C222.4,209.7,227.1,205.1,231.9,199.5z"/>
<path fill-rule="evenodd" clip-rule="evenodd" fill="#222A2B" stroke="#000000" stroke-width="0.5669" stroke-miterlimit="22.9256" d="
	M174.4,151.1c2.4,0,4.4-4.3,4.4-9.5c0-5.2-2-9.5-4.4-9.5c-2.4,0-4.4,4.3-4.4,9.5C170,146.8,172,151.1,174.4,151.1z"/>
<path fill-rule="evenodd" clip-rule="evenodd" fill="#222A2B" stroke="#000000" stroke-width="0.5669" stroke-miterlimit="22.9256" d="
	M242.1,151.1c2.4,0,4.4-4.3,4.4-9.5c0-5.2-2-9.5-4.4-9.5c-2.4,0-4.4,4.3-4.4,9.5C237.6,146.8,239.6,151.1,242.1,151.1z"/>
</svg>
