<?xml version="1.0" encoding="utf-8"?>
<!-- Generator: Adobe Illustrator 21.0.0, SVG Export Plug-In . SVG Version: 6.00 Build 0)  -->
<svg version="1.1" id="OBJECTS" xmlns="http://www.w3.org/2000/svg" xmlns:xlink="http://www.w3.org/1999/xlink" x="0px" y="0px"
	 viewBox="0 0 250 200" enable-background="new 0 0 250 200" xml:space="preserve">
<g>
	<g>
		<g>
			<path fill="#9E0E16" d="M139,112.8c0,0-0.2,7.4-0.8,12.8c-0.6,5.4-1.5,9,2.5,9c5.1,0.1,4.4-3.7,4.4-3.7l-1.2-19.3L139,112.8z"/>
			<path fill="#BC111D" d="M133.3,121c0,0,0,7.4-0.4,12.9c-0.4,5.4-2.2,8.8,2.8,8.9c5.1,0.2,4.3-3.9,4.3-3.9l-1.8-19.3L133.3,121z"
				/>
			<path fill="#9E0E16" d="M157,112.1c0,0-0.4,7.4-1.1,12.8c-0.7,5.4-2.7,8.6,2.4,9.1c5,0.4,4.5-3.7,4.5-3.7l-0.9-19.4L157,112.1z"
				/>
			<path fill="#BC111D" d="M161.4,121c0,0,0,7.4-0.4,12.9c-0.4,5.4-2.2,8.8,2.8,8.9c5.1,0.2,4.3-3.9,4.3-3.9l-1.8-19.3L161.4,121z"
				/>
			<g>
				<path fill="#CC1E1B" d="M160.2,126.6c-7.9,0.2-16.2,0.9-24.1,0.6c-2.8-0.1-4.8-1-5.8-2.3c-0.8-1.1-1.3-6.4-0.7-8
					c0.3-1,7.7-5,12.6-5c6.2,0,12.5-0.8,18.6,0.4c2,0.4,6-1.6,7.5,0.9c1.2,2.1,2.3,4.3,2.3,7.7C170.7,126.6,164,126.6,160.2,126.6z"
					/>
			</g>
			<g>
				<path fill="#EE6945" d="M162.8,121.8c-7.9,0.2-18.7,1-26.6,0.6c-6.6-0.3-8.5-4.5-4.3-9.7c3-3.8,5.6-5.7,10.4-5.6
					c6.2,0,12.5-0.8,18.6,0.4c3.4,0.7,8.2,5.3,9,8.9C171.5,121.8,166.5,121.8,162.8,121.8z"/>
			</g>
			<path fill="#BC111D" d="M137.8,95.6c0,0,0.6,7.4,0.5,10.8c-0.1,3.4,0,4.4,3.2,4.3c3.2-0.1,2.9-1.6,2.9-1.6l-0.7-12.8L137.8,95.6z
				"/>
			<path fill="#BC111D" d="M153.8,95.6c0,0,0.6,7.4,0.5,10.8c-0.1,3.4,0,4.4,3.2,4.3c3.2-0.1,2.9-1.6,2.9-1.6l-0.7-12.8L153.8,95.6z
				"/>
			<g>
				<path fill="#EE6945" d="M166.4,95.4c-2.9,4.7-20.5,3.4-25.2,3.2c-6.4-0.2-9.1-0.9-10.2-7.5c-0.5-3.6-2.7-11.3-0.5-14.5
					c2.7-4.3,13.2-3.4,17.5-3.4c3.9,0,7.9-0.2,11.8,0.5c5.9,1.1,6.6,3.6,7,9.3C167.1,85.7,168,92.9,166.4,95.4z"/>
			</g>
			<g>
				<path fill="#CC1E1B" d="M166.4,97.1c-2.9,4.7-20.5,3.4-25.2,3.2c-6.4-0.2-9.1-0.9-10.2-7.5c-0.5-3.6-2.7-11.3-0.5-14.5
					c2.7-4.3,13.2-3.4,17.5-3.4c3.9,0,7.9-0.2,11.8,0.5c5.9,1.1,6.6,3.6,7,9.3C167.1,87.3,168,94.6,166.4,97.1z"/>
			</g>
		</g>
		<g>
			<path fill="#C7857D" d="M153.3,38.4c10.5,0.3,26.5,10.5,21.6,21.7c-2.3,5,1.8,6.6,4.6,10.2c1.3,1.7,1.7,7.8-2.1,6
				c3.2,5.6-1.9,9.6-7.2,6.6c-0.3,2.9-1.3,6.4-4.8,7.1c-1.9,0.3-4.8-0.5-5.6-2.2c-2.9,1.6-7.2,2.4-10.6,3c-2.4,0.4-4.7,0.1-6.9-0.6
				c-1.7-0.4-3.5-2.1-4.8-1.8c-0.6,0.2-1.1,1.1-1.9,1.3c-0.9,0.2-1.8,0.1-2.7-0.2c-1.7-0.4-3.3-1.5-4.4-2.8c-2.1-2.3-2.9-5-3.2-8
				c-0.3-2.5-1.6-3.6-2.3-5.8c-1.5-4.9,1.3-8.7,1.7-13.4c0.2-1.7-0.1-3.4,0.1-5C125.9,42.6,143.1,38.1,153.3,38.4z"/>
		</g>
		<g>
			<g>
				<path fill="#955655" d="M160.6,41.4c2.7,1,5.6,2.1,7.9,3.8c5.4,4,4.3,9.8,4.3,15.7c0,3.7,2,5.7,3.5,9c0.3,0.5,0.5,0.9,0.8,1.4
					c1,1.8,0.8,2.7-0.7,3c-0.7,0.6-1.2,0.4-1.3-0.5c1.8,2.3,2,4.1,0.4,5.4c-1.3,1.4-3.2,1-4.5,2.1c-1.9,1.6-2.5,3.8-4.8,5.2
					c-0.9,0.5-1.9,1.1-3,1.1c-2.7,0-1.7-2.8-3.4-2.2c-0.6,0.2-0.4,2.2,0.3,1.9c2-0.8,5.6-6.2,1.1-6.2c-3.2,0-2.1,5.8-0.8,7.2
					c5.2,6,15.1-8.6,9.5-9.7c-0.3-0.1-0.4,0.6-0.4,0.7c-0.5,5.5,7.2,2.6,7.8-1.4c0.2-1.3-0.6-6.1-2.4-6.1c-1.3,0-1.4,2.2-1.1,3
					c0.7,1.9,3.1,1.8,4.3,0c1.5-2.3-1.1-5.9-2.2-7.7c-2.2-3.7-2.4-6.1-2.2-10.5c0.1-2.2,0.2-4.3-0.6-6.4c-2-5.7-7.6-7.5-12.6-9.7
					C160.4,40.4,160.4,41.3,160.6,41.4L160.6,41.4z"/>
			</g>
		</g>
		<g>
			<g>
				<g>
					<g>
						<path fill="#FFFFFF" d="M147.7,137.9c0,0.1,0,0.2,0,0.3c0.6,4.2-4.8,4.7-7.7,4.7c-0.9,0-1.8,0-2.6,0c-3.5,0-6.9-0.4-10.2-1.5
							c-0.2-0.1,1.6-2.9,1.8-3.1c0.7-0.8,1.5-1.6,2.6-2c1.7-0.5,4.4-0.3,5.1-2.4c1.2,1.1,2.8,0.5,4.1-0.2c1.3-0.8,2.5-1.3,3.2-2.7
							c0-0.1,1.4,2.1,1.5,2.3c0.4,0.8,1,1.6,1.4,2.4C147.3,136.4,147.6,137.1,147.7,137.9z"/>
					</g>
					<g>
						<path fill="#FFFFFF" d="M132.2,142.3c-2-0.3-3.9-0.7-5.8-1.3c0,0,0-0.1,0-0.1c0.2-2.1,1.5-3.2,3.2-4
							C131.8,137.6,132.9,139.6,132.2,142.3z"/>
					</g>
					<g>
						<path fill="#FFFFFF" d="M147.8,137.2c0,0.3,0,0.5,0,0.7c0.1,1.1,0.2,2.2,0,3.3c-0.9,0.3-1.9,0.6-2.9,0.8
							C144.2,139.6,145.8,137.6,147.8,137.2z"/>
					</g>
					<g>
						<path fill="#CC4176" d="M147,137.4c-0.3,0.1-0.5,0.4-0.8,0.5c-0.3,0.3-0.8,0.6-1,1c-0.5,0.9-0.7,2-0.4,3
							c-4,0.9-8.4,1-12.7,0.4c0.7-2.7-0.4-4.8-2.6-5.4c0.5-0.2,1-0.4,1.6-0.6c1.6-0.5,3.2-0.9,4.8-1.7c0.5,2.4,3.4,3,5.5,2.7
							c1.6-0.2,3-0.9,3.9-2.2c0.2-0.4,0.4-0.9,0.7-1.2c0.3,0.3,0.6,0.6,0.8,0.9c0.2,0.3,0.4,0.7,0.6,1.1c0.1,0.1,0.4,1.3,0.3,1.3
							C147.5,137.2,147.3,137.3,147,137.4z"/>
					</g>
					<g>
						<path fill="#B3B3B3" d="M147.8,141.2c-0.1,0.5-0.1,2-0.7,2.3c-4.3,2.2-10.4,2-14.8,1.4c-0.5-0.1-6.9-1.2-6.4-2.1
							c0.3-0.5,0.6-1.8,0.6-2.4c3.3,1.5,7,2.3,10.8,2.3C140.8,142.7,144.4,142.3,147.8,141.2z"/>
					</g>
				</g>
				<path fill="#D4D4D4" d="M135.4,134.8c0.7,0.6,1.4,1.4,1.4,2.1c0,0.4-0.3,0.7-0.8,0.7c-0.1,0-0.2,0-0.3,0
					c-0.1,0.2-0.3,0.3-0.7,0.3c-0.6-0.1-1.1-0.5-1.2-0.9c0,0,0,0,0-0.1c0,0,0,0,0,0c0-0.1-0.1-0.1-0.1-0.2c0,0,0,0,0,0c0,0,0,0,0,0
					c-0.1-0.1-0.2-0.2-0.3-0.3c0,0,0,0,0,0c0,0,0,0-0.1-0.1c-0.1-0.1-0.1-0.1-0.2-0.2c-0.5-0.3-0.6-0.9-0.3-1.1
					c0.2-0.2,0.6-0.2,1-0.1C134.1,134.5,134.9,134.3,135.4,134.8z"/>
			</g>
			<g>
				<g>
					<g>
						<path fill="#E64B74" d="M148,138.8c-0.4,1.7-0.3,3.4,1,4.5c1.4,1.1,3.9,0.6,5.5,0.7c2.1,0.1,4.6,0.3,6.6-0.7
							c1.7-0.9,1.8-2.8,0.9-4.4c-1-1.8-2.8-2-3.8-3.7c-1.7,0.2-3.3,0.8-5,0.8c-0.3,0-4-0.3-4-0.4C148.8,136.3,148.3,137.5,148,138.8
							z"/>
					</g>
					<g>
						<path fill="#D4D4D4" d="M147.9,142.7c0,0.6,0.1,1.2,0.3,1.7c1.2,2.3,3.7,2,5.9,2.2c2.4,0.2,5-0.1,7.1-1.6
							c1.7-1.2,1.7-2.4,1.4-4.4c-1.5,4.3-8.1,4-11.7,3.3c-1.1-0.2-3-1.5-3-2.8C147.9,141.6,147.9,142.2,147.9,142.7z"/>
					</g>
					<g>
						<path fill="#FFFFFF" d="M154.8,144.7c2.7-0.1,5.4-0.7,5.8-1.9c0.6-2-4.1-2.8-5.6-2.7c-2.4,0.2-7.1,1.5-5.2,3.4
							C150.4,144.1,152.2,144.8,154.8,144.7z"/>
					</g>
				</g>
				<path fill="#D4D4D4" d="M152,137.7c-1.7,0.6-3.3,1.4-2.6,2.2c0.6,0.6,3-0.6,3.7-0.6c1-0.1,2.1-0.2,3.1-0.1c0.9,0,4.2,1,2.7-0.8
					c1,0,0.1-0.8-0.3-1c-1-0.5-2.5-0.6-3.6-0.5C154.8,136.8,153.4,137.2,152,137.7z"/>
			</g>
			<g>
				<path fill="#6E4F84" d="M149,120.5c-1.1,2.2-1.4,5.1-1.5,7.1c-0.1,2.3,1.4,6.1-1.1,7.7c-2.9,1.8-9.9,1.8-12-1.2
					c-1.2-1.6-0.5-3.6-0.1-5.4c0.8-4.4-0.6-8.7,2-12.5c1.9-2.8,4.4-5.5,7.9-6.7c2.8-0.9,5.9-0.8,8.7-1.7c2.9-0.9,6.2-1.7,8.1,1.4
					c1.5,2.5,0.8,6-1.7,7.5c-2.1,1.3-4.3,0.6-6.6,0.9C150.8,117.9,149.7,119,149,120.5z"/>
			</g>
			<g>
				<path fill="#846398" d="M147.9,135.4c-0.4,0.5-1,0.8-1.8,1.1c-2.5,0.9-5.4,0.9-8,0.6c-4.3-0.5-4.4-2.5-4.5-6.2
					c2.7,2.5,11.8,3.1,14.5,0.2c-0.2,0.2,0.4,2.8,0.3,3.4C148.2,134.8,148.1,135.1,147.9,135.4z"/>
			</g>
			<g>
				<path fill="#846398" d="M159,121.5c-0.4,2.3-0.3,4.7,0.1,7c0.4,1.8,1.7,6,0,7.5c-2.6,2.3-9.5,3.3-12.1,0.6
					c-1.4-1.4-1-3.5-0.9-5.3c0.1-5.7-0.1-14.4,3.2-19.5c2.2-3.3,7.9-3.7,10.6,0.8c1.3,2.1,0.3,4.3-0.4,6.4
					C159.3,119.8,159.1,120.6,159,121.5z"/>
			</g>
			<g>
				<path fill="#9D80B2" d="M160.6,135.8c-0.3,0.6-0.9,0.9-1.6,1.3c-2.3,1.3-5.2,1.7-7.8,1.8c-4.3,0.1-4.7-1.8-5.4-5.5
					c3.1,2.1,12.2,1.3,14.4-1.9c-0.2,0.3,0.8,2.7,0.8,3.3C160.9,135.2,160.8,135.5,160.6,135.8z"/>
			</g>
		</g>
		<g>
			<g>
				<path fill="#EFB7A3" d="M140.9,106.3c0.7-0.3,1.2-0.9,1.4-2c0.6-3.2,0.9-6.5,1.3-9.8c0.2-1.4,1.8-6.1-1-6
					c-1.6,0-2.9,1.9-3.2,3.3c-0.3,1.8-0.5,3.5-0.7,5.3c-0.2,1.5-0.2,4.4-1.4,5.5c-0.6,0.6-1.9,0.3-2.8,0.5c-1.4,0.3-2.9,0.5-4.4,0.9
					c-0.7,0.2-5.6,0.8-4.8,2.3c0.4,0.7,2.5,0.4,3.1,0.4c1.4,0,2.8,0,4.2,0.1c1.5,0.1,3,0.3,4.6,0.1
					C138.6,106.8,139.9,106.8,140.9,106.3z"/>
			</g>
			<g>
				<path fill="#EFB7A3" d="M125.8,104.3c-0.1,0-0.2,0-0.3-0.1c-0.8-0.1-1.6-0.1-2.4,0.1c-0.3,0.1-1.9,0.6-2,0.9
					c-0.2,0.7,0,1.6,0.9,1.3c-0.8,0.6-0.5,2.4,0.7,1.8c-0.2,0.1-0.2,0.6-0.1,0.8c0.1,0.2,0.3,0.4,0.5,0.5c0.3,0.2,0.9,0.2,1.2-0.1
					c-0.2,0.4,0.3,0.8,0.6,0.9c0.4,0.1,1-0.1,1.3-0.3c0.7-0.6,1.4-2.4,2.5-2.3c0,0.4-0.5,1-0.4,1.3c0.3,1,2-0.2,2.3-0.7
					c0.2-0.3,0.1-0.8,0.3-1c0.2-0.3,0.7-0.5,1-0.5c0.8-0.2,4.4,0,5.2-0.1c1.6-0.2,2.5-0.5,3.6-2c0.6-0.8-1.4-1.1-2.4-1.6
					c-0.8-0.4-1.8-0.3-2.7-0.1c-1.2,0.2-5.8,0.8-6.9,1.1C127.6,104.3,126.8,104.4,125.8,104.3z"/>
			</g>
		</g>
		<g>
			<path fill="#F79FBC" d="M142.5,83.7c3.8-2.8,3.2,2.7,2.6,6.5c-0.5,3.2-1.2,4.7-3.7,4.3c-1.1-0.1-2.5-0.3-3.4-1
				c-1-0.7-0.9-1-0.4-2.7C138.3,88.2,140.6,85,142.5,83.7z"/>
		</g>
		<g>
			<path fill="#E57389" d="M160.6,115.4c0.1,0.3,0,0.6-0.2,0.8c2.1-2.6,2.1-5.9,1.6-8.9c-0.4-3.2-0.6-6.1-1.6-9.3
				c-1.4-4.7-1.6-9.7-2.7-14.3c-0.8-3.4-3.6-6.5-8-5.3c-5.2,1.4-7.2,6.7-7.6,10.9c-0.3,3.2,0.9,6.2,0.7,9.4
				c-0.3,3.3,0.1,6.3-1.8,9.3c-1.2,2-2.1,3.4-3.2,5.8c3.6-2.6,8.2-2.7,12.8-2.4c2.2,0.1,4.5,0.2,6.5,0.9
				C157.8,112.6,160.3,114.1,160.6,115.4z"/>
		</g>
		<g>
			<g>
				<path fill="#F79FBC" d="M148.6,87.3c3.4-0.3,8.3-5.4,7-8c-1.6-3.1-7.2-2.1-9.1,0.2C144.6,82,142.6,87.8,148.6,87.3z"/>
			</g>
		</g>
		<g>
			<g>
				<path fill="#EFB7A3" d="M148.5,86.2c2.7-0.2,6.6-4.3,5.6-6.4c-1.2-2.5-5.8-1.7-7.3,0.2C145.3,81.9,143.7,86.6,148.5,86.2z"/>
			</g>
		</g>
		<g>
			<g>
				<g>
					<g>
						<path fill="#FEC9B4" d="M137.7,43.3c-4.3,1.2-7.8,3.9-9.3,8.1c-1.6,4.6-2.3,10.4-2.5,15.2c-0.1,2.7,0.3,6.7,2,9
							c6.4,8.6,19.2,7.3,28,4.2c2.6-0.9,6.1-2.8,7.6-5.1c0.6,0.9,3.9,1,4.8,0.8c1.2-0.4,2.1-1.3,2.5-2.5c0.7-1.9,0.4-4.5-1.7-5.4
							c-1.1-0.5-3.6-0.3-4.6,0.4c5.9-4.3,4-12.2,0.1-17.4c-3.4-4.6-10.2-7-15.6-8C145.9,42.1,141.6,42.2,137.7,43.3z"/>
					</g>
					<g>
						<path fill="#E49192" d="M158.9,70.4c1,2.9-4.6,5.2-6.7,3c-1.2-1.2,0.1-3.3,1.9-4.2C156,68.3,158.4,68.7,158.9,70.4z"/>
					</g>
					<g>
						<path fill="#E49192" d="M127.1,72.3c-0.6,3,5.2,4.6,7,2.2c1-1.3-0.5-3.2-2.3-3.9C129.7,69.9,127.4,70.6,127.1,72.3z"/>
					</g>
					<g>
						<g>
							<path fill="#7B485E" d="M152,66.8c-0.4,0.1-0.7,0.3-0.9,0.6c-0.7,1-0.4,2.8,0.9,3.1c1.2,0.2,2.9-0.9,2.7-2.2
								C154.5,67.1,153.1,66.6,152,66.8z"/>
						</g>
					</g>
					<g>
						<g>
							<path fill="#7B485E" d="M131.1,67.9c-0.3,0.1-0.7,0.3-0.9,0.5c-0.7,0.9-0.4,2.7,0.9,2.9c1.1,0.2,2.7-0.9,2.5-2.1
								C133.4,68.2,132.1,67.6,131.1,67.9z"/>
						</g>
					</g>
					<g>
						<g>
							<path fill="#C55756" d="M139.8,67.2c0.3,1.3-0.3,2.2-1.3,2.9c-0.5,0.4-1.3,0.6-1.5,1.3c-0.6,1.8,1.5,2.7,2.9,2.5
								c1.4-0.1,2.7-1.8,1.5-3.1c-0.4-0.4-1-0.4-1.4,0.1c-0.5,0.7-0.4,1.8,0.1,2.4c0.7,1,1.1-0.9,0.7-1.5c-0.4,0.7-0.4,1-0.1,0.8
								c0,0,0.1,0,0.1,0c0-1.7,0.1-0.9-0.4-0.8c-0.5,0-0.9,0.1-1.4,0.1c-0.4,0-0.8,0-1.1-0.2c-0.1,0-0.1-0.1-0.1-0.1
								c-0.1-0.2,0-0.2,0.3,0.1c0.2,0,0.6-0.2,0.8-0.2c1-0.2,1.7-0.4,2-1.5c0.3-1.2,0-2.2-0.5-3.3C140,65.6,139.7,66.7,139.8,67.2
								L139.8,67.2z"/>
						</g>
					</g>
					<g>
						<path fill="#C55756" d="M155.8,59c-0.2-0.3-0.3-0.7-0.7-0.8c-0.4-0.2-0.8-0.2-1.2-0.3c-0.9-0.3-1.7,0.5-1.9,1.3
							c0,0.3,0,0.8,0.3,0.8c0.3,0,0.4-0.2,0.6-0.3c0.3-0.2,0.6-0.4,0.9-0.6c0.6-0.5,1.4,0,1.8,0.5C155.8,59.7,155.8,59.1,155.8,59
							L155.8,59z"/>
					</g>
					<g>
						<path fill="#C55756" d="M130.1,62.3c0.2-0.5,0.9-0.9,1.4-1.1c0.3-0.1,0.6-0.1,0.9,0.1c0.2,0.1,0.4,0.4,0.7,0.3
							c0.1,0,0.1-0.2,0.1-0.3c-0.2-0.8-0.9-1.2-1.7-1.2c-0.3,0-0.7,0.1-1,0.3c-0.4,0.2-0.6,0.6-0.9,0.8
							C128.9,61.6,130,62.8,130.1,62.3L130.1,62.3z"/>
					</g>
					<g>
						<path fill="#C7857D" d="M126.9,47.5c5-4.2,11.3-7.3,17.9-8.5c5.4-1,12.9-1.8,17.5,1.8c4.5,3.5,7.4,7,8.2,12.6
							c0.7,4.9-2.8,10.6-0.4,15.3c-1.3-0.7-2.1-0.8-3.5-0.4c-1.1,0.3-2.4,1.7-3.4,0.6c-1.2-1.3-1.3-4.3-1.4-5.9
							c-0.1-1.9,0.5-3.7,0.7-5.5c0.1-0.9-0.2-3.7,0.6-4.2c-1.1,0.8-1.6,2.3-2.6,3.3c0.7-1.4,0.4-3.1,0.2-4.6c-0.7,1.6-1.2,3.2-2,4.7
							c-2.3-2.3-6.6-2-9.7-2.4c-3.6-0.2-9.1-1-12.5,0.8c-0.1-1.2,0.5-2.3,0.9-3.6c-1.2,1-1.9,2.2-2,3.6c-0.6-1-0.5-2.5-0.2-3.6
							c-0.8,1-1.2,3.6-2.1,4.2c-0.7,0.4-2.5,0.1-3.3,0.2c-2.4,0.4-4.5,1.5-6.9,1.9c1.6-1.5,1.7-3.8,2.9-5.5c1-1.5,3.1-3.1,3.6-4.8
							C128.7,47.5,127.8,47.8,126.9,47.5z"/>
					</g>
					<g>
						<path fill="#F5787D" d="M137.4,76.3c1.8,2,5.2,2.8,7.7,1.6c0.7-0.4,1.6-1.1,1.8-1.9c0.3-0.8,0.1-1.6-0.9-1.7
							c-1.5-0.1-2.3,1.4-3.6,1.8c-1.3,0.4-2.9-0.4-4.1-0.9c-0.3-0.1-1.1-0.5-1.4,0C136.8,75.5,137,75.9,137.4,76.3z"/>
					</g>
					<g>
						<path fill="#D14E56" d="M146,74.3c-1.5-0.1-2.3,1.4-3.6,1.8c-0.1,0-0.2,0-0.3,0.1c-0.7,0.5-1.5,1.2-1.5,2.1
							c1.8,0.5,4.1,0.2,5.5-1.1C146.9,76.5,147.8,74.5,146,74.3z"/>
					</g>
					<g>
						<g>
							<path fill="#FFFFFF" d="M145,76.2c0.5-0.5,0.7-1.2,0.6-1.8c-1.3,0.1-2,1.4-3.2,1.8c-1.3,0.4-2.9-0.4-4.1-0.9
								c-0.1-0.1-0.3-0.1-0.5-0.2C138.5,77.4,143,77.6,145,76.2z"/>
						</g>
					</g>
				</g>
				<g>
					<g>
						<g>
							<path fill="#955655" d="M139.1,86.1c-1.8,0.5-3.5,0-4.2-1.8c0,0.4-0.1,0.8-0.1,1.3c0.7-0.4,2.6-0.5,2.1,1
								c-0.4,1.1-2.9,0.7-3.7,0.4c-3.2-1-4.6-4.2-4.5-7.3c0-0.3-0.4-1.2-0.6-0.5c-1.8,4.2,2.9,11.3,7.7,9.8c3.3-1,2.1-6.7-1.2-4.9
								c-0.4,0.2-0.3,1-0.1,1.3c0.9,2.1,2.8,2.6,4.8,1.8C139.5,87,139.4,86,139.1,86.1L139.1,86.1z"/>
						</g>
					</g>
					<g>
						<g>
							<path fill="#955655" d="M157.7,54.4c0.7-3.5,1.8-7.1,0.6-10.7c-0.2-0.6-0.5,0.1-0.4,0.4c0.5,3.3,0.2,6.4-0.8,9.6
								C157,54.2,157.6,55.3,157.7,54.4L157.7,54.4z"/>
						</g>
					</g>
					<g>
						<g>
							<path fill="#955655" d="M131.5,53.8c1-2.6,2.6-4.9,4.4-6.9c2-2.1,4-3,6.5-4.3c0.2-0.1,0.2-0.9-0.1-0.9
								c-2.5-0.1-5.1,2.4-6.7,4.1c-2,2.1-3.5,4.6-4.5,7.3C130.9,53.6,131.2,54.5,131.5,53.8L131.5,53.8z"/>
						</g>
					</g>
					<g>
						<g>
							<path fill="#955655" d="M140.5,51.4c0.4-2.1,1.6-4,3-5.6c1.3-1.4,2.9-2.1,4.2-3.3c0.1-0.1,0.1-0.8-0.1-0.7
								c-1.9,0-3.9,2.3-5,3.6c-1.3,1.6-2.3,3.5-2.7,5.6C139.9,51.5,140.4,52.3,140.5,51.4L140.5,51.4z"/>
						</g>
					</g>
					<g>
						<g>
							<path fill="#955655" d="M151.4,51.2c0.8-2.4,1.3-4.9,2.2-7.3c0.1-0.2-0.1-1.1-0.3-0.7c-1.4,2.1-1.5,4.9-2.5,7.2
								C150.6,50.9,151,52.1,151.4,51.2L151.4,51.2z"/>
						</g>
					</g>
					<g>
						<g>
							<path fill="#955655" d="M166.3,67.2c-3.2-8,3.9-16.5-2.4-23.8c-0.2-0.3-0.3,0.5-0.2,0.6c3.1,5.7,2,9.5,1.2,15.4
								c-0.4,3-0.1,5.5,0.9,8.3C166.1,68.4,166.4,67.5,166.3,67.2L166.3,67.2z"/>
						</g>
					</g>
					<g>
						<g>
							<path fill="#955655" d="M173.5,69.5c-4.7-6.5,1.1-16.9-5.1-22.4c-0.3-0.3-0.3,0.6-0.2,0.7c4.8,6.8,0.2,15.6,5.1,22.5
								C173.5,70.7,173.7,69.8,173.5,69.5L173.5,69.5z"/>
						</g>
					</g>
					<g>
						<g>
							<path fill="#955655" d="M167.9,85.9c0.6-3.2,0.3-6.6-2.1-9c-0.3-0.3-0.4,0.6-0.2,0.8c1.7,2.4,2.6,4.9,1.8,7.8
								C167.2,86,167.8,86.7,167.9,85.9L167.9,85.9z"/>
						</g>
					</g>
					<g>
						<g>
							<path fill="#955655" d="M134.6,85.7c-1.6-1.3-2-3-2-4.9c0-0.3-0.4-0.7-0.5-0.2c-0.6,2.3,0.7,4.6,2.2,6.1
								C134.6,87,134.9,86,134.6,85.7L134.6,85.7z"/>
						</g>
					</g>
					<g>
						<g>
							<path fill="#955655" d="M174.5,80.2c0.6-2.9-0.5-6.3-2.9-8.2c-0.3-0.2-0.3,0.7-0.2,0.9c1.6,1.9,3.2,4.2,2.6,6.8
								C173.9,80,174.3,80.8,174.5,80.2L174.5,80.2z"/>
						</g>
					</g>
					<g>
						<g>
							<path fill="#955655" d="M127.5,56c0.4-4.2,2.9-7.3,5.5-10.5c0.1-0.2,0.1-1-0.2-0.8c-3.4,2.5-5.2,7-5.8,11
								C127,56.2,127.5,56.6,127.5,56L127.5,56z"/>
						</g>
					</g>
				</g>
				<g>
					<path fill="#F79FBC" d="M161.1,61.5c-1.7,1.1,0,1.6-0.3,2.9c0,0.1,0,0.1,0,0c0.5-1.2,2.1-2.2,3.3-2.4c0.4-0.1,3.7-0.1,3.7,0.1
						c-0.1-0.7-0.2-1.6-0.4-2.4C165.3,59.7,163,60.3,161.1,61.5z"/>
				</g>
			</g>
		</g>
	</g>
	<g>
		<path fill="#759E27" d="M203.6,122.3c0,0-0.5,6.4-1.2,11.1c-0.7,4.7-1.6,7.7,1.9,7.9c4.4,0.2,4-3.1,4-3.1l-0.3-16.8L203.6,122.3z"
			/>
		<path fill="#88B73A" d="M207.9,134c0,0,0,6.4-0.4,11.1c-0.4,4.7-1.9,7.6,2.5,7.7c4.4,0.1,3.7-3.4,3.7-3.4l-1.6-16.7L207.9,134z"/>
		<path fill="#88B73A" d="M190.2,124.1c0,0-0.3,6.4-0.9,11.1c-0.6,4.7-2.3,7.5,2.1,7.9c4.4,0.4,3.9-3.2,3.9-3.2l-0.8-16.8
			L190.2,124.1z"/>
		<path fill="#88B73A" d="M220.1,127c0,0-0.3,6.4-0.9,11.1s-2.3,7.5,2.1,7.9c4.4,0.4,3.9-3.2,3.9-3.2l-0.8-16.8L220.1,127z"/>
		<path fill="#8FCC3B" d="M187.1,119.8c0,0-1.2,0.9-0.7,3.7c0.5,2.9,1.9,3.1,1.9,3.1l23.1,11.9c0,0-4.5-3.7-0.8-7.7L187.1,119.8z"/>
		<path fill="#BAF271" d="M210.5,130.7l16.8-7.6c0,0,0.8,3.3-0.2,5.1c-1,1.8-13.1,10.1-15.8,10.2C208.6,138.5,207.7,132,210.5,130.7
			z"/>
		<path fill="#9CE750" d="M187.1,119.8c0,0,4.1-3.3,19.9-4.2l20.3,7.6l-17.7,8.3C209.6,131.5,184.2,120.9,187.1,119.8z"/>
		<path fill="#88B73A" d="M219.4,109.8c0,0-0.2,6.4-0.6,9.4c-0.4,2.9-0.4,3.8,2.3,4c2.7,0.2,2.6-1.1,2.6-1.1l0.6-11.1L219.4,109.8z"
			/>
		<path fill="#88B73A" d="M206.6,105.1c0,0-0.2,6.4-0.6,9.4c-0.4,2.9-0.2,3.8,2,4c2.2,0.2,1.9-1.1,1.9-1.1l0.6-11.1L206.6,105.1z"/>
		<path fill="#BAF271" d="M203.8,88.8c-1.1,0.9,2.8,3.5,2.6,7.4c-0.2,3.9-0.3,6.8-0.3,8c0,1.2-0.2,2.2,3.3,3.1
			c3.5,0.9,12.8,4.5,15.9,5.4c3.1,0.9,7.3,1.2,7.8-5c0.4-6.1,0.3-10.4,0.4-12.4c0.1-2,0.7-4-2.9-4.5c-4.9-0.7-18.1-2.7-20.3-2.8
			C208.1,87.9,204.8,88,203.8,88.8z"/>
		<path fill="#8FCC3B" d="M203.8,88.8c-1.1,0.9-0.9,3.4-1.1,7.2c-0.2,3.9-0.3,6.8-0.3,8c0,1.2-0.2,2.2,3.3,3.1
			c3.5,0.9,14.7,4,17.8,5c3.1,0.9,5.4,1.6,5.9-4.5c0.4-6.1,0.3-10.4,0.4-12.4c0.1-2,0.7-4-2.9-4.5c-4.9-0.7-16.5-2.3-18.7-2.4
			C205.9,88.2,204.8,88,203.8,88.8z"/>
	</g>
	<g>
		<g>
			<path fill="#4299AD" d="M203.3,124.8c-0.5,0.3-1.1,0.6-1.5,0.7c-2.2,0.6-4.4,0.6-6,2.5c-2,2.3-2,7.8-5.8,7.9c-4,0-6.8-4-5-7.5
				c1.4-2.8,3.4-6.3,5.8-8.3c3.4-2.8,10-4.8,14.3-2.9C208.8,118.8,206,123,203.3,124.8z"/>
		</g>
		<g>
			<g>
				<g>
					<path fill="#FFFFFF" d="M206.1,144.8c0,0.1,0,0.2,0.1,0.2c0.8,3.6-3.8,4.3-6.3,4.5c-0.7,0.1-1.5,0.1-2.3,0.1
						c-3,0.3-5.9,0.1-8.8-0.6c-0.2-0.1,1.1-2.6,1.3-2.8c0.6-0.8,1.2-1.5,2.1-1.9c1.4-0.6,3.7-0.6,4.2-2.4c1.1,0.9,2.4,0.3,3.5-0.4
						c1.1-0.7,2-1.3,2.6-2.5c0,0,1.3,1.7,1.4,1.9c0.4,0.7,0.9,1.3,1.4,2C205.7,143.5,206,144.1,206.1,144.8z"/>
				</g>
				<g>
					<path fill="#FFFFFF" d="M193.1,149.6c-1.7-0.1-3.4-0.4-5-0.7c0,0,0-0.1,0-0.1c0.1-1.8,1.1-2.9,2.5-3.6
						C192.5,145.5,193.5,147.2,193.1,149.6z"/>
				</g>
				<g>
					<path fill="#FFFFFF" d="M206.2,144.2c0,0.2,0,0.5,0.1,0.6c0.2,0.9,0.3,1.9,0.2,2.8c-0.8,0.3-1.6,0.6-2.4,0.8
						C203.3,146.5,204.5,144.6,206.2,144.2z"/>
				</g>
				<g>
					<path fill="#E23929" d="M205.5,144.4c-0.2,0.1-0.4,0.3-0.6,0.5c-0.3,0.3-0.6,0.6-0.8,0.9c-0.4,0.8-0.4,1.7-0.1,2.6
						c-3.4,1-7.1,1.4-10.9,1.1c0.4-2.4-0.6-4.1-2.6-4.4c0.4-0.2,0.8-0.4,1.3-0.6c1.4-0.5,2.7-1,4-1.7c0.6,2,3.1,2.3,4.9,2
						c1.3-0.3,2.5-0.9,3.2-2.2c0.2-0.4,0.3-0.8,0.5-1.1c0.3,0.3,0.5,0.4,0.8,0.7c0.2,0.3,0.4,0.6,0.6,0.9c0.1,0.1,0.4,1.1,0.4,1.1
						C206,144.2,205.7,144.3,205.5,144.4z"/>
				</g>
				<g>
					<path fill="#D4D4D4" d="M206.4,147.6c-0.1,0.5,0,1.7-0.4,2c-3.5,2.1-8.8,2.4-12.6,2.2c-0.4,0-6-0.6-5.6-1.4
						c0.3-0.5,0.4-1.6,0.3-2.1c2.9,1.1,6.2,1.5,9.4,1.3C200.6,149.4,203.6,148.8,206.4,147.6z"/>
				</g>
			</g>
			<path fill="#D4D4D4" d="M195.4,142.9c0.7,0.5,1.3,1.1,1.4,1.7c0,0.3-0.2,0.6-0.7,0.7c-0.1,0-0.2,0-0.3,0
				c-0.1,0.2-0.3,0.3-0.6,0.3c-0.5,0-1-0.4-1.1-0.7c0,0,0,0,0-0.1c0,0,0,0,0,0c0,0-0.1-0.1-0.1-0.1c0,0,0,0,0,0c0,0,0,0,0,0
				c-0.1-0.1-0.2-0.2-0.3-0.3c0,0,0,0,0,0c0,0,0,0-0.1,0c-0.1,0-0.1-0.1-0.2-0.1c-0.4-0.3-0.5-0.7-0.3-1c0.2-0.2,0.5-0.2,0.8-0.1
				C194.2,142.8,194.9,142.6,195.4,142.9z"/>
		</g>
		<g>
			<g>
				<g>
					<path fill="#FFFFFF" d="M191.4,140.4c0,0.1-0.1,0.2-0.1,0.2c-1.4,3.4-5.6,1.3-7.8,0.1c-0.6-0.4-1.3-0.8-1.9-1.2
						c-2.6-1.5-4.9-3.3-6.9-5.6c-0.1-0.2,2.4-1.4,2.7-1.5c0.9-0.3,1.8-0.5,2.8-0.3c1.5,0.3,3.4,1.7,4.8,0.5c0.4,1.4,1.8,1.6,3.1,1.7
						c1.3,0,2.4,0.1,3.6-0.6c0,0,0.1,2.2,0.1,2.4c0,0.8,0,1.6,0,2.4C191.7,139.1,191.6,139.7,191.4,140.4z"/>
				</g>
				<g>
					<path fill="#FFFFFF" d="M178,136.8c-1.3-1.1-2.6-2.2-3.7-3.5c0,0,0-0.1,0.1-0.1c1.1-1.4,2.6-1.7,4.1-1.5
						C179.8,133.1,179.7,135.1,178,136.8z"/>
				</g>
				<g>
					<path fill="#FFFFFF" d="M191.8,139.9c-0.1,0.2-0.2,0.4-0.3,0.6c-0.4,0.9-0.8,1.7-1.5,2.4c-0.8-0.2-1.6-0.4-2.5-0.7
						C188,140.1,190.1,139.3,191.8,139.9z"/>
				</g>
				<g>
					<path fill="#E23929" d="M191.1,139.7c-0.3,0-0.6,0-0.8,0.1c-0.4,0.1-0.8,0.1-1.2,0.3c-0.8,0.5-1.4,1.1-1.6,2
						c-3.3-1.1-6.6-3-9.5-5.3c1.7-1.7,1.8-3.7,0.5-5.1c0.5,0.1,0.9,0.1,1.4,0.3c1.4,0.3,2.8,0.7,4.3,0.9c-0.6,2,1.2,3.7,2.8,4.4
						c1.2,0.6,2.6,0.7,3.9,0.1c0.4-0.2,0.7-0.4,1.1-0.6c0.1,0.4,0.2,0.7,0.2,1c0,0.4,0,0.7,0,1.1c0,0.1-0.3,1.1-0.3,1.1
						C191.6,139.8,191.3,139.7,191.1,139.7z"/>
				</g>
				<g>
					<path fill="#D4D4D4" d="M190,142.8c-0.3,0.3-1,1.4-1.5,1.4c-4.1-0.3-8.6-3.1-11.5-5.5c-0.3-0.3-4.5-4-3.8-4.4
						c0.5-0.2,1.2-1.1,1.5-1.5c1.7,2.6,4.2,4.8,7,6.5C184.2,140.9,187,142.2,190,142.8z"/>
				</g>
			</g>
			<path fill="#D4D4D4" d="M183.7,132.6c0.3,0.7,0.4,1.7,0.2,2.2c-0.2,0.3-0.5,0.4-0.9,0.2c-0.1,0-0.1-0.1-0.2-0.1
				c-0.2,0.1-0.4,0.1-0.6-0.1c-0.4-0.3-0.6-0.9-0.5-1.2c0,0,0,0,0-0.1c0,0,0,0,0,0c0-0.1,0-0.1,0-0.2c0,0,0,0,0,0c0,0,0,0,0,0
				c0-0.1,0-0.2-0.1-0.4c0,0,0,0,0,0c0,0,0,0,0-0.1c0-0.1-0.1-0.2-0.1-0.2c-0.2-0.5,0-0.9,0.3-1c0.3-0.1,0.5,0.1,0.8,0.4
				C182.8,131.8,183.5,132.1,183.7,132.6z"/>
		</g>
		<g>
			<path fill="#4FAAC3" d="M208.1,130.6c-1.1,0.5-2.2,1.1-3.4,1.4c-0.7,0.2,1.9,8.8,0,10.3c-2.4,1.8-8.3,2.3-10.4-0.2
				c-1.1-1.3-0.6-3.1-0.5-4.6c0.2-2.4,0.2-4.9,0.7-7.3c0.8-3.9,5.6-5.9,8.7-7.7c-1.2-1-2.8-2-2.4-3.7c0.7-2.6,3.9-2.4,5.9-1.6
				c3.1,1.2,9.4,7.3,6,10.8c-0.8,0.8-1.9,1.5-3,1.9C209.2,130.1,208.6,130.3,208.1,130.6z"/>
		</g>
		<g>
			<path fill="#62BDD3" d="M205.9,142.3c-0.3,0.5-0.8,0.8-1.5,1.1c-2.1,0.9-4.6,1.1-6.8,1.1c-3.7-0.1-3.9-1.8-4.3-5
				c2.5,2,10.4,1.8,12.5-0.9c-0.2,0.2,0.6,2.4,0.5,2.9C206.2,141.8,206.1,142.1,205.9,142.3z"/>
		</g>
		<g>
			<path fill="#4FAAC3" d="M192.2,136.5c-0.7,0.8-2.5,0.7-3.5,0.6c-2.2-0.2-4.8-1.6-6-3.3c-1-1.5-0.3-2,0.7-3.4
				c0.5-0.7,0.6-0.9,1.3-0.4c1.2,0.6,2.3,1.3,3.4,1.9c1.5,0.8,3.1,1.9,4.9,2.2C192.7,134.9,192.7,135.9,192.2,136.5z"/>
		</g>
	</g>
	<g>
		<path fill="#FEB402" d="M209.2,125.7c0.6,1.3,1,2.8,1,4.4c9.3-2.3,12.6-14.5,12.6-22.8c0-8.9-3-18.1-11.1-22.9
			c-4.1-2.4-12.3-1.2-12.8,4.5c-0.6,5.8,6.4,10.7,6,17.2c-0.3,5.3-5.5,9.4-10.1,11.5C200.7,118,206.8,120.5,209.2,125.7z"/>
	</g>
	<g>
		<g>
			<g>
				<path fill="#B76400" d="M104.2,117.8c0,0,0.5,7.4,1.3,12.8c0.8,5.4,1.8,8.9-2.2,9.1c-5.1,0.3-4.5-3.6-4.5-3.6l0.5-19.4
					L104.2,117.8z"/>
				<path fill="#D37800" d="M114.1,125.7c0,0,0.2,7.4,0.9,12.8c0.6,5.4,2.5,8.7-2.5,9s-4.4-3.7-4.4-3.7l1.2-19.3L114.1,125.7z"/>
				<path fill="#B76400" d="M83.8,117.8c0,0,0.6,7.4,1.5,12.8c0.9,5.4,3,8.5-2.1,9.1c-5,0.6-4.6-3.5-4.6-3.5l0.2-19.4L83.8,117.8z"
					/>
				<path fill="#D37800" d="M90.2,127.5c0,0,0.2,7.4,0.9,12.8c0.6,5.4,2.5,8.7-2.5,9c-5.1,0.3-4.4-3.7-4.4-3.7l1.2-19.3L90.2,127.5z
					"/>
				<g>
					<path fill="#F18E00" d="M109,130.7c-7.9,0.5-16.7,1.6-24.7,1.5c-5.6-0.1-7.7-11.1-3.6-13.9c2.6-1.8,7.6-1.2,10.5-1.3
						c4.7-0.2,9.7-0.6,14.4,0c2.1,0.3,5.5-1.8,7.8,0.5c1.8,1.9,3.2,3.3,3.4,6.7C117.1,130.6,112.8,130.6,109,130.7z"/>
				</g>
				<g>
					<path fill="#FEC500" d="M79.8,116.9c-2-0.3-3.4-0.4-3.4,0.1c-0.1,1.6-0.5,5.2,0.2,6.5c1.1,2,4.3,8.6,7.6,8.7
						C85.2,126.6,83.1,121.5,79.8,116.9z"/>
				</g>
				<g>
					<path fill="#F2A814" d="M110.1,126c-7.9,0.5-15.4,1.2-23.4,1.6c-4.9,0.2-8.1-3.7-10.1-9c-1.5-3.9,3.9-5.6,8.8-5.8
						c6.2-0.2,12.2-1.3,18.7-0.3c3.6,0.5,9.7,4.7,11.6,8.1C118.8,125.6,113.9,125.8,110.1,126z"/>
				</g>
				<path fill="#D37800" d="M103.8,100c0,0-0.1,7.4,0.2,10.8c0.3,3.4,0.3,4.4-2.9,4.5c-3.2,0.1-3-1.4-3-1.4L98,101.2L103.8,100z"/>
				<path fill="#D37800" d="M86.8,101.1c0,0-0.1,7.4,0.2,10.8c0.3,3.4,0.3,4.4-2.9,4.5c-3.2,0.1-3-1.4-3-1.4l-0.1-12.8L86.8,101.1z"
					/>
				<g>
					<path fill="#FEC500" d="M75.3,103c3.4,4.6,21.3,1.7,26,1.1c6.5-0.8,9.2-1.7,9.8-8.5c0.2-3.8,0.7-11.8-1.9-14.8
						c-3.2-4.2-12.6-2.4-17-2.1c-3.9,0.3-8.1,0.4-12,1.5c-5.9,1.7-6.4,4.3-6.4,10.1C73.8,93,73.4,100.6,75.3,103z"/>
				</g>
				<g>
					<path fill="#F18E00" d="M76.8,103.9c3.3,4.5,20.7,1.7,25.4,1.1c6.3-0.8,9-1.7,9.6-8.3c0.1-3.7,1.8-11.5-0.8-14.5
						c-3.1-4.1-13.4-2.3-17.7-1.9c-3.8,0.3-7.9,0.4-11.7,1.4c-5.8,1.6-6.3,4.2-6.2,9.9C75.3,94.2,75,101.6,76.8,103.9z"/>
				</g>
			</g>
			<g>
				<g>
					<g>
						<path fill="#4299AD" d="M105.8,121.8c3-0.1,5,0.7,5.7,4.7c0.5,2.9-1.7,7.8,1.9,9.5c3.8,1.8,8.3-0.8,8.1-4.9
							c-0.1-3.3-0.4-7.5-1.8-10.5c-3.4-7.1-11.3-11.8-19.9-9.5c-3.3,0.9-6.2,2.8-4.4,6.5c1.4,2.8,4.5,4.9,7.7,4.5
							C104.1,122,105,121.9,105.8,121.8z"/>
					</g>
					<g>
						<g>
							<g>
								<path fill="#FFFFFF" d="M109.9,139.6c0,0.1,0,0.2,0,0.3c-0.2,3.9,4.7,3.8,7.3,3.6c0.8-0.1,1.6-0.2,2.4-0.3
									c3.1-0.3,6.2-0.9,9.1-2.2c0.2-0.1-1.6-2.5-1.9-2.7c-0.7-0.7-1.5-1.3-2.5-1.6c-1.6-0.3-4,0.1-4.8-1.7c-1,1.1-2.5,0.7-3.7,0.2
									c-1.3-0.6-2.3-1-3.1-2.2c0,0-1.1,2-1.2,2.2c-0.3,0.8-0.7,1.5-1.1,2.3C110.2,138.2,110,138.9,109.9,139.6z"/>
							</g>
							<g>
								<path fill="#FFFFFF" d="M124.3,142.3c1.7-0.4,3.5-1,5.1-1.6c0,0,0-0.1,0-0.1c-0.4-1.9-1.7-2.8-3.2-3.3
									C124.2,138,123.4,139.9,124.3,142.3z"/>
							</g>
							<g>
								<path fill="#FFFFFF" d="M109.8,139c0,0.3,0,0.5,0,0.7c0,1,0,2,0.3,2.9c0.9,0.2,1.8,0.3,2.7,0.4
									C113.2,140.9,111.7,139.2,109.8,139z"/>
							</g>
							<g>
								<path fill="#B22019" d="M110.5,139.1c0.3,0.1,0.5,0.3,0.7,0.4c0.3,0.2,0.8,0.5,1,0.8c0.5,0.8,0.8,1.7,0.6,2.7
									c3.7,0.4,7.6,0.2,11.5-0.7c-0.8-2.4-0.1-4.3,1.9-5.1c-0.5-0.2-0.9-0.3-1.5-0.4c-1.5-0.3-3-0.6-4.4-1.1
									c-0.3,2.2-2.8,3-4.7,2.9c-1.4,0-2.8-0.5-3.7-1.7c-0.3-0.3-0.5-0.7-0.7-1.1c-0.2,0.3-0.5,0.5-0.7,0.9c-0.2,0.3-0.3,0.7-0.5,1
									c-0.1,0.1-0.3,1.2-0.2,1.2C110,139,110.3,139,110.5,139.1z"/>
							</g>
							<g>
								<path fill="#D4D4D4" d="M110.2,142.6c0.2,0.5,0.3,1.8,0.8,2c4,1.6,9.5,1,13.4,0c0.5-0.1,6.1-1.7,5.5-2.4
									c-0.3-0.4-0.6-1.5-0.7-2.1c-2.8,1.6-6.1,2.6-9.5,3C116.5,143.4,113.3,143.3,110.2,142.6z"/>
							</g>
						</g>
						<path fill="#D4D4D4" d="M120.8,135.8c-0.6,0.6-1.2,1.4-1.1,2c0,0.4,0.3,0.6,0.8,0.6c0.1,0,0.2,0,0.3,0
							c0.1,0.2,0.3,0.3,0.7,0.2c0.5-0.1,0.9-0.6,1-0.9c0,0,0,0,0-0.1c0,0,0,0,0,0c0-0.1,0.1-0.1,0.1-0.2c0,0,0,0,0,0c0,0,0,0,0,0
							c0.1-0.1,0.2-0.2,0.2-0.3c0,0,0,0,0,0c0,0,0,0,0.1-0.1c0.1-0.1,0.1-0.1,0.2-0.2c0.4-0.3,0.4-0.8,0.2-1c-0.2-0.2-0.6-0.1-0.9,0
							C121.9,135.4,121.2,135.3,120.8,135.8z"/>
					</g>
					<g>
						<path fill="#4FAAC3" d="M110.9,135.6c0.3,1.1,2,2.1,3,2.2c3.1,0.2,4.9-0.1,6.8-1.2c1.6-0.9,1.5-1,1.2-2.7
							c-0.2-0.9-0.1-1.1-1.1-1c-1.4,0-2.7,0.2-4.1,0.2c-1.8,0.1-3.8,0.4-5.6-0.1C111.2,133.8,110.7,134.7,110.9,135.6z"/>
					</g>
					<g>
						<g>
							<g>
								<path fill="#FFFFFF" d="M98.4,140.7c0,0.1,0,0.2-0.1,0.3c-0.7,3.8,4.1,4.5,6.7,4.6c0.8,0,1.6,0,2.4,0.1
									c3.2,0.2,6.2,0,9.3-0.9c0.2-0.1-1.3-2.7-1.4-2.9c-0.6-0.8-1.3-1.5-2.2-1.9c-1.5-0.6-3.9-0.5-4.5-2.4c-1.1,1-2.6,0.4-3.7-0.3
									c-1.2-0.8-2.2-1.3-2.8-2.6c0-0.1-1.4,1.8-1.5,2c-0.4,0.7-1,1.4-1.4,2.1C98.9,139.4,98.6,140,98.4,140.7z"/>
							</g>
							<g>
								<path fill="#FFFFFF" d="M112.2,145.5c1.8-0.2,3.6-0.5,5.3-0.9c0,0,0-0.1,0-0.1c-0.1-1.9-1.2-3-2.7-3.7
									C112.8,141.2,111.7,143,112.2,145.5z"/>
							</g>
							<g>
								<path fill="#FFFFFF" d="M98.4,140.1c0,0.3,0,0.5-0.1,0.7c-0.2,1-0.3,2-0.1,3c0.8,0.3,1.7,0.6,2.6,0.8
									C101.5,142.5,100.2,140.5,98.4,140.1z"/>
							</g>
							<g>
								<path fill="#E23929" d="M99.1,140.3c0.3,0.1,0.5,0.3,0.7,0.5c0.3,0.3,0.7,0.6,0.8,0.9c0.4,0.9,0.5,1.8,0.2,2.7
									c3.6,1,7.5,1.3,11.5,0.9c-0.5-2.5,0.6-4.3,2.6-4.7c-0.4-0.2-0.9-0.4-1.4-0.6c-1.4-0.5-2.9-1-4.2-1.7
									c-0.6,2.1-3.2,2.5-5.1,2.2c-1.4-0.2-2.7-0.9-3.4-2.2c-0.2-0.4-0.3-0.8-0.6-1.1c-0.3,0.3-0.6,0.5-0.8,0.8
									c-0.2,0.3-0.4,0.6-0.6,0.9c-0.1,0.1-0.4,1.1-0.4,1.1C98.6,140.1,98.8,140.2,99.1,140.3z"/>
							</g>
							<g>
								<path fill="#D4D4D4" d="M98.2,143.7c0.1,0.5,0,1.8,0.5,2.1c3.8,2.2,9.3,2.3,13.3,2c0.5,0,6.3-0.8,5.8-1.6
									c-0.3-0.5-0.4-1.6-0.4-2.2c-3,1.2-6.4,1.7-9.9,1.6C104.4,145.4,101.2,144.9,98.2,143.7z"/>
							</g>
						</g>
						<path fill="#D4D4D4" d="M109.7,138.5c-0.7,0.5-1.3,1.2-1.4,1.8c0,0.4,0.2,0.6,0.7,0.7c0.1,0,0.2,0,0.3,0
							c0.1,0.2,0.3,0.3,0.6,0.3c0.5,0,1-0.4,1.1-0.8c0,0,0,0,0-0.1c0,0,0,0,0,0c0-0.1,0.1-0.1,0.1-0.2c0,0,0,0,0,0c0,0,0,0,0,0
							c0.1-0.1,0.2-0.2,0.3-0.3c0,0,0,0,0,0c0,0,0,0,0.1,0c0.1-0.1,0.1-0.1,0.2-0.1c0.4-0.3,0.6-0.8,0.3-1c-0.2-0.2-0.5-0.2-0.9-0.1
							C110.9,138.3,110.2,138.1,109.7,138.5z"/>
					</g>
					<g>
						<path fill="#4FAAC3" d="M96,125.8c1.2,0.5,2.4,1.1,3.6,1.4c0.7,0.2-1.8,9.3,0.3,10.8c2.5,1.8,8.8,2.2,10.9-0.4
							c1.1-1.4,0.6-3.2,0.4-4.9c-0.3-2.5-0.3-5.2-0.9-7.6c-0.7-3-3.9-5.9-6.6-7.1c0.2-1.1,1.5-2.6,1.4-3.5c-0.2-2.3-3.5-3.7-5.4-3.5
							c-2.6,0.3-5.1,1.6-6.8,3.6c-1.7,2.1-4.1,6.3-1.7,8.7c0.9,0.9,2,1.5,3.2,1.9C94.9,125.3,95.4,125.6,96,125.8z"/>
					</g>
					<g>
						<path fill="#62BDD3" d="M98.5,138.1c0.3,0.5,0.8,0.8,1.6,1.1c2.2,0.9,4.8,1.1,7.2,1c3.9-0.2,4.1-2,4.4-5.4
							c-2.6,2.1-10.9,2.1-13.1-0.6c0.2,0.2-0.5,2.5-0.4,3C98.3,137.5,98.4,137.8,98.5,138.1z"/>
					</g>
				</g>
				<g>
					<path fill="#6B9974" d="M112.2,100.3c-0.6-1-1.3-2-1.7-3.1c-0.8-1.9-1.4-4-2.2-5.9c-0.5-1.2-3.4-9.2-5.7-6.9
						c-2.3,2.3,0.3,7.2,1,9.8c1,3.5,2.2,7.6,4.5,10.5c1.3,1.6,5.5,3.8,5.6,0.1C113.7,103.2,113,101.7,112.2,100.3z"/>
				</g>
				<g>
					<path fill="#89C597" d="M93.8,120.3c-0.7,1.5-1.1,3-1,4.7c-5.1-3.1-9.4-9-9.8-15c-0.4-5.9,0.5-12.2,1.1-18.1
						c0.5-4.8-1.9-7.3,6-12.4c3.3-2.1,8-2.5,10.7,0.9c5,6.2,2.1,14.5,4,21.4c0.9,3.4,7.2,7.6,7,10.6c-6.7,0-13.7,0.4-17.6,7.3
						C94,119.9,93.9,120.1,93.8,120.3z"/>
				</g>
				<g>
					<g>
						<path fill="#6B9974" d="M98.4,89.3c-3.8,0.3-10.3-4.5-9.3-7.7c1.1-3.8,7.6-3.8,10.2-1.5C101.8,82.4,105.2,88.7,98.4,89.3z"/>
					</g>
				</g>
				<g>
					<g>
						<path fill="#EFB7A3" d="M98.1,87.2c-3.1,0.3-8.3-3.7-7.5-6.3c0.9-3.1,6.2-3,8.2-1.2C100.8,81.6,103.5,86.7,98.1,87.2z"/>
					</g>
				</g>
				<g>
					<g>
						<g>
							<path fill="#F08C00" d="M119.4,75.5c-0.1,0-0.3,0.1-0.4,0.2c-2.6,1.7-4.8,3.5-7.8,4.5c-3,0.9-6.2,1.1-9.3,1
								c-3.1-0.1-7.8-0.1-10.5-1.6c-1.9-1-3.9-3.7-4.8-5.7c-0.2,3.7-4.7,6.1-5.6,1.5c-0.7,2.8-2.8,1.4-4-0.2c-2-2.8-3.7-6.5-1.6-9.8
								c1.4-2.3,4.3-4.6,6.7-5.8c5.9-2.8,12.8-4,19.2-3.4c4.7,0.4,9.1,2,13.3,4.2c3.5,1.9,7.5,3.6,8.3,7.9c0.2,1,0.2,4-1.7,2.7
								c0.6,0.8,1.8,2.3,1.1,3.4C121.8,75.2,120.3,75.2,119.4,75.5z"/>
						</g>
						<g>
							<path fill="#FEC9B4" d="M111.4,43.7c2.8,1.5,7.1,3.6,9,6.2c2.2,3,2.2,8.7,2.1,12.3c-0.1,4.2-1.5,8-2.1,12
								c-0.6,4.1-1,6.3-5.2,8.3c-6.3,2.9-13.6,3.9-20.4,2c-4.3-1.2-13.4-5.6-13.3-11.3c-2.1,5.4-10.2-0.8-8.2-5.3
								c1.6-3.4,10.4-2.9,9.2,1c-2.8-3.6-5.7-8.8-3.9-13.4c1.8-4.5,5.5-8.4,9.6-11c3.2-2,7.1-4.3,11-4.6
								C103.6,39.5,107.6,41.7,111.4,43.7z"/>
						</g>
						<g>
							<path fill="#E49192" d="M93,77.5c0.7,2.3,5.4,1.3,5.8-1.1c0.2-1.3-1.5-2.1-3.1-1.9C93.9,74.8,92.6,76.1,93,77.5z"/>
						</g>
						<g>
							<path fill="#E49192" d="M115.5,75.8c0.4,1.7,3.8,1.1,4.1-0.6c0.2-0.9-1-1.5-2.1-1.4C116.2,73.9,115.2,74.9,115.5,75.8z"/>
						</g>
						<g>
							<path fill="#65253E" d="M116.3,64.8c-0.3-0.1-1.1,0.7-1.1,1c0,0.7,1,0.8,1.4,1.1c0.3,0.3,0.6,1.3,1,0.7
								C118,67.2,116.8,64.9,116.3,64.8z"/>
						</g>
						<g>
							<path fill="#65253E" d="M97.7,63.9c-0.6,0.3-2.1,1-2.2,1.8c-0.1,0.9,1.1,0,1.5-0.1c0.2-0.1,1.8-0.4,1.8-0.4
								C98.9,64.2,98.9,63.3,97.7,63.9z"/>
						</g>
						<g>
							<path fill="#65253E" d="M115.8,74.4c1.9,0.3,2.4-3.2,0.6-3.7C114.1,69.9,113.9,74.1,115.8,74.4z"/>
						</g>
						<g>
							<path fill="#65253E" d="M97.8,74.8c2,0.3,2.6-3.4,0.7-4C96,70.1,95.8,74.5,97.8,74.8z"/>
						</g>
						<g>
							<path fill="#F5787D" d="M105.7,81.9c-0.4,0.5-0.9,0.9-1.1,1c-0.6,0.3-1.5,0.5-2.1,0.1c-0.5-0.4-1.4-1.7-0.7-2.2
								c0.4-0.3,0.9-0.1,1.4,0c0.6,0.1,1.4,0.2,2,0.1c0.2,0,0.8-0.2,0.9,0C106.4,81.1,105.9,81.7,105.7,81.9z"/>
						</g>
						<g>
							<path fill="#B14C56" d="M106.1,80.8c-0.2-0.2-0.7,0-0.9,0c-0.5,0.1-1.1,0-1.6,0c0.5,0.6,0.9,1.3,1.1,2c0.3-0.2,0.7-0.5,1-0.9
								C105.9,81.7,106.4,81.1,106.1,80.8z"/>
						</g>
					</g>
					<g>
						<path fill="#F08C00" d="M89.1,62.2c-0.2-0.2-0.4-0.5-0.7-0.7c-0.1-0.1-0.1-0.1,0,0c3.8,1.4,7.8-5.2,7.5-8.3
							c-0.1-1.4,10.5-1.9,11.7-1.7c4.2,0.7,7.2,3.8,10.4,6.4c3.1,2.5,2.1,5,3.6,8.1c3.5-4,4.7-8.6,1.6-13.2
							c-3.4-5.1-1-10.2-6.4-14.4c-4.4-3.4-9.4-3.4-12.7,1.5c-6.1-3.2-27.3,0.5-27.6,9.9c-1.3-0.5-2.5-0.8-3.8-1.3
							c0.5,0.8,0.7,1.4,1.4,2.1c-1.3-0.6-2.7-0.2-3.7,0.7c1,0.3,2,0.7,3,1c-1-0.4-0.4,8.3-0.3,9.1c0.1,0.6,0.9,5.2,0.4,5.5
							c4.8-3.4,7.5-0.3,9,4C85.5,70.8,91.5,65.5,89.1,62.2z"/>
					</g>
					<g>
						<g>
							<path fill="#CB526A" d="M109.2,70.4c-0.7,1.6-1.3,3-0.7,4.8c0.2,0.7,0.6,1.3,1.2,1.6c0.3,0.1,1.6,0.4,1.6,0.4
								c-0.1-0.4-0.2-0.7-0.3-1.1c0,0.4-1.7,0.7-2,0.7c-0.2,0-0.4-0.1-0.6-0.1c-0.4-0.1-0.7-0.5-0.5,0c0,0.5,0,0.9,0,1.4
								c0.1,0.3,0.3,0.3,0.6,0.1c0,0.5,0.2,1.6,1,1.4c0.7-0.2,0.5-1.7,0.4-2.1c-0.2-0.8-0.6-1.6-1.4-1.8c-0.9-0.2-1.6,0.3-1.8,1.2
								c-0.3,1.7,1,2.8,2.6,2.9c1.9,0,3.2-1.9,3.4-3.6c0.1-0.9-0.1-2.2-1-2.7c-0.4-0.2-0.8-0.3-1.2-0.3c-0.6-0.1-0.6,0.1-0.2-0.7
								C110.7,71.6,109.9,69,109.2,70.4L109.2,70.4z"/>
						</g>
					</g>
				</g>
			</g>
		</g>
		<g>
			<g>
				<path fill="#3B9AB7" d="M28.5,147c0,0,0.1,1.6,0.9,7.2c0.8,5.6,3.1,9-2.7,9.5c-5.8,0.5-5.2-3.8-5.2-3.8l1-12.7L28.5,147z"/>
				<path fill="#358A9E" d="M64.9,132.7c0,0,0.4,5.8,1.2,12c0.8,6.2,3.1,8.2-2.7,8.7c-5.8,0.5-5.2-2.6-5.2-2.6l0-15.9L64.9,132.7z"
					/>
				<path fill="#358A9E" d="M39.6,133.9c0,0,0.4,5.8,1.2,12c0.8,6.2,3.1,8.2-2.7,8.7c-5.8,0.5-5.2-2.6-5.2-2.6l0-15.9L39.6,133.9z"
					/>
				<path fill="#3B9AB7" d="M51.8,143.7c0,0,0.8,3.3,1.7,9.5c0.8,6.2,3.1,9.9-2.7,10.4c-5.8,0.5-5.2-4.2-5.2-4.2l1-14.8L51.8,143.7z
					"/>
				<g>
					<path fill="#4CA8CC" d="M66,128.4c0,0,1.3,1.5,1.7,4.4c0.2,1.6-0.6,2.9-1.7,3.8c-1.1,0.9-12.2,9.7-12.2,9.7s5.7-4.8-0.1-8.3
						L66,128.4z"/>
					<path fill="#87D2F2" d="M53.2,138.4l-34.1,1.1c0,0-2.3,4.9,0,7.4c3.6,1.2,29.1,2.4,34.1-0.3C57.8,144.1,57.9,138.2,53.2,138.4z
						"/>
					<path fill="#65B6E7" d="M65.7,128.3c0,0-15.8-2-32.7,0.8l-13.8,10.4l35.2-0.9C54.4,138.6,68.4,128.5,65.7,128.3z"/>
				</g>
				<path fill="#358A9E" d="M35.9,115.7c0,0,0.2,8.6,0.6,12.5c0.4,3.9,0.5,4.3-2.5,4.6c-3,0.3-2.8-0.7-2.8-0.7l-0.6-14.7L35.9,115.7
					z"/>
				<path fill="#3B9AB7" d="M27.9,121.3c0,0,0.2,8.6,0.6,12.5c0.4,3.9,0.5,4.3-2.5,4.6c-3,0.3-2.8-0.7-2.8-0.7L22.5,123L27.9,121.3z
					"/>
				<path fill="#87D2F2" d="M32,123.6c-1.9,0.9-3.1,1.3-5.7,2.5c-2.3,1.1-5.3,0.7-6.5,0.5c-2.4-0.4-2.1-4.2-2.3-8.1
					c-0.4-8.7-0.9-12.2-0.9-14.8c0-2.6-0.5-6.1,3.9-7.5c3.9-1.2,4-1,7.4-1.8c1.3-0.3,3.3-0.7,5.8-0.4c4.4,0.6,5.1,1.3,5.2,2.3
					C39.2,101.7,37.3,120.9,32,123.6z"/>
				<path fill="#4CA8CC" d="M38.7,96.2c0.6,1.4,0.4,5,0.4,10.8c0,5.7,0.3,8.2,0.2,10c-0.1,1.7,0.1,2.9-1.7,3.9
					c-1.5,0.9-8.8,4.3-10.5,5c-1.3,0.5-2.3,0.9-2.7-2.8c-0.1-1.1-1.3-18.1-1.5-20.8c-0.3-3.2,0.7-4.2,2.5-4.8
					c2.7-0.9,9.6-2.7,10.8-2.6C37.5,94.9,38.2,94.8,38.7,96.2z"/>
			</g>
			<g>
				<g>
					<g>
						<g>
							<path fill="#FFFFFF" d="M61.1,147.6c0,0.1-0.1,0.2-0.1,0.2c-1.8,3.4,2.7,5.4,5.2,6.3c0.7,0.3,1.5,0.5,2.3,0.8
								c3,1.1,6,1.7,9.2,1.7c0.2,0-0.5-2.9-0.6-3.2c-0.4-0.9-0.8-1.8-1.6-2.4c-1.3-1-3.6-1.6-3.7-3.5c-1.4,0.6-2.6-0.4-3.4-1.3
								c-0.9-1.1-1.7-1.8-2-3.3c0-0.1-1.8,1.4-2,1.5c-0.6,0.6-1.3,1-1.9,1.6C61.9,146.5,61.5,147,61.1,147.6z"/>
						</g>
						<g>
							<path fill="#FFFFFF" d="M73.1,156c1.8,0.3,3.5,0.6,5.3,0.6c0,0,0-0.1,0-0.1c0.4-1.8-0.4-3.2-1.6-4.3
								C74.8,152.1,73.3,153.5,73.1,156z"/>
						</g>
						<g>
							<path fill="#FFFFFF" d="M61.3,147c-0.1,0.2-0.2,0.5-0.2,0.6c-0.4,0.9-0.9,1.8-0.9,2.8c0.7,0.5,1.5,1,2.2,1.5
								C63.6,150.2,62.9,147.9,61.3,147z"/>
						</g>
						<g>
							<path fill="#004A5B" d="M61.9,147.4c0.2,0.2,0.4,0.5,0.5,0.7c0.2,0.3,0.5,0.8,0.5,1.1c0.2,1,0,1.9-0.6,2.7
								c3.2,1.9,6.9,3.3,10.7,4.1c0.2-2.5,1.7-4,3.8-3.8c-0.4-0.3-0.7-0.7-1.2-1c-1.2-0.9-2.5-1.8-3.6-2.8c-1.2,1.9-3.8,1.5-5.5,0.7
								c-1.3-0.6-2.3-1.6-2.7-3.1c-0.1-0.4-0.1-0.9-0.2-1.3c-0.3,0.2-0.7,0.3-1,0.5c-0.3,0.2-0.6,0.5-0.9,0.7c-0.1,0.1-0.7,1-0.7,1
								C61.5,147.1,61.7,147.3,61.9,147.4z"/>
						</g>
						<g>
							<path fill="#B3B3B3" d="M60.1,150.4c0,0.5-0.5,1.8-0.1,2.2c3,3.1,8.3,4.8,12.2,5.6c0.5,0.1,6.3,1,6.1,0.1
								c-0.1-0.5,0.1-1.7,0.2-2.2c-3.2,0.3-6.7-0.2-9.9-1.2C65.6,153.8,62.6,152.4,60.1,150.4z"/>
						</g>
					</g>
					<path fill="#B3B3B3" d="M72.6,148.6c-0.8,0.3-1.6,0.8-1.8,1.3c-0.1,0.3,0,0.7,0.5,0.9c0.1,0,0.2,0.1,0.3,0.1
						c0,0.2,0.2,0.4,0.5,0.4c0.5,0.1,1.1-0.1,1.3-0.4c0,0,0,0,0-0.1c0,0,0,0,0,0c0,0,0.1-0.1,0.1-0.1c0,0,0,0,0,0c0,0,0,0,0,0
						c0.1-0.1,0.2-0.1,0.4-0.2c0,0,0,0,0,0c0,0,0,0,0.1,0c0.1,0,0.2-0.1,0.2-0.1c0.5-0.1,0.7-0.6,0.6-0.9c-0.1-0.2-0.5-0.4-0.8-0.3
						C73.8,148.8,73.2,148.4,72.6,148.6z"/>
				</g>
				<g>
					<path fill="#675B84" d="M64,137.5c1.5,1.5,0.2,4.1-0.5,5.8c-0.2,0.6-0.7,1.2-0.8,1.8c-0.3,2,3.5,3,4.9,3.2
						c1.3,0.3,3.5,0.5,4.7-0.2c1.4-0.9,1.8-3.4,2-5c0.3-2.4,0.6-4.7,0.9-7.1c0.2-1.3,0.5-2.8,0.3-4.1c-0.5-2.2-14.2-8.2-15.4-8.5
						c-3.1-0.8-8-0.1-9.9,2.8c-1.6,2.5-1.5,6.3,1.2,8.2c2.9,2,6.5,2,9.8,2.1C62.4,136.6,63.3,136.9,64,137.5z"/>
				</g>
				<g>
					<path fill="#7D7198" d="M61.5,143.6c0.1,0.6,0.5,1,1,1.6c1.7,1.7,4.1,2.8,6.3,3.6c3.7,1.3,3.9-1,5.5-4
						c-3.2,1-10.2-1.5-11.3-4.9c0.1,0.3-1.4,2.1-1.5,2.6C61.5,143,61.5,143.3,61.5,143.6z"/>
				</g>
				<g>
					<g>
						<g>
							<path fill="#FFFFFF" d="M59.8,154.4c0,0.1,0,0.2,0,0.3c0.1,3.9,4.9,3.5,7.5,3.2c0.8-0.1,1.6-0.3,2.3-0.4
								c3.1-0.4,6.1-1.3,8.9-2.7c0.2-0.1-1.8-2.4-2-2.5c-0.8-0.6-1.6-1.2-2.6-1.4c-1.6-0.3-3.9,0.3-4.9-1.4
								c-0.9,1.2-2.4,0.9-3.6,0.4c-1.3-0.5-2.4-0.8-3.3-2c0,0-1,2.1-1,2.3c-0.3,0.8-0.7,1.5-0.9,2.3C60,153,59.8,153.7,59.8,154.4z"
								/>
						</g>
						<g>
							<path fill="#FFFFFF" d="M74.3,156.2c1.7-0.5,3.4-1.2,5-1.9c0,0,0-0.1,0-0.1c-0.5-1.8-1.8-2.7-3.4-3.1
								C74,151.9,73.3,153.9,74.3,156.2z"/>
						</g>
						<g>
							<path fill="#FFFFFF" d="M59.6,153.8c0,0.3,0.1,0.5,0.1,0.7c0,1,0.1,2,0.5,2.9c0.9,0.1,1.8,0.2,2.7,0.3
								C63.2,155.5,61.5,153.8,59.6,153.8z"/>
						</g>
						<g>
							<path fill="#006B88" d="M60.4,153.9c0.3,0.1,0.5,0.2,0.8,0.4c0.3,0.2,0.8,0.4,1,0.8c0.6,0.8,0.9,1.7,0.7,2.6
								c3.7,0.2,7.6-0.3,11.4-1.4c-1-2.4-0.3-4.3,1.6-5.2c-0.5-0.1-1-0.2-1.5-0.3c-1.5-0.2-3-0.4-4.5-0.8c-0.2,2.2-2.7,3.1-4.5,3.2
								c-1.4,0.1-2.8-0.3-3.8-1.5c-0.3-0.3-0.5-0.7-0.8-1c-0.2,0.3-0.5,0.6-0.6,0.9c-0.2,0.3-0.3,0.7-0.4,1.1
								c-0.1,0.1-0.2,1.2-0.1,1.2C59.9,153.8,60.1,153.8,60.4,153.9z"/>
						</g>
						<g>
							<path fill="#D4D4D4" d="M60.2,157.4c0.2,0.5,0.4,1.8,0.9,2c4.1,1.3,9.6,0.4,13.4-0.7c0.4-0.1,6-2.1,5.4-2.8
								c-0.4-0.4-0.7-1.5-0.8-2c-2.7,1.8-6,3-9.3,3.5C66.6,157.8,63.4,157.9,60.2,157.4z"/>
						</g>
					</g>
					<path fill="#D4D4D4" d="M70.4,149.9c-0.6,0.6-1.1,1.4-1,2c0,0.4,0.3,0.6,0.8,0.5c0.1,0,0.2,0,0.3-0.1c0.1,0.2,0.3,0.2,0.7,0.1
						c0.5-0.1,0.9-0.6,0.9-1c0,0,0,0,0-0.1c0,0,0,0,0,0c0-0.1,0-0.1,0.1-0.2c0,0,0,0,0,0c0,0,0,0,0,0c0.1-0.1,0.1-0.2,0.2-0.3
						c0,0,0,0,0,0c0,0,0,0,0-0.1c0.1-0.1,0.1-0.1,0.2-0.2c0.4-0.4,0.4-0.9,0.1-1.1c-0.2-0.2-0.6-0.1-0.9,0.1
						C71.5,149.5,70.8,149.5,70.4,149.9z"/>
				</g>
				<g>
					<path fill="#7D7198" d="M57.5,141.2c0.6,1.9,1.3,3.9,1.3,4.3c0.3,1.7,0,5.1,1.9,6c2.8,1.3,9.1,0.4,10.6-2.6
						c0.8-1.6-0.1-3.3-0.6-4.9c-0.8-2.4-1.4-5-2.4-7.3c-1.8-3.8-7.9-5.3-11.6-6.5c2.4-3.2-3-5.1-5.1-5.7c-3.6-1.1-6.5-3-10.3-1
						c-3.2,1.7-5.8,6-6.6,9.3c-1.4,5.8,5.3,6,9.5,5.6c4-0.4,8-0.4,12-0.3C56.4,138.1,57,139.6,57.5,141.2z"/>
				</g>
				<g>
					<path fill="#9A90B2" d="M59.4,151.8c0.4,0.4,1,0.6,1.7,0.7c2.4,0.5,4.9,0.1,7.2-0.5c3.8-1,3.6-2.8,3.2-6.2
						c-2.1,2.6-10.2,4.3-13,2.1c0.2,0.2,0,2.6,0.2,3C59,151.3,59.2,151.6,59.4,151.8z"/>
				</g>
			</g>
			<g>
				<path fill="#9B684C" d="M62.7,111.2c-0.7-1.2-1.6-2.2-2.2-2.8c-2.2-2.4-4.7-4.6-7.3-6.5c-0.9-0.6-2-1.5-3.1-1.7
					c-6.9-1.1-2.6,6.4-0.1,8.5c2.2,1.8,6.6,6.6,10.2,7.9c1.2,0.4,2.4,1.2,3.3-0.2C64.5,114.9,63.7,112.9,62.7,111.2z"/>
			</g>
			<g>
				<path fill="#C1C1C1" d="M58.3,104.4c-2.9-1.5-4.9-6.3-9-6.2c-4.5,0.2-5,5.1-4.1,7.7c0.8,2.7,3.2,5,5.9,5.9
					C52.7,109,55.3,106,58.3,104.4z"/>
			</g>
			<g>
				<path fill="#FF4C3B" d="M36.1,137.6c-5.1-3-1.5-13.8,0-22.4c1.1-6.3,4.8-20.3,6.9-20.8c2.9-0.8,6.3,0.2,8.4,3
					c5,6.7,2.9,18.1,5.5,25.9C48.5,125.3,38.4,139,36.1,137.6z"/>
			</g>
			<g>
				<g>
					<path fill="#C1C1C1" d="M49.2,100.5c-2.5,0.2-7-2.6-6.6-4.5c0.4-2.3,4.7-2.3,6.5-0.9C50.8,96.5,53.5,100.1,49.2,100.5z"/>
				</g>
			</g>
			<g>
				<g>
					<path fill="#9B684C" d="M49,99.5c-2.1,0.2-6-2.2-5.6-3.8c0.4-1.9,4-1.9,5.5-0.8C50.4,96,52.7,99.1,49,99.5z"/>
				</g>
			</g>
			<g>
				<path fill="#891010" d="M100.4,125c0,0-0.1,8.7,0.6,15.1c0.7,6.4,3.5,10.2-4.6,10.6c-8.1,0.3-6.8-4.5-6.8-4.5l3.1-22.7
					L100.4,125z"/>
				<path fill="#891010" d="M160.9,124.8c0,0,0.7,8.7,1.9,15c1.2,6.3,4.4,9.9-3.6,10.9c-8,1-7.2-3.8-7.2-3.8l1-22.9L160.9,124.8z"/>
				<path fill="#B71A1A" d="M89.7,140.2c0,0-0.1,8.7,0.6,15.1c0.7,6.4,3.5,10.2-4.6,10.6c-8.1,0.3-6.8-4.5-6.8-4.5l3.1-22.7
					L89.7,140.2z"/>
				<path fill="#B71A1A" d="M166.3,139.8c0,0,0.7,8.7,1.9,15c1.2,6.3,4.4,9.9-3.6,10.9c-8,1-7.2-3.8-7.2-3.8l1-22.9L166.3,139.8z"/>
				<g>
					<path fill="#E22119" d="M202,126.5c-0.1-1.3-0.3-2.6-0.3-3.9c0-1-1.4-1.5-2-2.5c-0.1-0.1-1.6-1.4-2.1-1.5
						c-1-0.2-1.8-0.1-2.7-0.1c-3.2,0-6.3,0.1-9.5,0.2c-13.8-4-35.1-6.5-59.1-6.5c-14.6,0-28.2,1-39.8,2.6c-10-0.3-20.4-0.3-29.7,1.9
						c-3,0.8-4.7,1.4-5.6,3.5c-1,2.2-1.4,6.1-0.4,8.3c0.1,0.2,0.2,0.3,0.3,0.5c0,0.1,0,0.2,0,0.4c0,9.5,33.7,17.2,75.3,17.2
						c15.6,0,30.6-1.2,45.8-3.6c5.7-0.9,11.3-1.8,16.4-3.9c3.4-1.4,7.3-2.8,10.3-4.6C201.8,132.7,202.2,129.5,202,126.5z"/>
				</g>
				<ellipse fill="#E6432D" cx="126.4" cy="121.7" rx="75.3" ry="17.8"/>
			</g>
			<g>
				<path fill="#9B684C" d="M67.2,107.2c-2.5,1.9-8.1,4.9-6.6,8.9c0.6,1.6,2.1,1,3.2,0.2c3-2.2,5.6-4.6,8.4-6.9
					c0.6-0.5,1.4-1,2.1-1.5c0.6-0.5,1.1-1.1,1.3-1.7c0.4-1.6-0.9-5-3-3.9c-0.7,0.4-0.9,1.1-1.3,1.8c-0.4,0.7-1.1,1-1.7,1.4
					C68.7,106,68,106.6,67.2,107.2z"/>
			</g>
			<g>
				<path fill="#AD7755" d="M66.3,111.7c0.5-0.5,1-1.1,1.1-1.8c0.3-1.6-1.3-4.9-3.4-3.6c-0.7,0.4-0.8,1.2-1.1,1.9
					c-0.4,0.7-1,1.1-1.6,1.6c-0.7,0.6-1.4,1.4-2.1,2c-1.3,1.2-2.5,2.3-3.8,3.4c-1.7-3.6-8.3-11-10.3-11.6c-6.7-2.1-3.5,5.9-1.3,8.4
					c1.9,2.1,5.6,7.5,9,9.3c1.4,0.8,1.8,1.7,3.8-0.1c2.8-2.4,5.2-5.1,7.8-7.7C64.9,112.9,65.7,112.3,66.3,111.7z"/>
			</g>
			<g>
				<path fill="#FFFFFF" d="M52.6,108.9c-2.6-1.9-4-7-8-7.3c-4.4-0.4-5.6,4.3-5.2,7.1c0.5,2.8,2.5,5.4,5,6.7
					C46.4,112.6,49.4,110,52.6,108.9z"/>
			</g>
			<g>
				<path fill="#AD7755" d="M63.6,110.6c-0.6-0.5-0.7-1.4-0.5-2.4c0.4-2,0.7-3.8,2.5-5.1c0.4-0.3,0.7-0.7,1.1-1.1
					c0.8-0.8,1.7,0.4,1.3,1.3c-0.2,0.4-0.8,1.1-0.8,1.6c0,0.5,0.6,0.5,0.9,1c0.2,0.3,0.2,0.7,0.2,1c0,0.4,0.2,0.7,0.3,1.1
					c0.3,0.8,0.4,1.5-0.2,2.2c-0.3,0.4-0.8,0.8-1.3,0.7c-0.3,0-0.6-0.1-0.9-0.1c-0.5,0-1.1,0.1-1.6,0
					C64.2,110.9,63.9,110.8,63.6,110.6z"/>
			</g>
			<g>
				<g>
					<path fill="#AD7755" d="M66.5,61.9c3.5,2.2,6.5,5.3,8.7,8.8c4.5,7.4-0.4,12.3-2.2,19.5c-1,3.8-1.6,5.9-5.7,7.3
						c-6.2,2.2-13.2,2.4-19.4,0c-4-1.5-12.1-6.5-11.6-11.9c-2.5,4.9-9.6-1.7-7.2-5.7c1.8-3.1,10.1-1.8,8.6,1.8
						c0.2-0.5-2.1-4.2-2.3-5c-0.4-1.6-0.6-3.2-0.2-4.8c0.6-3,2.6-5.7,4.6-7.9c4.4-4.8,10.4-6.3,16.8-5.7
						C60.1,58.8,63.5,60,66.5,61.9z"/>
				</g>
				<g>
					<g>
						<path fill="#894E3D" d="M63.2,89.6c0,0.6-0.2,1.8,0.5,2.2c0.6,0.3,1.2,0.4,1.7,0.8c-0.1-0.1-0.1-0.2-0.2-0.3
							c-0.1-0.3-0.6,0-0.8,0.1c-0.2,0.2-0.1,0.2-0.4,0.3c-0.2,0-0.4,0-0.6,0c-0.4,0-0.9,0-1.2-0.2c-0.2-0.2-0.2-0.4-0.3-0.6
							c0,0.2,0.1,0.5,0.1,0.7c0,0,0-0.1,0-0.1c0,0.1-0.1,0.3-0.1,0.4c0.1-0.1,0.5,0.1,0.5,0.1c0,0.2,0.1,0.6,0.4,0.5
							c0.3-0.1,0.3-0.5,0.3-0.7c0-0.5-0.1-1.1-0.6-1.3c-0.4-0.2-0.6,0-1,0.1c-0.3,0.1-0.3,0.6-0.3,0.8c0,0.9,0.6,1.7,1.5,1.9
							c0.5,0.1,1,0.1,1.5-0.1c0.2-0.1,0.5,0,0.7-0.1c0.2-0.1,0.4-0.4,0.5-0.6c0.4-0.7,0.8-1.7,0.2-2.4c-0.3-0.4-0.8-0.3-1.2-0.5
							c-0.4-0.2-0.4-0.3-0.4-0.8c0-0.2-0.1-0.8-0.3-0.8C63.3,89,63.2,89.4,63.2,89.6L63.2,89.6z"/>
					</g>
				</g>
				<g>
					<path fill="#562F1E" d="M56.1,49.9c-0.3-0.5,4-1.6,5,0.4c1.3-1.1,3.6-0.5,3.5,1.5c1.7-0.9,3.5-0.3,4.3,1.5
						c2.1-0.7,3.7,1.3,3.6,3.1c1.7,0,3.7,2,2.7,3.7c1.5,0.9,3.2,3,1.9,4.6c1.4,0.8,2.3,2.7,1.1,4c1.4,1.5,2.1,7.1,0.4,8.2
						c0,1.4-0.5,2.8-1.7,3.4c-0.4,2.9-2.9,0.7-2.3-1.7c-0.6-0.7-0.8-1-0.7-2c-1.2-0.5-1.2-1.8-0.7-2.9c0-0.1-0.1-0.2-0.1-0.3
						c-0.2,1.7-2,2.2-3.4,1.3c-0.1,2-3.3,1.8-4.7,1.2c-1.2-0.5-1.6-1.5-2.6-1.9c-1.4-0.5-3.1,0.7-3.8-1.2c-1.2,0.5-2.7,0.6-3.4-0.5
						c-1.7,0.6-5.1,0.2-5.2-2c-0.1,0,0.5,0,0.5,0c-0.8,0.6-2.1,0.8-3,0.5c1.5,1.5,0.4,4.5-1.8,3.7c0.7,1.7-1.2,3.4-2.2,1.7
						c0.3,1.8-1.4,2.6-2.9,2.5c0.1,0.9,0,1.9-0.4,2.7c-0.2-0.1-0.6-0.4-0.8-0.5c-0.1-0.1-0.1-0.1,0,0c0,0.3,0,1.1,0.1,1.4
						c-0.2,0.2-0.4-0.1-0.5,0.2c1.7,1.8-1.3,2.3-1.8,3.6c-1.4-1.5-0.2-3.8-1.5-5.5c-1.7-2.3-3.6-0.6-5.6-1.1c-1.5-0.4-3-2-0.9-3.3
						c-1.6,0-2.5-1.9-1-2.7c-1.8-0.7-2.4-3.2-0.2-3.7c-1.3-1.3-1.4-3.7,0.9-3.9c-0.9-1.2-0.3-2.9,1.2-3.1c-0.9-1.1-0.6-2.8,1.1-2.9
						c-1.1-1.5-0.6-3.7,1.5-3.6c-0.3-2,1.6-3.7,3.5-3.1c-0.2-1.7,1.9-2.3,3.3-1.8c1.2-1.1,3.1-1.8,4.4-0.6c0.7-1.3,2.6-1.1,3.4,0.1
						c0.3-1.8,3-2.3,3.9-0.8C51.9,47.9,55.2,48,56.1,49.9z"/>
				</g>
				<g opacity="0.5">
					<path fill="#AA5555" d="M48.2,88.7c-1,3,4.8,5.3,6.9,3c1.2-1.2-0.1-3.3-1.9-4.2C51.1,86.5,48.7,87,48.2,88.7z"/>
				</g>
				<g opacity="0.5">
					<path fill="#AA5555" d="M69,89.6c0.3,2.4,5.1,2.1,5.8-0.2c0.4-1.3-1.2-2.3-2.8-2.3C70.3,87.1,68.7,88.3,69,89.6z"/>
				</g>
				<g>
					<path fill="#65253E" d="M52.6,89.1c2.5,0,2.5-4.5,0.2-4.8C49.6,83.8,50.1,89,52.6,89.1z"/>
				</g>
				<g>
					<path fill="#65253E" d="M71.5,88.7c2,0,2-3.6,0.1-3.8C69.2,84.4,69.6,88.6,71.5,88.7z"/>
				</g>
				<g>
					<path fill="#9E6036" d="M53.8,81.3c-0.1,0-0.2-0.1-0.2-0.1c-1.3-0.2-2.9,0.3-3.9,1c0.1-0.1,0.3-0.7,0.4-0.9
						c0.3-0.3,0.7-0.6,1-0.8c0.8-0.4,1.7-0.5,2.5-0.3c0.3,0.1,1.6,0.6,1.4,1.1C54.9,81.7,54.2,81.4,53.8,81.3z"/>
				</g>
				<g>
					<path fill="#9E6036" d="M70.1,81.7c0.1,0,0.1,0,0.2,0c1,0,2.1,0.6,2.9,1.2c-0.1-0.1-0.1-0.6-0.2-0.7c-0.2-0.3-0.4-0.5-0.7-0.7
						c-0.5-0.4-1.2-0.6-1.9-0.5c-0.2,0-1.3,0.2-1.2,0.7C69.3,81.8,69.8,81.7,70.1,81.7z"/>
				</g>
				<g>
					<g>
						<g>
							<path fill="#B14C56" d="M61.4,96.5C61.4,96.5,61.4,96.5,61.4,96.5c-0.8,0.6-1.7,0.8-2.7,0.8c-0.7,0-1.4-0.2-1.9-0.5
								c-0.7-0.4-1.7-1.9-0.8-2.6c0.4-0.3,0.8,0.1,1.2,0.3c0.8,0.4,1.4,0.7,2.3,0.6c0.4,0,0.8,0,1.2,0c0.3,0,0.7-0.2,1.1-0.1
								C62.7,95.3,61.8,96.2,61.4,96.5z"/>
						</g>
						<g>
							<path fill="#FF6E86" d="M56.3,96.3c0.1,0.1,0.3,0.3,0.5,0.4c0.6,0.4,1.3,0.5,1.9,0.5c0.5,0,1-0.1,1.4-0.2
								C59,96.3,57.5,96,56.3,96.3z"/>
						</g>
					</g>
					<g>
						<path fill="#FFFFFF" d="M56.9,95c0.8,0.3,1.6,0.5,2.4,0.5c0.5,0,1.6,0.3,2-0.1c0.2-0.1,0.2-0.3,0.3-0.6
							c-0.3,0-0.6,0.1-0.9,0.1c-0.4,0-0.8,0-1.2,0c-0.9,0-1.5-0.3-2.3-0.6c-0.3-0.1-0.5-0.3-0.8-0.4C56.4,94.5,56.5,94.9,56.9,95z"
							/>
					</g>
				</g>
			</g>
			<g>
				<g>
					<path fill="#FEC9B4" d="M100.5,102.7c0.2,0.1,0.4,0.3,0.5,0.5c0.7,0.7,1.4,2.1,1,3.2c-0.4,0.9-1.5,1.5-2.3,1.9
						c-1,0.5-2,0.2-3,0.4c-0.9,0.3-1.8,0.9-2.7,1.2c-0.4,0.1-0.7,0.3-1,0c-0.3-0.2-0.4-0.6-0.1-0.8c-0.7,0.2-1,0.3-1.6,0
						c-0.3-0.2-0.2-0.3-0.6-0.4c-0.3-0.1-0.4,0.1-0.6-0.1c-0.1-0.1-0.3-1.1-0.3-1.2c0-0.9,0.9-1.4,1.6-1.7c0.7-0.3,0.9-0.5,1.4-1
						c1.1-1.2,3.2-1.6,4.7-2C98.6,102.3,99.5,102.1,100.5,102.7z"/>
				</g>
				<g>
					<path fill="#6B9974" d="M102.2,101.6c-2.2,0.2-7.7,0.1-9.3,1.7c0.9,1.2,2.9,1.2,4,2.3c0.8,0.8,0.9,2.8,1.5,3.4
						c1.2,0.8,5.3-0.5,6.7-0.6c2.2-0.3,4.8-0.4,6.7-1.6c1.7-1,2.4-3.5,0.9-4.9c-1.3-1.2-3.4-0.9-4.9-0.7
						C106,101.3,104.1,101.4,102.2,101.6z"/>
				</g>
				<g>
					<path fill="#FEC9B4" d="M84.6,109.7c-0.6,0.5-0.9,1.3-1.2,2c-0.3,0.5,0.2,1.1,0.3,1.6c0.2,0.6,0.3,1.2,0.4,1.9
						c0.1,0.7,0,1.3,0.2,2c0.2,1,0.9,2.6,2.2,1.8c0.5-0.3,0.4-0.9,0.3-1.4c0.2,0.6,0.4,1.8,1.2,1.9c0.6,0.1,1.7-0.2,1.8-0.8
						c0.1-0.4-0.2-0.9-0.4-1.3c0.5,0.6,1.1,1.8,2,1.5c0.6-0.2,1.7-1,1.2-1.7c-0.2-0.3-0.6-0.6-0.9-0.9c0.5,0.3,1.2,0.9,1.8,0.9
						c0.5,0,0.9-0.7,1.1-1.1c0.7-1.2-0.8-1.8-1.7-2.4c-0.5-0.3-0.9-0.5-1.4-0.9c1,0.1,1.8,0.3,2.8-0.1c1.1-0.5,0.7-1.7-0.4-1.7
						c-1.1,0-2.1-0.3-3.1-0.6c-0.9-0.3-1.6-1.2-2.5-1.5C87.2,108.6,85.7,108.8,84.6,109.7z"/>
				</g>
				<g>
					<path fill="#6B9974" d="M85.8,101.9c-0.2-0.5-0.3-0.9-0.3-1.4c0-1.4,5.3-18.4,0.8-17.8c-3.2,0.4-4.2,5.9-5.1,8.4
						c-1.9,5-4,10.5-1.5,15.5c0.9,1.8,1.4,3.9,2.3,5.7c0.4,0.8,0.8,1.6,1.4,2.3c0.6-2.8,6-4.6,8.5-4.1c0.1,0,0.1,0,0,0
						C89.5,108.3,86.9,104.9,85.8,101.9z"/>
				</g>
				<path fill="#919191" d="M77.6,110.7c0,1.1-0.6,2.3-1.4,2.7l-7.2,3.6c-0.8,0.3-1.9-0.5-1.9-1.6V97.4c0-1.1,0.6-2.3,1.4-2.7
					l7.4-3.3c0.8-0.3,2.1,0.4,2.1,1.5L77.6,110.7z"/>
				<path fill="#F3F4EE" d="M78.1,110.9c0,1.1-0.6,2.3-1.3,2.6l-7.7,3.4c-0.7,0.3-1.3-0.3-1.3-1.4V97.8c0-1.1,0.6-2.3,1.3-2.6
					l7.7-3.4c0.7-0.3,1.3,0.3,1.3,1.4V110.9z"/>
				<path fill="#C1C1C1" d="M75.3,100.1c0.2,1.2-0.4,2.8-1.4,3.4c-1,0.6-1.9,0.1-2.2-1.1c-0.2-1.2,0.4-2.8,1.4-3.4
					S75,98.9,75.3,100.1z"/>
			</g>
			<g>
				<path fill="#AD7755" d="M64.7,110.1c-0.1-0.1-0.2-0.2-0.3-0.3c-0.8-1.1-0.6-2.6,0.3-3.7c0.8-1.1,2.1-1,3.3-1.2
					c0.8-0.1,1.5-0.3,2.2-0.8c0.4-0.3,0.9-0.7,1.3-0.3c0.7,0.6,0.5,1.9-0.1,2.4c-0.7,0.6-1.7,0.7-2.6,0.9c0.4-0.1,0.8,0,1.1-0.1
					c0.4-0.1,0.8-0.2,1.2-0.4c0.3-0.2,0.8-0.5,1.2-0.2c0.8,0.7,0.3,1.9-0.5,2.4c0.3,0.1,0.3,0.4,0.3,0.7c0,0.1-0.2,0.7-0.4,0.7
					c0,0,0,0,0,0c0.3,0.1,0.4,0.4,0.3,0.7c-0.1,0.7-1.1,1-1.7,1.1c-0.7,0.1-1.5,0.2-2.2-0.2C67.1,111.1,65.5,110.9,64.7,110.1z"/>
			</g>
			<g>
				<path fill="#9B684C" d="M78.6,105c0.4-0.5,0.3-1,0.1-1.7c0,0,0,0,0,0c0.2-0.4,0.1-0.9-0.1-1.4c0-0.1-0.5-0.9-0.5-0.9
					c-0.2,1.2-1,1.2-1.9,1.7c-0.7,0.4-1.1,1.4-0.4,1.9c-0.4,0.5-0.5,1.3,0.3,1.6c0,0,0.1,0,0.1,0c-0.2,0.5-0.2,1,0.4,1.3
					c0,0,0.1,0,0.1,0c0,0.1-0.1,0.1-0.1,0.2c-0.2,0.4-0.1,0.9,0.4,1.1c0.6,0.4,1.4,0.2,1.6-0.5c0.1-0.2,0-1.3-0.1-1.6
					c0.1-0.2,0.2-0.3,0.3-0.5c0.2-0.4,0.1-0.6-0.1-1C78.7,105.1,78.6,105,78.6,105z"/>
			</g>
		</g>
	</g>
	<g>
		<path fill="#A46148" d="M109.7,110.9c0,0-0.4,0.7,0.6,1.2c1.1,0.5,16.4,4,16.4,4l1.4,0.6l17.7,7.2l18.7-10.1l-4.9-1.7l-26.2-7.2
			l-4.5-1.8L109.7,110.9z"/>
		<polygon fill="#BABABA" points="110.6,109.5 110.8,111.4 126,114.8 128.8,116.1 146,122.4 162.7,114.1 163.2,111.2 143.3,106 
			128.9,103.8 113.8,107.7 		"/>
		<g>
			<path fill="#FFFFFF" d="M144.2,105.3l-16.7,8.6c6.8-3.8,17.5,2.9,18.5,6.1c1.3-1,17.2-8.8,17.2-8.8
				C156.6,105,150.5,103.2,144.2,105.3z"/>
		</g>
		<g>
			<path fill="#E0E0E0" d="M130.1,100.9c-6.9,2.1-13.1,4.8-19.5,8.6c4.8-2.9,14.9-1.6,16.9,4.4l16.7-8.6
				C140.8,100.3,133.7,99.8,130.1,100.9z"/>
		</g>
	</g>
	<g>
		<path fill="#FEC9B4" d="M146.2,112.7c-0.1-0.2-0.1-0.4,0-0.6c0.1-0.1,0.4-0.4,0.6-0.3c-0.9-0.3-1.5-1.8-0.3-2.1
			c0.5-0.1,0.9,0.2,1.3,0.2c0.1,0,0.3-0.1,0.6-0.1c0,0,0,0,0,0c0.6-0.1,1.1-0.5,1.1-0.5l0.3-1.3c0.5-0.3,1-0.2,1.9,0.1
			c2.7,0.8,4-1.1,5.8-2.9c1.1-1.1,3.5-3,3.7-4.7c0.5-4.3-6.6-10.2-2.4-14c1.3-1.1,3.5-0.4,4.4,0.9c1.1,1.5,1,3.8,1.6,5.6
			c0.8,2.2,1.1,4.7,1.3,7.1c0.1,1.5-0.6,3.2-1.7,4.7c-2.2,2.9-5.9,5.5-8.2,6.6c-2.3,1.1-2.9,3.8-5.7,4.3c-0.5,0.1-1.1,0.2-1.6,0.2
			c-0.7,0.1-1-0.7-0.8-1.3c-0.2-0.1-0.4-0.3-0.5-0.5c0-0.1-0.2-0.7-0.1-0.7C147.1,113.5,146.4,113.3,146.2,112.7z"/>
	</g>
	<g>
		<path fill="#F79FBC" d="M158.3,82.3c-4.1-2.2-2.8,3.1-1.7,6.8c0.9,3.1,1.8,4.5,4.3,3.8c1-0.3,2.4-0.7,3.3-1.4
			c0.9-0.8,0.7-1.1,0-2.8C163,86.2,160.4,83.3,158.3,82.3z"/>
	</g>
	<g>
		<g>
			<path fill="#FFFFFF" d="M196.7,122c-8.1,2.6-16.5,5.3-24.5,7.6c-3.8-4.3-7.9-9.1-12.8-12.5c0.7,0.5,23.6-6.2,24.6-5.9
				C185.6,111.8,193.6,119.4,196.7,122z"/>
		</g>
		<g>
			<g>
				<path fill="#E29481" d="M170.1,110.6c0.5,0.7,1.3,0.8,1.7,1.3c0.2,0.2,0,0.8,0.2,1.1c0.3,0.7,1,1,1.8,0.9
					c0.3,0.5,0.9,0.8,1.3,0.3c0.4-0.5-0.1-1.2-0.3-1.6c-0.4-0.6-0.4-1.5-0.2-2.1c0.3-1,1.1-1.4,1.8-2.1c0.8-0.9,1.7-2.5,1.1-3.7
					c-0.8-1.4-3.2-0.8-4.3-0.4c-1.3,0.4-2.2,1.2-2.7,2.4C169.9,108,169.1,109.1,170.1,110.6z"/>
			</g>
			<g>
				<path fill="#E29481" d="M170.1,110.6c0.5,0.7,1.3,0.8,1.7,1.3c0.2,0.2,0,0.8,0.2,1.1c0.3,0.7,1,1,1.8,0.9
					c0.3,0.5,0.9,0.8,1.3,0.3c0.3-0.4-0.1-1.3-0.3-1.7c-0.4-0.8-1-2-2-2.1c0.2-0.9-0.5-0.7-0.7-1.3c-0.2-0.6,0.3-1.3,0.2-1.9
					c-0.2-1.3-1.1-1.2-1.8-0.4C169.6,107.9,169.3,109.4,170.1,110.6z"/>
			</g>
			<g>
				<path fill="#FEC9B4" d="M179.8,101.5c0.3,0.1,0.6,0.4,0.9,0.8c0.6,0.8,0.7,2.1-0.2,2.8c-0.5,0.5-1.3,0.2-1.7,0.7
					c-0.4,0.5-0.3,1.4-1,1.6c-1.9,0.7-2.8-2.9-4.2-1.8c-0.6,0.4-0.7,1.1-0.8,1.8c-0.1,0.9,0.4,3.4-0.4,3.8c-1.4,0.7-3-2.5-3-3.5
					c0.1-1.3,1.3-3.6,2.2-4.5c0.9-0.8,2.2-0.9,3.3-0.9c1.3,0,2.3-0.2,3.5-0.7C178.9,101.4,179.4,101.3,179.8,101.5z"/>
			</g>
			<g>
				<path fill="#0DA3ED" d="M174.9,113.3c-0.9-1.8-1.3-3.7-2.1-5.5c-0.9-2.1-2-4.2-2.8-6.3c-0.4-1.3-1.9-4.1-1.6-5.5
					c0.2-0.9,2-2,2.9-1.7c1,0.3,0.9,1.5,1.1,2.4c0.2,1.8,0.8,3.3,1.3,5c0.8,2.4,1,5,1.8,7.5c0.4,1.4,1,2.8,1.5,4.1
					c0.6,1.5,0.4,2.7,0.7,4.2c-0.4-0.7-1.1-0.8-1.5-1.3C175.6,115.3,175.3,114.1,174.9,113.3z"/>
			</g>
			<g>
				<path fill="#FEC9B4" d="M178.4,103.6c1,0.6,0.4,2.7,0.2,3.8c-0.2,1.3-3.1,3.6-4,1.7c-0.3-0.7,0.3-1.4,0.5-2.1
					c0.2-0.7-0.3-1-0.3-1.7c0-1.1,1.7-1.7,2.6-1.8C177.8,103.4,178.1,103.5,178.4,103.6z"/>
			</g>
		</g>
		<g>
			<path fill="#FEB402" d="M183.2,94.6c-0.4,0.5-0.8,0.9-1.3,1.3c-1.8,1.5-3.3,3.1-4.8,4.9c0.6,0.7,1.6,0.7,2.3,1.4
				c0.7,0.7,0.8,1.9,0.8,2.8c0,1.8,1.3,1.4,2.4,0.5c1.3-1,2.3-2.3,3.5-3.3c1.6-1.3,3-3.1,4.9-4c3.6-1.7,8.3-1.6,12.2-2
				c2.9-0.3,5.4-1.3,5.1-4.6c-0.2-3.4-3.3-6.1-6.8-5.5c-2.8,0.5-5.7,1.6-8.3,2.8c-2.2,1-5,1.5-6.9,2.7
				C185.2,92.3,184.2,93.5,183.2,94.6z"/>
		</g>
		<g>
			<path fill="#FEC9B4" d="M211.1,114.9c2.4-2.1,4-4.7,5.7-7.4c1.2-1.9,6.7-8.9,3.1-11c-1.7-1-3.7,2.3-4.5,3.3
				c-0.7,0.9-1.5,1.7-2,2.7c-0.4,0.6-0.4,1.3-0.8,2c-1,2.1-2.7,4.1-4.1,5.9c-0.5,0.7-0.9,1.5-1.7,1.9c-2.4,1.1-5.3,1.6-7.8,2.3
				c-1.7,0.5-3.4,0.6-5.1,0.8c-1,0.1-1.5-0.1-2.4-0.3c-0.4-0.1-0.8,0-1.2,0c-0.4-0.1-0.7-0.3-1-0.4c-0.5-0.1-1.2,0.1-1.3,0.6
				c-0.1,0.8,1.3,1.2,1.9,1.3c-0.9,0-1.7,0.1-2.5,0.2c-0.5,0-0.9,0.1-1.4,0.1c-0.5,0.1-1.9,0.3-1.1,1.1c0.6,0.6,2.1,0.3,2.9,0.3
				c0.5,0,1.1,0,1.6,0.1c-0.8,0.2-1.5,0.4-2.3,0.5c-0.7,0.1-2.4-0.1-2.3,0.8c0,0.5,0.5,0.9,1.3,0.8c1.3-0.2,3-0.3,4.2-0.7
				c-1.5,0.6-2,0.6-2.9,0.9c-0.5,0.2-1.7,0.3-1.5,0.9c0.3,0.9,1.1,0.6,2,0.4c0.4-0.1,1.1-0.1,1.5-0.3c-0.3,0.3-1,0.5-1.1,0.8
				c-0.2,0.4,0.1,0.8,0.5,0.8c0.5,0,1.2-0.4,1.6-0.5c0.5-0.1,0.9-0.5,1.4-0.6c0.6-0.2,1.3-0.1,1.9-0.3c1.1-0.4,1.8-1.4,2.6-2.1
				c0.9-0.9,2.1-0.7,3.3-0.7c1.1,0,2.2-0.2,3.3-0.4c2.2-0.3,4.5-0.8,6.3-2.1C209.8,116,210.5,115.5,211.1,114.9z"/>
		</g>
		<g>
			<path fill="#F3A402" d="M221,104c0.5-1.9,0.6-3.9,0.3-5.8c-0.3-1.9-2.3-5.5-4.5-3.5c-1,0.9-1.4,2.5-2,3.6
				c-3.1,5.8-7.1,11.9-13.5,14.3c-1.2,0.5-2.5,0.6-3.6,1.2c-0.4,0.2-0.9,0.6-1.1,1.1c2.1-0.4,3.3,1.1,3.1,3.1c0,0.5-0.2,0.9-0.6,1.3
				c0,0,2.4,0.2,2.7,0.2c1-0.2,2-0.4,2.9-0.8c1.9-0.8,3.6-1.9,5.5-2.6C215.2,114.2,219.6,109.4,221,104z"/>
		</g>
		<g>
			<g>
				<path fill="#EFB7A3" d="M206.1,96.5c2.9-0.3,7.2-6,6-8.9c-1.3-3.5-6.3-2.4-7.9,0.3C202.7,90.4,201,97,206.1,96.5z"/>
			</g>
			<g>
				<path fill="#F3A402" d="M214.6,87.6c0.4,2.5,0.5,5.8-0.3,8.1c-0.5,1.8-1.4,1.2-3.2,1.7c-1.4,0.4-2.5,1.1-3.8,1.7
					c-0.1-1.1-0.5-2.1-1.5-2.3c-0.1,0.8-0.3,1.5-0.5,2.3c0-1.8-0.5-2,1.1-3c1.6-0.9,3.1-1.6,4.1-3.3c1.8-2.8,1.7-5.3-1.6-6
					c-3-0.7-4.2,0.8-4.8,3.5c-0.5,2.9,0.5,4.6,1.2,7.2c0.1,0.7,0.2,1.4,0,2.1c-0.6-2-1.9-2.6-3.7-3.2c0.3-0.1,0.4-0.4,0.7-0.6
					c-1.2-1-1.7-3.6-1.8-5.2c-0.1-2.9,1.9-5.3,4.4-6.5C207.3,83.2,214.1,84.4,214.6,87.6z"/>
			</g>
		</g>
		<g>
			<g>
				<g>
					<path fill="#A46148" d="M177,85.5c0.1,0,0.3,0.1,0.4,0.2c2.7,1.7,5,3.5,8.1,4.4c3.1,0.9,6.3,1,9.5,0.8c3.1-0.2,8-0.2,10.7-1.8
						c1.9-1.1,3.9-3.9,4.8-5.9c0.3,3.7,4.9,6.1,5.8,1.4c0.7,2.8,2.9,1.4,4.1-0.3c2-2.9,3.6-6.7,1.5-10c-1.5-2.3-4.5-4.6-7-5.8
						c-6-2.7-13.1-3.8-19.7-3.1c-4.8,0.5-9.3,2.2-13.4,4.6c-3.6,2-7.6,3.9-8.3,8.3c-0.2,1.1-0.1,4.1,1.8,2.7c-0.6,0.8-1.7,2.4-1,3.5
						C174.5,85.2,176,85.1,177,85.5z"/>
				</g>
				<g>
					<path fill="#FEC9B4" d="M184.4,52.8c-2.8,1.6-7.2,3.8-9,6.5c-2.1,3.1-2.1,8.9-1.9,12.5c0.2,4.2,1.7,8.1,2.4,12.2
						c0.7,4.2,1.2,6.4,5.5,8.3c6.5,2.8,13.9,3.7,20.8,1.5c4.4-1.3,13.5-6,13.3-11.8c2.3,5.5,10.4-1.1,8.2-5.6
						c-1.7-3.5-10.7-2.7-9.3,1.2c2.8-3.7,5.6-9,3.6-13.7c-1.9-4.6-5.8-8.5-10-11c-3.4-2-7.3-4.2-11.3-4.4
						C192.3,48.4,188.2,50.8,184.4,52.8z"/>
				</g>
				<g>
					<path fill="#E49192" d="M202.1,83.8c0.6,2.4-4.1,3.9-5.6,2c-0.9-1.1,0.3-2.6,1.8-3.2C199.9,81.9,201.8,82.4,202.1,83.8z"/>
				</g>
				<g>
					<path fill="#E49192" d="M180,85.7c-0.4,1.7-3.8,1.2-4.2-0.5c-0.2-0.9,1-1.6,2.2-1.5C179.2,83.8,180.3,84.7,180,85.7z"/>
				</g>
				<g>
					<path fill="#65253E" d="M197.9,84.5c-2.7-0.2-2.3-5,0.2-5.2C201.5,79,200.5,84.6,197.9,84.5z"/>
				</g>
				<g>
					<path fill="#65253E" d="M179.8,74.7c0.3,0.1,0.4,1.2,0.2,1.5c-0.4,0.5-1.3-0.1-1.9-0.1c-0.4,0-1.4,0.6-1.3-0.2
						C176.9,75.5,179.3,74.5,179.8,74.7z"/>
				</g>
				<g>
					<path fill="#65253E" d="M197.4,74.9c0.6,0.3,2.2,1,2.3,1.8c0.1,1-1.1,0.1-1.6-0.1c-0.2-0.1-1.9-0.3-1.9-0.3
						C196.1,75.3,196.1,74.4,197.4,74.9z"/>
				</g>
				<g>
					<path fill="#65253E" d="M179,84.3c-1.9,0.3-2.5-3.2-0.7-3.8C180.7,79.8,181,84,179,84.3z"/>
				</g>
				<g>
					<path fill="#F5787D" d="M189.2,91.8c1.2,1,2.8,1.3,4.3,1.3c1.7,0,3.2-0.3,3.8-1.9c0.3-0.9,0.9-2.6-0.7-2.5
						c-1.4,0.1-1.9,1.6-3,2.1c-1.1,0.5-2.7,0.1-3.8-0.2c-0.3-0.1-1.1-0.2-1.2,0.2C188.6,91.1,188.8,91.5,189.2,91.8z"/>
				</g>
				<g>
					<path fill="#D14E56" d="M196.6,88.7c-1.4,0.1-1.9,1.6-3,2.1c-0.1,0-0.2,0.1-0.2,0.1c-0.6,0.7-1.1,1.4-1,2.1
						c0.4,0.1,0.8,0.1,1.1,0.1c1.7,0,3.2-0.3,3.8-1.9C197.7,90.3,198.3,88.6,196.6,88.7z"/>
				</g>
				<g>
					<g>
						<path fill="#FFFFFF" d="M196,90.5c0.4-0.5,0.5-1.2,0.3-1.7c-1.1,0.3-1.6,1.6-2.6,2c-1.1,0.5-2.7,0.1-3.8-0.2
							c-0.1,0-0.3-0.1-0.5-0.1C190.4,92.5,194.5,92.1,196,90.5z"/>
					</g>
				</g>
			</g>
			<g>
				<path fill="#A46148" d="M207.6,71.2c-1.1-0.5-2.1-1-2.5-1.3c-2.1-1.4-4.2-3.6-4.5-6.2c-0.9,2-3.7,3.7-5.9,3.3
					c-1.8-0.3-4.6-3.3-1.8-4.4c-1.5-0.3-2.8-0.1-4.3,0.1c-3.8,0.6-7.6,2.2-10.6,4.6c-3.1,2.6-5,8.1-3.2,12
					c-2.9-2.5-3.2-7.4-2.5-10.9c0.3-1.4,1.1-2.7,1.3-4.1c0.5-2.8-3.5-3.1-5.4-4.4c-2.6-1.8-3.2-4.2-2-7.1c2.1-5.2,7.5-6.1,12-3.2
					c-5.9-3.8-6.9-12.2,1.1-13.3c5.2-0.7,9.8,1,13.3,5c0.9,1,1.7,2.3,2.6,3.2c-0.7-4.5,3.8-3.4,6.4-1.6c2.3,1.7,4.2,3.9,6.4,5.8
					c2.9,2.4,6,4.8,9.2,6.9c-0.6-1.7-1.2-5,1.3-3.9c1.7,0.7,2,3.5,2.4,5c2.7-1.2,4.9,1.8,1.3,2.1c1.4,0.5,7.3,3.1,5.7,5.5
					c-1.1,1.6-3.5-0.9-4.4-1.9c0.9,2.5,0.7,4.9,0.4,7.4c-0.1,0.6-0.8,5.3-0.2,5.6c-1.9-1.3-5.4-1.9-7.3-0.1
					c-1.7,1.6-0.5,6.1-3.4,6.3c-2.3,0.2-2.7-2.7-1.1-3.9c-4.6,3.5-3.6-3.9-0.1-5.6C211.2,72.7,209.2,72,207.6,71.2z"/>
			</g>
			<g>
				<g>
					<g>
						<path fill="#8E4D39" d="M188.1,46.8c-1.4-2.2-5.2-8.6-8.5-7.8c-3.9,0.9-0.8,8.1,0.2,10c1.5,2.8,6.5,10.5,10.6,7.9
							c3.3-2.1-1.3-6.3-3.3-7.2c-0.8-0.4-0.8,1.8-0.4,2.1c3.5,2.9,9.4,10.6,13,3.8c0.4-0.7-0.3-2.8-0.9-1.6
							c-3.1,5.8-8.8-1.9-11.6-4.2c-0.1,0.7-0.3,1.4-0.4,2.1c0.6,0.3,3.5,1.8,3.2,2.6c-0.4,1.3-3.6-0.3-4.1-0.6
							c-2.4-1.5-4.4-4.2-5.7-6.6c-1-1.8-2-3.6-0.8-5.4c1.1-1.6,0.7-1.2,2.1-0.7c0.6,0.3,1.3,0.9,1.8,1.4c1.6,1.5,3.1,3.4,4.3,5.3
							C188.1,48.6,188.4,47.2,188.1,46.8L188.1,46.8z"/>
					</g>
				</g>
				<g>
					<g>
						<path fill="#8E4D39" d="M207.8,57.4c0.8,0.6,1.2,0.8,2.2,1c0.5,0.1,0.4-0.9,0.4-1.1c-0.3-2.3-2.3-7.4-5.4-6.6
							c-2.7,0.7-2.6,4.7-2,6.7c1.1,4.1,7.4,14.5,11.6,7.7c-0.3-0.5-0.6-1.1-1-1.6c-1.8,3.2-4.8,9.3,1.1,9.9c0.8,0.1,0.8-2,0.1-2.1
							c-3.5-0.9-1.5-4-0.3-6.1c0.4-0.7-0.2-2.8-1-1.6c-2.5,4-6.3-0.7-7.8-3.1c-0.8-1.3-1.9-3.1-2-4.7c-0.1-1.8,1.1-3.1,2.9-2.6
							c1.6,0.6,2.6,3.1,2.9,4.6c0.1-0.4,0.3-0.7,0.4-1.1c-0.8,0-1.4-0.3-1.9-0.8C207.6,55.5,207.4,57.1,207.8,57.4L207.8,57.4z"/>
					</g>
				</g>
				<g>
					<g>
						<path fill="#8E4D39" d="M175.4,54.4c-1.8-1.5-6.8-4.5-6.6,0.1c0.2,4.9,4.9,8.1,9.2,8.8c0-0.7,0-1.5-0.1-2.2
							c-3.4-0.3-5.6,3.7-3.3,6.3c0.7,0.8,0.7-1.3,0.6-1.6c-0.8-1.9,1.4-2.4,2.8-2.5c0.8,0,0.7-2.2-0.1-2.2c-3.1-0.3-6.1-2.1-7.5-4.9
							c-2.2-4.3,3.2-1.6,4.6-0.4C175.6,56.2,175.8,54.7,175.4,54.4L175.4,54.4z"/>
					</g>
				</g>
				<g>
					<g>
						<path fill="#8E4D39" d="M195.6,61.7c-0.2,0.5-1.2,1.6-1.8,0.8c-0.4-0.6,0.8-1.4,1.2-1.7c1.1-0.8,2.5-1.4,3.9-1.6
							c-0.2-0.5-0.3-1.1-0.5-1.6c-0.6,1.9-0.1,4.4,0.9,6.1c1,1.8,2.8,2.1,3.7,0c0.1-0.2,0.1-2-0.5-1.5c-1,0.8-1.6,1.3-2.4,0
							c-0.6-0.9-1-2.4-0.7-3.5c0.1-0.3,0.1-1.7-0.5-1.6c-2.5,0.4-6.2,2.1-6.3,5c-0.1,2.7,2.6,3.4,3.9,1.1
							C196.9,62.5,196.1,60.6,195.6,61.7L195.6,61.7z"/>
					</g>
				</g>
				<g>
					<g>
						<path fill="#8E4D39" d="M195.1,42.9c0,3,0.8,7.8,4.1,9.2c0.6,0.3,0.5-1.4,0.3-1.7c-0.8-1-1.9-1.7-2.5-2.8
							c-0.8-1.4-1.3-3-1.2-4.6C195.8,42.2,195.1,41.8,195.1,42.9L195.1,42.9z"/>
					</g>
				</g>
				<g>
					<g>
						<path fill="#8E4D39" d="M219.6,63.3c1.3,1.8,2.2,4.8,0.6,6.6c-1,1.2-4,1.9-4-0.5c0-0.8,0.7-2.7,1.6-3c0.5-0.2,1,0.1,0.9,0.6
							c-0.1,0.3-0.9,0.7-0.8,0.8c0.1,0.3,0.2,0.7,0.3,1c0,0.4,0,0.4,0.1,0c0.1-0.2,0-1.9-0.6-1.5c-0.6,0.5-1,2.7,0.2,2.8
							c1.1,0.1,2-1.9,2.1-2.7c0.1-1.1-0.3-3.1-1.7-3.3c-1.3-0.2-2.1,1.6-2.5,2.6c-1,2.4-0.6,8.2,3.4,6.6c4.7-1.9,2.8-8.6,1.1-11.7
							C219.6,60.4,219.1,62.6,219.6,63.3L219.6,63.3z"/>
					</g>
				</g>
				<g>
					<g>
						<path fill="#8E4D39" d="M179.6,61.8c1.8,0.5,3.6,1.3,5.5,1c2.1-0.4,2.1-2.8,1-4.3c-0.6-0.8-1.6-1.2-2.5-1.5
							c-0.8-0.3-2.2-0.9-3-0.4c-2.1,1.3,0.3,5.5,2.4,4c0.5-0.3,0.5-1.8-0.2-1.9c-0.3-0.1-0.6-0.1-0.9-0.2c-0.2,0-0.5-0.2-0.7-0.3
							c-0.3,0-0.4-0.7-0.3,0.2c0,0.6,0.1,0.3,0.6,0.4c0.4,0,0.8,0.1,1.1,0.2c0.7,0.2,1.4,0.5,2.1,0.8c0.2,0.1,0.5,0.3,0.7,0.4
							c0.1,0.1,0.5,0.6,0.4,0.6c0,0,0.1-0.6,0-0.6c-0.1,0-0.2,0.1-0.2,0.1c-0.2,0-0.4,0.1-0.7,0.2c-0.6,0.1-1.2,0.1-1.8,0
							c-1-0.1-2.5-0.1-3.3-0.7C179.4,59.7,179,61.7,179.6,61.8L179.6,61.8z"/>
					</g>
				</g>
			</g>
			<g>
				<g>
					<path fill="#CB526A" d="M185.5,85c0.3-0.8,0.4-1.1,0.2-0.8c-0.1,0.1-0.2,0.1-0.3,0.2c-0.2,0.1-0.5,0.2-0.8,0.3
						c-0.6,0.1-1.2,0.3-1.8,0.5c-0.7,0.3-0.7,1.9-0.6,2.4c0.5,2.5,3.6,4.5,5.7,2.4c0.8-0.8,1-2.9-0.3-3.4c-1.5-0.6-2.3,1.2-2.4,2.3
						c-0.1,0.5,0,1.7,0.7,1.8c0.7,0.1,0.8-1,0.8-1.5c0-0.2,0,0.1,0.1,0.1c0.2-0.1,0.5-0.1,0.7,0.1c-0.1-0.3-0.2-0.6-0.4-0.8
						c0,0,0,0.1,0,0.1c0-0.4,0-0.7,0-1.1c0.2-0.5-0.1-0.1-0.5,0c-0.3,0.1-0.5,0.2-0.8,0.2c-0.4,0-0.8-0.1-1.2-0.2
						c-0.2-0.1-0.4-0.2-0.6-0.2c-0.1-0.1-0.1-0.1-0.2-0.2c-0.1,1-0.1,1.2,0.1,0.7c-0.3,0.3-0.6,0.7-0.8,1c1.2-0.2,2.6-0.6,3.4-1.7
						c1.1-1.4,0.6-3.3-0.3-4.6c-0.4-0.6-0.8-0.4-1.1,0.2C184.9,83.5,185,84.4,185.5,85L185.5,85z"/>
				</g>
			</g>
		</g>
	</g>
</g>
</svg>
