<?xml version="1.0" encoding="utf-8"?>
<!-- Generator: Adobe Illustrator 21.0.0, SVG Export Plug-In . SVG Version: 6.00 Build 0)  -->
<svg version="1.1" id="preschool" xmlns="http://www.w3.org/2000/svg" xmlns:xlink="http://www.w3.org/1999/xlink" x="0px" y="0px"
	 viewBox="0 0 250 200" enable-background="new 0 0 250 200" xml:space="preserve">
<g>
	<g>
		<g>
			<g>
				<g>
					<g>
						<path fill="#E64B74" d="M161.2,98.7c-0.5,1.4-0.7,2.9,0.4,4c1.1,1.1,3.4,0.9,4.8,1.2c1.8,0.3,4,0.7,5.8,0.1
							c1.6-0.6,1.8-2.3,1.3-3.8c-0.6-1.7-2.2-2.1-2.9-3.7c-1.5,0-3,0.4-4.4,0.2c-0.3,0-3.5-0.7-3.4-0.8
							C162.2,96.6,161.6,97.6,161.2,98.7z"/>
					</g>
					<g>
						<path fill="#D4D4D4" d="M160.7,102.1c-0.1,0.5-0.1,1.1,0.1,1.5c0.8,2.2,3,2.2,4.9,2.6c2.1,0.5,4.4,0.4,6.3-0.6
							c1.6-0.9,1.8-2,1.7-3.7c-1.8,3.6-7.5,2.6-10.6,1.6c-0.9-0.3-2.5-1.6-2.3-2.8C160.8,101.1,160.7,101.6,160.7,102.1z"/>
					</g>
					<g>
						<path fill="#FFFFFF" d="M166.5,104.6c2.4,0.2,4.8,0,5.3-1c0.8-1.7-3.3-2.9-4.6-3c-2.1-0.1-6.4,0.6-4.9,2.5
							C162.7,103.5,164.3,104.4,166.5,104.6z"/>
					</g>
				</g>
				<path fill="#D4D4D4" d="M164.8,98.1c-1.5,0.3-3,0.9-2.5,1.6c0.4,0.6,2.7-0.2,3.3-0.2c0.9,0,1.8,0.1,2.7,0.2
					c0.8,0.1,3.6,1.4,2.4-0.4c0.9,0.1,0.2-0.7-0.2-0.9c-0.8-0.6-2.2-0.8-3.1-0.8C167.3,97.7,166.1,97.8,164.8,98.1z"/>
			</g>
			<g>
				<g>
					<g>
						<path fill="#FFFFFF" d="M154,97.1c0,0.1,0,0.2,0,0.3c-0.3,3.8-5,3.1-7.5,2.6c-0.8-0.2-1.5-0.4-2.3-0.5c-3-0.6-5.8-1.6-8.5-3.2
							c-0.2-0.1,1.9-2.2,2.1-2.3c0.8-0.6,1.6-1.1,2.6-1.2c1.5-0.1,3.8,0.5,4.9-1.1c0.8,1.2,2.3,1,3.5,0.6c1.3-0.4,2.4-0.7,3.3-1.7
							c0,0,0.8,2.1,0.9,2.3c0.2,0.8,0.5,1.5,0.8,2.3C154,95.8,154.1,96.4,154,97.1z"/>
					</g>
					<g>
						<path fill="#FFFFFF" d="M139.8,98c-1.6-0.6-3.2-1.3-4.7-2.2c0,0,0-0.1,0-0.1c0.6-1.7,1.9-2.5,3.5-2.8
							C140.4,93.8,141,95.8,139.8,98z"/>
					</g>
					<g>
						<path fill="#FFFFFF" d="M154.2,96.5c-0.1,0.2-0.1,0.5-0.1,0.6c-0.1,1-0.2,2-0.7,2.8c-0.9,0.1-1.7,0.1-2.6,0.1
							C150.7,98,152.4,96.5,154.2,96.5z"/>
					</g>
					<g>
						<path fill="#CC4176" d="M153.5,96.6c-0.3,0.1-0.5,0.2-0.8,0.3c-0.3,0.2-0.8,0.4-1,0.7c-0.6,0.7-0.9,1.6-0.9,2.5
							c-3.6,0-7.4-0.8-11-2.1c1.1-2.2,0.6-4.2-1.2-5.1c0.5-0.1,1-0.2,1.4-0.2c1.5-0.1,2.9-0.2,4.4-0.5c0,2.1,2.4,3.2,4.2,3.4
							c1.4,0.1,2.8-0.2,3.8-1.2c0.3-0.3,0.5-0.7,0.8-0.9c0.2,0.3,0.4,0.6,0.5,0.9c0.1,0.3,0.2,0.7,0.3,1.1c0,0.1,0.1,1.2,0.1,1.2
							C154,96.5,153.8,96.5,153.5,96.6z"/>
					</g>
					<g>
						<path fill="#B3B3B3" d="M153.5,100c-0.2,0.4-0.5,1.7-1,1.8c-4.1,1-9.3-0.2-13-1.6c-0.4-0.2-5.7-2.4-5.1-3
							c0.4-0.4,0.8-1.4,0.9-1.9c2.5,1.9,5.6,3.3,8.9,4C147.2,100,150.4,100.3,153.5,100z"/>
					</g>
				</g>
				<path fill="#D4D4D4" d="M144,92.1c0.5,0.6,1,1.5,0.9,2c-0.1,0.3-0.4,0.5-0.8,0.5c-0.1,0-0.2,0-0.3-0.1c-0.1,0.1-0.4,0.2-0.7,0.1
					c-0.5-0.2-0.8-0.7-0.8-1c0,0,0,0,0-0.1c0,0,0,0,0,0c0-0.1,0-0.1-0.1-0.2c0,0,0,0,0,0c0,0,0,0,0,0c-0.1-0.1-0.1-0.2-0.2-0.3
					c0,0,0,0,0,0c0,0,0,0,0-0.1c-0.1-0.1-0.1-0.1-0.2-0.2c-0.3-0.4-0.3-0.9,0-1c0.2-0.1,0.6-0.1,0.9,0.1
					C142.9,91.6,143.6,91.6,144,92.1z"/>
			</g>
			<g>
				<path fill="#6E4F84" d="M158.4,82.4c-1.4,1.4-2.4,3.1-2.8,4.8c-0.6,2.3,0.8,6.3-1.5,7.2c-2.8,1.1-8.8,0.7-10.4-2.1
					c-1.5-2.5,1.2-6.7,2.1-9.1c0.8-2,1.3-4.1,2.2-6c0.9-1.9,2.2-3.6,3.3-5.4c0.5-0.9,0.8-1.8,1.1-2.8c0.9-2.8,3.6-5.3,6.7-4.9
					c4.3,0.6,9.9,7.8,7.7,12c-1.3,2.5-3.4,3.3-5.8,4.4C160.1,80.9,159.2,81.6,158.4,82.4z"/>
			</g>
			<g>
				<path fill="#846398" d="M154.6,95c-0.4,0.4-1,0.5-1.7,0.6c-2.3,0.3-4.8-0.3-7-1c-3.6-1.3-3.6-3.4-2.5-6.2
					c1.9,2.7,9.4,4.9,12.2,2.9c-0.2,0.2-0.2,2.5-0.4,2.9C155,94.6,154.9,94.8,154.6,95z"/>
			</g>
			<g>
				<path fill="#846398" d="M172.4,84.8c-0.3,2.1-0.5,4.1-0.3,6.2c0.2,1.6,1,5.4-0.6,6.6c-2.5,1.8-8.6,2.1-10.6-0.4
					c-1.1-1.4-0.6-3.1-0.4-4.7c0.4-3.6,1.1-7.1,1.7-10.7c0.2-1.1,0.5-2.2,0-3.3c-1-2.1-4.3-3.6-2.6-6.3c1.8-3,8.6-3.1,11.5-2.4
					c3.1,0.7,2.9,3.1,2.8,5.8C173.6,78.5,172.9,81.7,172.4,84.8z"/>
			</g>
			<g>
				<path fill="#9D80B2" d="M172.6,97.4c-0.3,0.5-0.8,0.7-1.5,1c-2.2,0.9-4.7,0.9-7,0.7c-3.8-0.3-3.9-2.1-4.1-5.4
					c2.5,2.1,10.5,2.4,12.8-0.2c-0.2,0.2,0.4,2.4,0.3,3C172.9,96.9,172.7,97.2,172.6,97.4z"/>
			</g>
		</g>
		<g>
			<g>
				<g>
					<path fill="#9B684C" d="M105.9,55.9c-0.9,0.1-1.7,0.1-2.6,0.2c-3.3,0.2-6.5,1.2-9.9,0.9c-3.1-0.3-4.1-2.3-1.8-4.6
						c2.3-2.3,5.4-2.8,8.5-2.5c4.5,0.5,8.8,0,13.3,0.1c3.3,0,7.2-0.5,9.9-2.6c0.7-0.6,1.8-2.3,2.9-1.4c0.9,0.7-0.4,2.3,0.2,3.1
						c0.9,1.1,2.1-0.5,2.9-0.7c1.1-0.3,2.9,0.4,1.5,1.6c1.3,1.8-1.6,4.3-3.2,4.7c-2.5,0.6-4.9-0.6-7.4-0.4
						C115.5,54.6,110.8,55.5,105.9,55.9z"/>
				</g>
				<g>
					<path fill="#C1C1C1" d="M98.3,58c0,0,0.1,0,0.1-0.1c-0.5,0.2-0.3-4.3-0.3-4.7c0.3-1.7,1.1-3.2,1.7-4.8c-2.3-0.2-3.9-1.2-6.4-1
						c-2.7,0.3-5.3,1.4-7.5,3c-2.5,1.8-4.2,5.2-2,7.9c1.6,2,4.3,2.2,6.7,1.8C93.5,59.9,95.8,59,98.3,58z"/>
				</g>
				<g>
					<path fill="#675B84" d="M74.8,94c-0.1-4.3,4.2-4.1,5.5-7.2c0.9-2.2-0.3-1.6-1.6-2.8c-8-7.2,7.3-14.3,13-9.9
						c3.2,2.5,1.8,8.8,3,12.3c1.5,4.1,1.1,4.9-2.7,7c-3.5,2-6.8,3.8-10.8,4.7C77.2,99,74.9,98.4,74.8,94z"/>
				</g>
				<g>
					<g>
						<g>
							<path fill="#006B88" d="M84.1,106.7c0.4,1.4,0.5,2.8-0.5,3.7c-1.1,1-3.2,0.7-4.5,0.8c-1.7,0.2-3.8,0.5-5.5-0.2
								c-1.5-0.6-1.6-2.2-1-3.6c0.7-1.5,2.2-1.8,2.9-3.3c1.4,0.1,2.7,0.5,4.1,0.4c0.3,0,3.3-0.4,3.2-0.6
								C83.3,104.7,83.8,105.7,84.1,106.7z"/>
						</g>
						<g>
							<path fill="#D4D4D4" d="M84.4,110c0,0.5,0,1-0.1,1.4c-0.8,2-2.9,1.9-4.7,2.1c-2,0.3-4.2,0.2-5.9-0.9
								c-1.4-0.9-1.5-1.9-1.4-3.5c1.5,3.4,6.9,2.9,9.8,2c0.9-0.2,2.4-1.4,2.3-2.5C84.3,109,84.3,109.5,84.4,110z"/>
						</g>
						<g>
							<path fill="#FFFFFF" d="M78.8,111.9c-2.2,0.1-4.5-0.3-4.9-1.2c-0.6-1.6,3.2-2.5,4.5-2.5c2,0,5.9,0.9,4.4,2.6
								C82.4,111.2,80.9,111.9,78.8,111.9z"/>
						</g>
					</g>
					<path fill="#D4D4D4" d="M80.7,106c1.4,0.4,2.8,1,2.2,1.7c-0.4,0.5-2.5-0.3-3.1-0.3c-0.8,0-1.7,0-2.5,0.1
						c-0.8,0.1-3.4,1.1-2.2-0.5c-0.9,0-0.2-0.6,0.2-0.8c0.8-0.5,2.1-0.6,3-0.6C78.4,105.5,79.6,105.7,80.7,106z"/>
				</g>
				<g>
					<path fill="#7D7198" d="M81.4,77.3c-0.8,0-10.2-0.8-9.7-2.4c-2.4,7.2-1.8,17-0.2,24.3c0.8,4,2.4,7,7,7.1c3.2,0,6.7-1.7,6.8-4.9
						c0.2-3.2-0.2-6.4-0.5-9.6c-0.2-1.4-0.9-3.5-0.8-4.9c0.3-1.5,1.7-2.9,2-4.7C86.9,78.3,85.2,77.3,81.4,77.3z"/>
				</g>
				<g>
					<path fill="#FF4C3B" d="M77.3,48.6c4-7.4,10.8-6.4,12.8,1.2c1.4,5.4-0.1,11.3,1.2,16.7c2.1,8.8,4.3,14.9-7.3,17
						c-9.7,1.8-16.1-2.4-14.3-12.2C71.3,64.1,73.4,54.9,77.3,48.6z"/>
				</g>
				<g>
					<path fill="#C1C1C1" d="M80,53.3c-6.1-6.1,6.7-8.5,8.6-4.1C90.8,54.1,83,56.3,80,53.3z"/>
				</g>
				<g>
					<path fill="#9B684C" d="M80.6,52.7c-5.1-5.1,5.5-7,7.1-3.4C89.5,53.3,83.1,55.2,80.6,52.7z"/>
				</g>
				<g>
					<g>
						<path fill="#AD7755" d="M94,12.6c3.9,1.5,7.4,4,10.1,7c5.8,6.4,1.9,12.1,1.4,19.5c-0.3,3.9-0.4,6.1-4.2,8.2
							c-5.7,3.3-12.4,4.8-19,3.5c-4.2-0.7-13-4.1-13.5-9.5c-1.5,5.3-9.7,0.1-8.1-4.3c1.2-3.4,9.5-3.6,8.7,0.2
							c0.1-0.5-2.8-3.7-3.2-4.4c-0.7-1.5-1.1-3-1.1-4.6c0.1-3,1.5-6,3.1-8.6c3.4-5.5,9-8,15.3-8.6C87.2,10.7,90.7,11.3,94,12.6z"/>
					</g>
					<g>
						<g>
							<path fill="#894E3D" d="M95.9,40.6c0.1,0.5,0.1,1.4,0.7,1.6c0.2,0.1,1.7,0.4,1.7,0.4c0-0.2,0-0.3-0.1-0.2
								c-0.1,0-0.1,0.1-0.2,0.1c-0.1,0-0.2,0.2-0.3,0.2c-0.4,0.4-0.7,0.5-1.2,0.6c-0.4,0.1-0.9,0.1-1.2-0.1
								c-0.3-0.2-0.3-0.5-0.5-0.7c0.1,0.1,0.1,0.2,0.2,0.3c0,0,0,0,0-0.1c0,0.3,0,0.5,0,0.8c0.1-0.1,0.6,0,0.6,0.2
								c0.2,0.8,0.6-0.1,0.6-0.5c-0.1-0.6-0.5-1.2-1.2-0.9c-0.5,0.2-0.7,0.8-0.6,1.3c0.2,1.4,2.1,1.6,3.1,1c0.2-0.1,0.5-0.1,0.7-0.4
								c0.2-0.2,0.3-0.6,0.4-0.9c0.2-0.5,0.3-1,0.1-1.5c-0.2-0.7-0.7-0.7-1.3-0.7c-0.5-0.1-0.8-0.3-0.9-0.9c0-0.2-0.1-0.6-0.4-0.5
								C95.9,39.8,95.9,40.4,95.9,40.6L95.9,40.6z"/>
						</g>
					</g>
					<g>
						<path fill="#562F1E" d="M81.7,2.8c-0.4-0.5,3.6-2.3,5-0.5c1.1-1.3,3.4-1.2,3.7,0.8c1.5-1.2,3.4-0.9,4.4,0.7
							c2-1.1,3.8,0.6,4.1,2.4c1.7-0.3,4,1.3,3.3,3.1c1.6,0.6,3.7,2.3,2.7,4.2c1.5,0.5,2.7,2.3,1.9,3.7c1.7,1.2,3.4,6.5,1.8,7.9
							c0.3,1.4,0,2.9-1,3.6c0.1,2.9-2.7,1.2-2.6-1.3c-0.7-0.6-0.9-0.9-1-1.9c-1.2-0.3-1.5-1.6-1.2-2.7c0-0.1-0.2-0.1-0.1-0.3
							c0.1,1.6-1.6,2.6-3,1.9c0.3,1.9-2.9,2.4-4.4,2.1c-1.2-0.3-1.9-1.2-2.9-1.4c-1.4-0.3-2.9,1.3-3.9-0.5c-1,0.7-2.6,1.1-3.4,0.1
							c-1.6,0.9-4.9,1.1-5.5-1c-0.1,0,0.5-0.1,0.5-0.1c-0.7,0.8-1.9,1.2-2.9,1c1.7,1.2,1.2,4.3-1.1,4c1,1.5-0.5,3.5-1.8,2.1
							c0.7,1.7-0.9,2.8-2.3,3c0.3,0.9,0.4,1.9,0.1,2.7c-0.2-0.1-0.6-0.3-0.9-0.4c-0.1,0-0.1-0.1,0,0c0.1,0.3,0.2,1,0.4,1.3
							c-0.1,0.2-0.4,0-0.4,0.2c2,1.5-0.8,2.5-1.1,3.9c-1.6-1.3-0.9-3.7-2.4-5.1c-2.1-1.9-3.6,0.1-5.7-0.1c-1.5-0.1-3.3-1.4-1.5-3
							c-1.6,0.3-2.8-1.4-1.5-2.5c-1.9-0.4-2.9-2.7-0.9-3.6c-1.5-1-2-3.3,0.1-4c-1.1-1-0.8-2.8,0.6-3.3c-1.1-0.9-1.1-2.6,0.5-3
							c-1.3-1.2-1.2-3.5,0.8-3.8c-0.6-1.9,0.8-3.9,2.9-3.6c-0.5-1.7,1.5-2.6,2.9-2.3C66.7,6,68.4,5,70,5.9c0.4-1.4,2.4-1.6,3.4-0.5
							c-0.1-1.8,2.5-2.8,3.6-1.5C77.2,1.6,80.4,1.1,81.7,2.8z"/>
					</g>
					<g opacity="0.5">
						<path fill="#AA5555" d="M81,42.2c-0.4,3.1,5.6,4.3,7.3,1.7c0.9-1.4-0.7-3.2-2.7-3.8C83.5,39.5,81.2,40.4,81,42.2z"/>
					</g>
					<g opacity="0.5">
						<path fill="#AA5555" d="M101.5,39.3c0.8,2.3,5.4,1.1,5.7-1.3c0.2-1.3-1.6-2-3.1-1.7C102.3,36.5,101,37.9,101.5,39.3z"/>
					</g>
					<g>
						<path fill="#65253E" d="M85.4,41.7c2.4-0.4,1.6-4.8-0.7-4.7C81.5,37,83,42.1,85.4,41.7z"/>
					</g>
					<g>
						<path fill="#65253E" d="M103.8,37.8c1.9-0.3,1.3-3.8-0.6-3.8C100.8,34.1,101.9,38.1,103.8,37.8z"/>
					</g>
					<g>
						<path fill="#9E6036" d="M85.2,33.9c-0.1,0-0.2,0-0.2,0c-1.3,0.1-2.8,0.8-3.7,1.7c0.1-0.1,0.1-0.8,0.2-1c0.2-0.3,0.5-0.7,0.8-1
							c0.7-0.5,1.6-0.8,2.4-0.8c0.3,0,1.7,0.3,1.6,0.8C86.3,34,85.6,33.9,85.2,33.9z"/>
					</g>
					<g>
						<path fill="#9E6036" d="M101.2,31.3c0.1,0,0.1,0,0.2-0.1c1-0.2,2.2,0.2,3,0.7c-0.1,0-0.2-0.6-0.3-0.7
							c-0.2-0.2-0.5-0.4-0.8-0.6c-0.6-0.3-1.3-0.4-1.9-0.2c-0.2,0.1-1.2,0.5-1,0.9C100.4,31.5,100.9,31.4,101.2,31.3z"/>
					</g>
					<g>
						<g>
							<g>
								<path fill="#B14C56" d="M95.4,47.3C95.4,47.3,95.4,47.3,95.4,47.3c-0.7,0.7-1.5,1.1-2.5,1.2c-0.7,0.1-1.4,0.1-2-0.1
									c-0.7-0.3-2-1.5-1.2-2.4c0.4-0.4,0.8-0.1,1.2,0c0.9,0.2,1.5,0.4,2.4,0.2c0.4-0.1,0.8-0.2,1.2-0.2c0.3-0.1,0.7-0.3,1-0.3
									C96.4,45.9,95.7,46.9,95.4,47.3z"/>
							</g>
							<g>
								<path fill="#FF6E86" d="M90.3,48.1c0.2,0.1,0.4,0.2,0.6,0.3c0.6,0.2,1.3,0.3,2,0.1c0.5-0.1,0.9-0.2,1.3-0.4
									C93,47.6,91.5,47.6,90.3,48.1z"/>
							</g>
						</g>
						<g>
							<path fill="#FFFFFF" d="M90.8,46.7c0.8,0.1,1.6,0.2,2.4,0.1c0.5-0.1,1.6,0,2-0.4c0.1-0.1,0.2-0.4,0.2-0.6
								c-0.3,0-0.6,0.2-0.8,0.3c-0.4,0.1-0.8,0.2-1.2,0.2c-0.9,0.2-1.5,0-2.4-0.2c-0.3-0.1-0.6-0.2-0.9-0.2
								C90.1,46.3,90.3,46.6,90.8,46.7z"/>
						</g>
					</g>
				</g>
				<g>
					<path fill="#AD7755" d="M63.4,64.8c0.2-0.4,0.5-0.8,0.7-1.2c1.3-2.7,3.9-4.8,6.1-6.8c1.8-1.7,7.9-5.6,7.1,0.2
						c-0.2,1.2-2.7,3.8-3.4,4.8c-2.6,3.6-6.5,7.5-8.3,11.8c-1.1,2.6-2.2,7.8-1.5,10.6c0.2,0.9,1.4,2.6,0.2,3.2c-1,0.5-2-1.3-2.9-1
						c-1.3,0.4-0.4,2.1-0.5,3c-0.1,1.1-1.5,2.5-2.1,0.8c-2.1,0.5-3.3-3.2-3.1-4.8c0.4-2.4,2.1-4.5,2.8-6.9c0.8-2.7,1.7-5.5,2.3-8.3
						C61.2,68.2,62.4,66.5,63.4,64.8z"/>
				</g>
				<g>
					<path fill="#FFFFFF" d="M66.5,59c0.6-0.5,3,2.4,3.3,2.9c0.9,1.3,2,3,1.4,4.6c2.9-1.4,5.5-3.9,6.9-6.9c1-2.2,1.7-6.1-0.8-7.7
						c-1.9-1.2-4.7,0.3-6,1.8C69.7,55.6,68.4,57.3,66.5,59z"/>
				</g>
			</g>
			<g>
				<g>
					<g>
						<g>
							<g>
								<path fill="#FEC9B4" d="M107.2,162c1.4-1.6,7.4-4.9,8.2-0.7c1,5.3-7.1,10.2-10,13.9c-1.8,2.3-6.7,9.6-10.1,5.6
									C92.2,177.2,104.9,164.5,107.2,162z"/>
							</g>
							<g>
								<path fill="#EE81B6" d="M96.3,181.8c-0.8-0.6-1.5-1.4-2-1.8c-1.5-1.5-2.5-3.6-2.9-5.6c-0.2-1.2-1.2-3.2-0.8-4.3
									c0.4-1.2,2.8-2.5,4-2.3c1.2,0.2,2.2,1.5,2.9,2.6c0.3,0.4,1.1,1,1,1.6c-0.4,0.7-0.9,1.2-0.8,1.9c0.2,1.4,2.2,3.2,3.3,3.9
									c1.5,1,2.7-0.2,2,1.3c-0.6,1.3-2.5,2.9-3.7,3.5C98.4,183.1,97.3,182.6,96.3,181.8z"/>
							</g>
							<path fill="#FFFFFF" d="M99,182.7c0,0-0.7,0.1-2-1c-1.3-1.1-2.3-1.8-3.6-3.9c-1.3-2-2.5-8.3-2.5-8.3l-0.6,0.7
								c0,0-0.1,1.5,0.7,4.6c0.8,3.1,0.7,3.5,2,4.9c1.3,1.4,3.1,3,4.1,3.4C98.3,183.4,99,182.7,99,182.7z"/>
							<g>
								<g>
									<path fill="#CE5D99" d="M95.4,169.7c0.2,0.1,0.5,0.2,0.7,0.3c0-0.1,0.1-0.2,0.2-0.2c0.5,0.2,0.9,0.5,1.3,0.8
										c0.4,0.3,0.9,0.4,1.2,0.7c0,0,0.1,0.1,0.1,0.1c-0.3,0.4-0.6,0.7-0.8,1.1c-0.5-0.2-1.1-0.4-1.5-0.6c-0.2-0.1-0.8-0.2-1-0.3
										c-0.3-0.3-0.1-0.6,0.4-0.4C96,170.5,95.2,170.3,95.4,169.7z"/>
								</g>
							</g>
						</g>
						<g>
							<path fill="#FEC9B4" d="M126.8,166.5c0-2.1-2-8.6-5.2-6c-4.1,3.2-1.6,12.3-2,17c-0.3,3.6-3.6,9.5,0.6,11
								c2.2,0.8,9.4-1.7,5.5-4.3C125.7,178.4,126.8,172.5,126.8,166.5z"/>
						</g>
						<g>
							<path fill="#FEC9B4" d="M98.4,134.3c-1.7-0.8-3.4-1.7-5-2.8c-2.4-1.6-3.2-7.6-7-4.8c-1.3,1-1.7,1.8-2.1,3.5
								c-0.1,0.7-0.6,2.7,0.6,1.8c0.2,2.9,2,0.6,2.8-0.7c1.9,0.3,3.1,1.8,4.6,3c1.4,1.1,2.9,2.3,4.4,3.4c2,1.5,4.2,3.7,6.7,3.8
								c4.3,0.1,9.1,0.6,13.4-0.2c3.9-0.7,4.3-7-0.1-6.3c-4.7,0.8-9.3,2.6-14.2,0.9C101,135.4,99.7,134.9,98.4,134.3z"/>
						</g>
						<g>
							<path fill="#FEC9B4" d="M168.6,129.7c1.1-0.1,6.4-0.8,4-3.1c-1.1-1-3.8,0-5.1,0.1c-2.8,0.2-7.3-1.4-8.2,2.6
								c-0.6,2.7,1,5.4,3.3,2.5c1-1.2,1-1.9,2.7-2.1C166.3,129.6,167.4,129.8,168.6,129.7z"/>
						</g>
						<g>
							<path fill="#EFB7A3" d="M128.6,142.4c-2-0.1-4.4-0.6-4.7-2.9c-0.6-5,5.4-4,8.3-4c3.4,0,7.2-0.6,10.6-0.1
								c1.3,0.2,2.1,0.2,3.3-0.4c2-0.9,4-1.8,5.9-2.7c2.1-0.9,4.2-2,5.7-3.9c1-1.2,1.7-2.2,3.4-1.6c1.1,0.5,2.5,1.4,2.9,2.7
								c0.2,0.9-0.2,3.4-1.2,3.7c-1.2,0.4-0.9-1.3-0.3-1.9c-1.5-0.2-1.2-0.3-2.3,0.6c-1.2,0.9-2.4,0.5-3.5,1.2
								c-1.3,0.8-2.6,2.1-3.8,3c-1.9,1.5-3.8,3.1-5.9,4.2c-1.7,0.9-3.6,1.3-5.5,1.5c-3.8,0.4-7.5,0.4-11.3,0.6
								C129.7,142.4,129.2,142.4,128.6,142.4z"/>
						</g>
						<g>
							<path fill="#EFB7A3" d="M126.5,128.4c-1.6-2-5.6-4.2-7.9-2.9c-2.9,1.6-0.2,5.6-0.4,8.3c0,0.3-0.9,2.8-1.1,2.4
								c1.4,3.1,6,4.6,8.4,3.3C123.3,135.7,130.8,134,126.5,128.4z"/>
						</g>
						<g>
							<path fill="#4EC2D9" d="M105.4,156.3c0.8-0.9,1.6-1.9,2.3-2.9c8,4,17.7,5.6,25.4,1.2c0.1,1.3,0.1,2.6,0.1,3.9
								C124.5,163,113.6,161.2,105.4,156.3z"/>
						</g>
						<g>
							<path fill="#EE81B6" d="M96.8,160.7c2,0.1,3.9-0.5,5.5-1.6c1.1-0.7,2.1-1.7,3.1-2.7c8.2,4.9,19.1,6.7,27.8,2.2
								c-0.2,6.8-2.3,13.1-9,14c-5.4,0.7-10.6-1.1-15.6-2.7C105.6,168.9,95.9,165.2,96.8,160.7z"/>
						</g>
						<g>
							<path fill="#EE81B6" d="M107.7,153.4c0.6-0.9,1.2-1.8,1.7-2.7c1.6-2.6,4.6-6,5.3-9.1c2.8-0.6,4.4-4.9,1.8-6.8
								c-0.1,0-0.1,0,0,0c0.3-0.1,0.9-0.3,1.2-0.4c0,0,1.7,0.7,2.1,0.7c1,0,2-0.1,3-0.3c1.2-0.2,3.7-0.4,4.5-1.5
								c-0.1,0.1,3.4,7.1,3.6,8c0.7,2.7,1.8,7.8,2.1,13.2C125.5,158.9,115.7,157.3,107.7,153.4z"/>
						</g>
						<g>
							<path fill="#EE81B6" d="M125.7,182.3c0-0.5,0.1-0.9,0-0.9c0.6,0,1.2,0.1,1.7,0.3c1.3,0.5,1.9,1.6,1.9,2.9
								c0,1.4-0.9,2.4-1.8,3.3c-0.9,0.9-1.8,1.8-3.1,2.2c-1.5,0.4-3.3-0.2-4.9-0.4c-0.8-0.1-1.7-0.2-2.3-0.9
								c-0.5-0.7-0.4-1.7-0.3-2.4c0.2-1.3,0.4-2.2,1.2-3.3c0,0.7,0.2,1.2,0.9,1.4c1.3,0.5,3.3,0.6,4.6,0.3c0.7-0.2,1.2-0.5,1.5-1.1
								C125.5,183.7,125.7,182.9,125.7,182.3z"/>
						</g>
						<g>
							<path fill="#EE81B6" d="M125.7,182.3c0-0.5,0.1-0.9,0-0.9c0.6,0,1.2,0.1,1.7,0.3c1.3,0.5,1.9,1.6,1.9,2.9
								c0,1.4-0.9,2.4-1.8,3.3c-0.9,0.9-1.8,1.8-3.1,2.2c-1.5,0.4-3.3-0.2-4.9-0.4c-0.8-0.1-1.7-0.2-2.3-0.9
								c-0.5-0.7-0.4-1.7-0.3-2.4c0.2-1.3,0.4-2.2,1.2-3.3c0,0.7,0.2,1.2,0.9,1.4c1.3,0.5,3.3,0.6,4.6,0.3c0.7-0.2,1.2-0.5,1.5-1.1
								C125.5,183.7,125.7,182.9,125.7,182.3z"/>
						</g>
						<path fill="#FFFFFF" d="M129.4,184.9c0,0-1.2,2.3-3.1,3.7c-1.9,1.4-2.6,1.5-4.1,1.3c-1.6-0.1-4-0.5-4.6-1.1
							c-0.5-0.5-0.6-1.1-0.6-1.1s-0.3,1.4,0.4,1.7c0.7,0.3,1.6,1,4.3,1.2c2.7,0.2,2.8,0.2,4.2-0.7c1.4-0.9,2.6-2.5,3.4-4.1
							C129.6,185.3,129.4,184.9,129.4,184.9z"/>
						<g>
							<path fill="#CE5D99" d="M126.2,181.9c0.1,0-0.1,0.3-0.2,0.3c0.5,0.2,0.9,0.3,1.1,0.8c0.1,0.3-0.9,1.3-1.2,1.2
								c-0.1-0.1-0.6-0.2-0.7-0.2c0.3-0.7,0.4-1.5,0.4-2.2C125.9,181.8,126.1,181.8,126.2,181.9z"/>
						</g>
					</g>
					<g>
						<g>
							<path fill="#FEC9B4" d="M147.4,98.8c-1.3-2.3-3-4.5-5-6.1c-2.4-1.9-5.5-3.6-8.5-4.4c-6.4-1.7-15.5-1.7-21.1,2.6
								c-5,3.9-7.9,8.9-9.7,14.8c-0.1,0.4-0.2,0.9-0.3,1.5c-0.3,1.7-0.3,3.7-1.1,5.3c-0.7,1.5-1.8,1.6-3.3,1.9
								c-2.8,0.5,2.3,4.9,2.8,5.9c0.9,2.2,1.4,4,3.2,5.8c4,4,8.1,5.3,13.7,5.5c4.7,0.1,9.4-0.3,13.8-2.2c4.3-1.9,8.2-4.4,11.7-7.5
								c3.5-3.2,4.6-6.8,5.5-11.4C149.8,106,149.8,102.9,147.4,98.8z"/>
						</g>
						<g>
							<g>
								<path fill="#D14E56" d="M103.4,121.8c-0.3,0-0.6,0-0.9,0c1-0.1,1.4,3,2.6,3.3c2.2,0.7,4.2-1.3,3.9-3.3
									C107.2,122.7,104.9,124,103.4,121.8z"/>
							</g>
							<g>
								<path fill="#F5787D" d="M104.9,125c0.1,0,0.1,0.1,0.2,0.1c1.9,0.6,3.6-0.7,3.9-2.4C107.4,122.9,105.7,123.5,104.9,125z"/>
							</g>
							<g>
								<path fill="#FFFFFF" d="M109.1,121.8c0-0.3-0.1-0.6-0.3-0.9c-1.8,0.9-3.6,0.8-5.4,0.9C104.9,124,107.2,122.7,109.1,121.8z"
									/>
							</g>
						</g>
						<g>
							<path fill="#E49192" d="M112,115.2c0.4,2.9-5.4,4.1-7,1.6c-0.9-1.4,0.7-3.1,2.6-3.6C109.6,112.6,111.8,113.5,112,115.2z"/>
						</g>
						<g>
							<path fill="#65253E" d="M107,113.8c-1.7,0.3-1.5-3.9,0.1-4.5C109.2,108.5,108.6,113.5,107,113.8z"/>
						</g>
						<g>
							<path fill="#F18D01" d="M144.1,91.8c-3.8-2.9-8.9-4.9-13.6-5.6c-9.3-1.3-22.8,1.7-27.1,11.1c-0.9,1.9-1,4-1.7,5.9
								c4.1-1.4,8.1,0.6,11.5,2.7c0,0,0-0.1,0.1-0.1c0.7-1.6,1.5-3.2,1.8-5c0.1,1.5,0.6,3.8-0.2,5.2c0.5,0.2,4.2,1.5,4.1,2
								c0.8-2.5,0.8-5,0.9-7.7c3.3,3.9,5.7,12.5,3.4,17.3c1.6-1.8,4.8-1.9,5.9,0.5c0.9,2-0.5,3.9-2.5,4.7c-0.7,0.3-2.8,0-3.3,0.5
								c-0.4,0.5-0.1,2.7-0.2,3.4c-0.4,2.9-0.3,5.2-1.7,7.9c-1.3,2.5-3,4.7-4.2,7.2c0.2-0.5,5.9-0.4,6.8-0.4
								c3.6-0.2,7.1,0.4,10.7,0.1c3-0.3,8.1-0.8,10.6-2.7c3-2.3,5.4-8.2,6.6-11.7c1.4-4.2,1.9-8.8,1.9-13.2
								C153.7,105.6,151.1,97.2,144.1,91.8z"/>
						</g>
						<g>
							<path fill="#FFA233" d="M126.5,96c3.5,0.8,6.6,6.5,7.5,9.7c0.2-5-2.6-8.2-4.3-12.4c3.8,1.4,6.6,5.9,8.4,9.3
								c0.5-3.7-1.5-7.1-1.7-10.7c5.9,7.4,9.4,18.2,7.8,27.6c-1-4.8-3.6-8.5-5.9-12.5c0.7,8.1,3.8,19.2-2.8,25.9
								c0.9-2.6,0.3-5.4,0-8.1c-2.1,4.2-4.1,7-8.1,9.3c4-2.3,3.7-12.9,3.8-16.7C131.1,110.1,129.3,102.8,126.5,96z"/>
						</g>
						<g>
							<path fill="#FFA233" d="M118.9,93.7c-2.7,0.7-4.8,1.4-7.1,3c0.2-2.1,1.8-3.4,3.4-4.8c-3.7,0.7-8.2,4.3-10,7.5
								c1.6-0.7,3.4-1.8,5-1.8c-0.5,0-1,2.9-1.1,3.3c1.7-1.6,3.3-0.7,3.5,1.6C112.4,99,116.3,95.3,118.9,93.7z"/>
						</g>
						<g>
							<path fill="#9E6036" d="M110.2,101.4c0.1,0,0.2,0,0.2,0.1c1.2,0.4,2.3,1.6,2.9,2.6c0-0.1,0.1-0.7,0.1-1
								c-0.1-0.4-0.3-0.8-0.5-1.1c-0.5-0.7-1.2-1.2-2-1.4c-0.3-0.1-1.6-0.3-1.7,0.3C109.1,101.2,109.8,101.3,110.2,101.4z"/>
						</g>
						<g>
							<path fill="#FFA233" d="M144.5,121.1c0.4,1.9,0.6,4,0.5,5.9c3.3-3.2,3-8.7,3.3-12.9c0.2-4.1-0.7-8-0.7-11.8
								c3.6,7,3.8,14.6,1.8,22.2c-0.8,3.4-1.9,6.3-3.4,9.4c-0.9,1.8-2.2,5-4.3,5.7c1.9-2,2.6-5.4,3.1-8.2c-1.5,3-3.3,5.8-6.5,7.2
								c2.1-0.9,2.6-3.3,3.2-5.3c0.8-2.4,1.7-4.8,2.2-7.2c0.6-2.6,0.1-5.1,0-7.8C144.1,119.3,144.3,120.1,144.5,121.1z"/>
						</g>
					</g>
				</g>
				<g>
					<g>
						<g>
							<path fill="#D81F19" d="M46.9,158c-0.5,0.7-0.9,1.4-1.1,2.1c-0.1,0.4-0.1,0.8,0,1.3c0.8,3.5,6,5.1,9.1,5.5
								c1.5,0.2,5.2,0.3,5.4-1.9c0.1-1.3-1-3.1-2.1-3.8c-0.6-0.3-1.3-0.2-1.9-0.5c-0.8-0.4-0.9-1.9-0.9-2.7c0-0.1,0.2-2.1,0.3-2.1
								c-1.7-0.8-2.9-3.5-4.8-3.7C49,152.1,47.7,156.8,46.9,158z"/>
						</g>
						<g>
							<path fill="#FFFFFF" d="M59,162.4c-1.8-0.4-3.8,1.7-3.5,3.5c0.3,2,3.8,0.8,4.7-0.1C61.1,164.8,60.1,162.6,59,162.4z"/>
						</g>
						<g>
							<path fill="#FFFFFF" d="M47.1,157.5c-0.1,0.2-0.2,0.4-0.3,0.5c-0.3,0.4-0.6,0.8-0.8,1.3c-0.2,0.3-0.5,1-0.4,1.4
								c0.1,0.4,0.4,0.9,0.6,1.2c0.3,0.4,0.8,0,1-0.2c0.6-0.6,0.9-1.3,0.9-2.2c0-0.4-0.1-0.8-0.3-1.1
								C47.8,158.3,47.2,157.5,47.1,157.5z"/>
						</g>
						<path fill="#CCC5E8" d="M53.8,156.8c2.2-2.4,1.7,3.1,1.8,3.5c0,0,0,0,0,0c-0.7-0.5-1.6-0.2-2.3,0
							C53.4,159.3,53,157.7,53.8,156.8z"/>
						<g>
							<path fill="#CCC5E8" d="M52.8,163.6c0.2,0,0.4,0,0.6-0.1c0.4-0.2,0.7-1,1-1.3c0.6-0.5,1.4-0.8,2.1-1.1c-0.5-0.6-1-1.2-1.2-2
								c-0.8,0-1.9-0.1-2.7,0.2c-0.3,0.1-0.8,0.2-0.9,0.5c-0.1,0.1-0.1,1.1,0.1,1c0.3-0.1,0.6-0.2,0.9-0.3c-0.5,0.2-1,0.5-1.3,0.9
								c0.1,0.4,0.4,0.8,0.7,1.2c0.3-0.2,0.6-0.5,1-0.8C52.5,162.4,52.3,163.5,52.8,163.6z"/>
						</g>
						<g>
							<path fill="#CCC5E8" d="M59.5,165.5c-4.3,1.5-10.2-0.7-13-4.2c-0.3-0.4-0.6-0.9-0.9-1.2c-0.3,0.5-0.4,1.6-0.2,2.1
								c0.9,2.5,4.6,4.1,7.1,4.7c1.8,0.5,3.7,0.6,5.5,0.3c0.9-0.1,2.4-0.4,3-1c-0.2-0.4-0.3-1-0.3-1.4
								C60.3,165.1,59.9,165.3,59.5,165.5z"/>
						</g>
					</g>
					<g>
						<g>
							<path fill="#D81F19" d="M69.5,158.5c-0.3,0.8-0.5,1.6-0.5,2.4c0,0.4,0.1,0.8,0.3,1.2c1.6,3.2,7.2,3.3,10.2,2.9
								c1.5-0.2,5.1-1.1,4.7-3.3c-0.2-1.3-1.8-2.8-3-3.1c-0.7-0.2-1.3,0.2-2,0c-0.9-0.2-1.4-1.5-1.6-2.4c0-0.1-0.4-2.1-0.3-2.1
								c-1.8-0.3-3.8-2.6-5.6-2.3C70,152.2,70,157.1,69.5,158.5z"/>
						</g>
						<g>
							<path fill="#FFFFFF" d="M82.3,159.5c-1.8,0.1-3.2,2.7-2.4,4.3c0.8,1.8,3.9-0.2,4.5-1.3C85,161.3,83.5,159.5,82.3,159.5z"/>
						</g>
						<g>
							<path fill="#FFFFFF" d="M69.6,157.9c0,0.2-0.1,0.4-0.1,0.5c-0.2,0.5-0.3,1-0.4,1.5c-0.1,0.4-0.2,1.1,0,1.4
								c0.2,0.3,0.6,0.7,0.9,1c0.3,0.3,0.8-0.2,0.9-0.4c0.4-0.7,0.5-1.5,0.3-2.3c-0.1-0.4-0.3-0.7-0.6-1
								C70.5,158.5,69.6,157.9,69.6,157.9z"/>
						</g>
						<path fill="#CCC5E8" d="M75.9,155.5c1.5-2.9,2.4,2.5,2.7,2.9c0,0,0,0,0,0c-0.8-0.3-1.6,0.2-2.2,0.6
							C76.1,158,75.4,156.6,75.9,155.5z"/>
						<g>
							<path fill="#CCC5E8" d="M76.7,162.4c0.2,0,0.4-0.1,0.6-0.3c0.3-0.3,0.4-1.1,0.6-1.5c0.4-0.7,1.1-1.1,1.7-1.6
								c-0.6-0.5-1.3-0.9-1.7-1.6c-0.8,0.2-1.9,0.4-2.6,0.9c-0.3,0.2-0.7,0.4-0.8,0.8c0,0.1,0.2,1.1,0.4,0.9
								c0.3-0.2,0.6-0.3,0.8-0.5c-0.4,0.4-0.8,0.7-1,1.2c0.2,0.4,0.6,0.7,0.9,0.9c0.3-0.3,0.5-0.7,0.7-1
								C76.1,161.2,76.2,162.4,76.7,162.4z"/>
						</g>
						<g>
							<path fill="#CCC5E8" d="M83.6,162.4c-3.8,2.6-10.1,2-13.7-0.6c-0.4-0.3-0.8-0.7-1.2-0.9c-0.2,0.5,0,1.6,0.3,2.1
								c1.6,2.2,5.6,2.8,8.1,2.7c1.8,0,3.7-0.4,5.4-1.2c0.8-0.4,2.2-1,2.7-1.8c-0.3-0.4-0.6-0.8-0.7-1.3
								C84.4,161.8,84,162.1,83.6,162.4z"/>
						</g>
					</g>
					<g>
						<path fill="#035C9E" d="M77.3,149.9c0.2,0.8,0.4,1.6,0.7,2.2c0.7,1.6,2,2.8,2.1,4.7c0.1,2.1-4.1,2.6-5.9,2.7
							c-2.5,0.2-4.9,0.5-5.8-2.2c-0.6-1.8-0.3-3.7-0.6-5.6c-0.4-2.3-2.2-4.1-3.1-6.2c-0.5-1.2-2-4.6-1.1-5.8c0.6-0.8,4-0.3,5-0.5
							c2-0.3,3.9-0.7,5.8-1.1c0.8-0.2,1.8-0.6,2.6-0.5c0.1,1.7,0.5,3.4,0.4,5.1c-0.1,0.7-0.5,1.4-0.6,2.1c-0.1,0.8,0,1.7,0.1,2.6
							C76.9,148.2,77.1,149.1,77.3,149.9z"/>
					</g>
					<g>
						<path fill="#D81F19" d="M67.6,94.6c-0.3-4.8,1.6-11-4.6-11.9c-11.6-1.6-6.6,17.7-6.7,24c0,1.5-0.4,3.5,0.7,4.7
							c2.7,3.1,8,2.7,10.1-0.6c1.6-2.4,0.8-5.7,0.6-8.4C67.5,99.9,67.8,97.3,67.6,94.6z"/>
					</g>
					<g>
						<path fill="#0FA2E5" d="M52.3,147c-0.1,0.6-0.2,1.1-0.5,1.6c-1,2.5-4.4,4.4-2.4,7.3c1.2,1.7,5.8,5.1,8,4.7
							c2.8-0.5,3.9-4.5,5.1-6.7c1.5-2.8,3.5-6.1,6.4-7.6c1.8-0.9,3-0.5,4.3-2.1c1-1.2,1.7-3.7,1.7-5.2c-4.5,1.3-8.2,1.1-12.7,0.1
							c-2.1-0.5-4.4-3-6.6-2.7c-2.4,0.3-2.7,5.8-3,7.7C52.5,145.1,52.5,146.1,52.3,147z"/>
					</g>
					<g>
						<path fill="#FFF9FC" d="M60.4,106.6c-7.1-1.4-9.6,0.5-6.9,7.2c1.5,3.6,2.3,7.1,2.6,11.1c0.2,2.4,0,4.9-0.6,7.3
							c-0.2,1.4-2.4,4.9-2,6.3c0.8,3,9.3,3.9,12.4,4.1c3.6,0.2,10.6,0.4,11.9-3.4c2-6.5-2.5-18.9-6.2-23.9
							C68.7,111.2,65,107.4,60.4,106.6z"/>
					</g>
					<g>
						<path fill="#EFB7A3" d="M57.4,112.7c1.4-0.2,7.6-0.2,7.3-2.5c-0.3-2.1-5-3.5-6.7-3.1c-1.7,0.3-3.7,1.4-4.2,3.2
							C53.1,112.5,55.6,113,57.4,112.7z"/>
					</g>
					<g>
						<path fill="#EFB7A3" d="M61.2,117.2c2.5,5.2,8.2,7.2,13.3,8.9c2,0.7,4.5,1.7,6.6,1.9c1.1,0.1,2.3-0.2,3.4-0.4
							c1.1-0.2,2.1-0.7,3.2-0.6c0.9,0.1,0.8,0.9,0.5,1.6c-0.3,0.6-1.1,1.5-0.7,2.2c0.3,0.5,1.1,0.6,1.5,0.9c1,0.9-0.7,1.9-1.4,2.1
							c-0.5,0.1-1.1,0.2-1.7,0.4c-0.5,0.1-1,0.3-1.5,0.1c-0.7-0.2-1.1-0.8-1.6-1.3c-0.7-0.8-1.6-1.9-2.7-2.2
							c-1.2-0.3-2.6-0.4-3.8-0.8c-2.6-0.8-5.2-1.9-7.6-3.3c-2.6-1.4-5.1-2.7-7.2-4.8c-1-1-1.9-1.8-2.2-3.2c-0.2-1.1-0.1-2.7,1.6-2
							c1.6,0.7,2.2,3.3,3.3,4.4"/>
					</g>
					<g>
						<path fill="#D81F19" d="M58.5,113c-6.9,0-2.4,7.8-0.2,10.1c3.4,3.3,7.3,5.9,11.4,8.2c3.4,1.9,8.3,5,8.6-1
							c0.1-2.3,0.8-4.3,1.8-6.4c-1.7-1.4-5-1-7.1-1.6c-3-0.7-5.9-2.3-7.9-4.7C63.4,115.4,61.9,113,58.5,113z"/>
					</g>
					<g>
						<g>
							<g>
								<path fill="#F08C00" d="M72.7,91.8c-0.1,0.1-0.1,0.2-0.2,0.3c-1.2,2.7-2,5.4-3.9,7.8c-1.9,2.3-4.3,4.2-6.9,5.7
									c-2.5,1.5-6.3,4.1-9.3,4.4c-2.1,0.2-5.1-0.9-6.9-2c1.8,3.1-0.5,7.4-3.7,4.2c1,2.6-1.5,2.6-3.3,1.9c-3.1-1.2-6.4-3.3-6.5-7
									c-0.1-2.6,1-6,2.3-8.2c3.2-5.4,8.1-10,13.6-13c4-2.2,8.4-3.3,12.9-3.7c3.9-0.4,8-1.1,10.9,1.9c0.7,0.7,2.3,3.2,0.1,3
									c0.9,0.3,2.6,0.9,2.7,2.2C74.4,90.2,73.2,91,72.7,91.8z"/>
							</g>
							<g>
								<path fill="#FEC9B4" d="M49.3,70.5c3-0.3,7.6-0.9,10.5,0.2c3.4,1.3,6.4,5.8,8.2,8.7c2.1,3.4,3.1,7.2,4.7,10.8
									c1.7,3.6,2.5,5.6,0.2,9.4c-3.5,5.7-8.8,10.4-15.3,12.4c-4.1,1.4-13.7,2.6-16.7-2c1.2,5.5-8.6,4.8-9.4,0.1
									c-0.6-3.6,6.8-7.9,7.9-4.1c-4.2-1.4-9.2-4-10.2-8.7c-1-4.6,0-9.7,1.9-13.9c1.5-3.4,3.4-7.2,6.4-9.5
									C40.8,71.3,45.3,70.9,49.3,70.5z"/>
							</g>
							<g>
								<path fill="#E49192" d="M52.5,107.3c1.8,1.5,5-1.8,4-3.9c-0.5-1.2-2.3-0.9-3.5,0.2C51.8,104.7,51.5,106.5,52.5,107.3z"/>
							</g>
							<g>
								<path fill="#E49192" d="M69.7,94.1c1.2,1.1,3.6-1.1,3-2.6c-0.3-0.9-1.6-0.7-2.5,0C69.3,92.2,69,93.4,69.7,94.1z"/>
							</g>
							<g>
								<path fill="#65253E" d="M64.5,84.8c-0.3,0.1-0.5,1.1-0.3,1.4c0.4,0.5,1.3,0.1,1.8,0.1c0.4,0,1.2,0.7,1.2,0
									C67.1,85.8,64.9,84.6,64.5,84.8z"/>
							</g>
							<g>
								<path fill="#65253E" d="M49.1,93.9c-0.4,0.6-1.2,1.9-0.8,2.6c0.4,0.8,0.9-0.5,1.2-0.9c0.1-0.2,1.3-1.3,1.3-1.3
									C50.2,93.6,49.8,92.8,49.1,93.9z"/>
							</g>
							<g>
								<path fill="#65253E" d="M69.2,92.7c1.7-0.8,0.2-3.8-1.5-3.3C65.5,90.1,67.5,93.5,69.2,92.7z"/>
							</g>
							<g>
								<path fill="#65253E" d="M55,102.6c1.8-0.8,0.3-4.1-1.5-3.5C51,99.8,53.2,103.5,55,102.6z"/>
							</g>
							<g>
								<path fill="#F5787D" d="M65.9,104.4c-0.4,1-1.3,1.7-2.4,2c-1.6,0.4-3.6,0-4.1-1.8c-0.2-1,1.4-0.8,2-0.8
									c1.1-0.1,2.3-0.2,3.2-1c0.5-0.5,1-2,1.5-0.6C66.3,102.9,66.2,103.7,65.9,104.4z"/>
							</g>
							<g>
								<path fill="#D14E56" d="M65.5,105c0.1-0.2,0.3-0.4,0.4-0.6c0.3-0.7,0.4-1.5,0.1-2.3c-0.5-1.4-1,0.1-1.5,0.6
									c-0.8,0.8-2,0.9-3.2,1c-0.5,0-2.2-0.2-2,0.8c0.1,0.5,0.3,0.9,0.6,1.1C61.9,104.5,63.7,103.8,65.5,105z"/>
							</g>
							<g>
								<path fill="#F5787D" d="M60.1,105.7c0.8,0.8,2.3,1,3.5,0.7c0.8-0.2,1.5-0.7,2-1.4C63.7,103.8,61.9,104.5,60.1,105.7z"/>
							</g>
						</g>
						<g>
							<path fill="#AA6543" d="M41.3,97.1C41,97,40.7,97,40.3,96.9c-0.1,0-0.1,0,0,0c3.8-0.9,3.4-8.3,1.6-10.7
								c-0.9-1.1,7.5-7.1,8.5-7.6c3.8-1.7,7.8-0.8,11.7-0.4c3.9,0.4,4.3,2.9,7.2,4.6c0.7-5.1-0.8-9.4-5.7-11.4
								c-5.5-2.2-6.2-7.6-12.8-8.1c-5.3-0.4-9.4,2.3-9.4,8C34.8,72,19.6,86.2,24.4,93.9c-1.3,0.3-2.5,0.7-3.7,1
								c0.8,0.4,1.3,0.8,2.2,1c-1.3,0.2-2.3,1.3-2.6,2.6c1-0.3,2-0.5,3-0.8c-1,0.3,4.1,6.8,4.6,7.5c0.4,0.5,3.4,3.7,3.2,4.3
								c2.1-5.3,5.9-4.2,9.4-1.6C43,106,44.9,98.5,41.3,97.1z"/>
						</g>
						<g>
							<g>
								<path fill="#CB526A" d="M62.1,93.9c0.2,1.2,0.3,2.4,1.1,3.3c0.8,0.9,1.7,0.7,2.7,0.3c0.2-0.1,0.5-0.1,0.6-0.2
									c0-0.1,0-0.3,0.1-0.4c-0.1,0.2-0.2,0.4-0.3,0.6c-0.3,0.4-0.6,0.7-1,0.8c-0.3,0.1-0.8,0.1-1,0.2c-0.5,0-0.4,0.4,0.4,1.3
									c0.2-0.1,0.4,0,0.6,0.1c0.2,0.1,0.3,0.2,0.4,0.4c0.6,0.8,1.3-1.5,0.6-2.2c-1.3-1.2-3-0.4-2.9,1.4c0.1,1.7,1.7,1.6,2.8,0.9
									c1.8-1.1,1.9-3.7,1.1-5.4c-0.4-0.9-1-1.1-1.9-0.8c-0.5,0.2-0.8,0.5-1.3,0.3c-0.4-0.1-0.8-0.7-0.8-1.1c0-0.3-0.1-1.3-0.7-1.2
									C62.1,92.5,62.1,93.5,62.1,93.9L62.1,93.9z"/>
							</g>
						</g>
					</g>
				</g>
			</g>
		</g>
		<g>
			<g>
				<path fill="#C7857D" d="M171.7,0.4c10.5,1.4,25.6,13.3,19.5,24c-2.9,4.8,1.1,6.8,3.6,10.8c1.2,1.8,0.9,8-2.7,5.8
					c2.6,5.9-2.9,9.4-8,5.9c-0.6,2.9-2,6.3-5.5,6.6c-1.9,0.1-4.7-1-5.4-2.8c-3,1.3-7.5,1.7-10.9,1.9c-2.4,0.1-4.7-0.4-6.9-1.4
					c-1.7-0.6-3.4-2.4-4.6-2.3c-0.6,0.1-1.3,1-2,1.1c-0.9,0.1-1.8-0.1-2.7-0.5c-1.7-0.6-3.2-1.8-4.1-3.3c-1.8-2.5-2.4-5.3-2.4-8.4
					c0-2.5-1.2-3.8-1.7-6.1c-1-5.1,2.2-8.6,3.1-13.3c0.3-1.7,0.3-3.4,0.6-5C143.8,1.8,161.6-1,171.7,0.4z"/>
			</g>
			<g>
				<g>
					<path fill="#955655" d="M152.5,46.9c-1.5,0.2-1.6-1.2-2.6-1.2c0.5,1.3,0.2,2-0.9,2c-0.6,0.2-1.1,0.2-1.7,0
						c-3-0.5-4.6-3.5-5.1-6.3c-1-5.6,2.4-10.2,4.1-15.3c0.1-0.3-0.2-1.5-0.5-0.8c-2.8,5.6-9.1,19.9,0.4,23.6c6,2.3,5.9-5.7,1.9-4.3
						c-0.3,0.1-0.2,0.9-0.1,1.1c0.9,2.1,2.3,2.7,4.6,2.3C152.9,47.8,152.8,46.9,152.5,46.9L152.5,46.9z"/>
				</g>
			</g>
			<g>
				<g>
					<path fill="#955655" d="M175.6,2.7c3.3,1.5,6.9,3,9.4,5.7c4.8,5.2,2.4,10.2,2.1,15.8c-0.2,4.4,3.1,7,3.9,11.1
						c0.5,2.8-1,2.3-1.7,3.1c-2.7,2.9,2.1,3.3-1.1,5.4c-0.9,0.6-1.9,0.6-2.9,0.9c-0.5,0.2-1.4-0.6-1.8-0.3c0,0-0.8,2.5-1.3,3.1
						c-0.9,1.1-2.1,2.2-3.4,2.8c-0.9,0.5-2,1.1-3.1,1.1c-1.1,0.1-2-0.3-2.7-1.3c0.4-1.5,0.1-1.9-1-1.2c-0.6,0.2-0.4,1.9,0.3,1.7
						c1.5-0.5,3.3-1.5,3.5-3.3c0.1-1.3-0.7-2.9-2.3-2.8c-3,0.2-2.1,6-0.8,7.5c5.3,5.7,15.7-8.1,10.4-9.5c-0.4-0.1-0.5,0.3-0.5,0.6
						c-0.9,5.4,7,3,8.1-0.7c0.4-1.3-0.2-6.6-2-6.7c-1.3,0-1.7,1.6-1.4,2.8c0.6,2,3.1,2,4.4,0.4c1.6-2.1-0.6-5.6-1.5-7.4
						c-0.6-1.2-1.4-2.4-1.8-3.7c-0.9-2.8-0.3-5.4,0-8.2c0.3-2.2,0.5-4.5-0.2-6.7c-1.7-6-7.4-8.4-12.5-10.9
						C175.5,1.8,175.4,2.6,175.6,2.7L175.6,2.7z"/>
				</g>
			</g>
		</g>
		<g>
			<path fill="#FEC9B4" d="M152.7,52.7c2.8-1,5.5-3.8,3.7-5.5c-1.7-1.6-4.6-0.2-6.4,0.3c-2.5,0.8-6,3-8.6,3.2
				c-1.9,0.1-4.5-1.3-6.2-2.1c-2.2-1-6.7-2.9-9-1.6c-1.8,1-4,4.2-3.2,6.3c1.3,3.4,3.3,0.6,4.7-0.7c0.7,1.8,1.6,2.3,2.4,0.2
				c0.3-0.9-0.2-1.4,0.9-1.7c1-0.2,8.2,4,10.1,4.4C144.2,56.1,148.8,54.1,152.7,52.7z"/>
		</g>
		<g>
			<path fill="#FEC9B4" d="M176.1,49.9c-2.2-2-5.9-3.1-6.6-0.8c-0.7,2.3,1.9,4.2,3.2,5.6c1.8,1.9,5.4,4,6.7,6.2
				c1,1.7,0.9,4.6,0.9,6.5c0.1,1.5,0.9,3.2,0.6,4.6c-0.2,1.2-0.4,2.3,0.8,3.2c0.4,0.3,1.6,0.7,1.6-0.2c0-0.5-1.2-1.3-0.1-1.6
				c0.6-0.2,1.1,0.7,1.1,1.2c0,0.5-1.2,1.3-0.5,1.5c-0.3,0.1-0.7,0.7-0.2,0.8c-0.5,0.6,0.2,0.9,0.7,0.8c1.8-0.1,2.3-2.9,2.4-4.3
				c0.1-1-0.4-1.5-1.1-2.2c-0.7-0.7-1.3-1.2-1.4-2.2c-0.2-1.7-0.5-3.5-0.4-5.2c0.1-1.6,0.3-3.3-0.1-4.9
				C183,55.9,179.1,52.7,176.1,49.9z"/>
		</g>
		<g>
			<path fill="#F79FBC" d="M161.2,48.5c5.9-10.1-13.6-1.7-13.4-1.3c1.9,2.6,2.9,5.2,3.2,8.4C154.3,55.8,159.5,51.5,161.2,48.5z"/>
		</g>
		<g>
			<path fill="#E57389" d="M169.2,43.7c-1.5-2.9-7.5-4.8-10.4-2.1c-3.2,2.9-1.4,9.8-2.1,13.7c-0.3,1.5-5.3,15.2-5.6,14.9
				c3.4,4,12.5,4.4,17.5,4.2c1.6,0,4.8,0,6-1c1.6-1.2,1-3.6,0.8-5.6c-0.4-4-1-8.2-2.4-11.7C171.8,52.2,171,47.3,169.2,43.7z"/>
		</g>
		<g>
			<path fill="#F79FBC" d="M179.6,51.1c-3.3,0.4-8.1,4.8-8.2,4.7c-1.6-1.7-3.9-5.1-3.9-7.6c0-1.3-0.1-4.5,1.4-5.1
				C171.5,42.1,180.9,51,179.6,51.1z"/>
		</g>
		<g>
			<path fill="#F79FBC" d="M163.6,47.3c6.7-2.5,0.2-11-4.1-5.6C156.9,44.9,158.7,49.3,163.6,47.3z"/>
		</g>
		<g>
			<path fill="#EFB7A3" d="M163.3,46.4c5.4-2,0.1-8.8-3.3-4.5C158,44.5,159.4,48,163.3,46.4z"/>
		</g>
		<g>
			<g>
				<g>
					<g>
						<g>
							<path fill="#FEC9B4" d="M155.6,3.8c-4.5,0.8-8.3,3.1-10.2,7.2c-2.1,4.5-3.4,10.2-4.1,15.1c-0.4,2.8-0.3,6.8,1.1,9.2
								c5.5,9.3,18.5,9.3,27.8,7.1c2.7-0.6,6.4-2.2,8.1-4.4c0.5,1,3.8,1.4,4.7,1.3c1.3-0.2,2.2-1.1,2.8-2.3c0.9-1.8,0.8-4.5-1.1-5.6
								c-1.1-0.6-3.6-0.7-4.7-0.1c6.4-3.7,5.3-11.9,1.9-17.5c-2.9-4.9-9.6-8.1-14.9-9.6C163.9,3.3,159.6,3.1,155.6,3.8z"/>
						</g>
						<g>
							<path fill="#E49192" d="M174.1,33.2c0.7,3-5.2,4.8-7.1,2.4c-1.1-1.3,0.4-3.3,2.3-4C171.4,30.8,173.7,31.4,174.1,33.2z"/>
						</g>
						<g>
							<path fill="#E49192" d="M142,32.1c-0.9,2.8,4.5,4.9,6.4,2.8c1.1-1.2-0.1-3.1-1.8-3.9C144.7,30,142.4,30.5,142,32.1z"/>
						</g>
						<g>
							<g>
								<path fill="#7B485E" d="M165.9,28.5c-0.4,0.1-0.7,0.2-1,0.5c-0.8,0.9-0.7,2.8,0.6,3.2c1.2,0.4,3-0.6,2.9-2
									C168.4,29.1,167,28.3,165.9,28.5z"/>
							</g>
						</g>
						<g>
							<g>
								<path fill="#7B485E" d="M145,26.8c-0.4,0-0.7,0.2-0.9,0.5c-0.8,0.8-0.6,2.6,0.6,3c1.1,0.3,2.8-0.6,2.8-1.8
									C147.4,27.4,146,26.7,145,26.8z"/>
							</g>
						</g>
						<g>
							<g>
								<path fill="#C55756" d="M155.2,27.8c0.2,1.2-0.2,2-1.3,2.7c-0.5,0.4-1.4,0.6-1.8,1.1c-0.5,0.5-0.2,1.6,0.2,2.1
									c0.4,0.6,1.2,0.8,1.9,0.9c0.7,0.1,1.5,0,2-0.5c0.4-0.5,0.5-1.5,0.1-2.1c-0.3-0.5-1-0.6-1.4-0.2c-0.6,0.6-0.4,1.7,0,2.3
									c0.5,0.9,0.9-0.8,0.7-1.3c-0.3,0.5-0.2,0.7,0.1,0.6c0.1,0,0.1,0,0.2,0c0-1.3-0.1-0.6-0.6-0.7c-0.5,0-0.9,0-1.4-0.1
									c-0.1,0-1-0.1-1.1-0.3c-0.1-0.3,1.3-0.4,1.4-0.4c2.4-0.2,2-2.9,1.6-4.6C155.5,26.6,155.2,27.4,155.2,27.8L155.2,27.8z"/>
							</g>
						</g>
						<g>
							<path fill="#C55756" d="M172.1,21.4c-0.2-0.4-0.3-0.7-0.6-0.9c-0.3-0.2-0.8-0.3-1.2-0.4c-0.8-0.4-1.8,0.3-2,1.1
								c-0.1,0.2-0.1,0.8,0.2,0.8c0.3,0.1,0.4-0.1,0.7-0.3c0.3-0.2,0.6-0.3,0.9-0.5c0.6-0.5,1.4,0.1,1.8,0.7
								C172,22.1,172.1,21.5,172.1,21.4L172.1,21.4z"/>
						</g>
						<g>
							<path fill="#C55756" d="M146,22c0.2-0.5,1-0.9,1.5-1c0.3-0.1,0.6,0,0.9,0.2c0.2,0.1,0.4,0.5,0.6,0.4c0.1,0,0.1-0.2,0.1-0.3
								c-0.1-0.8-0.8-1.3-1.5-1.4c-0.4,0-0.7,0.1-1,0.2c-0.4,0.2-0.7,0.6-1,0.7C144.8,21.2,145.8,22.5,146,22L146,22z"/>
						</g>
						<g>
							<path fill="#C7857D" d="M144.2,6.9c5.5-3.7,12.1-6.2,18.9-6.7c5.5-0.4,13.1-0.5,17.4,3.6c4.2,4,6.7,7.8,7,13.5
								c0.2,5-3.9,10.3-1.9,15.3c-1.3-0.9-2-1-3.5-0.8c-1.2,0.2-2.6,1.5-3.5,0.3c-1-1.4-0.8-4.4-0.8-6.1c0.1-1.9,0.8-3.6,1.3-5.5
								c0.2-0.9,0.2-3.7,1-4.2c-1.2,0.7-1.9,2.2-3,3.1c0.8-1.4,0.7-3.1,0.7-4.6c-0.9,1.5-1.5,3.1-2.5,4.5c-2-2.6-6.5-2.7-9.5-3.4
								c-3.6-0.6-9.1-2-12.6-0.5c0-1.2,0.7-2.3,1.2-3.5c-1.3,0.8-2.1,2-2.4,3.4c-0.5-1.1-0.3-2.5,0.2-3.6c-0.9,1-1.6,3.5-2.5,4
								c-0.8,0.4-2.6-0.1-3.3-0.1c-2.4,0.1-4.7,1.1-7.1,1.2c1.8-1.3,2.1-3.6,3.5-5.2c1.1-1.4,3.4-2.8,4.1-4.5
								C146,7,145.1,7.2,144.2,6.9z"/>
						</g>
						<g>
							<path fill="#F5787D" d="M151.8,36.9c1.6,2.2,4.9,3.4,7.6,2.4c0.8-0.3,1.7-1,2-1.7c0.4-0.8,0.3-1.6-0.7-1.8
								c-1.5-0.3-2.5,1.2-3.8,1.4c-1.3,0.2-2.9-0.7-4-1.3c-0.3-0.2-1.1-0.6-1.4-0.2C151.3,36,151.5,36.4,151.8,36.9z"/>
						</g>
						<g>
							<path fill="#D14E56" d="M160.7,35.8c-1.5-0.3-2.5,1.2-3.8,1.4c-0.1,0-0.2,0-0.3,0c-0.7,0.4-1.6,1.1-1.7,2
								c1.8,0.7,4.1,0.6,5.7-0.5C161.4,38,162.4,36.1,160.7,35.8z"/>
						</g>
						<g>
							<g>
								<path fill="#FFFFFF" d="M159.5,37.5c0.6-0.5,0.8-1.1,0.8-1.8c-1.3,0-2.2,1.2-3.4,1.4c-1.3,0.2-2.9-0.7-4-1.3
									c-0.1-0.1-0.3-0.2-0.5-0.2C152.9,38,157.4,38.7,159.5,37.5z"/>
							</g>
						</g>
					</g>
					<g>
						<g>
							<g>
								<path fill="#955655" d="M174.5,16.9c1.1-3.4,2.4-6.8,1.7-10.5c-0.1-0.5-0.5-0.3-0.4,0.1c0.2,3.4-0.5,6.5-1.8,9.6
									C173.8,16.6,174.3,17.7,174.5,16.9L174.5,16.9z"/>
							</g>
						</g>
						<g>
							<g>
								<path fill="#955655" d="M148.2,13.7c1.2-2.4,3-4.6,5-6.4c2.2-2,4.5-2.8,7.2-3.8c0.2-0.1,0.2-0.8-0.1-0.8
									c-2.6-0.3-5.3,1.8-7.1,3.4c-2.2,1.9-4,4.3-5.3,6.9C147.6,13.3,147.9,14.2,148.2,13.7L148.2,13.7z"/>
							</g>
						</g>
						<g>
							<g>
								<path fill="#955655" d="M157.5,12.2c0.5-2,1.8-3.7,3.3-5.1c1.5-1.4,3.3-2,4.9-3.2c0.2-0.1,0.2-0.7-0.1-0.7
									c-1.9-0.1-4.1,1.9-5.4,3.2c-1.5,1.5-2.6,3.3-3.3,5.3C156.9,12.1,157.4,12.9,157.5,12.2L157.5,12.2z"/>
							</g>
						</g>
						<g>
							<g>
								<path fill="#955655" d="M168.4,13.1c1.1-2.4,1.9-4.9,3-7.2c0.1-0.2,0-1-0.3-0.7c-1.7,2-2,4.8-3.2,7
									C167.8,12.6,168.1,13.7,168.4,13.1L168.4,13.1z"/>
							</g>
						</g>
						<g>
							<g>
								<path fill="#955655" d="M181.8,30.7c-2.4-8.5,5.5-16,0.1-24.1c-0.2-0.3-0.2,0.4-0.2,0.6c2.8,6.4,0.6,10.4-0.6,16.5
									c-0.5,2.6-0.4,5.1,0.3,7.6C181.5,31.8,181.9,31,181.8,30.7L181.8,30.7z"/>
							</g>
						</g>
						<g>
							<g>
								<path fill="#955655" d="M188.9,33.9c-4.1-7.1,2.7-16.8-2.9-23.1c-0.2-0.3-0.3,0.5-0.2,0.6c4.2,7.3-1.4,15.7,2.8,23.2
									C188.8,34.9,189,34.1,188.9,33.9L188.9,33.9z"/>
							</g>
						</g>
						<g>
							<g>
								<path fill="#955655" d="M181.5,49.7c1-3.2,1-6.6-1.2-9.3c-0.2-0.3-0.3,0.5-0.2,0.6c1.5,2.6,2.1,5.2,1,8.2
									C180.9,49.6,181.3,50.3,181.5,49.7L181.5,49.7z"/>
							</g>
						</g>
						<g>
							<g>
								<path fill="#955655" d="M147.7,45.9c-1.4-1.4-1.5-3-1.3-4.9c0-0.3-0.3-0.8-0.4-0.3c-0.8,2.1,0.1,4.4,1.5,6.1
									C147.8,47.1,148,46.1,147.7,45.9L147.7,45.9z"/>
							</g>
						</g>
						<g>
							<g>
								<path fill="#955655" d="M188.7,44.5c0.9-2.8,0.1-6.2-2.1-8.4c-0.3-0.3-0.3,0.5-0.2,0.7c1.5,2.1,2.8,4.6,1.8,7.2
									C188.2,44.4,188.5,45.1,188.7,44.5L188.7,44.5z"/>
							</g>
						</g>
						<g>
							<g>
								<path fill="#955655" d="M144,15.5c0.8-4.2,3.7-7.2,6.6-10.1c0.1-0.1,0.1-0.9-0.2-0.7c-3.6,2.2-5.9,6.4-6.9,10.4
									C143.5,15.3,143.9,16,144,15.5L144,15.5z"/>
							</g>
						</g>
					</g>
					<g>
						<path fill="#F79FBC" d="M177.2,24.5c-1.8,0.9-0.2,1.6-0.6,2.9c0,0.1,0,0.1,0,0c0.6-1.2,2.3-2,3.6-2c0.4,0,3.7,0.3,3.8,0.5
							c-0.1-0.7-0.1-1.6-0.2-2.4C181.6,23,179.2,23.5,177.2,24.5z"/>
					</g>
				</g>
			</g>
		</g>
	</g>
	<g>
		<path fill="#F3A402" d="M195.4,110.5c-0.3,2.6-2.9,8.1-6.4,7.5c-3.2-0.5-1.5-4.3-1.3-6.4c0.5-3.5,0.1-7.7-0.4-11.2
			c-0.3-1.8-0.7-3.4-1-5.2c-0.3-1.2-1.6-3.4-1.3-4.5c1-4.6,7.6-2.5,8.8,0.4C195.8,96.8,196.1,104.5,195.4,110.5z"/>
	</g>
	<g>
		<g>
			<g>
				<path fill="#FFFFFF" d="M191.2,166.1c0,0.1,0,0.1,0,0.2c0.2,3.2-3.9,3.2-6,3c-0.6-0.1-1.3-0.2-1.9-0.2c-2.6-0.2-5.1-0.7-7.5-1.8
					c-0.2-0.1,1.3-2,1.5-2.2c0.6-0.6,1.2-1.1,2.1-1.3c1.3-0.3,3.3,0,4-1.4c0.8,0.9,2,0.6,3,0.1c1-0.5,1.9-0.8,2.6-1.8
					c0,0,0.9,1.7,1,1.8c0.3,0.6,0.6,1.2,0.9,1.9C191,165,191.1,165.5,191.2,166.1z"/>
			</g>
			<g>
				<path fill="#FFFFFF" d="M179.4,168.4c-1.4-0.3-2.9-0.8-4.2-1.3c0,0,0-0.1,0-0.1c0.3-1.5,1.4-2.3,2.6-2.7
					C179.4,164.8,180.1,166.4,179.4,168.4z"/>
			</g>
			<g>
				<path fill="#FFFFFF" d="M191.3,165.6c0,0.2,0,0.4,0,0.6c0,0.8,0,1.7-0.3,2.4c-0.7,0.2-1.4,0.3-2.2,0.4
					C188.5,167.2,189.8,165.8,191.3,165.6z"/>
			</g>
			<g>
				<path fill="#E23929" d="M190.7,165.7c-0.2,0.1-0.4,0.2-0.6,0.4c-0.3,0.2-0.6,0.4-0.8,0.7c-0.4,0.7-0.6,1.4-0.5,2.2
					c-3,0.4-6.3,0.2-9.5-0.6c0.7-2,0.1-3.6-1.6-4.2c0.4-0.1,0.8-0.2,1.2-0.3c1.2-0.3,2.5-0.5,3.7-0.9c0.2,1.8,2.3,2.4,3.9,2.4
					c1.2,0,2.3-0.4,3-1.4c0.2-0.3,0.4-0.6,0.6-0.9c0.2,0.3,0.4,0.5,0.6,0.7c0.2,0.3,0.2,0.6,0.4,0.8c0,0.1,0.2,1,0.2,1
					C191.1,165.6,190.9,165.6,190.7,165.7z"/>
			</g>
			<g>
				<path fill="#D4D4D4" d="M191,168.6c-0.1,0.4-0.2,1.5-0.7,1.7c-3.3,1.3-7.9,0.8-11.1,0.1c-0.4-0.1-5-1.4-4.6-2
					c0.3-0.4,0.5-1.3,0.6-1.7c2.3,1.4,5.1,2.2,7.9,2.4C185.7,169.3,188.4,169.2,191,168.6z"/>
			</g>
		</g>
		<path fill="#D4D4D4" d="M182.2,163c0.5,0.5,1,1.1,0.9,1.6c0,0.3-0.3,0.5-0.7,0.5c-0.1,0-0.1,0-0.2,0c-0.1,0.1-0.3,0.2-0.5,0.2
			c-0.4-0.1-0.8-0.5-0.8-0.7c0,0,0,0,0-0.1c0,0,0,0,0,0c0,0,0-0.1-0.1-0.1c0,0,0,0,0,0c0,0,0,0,0,0c-0.1-0.1-0.1-0.2-0.2-0.3
			c0,0,0,0,0,0c0,0,0,0,0,0c0,0-0.1-0.1-0.2-0.1c-0.3-0.3-0.4-0.7-0.1-0.9c0.2-0.1,0.5-0.1,0.7,0C181.3,162.7,181.9,162.6,182.2,163
			z"/>
	</g>
	<g>
		<g>
			<g>
				<path fill="#FFFFFF" d="M205.7,152.9c0.1,0,0.1,0.1,0.2,0.1c2.7,1.7,0.3,5-1.1,6.6c-0.4,0.5-0.9,1-1.3,1.5c-1.7,2-3.6,3.7-5.8,5
					c-0.2,0.1-0.9-2.3-0.9-2.5c-0.1-0.8-0.2-1.7,0.2-2.4c0.5-1.2,1.9-2.6,1.2-4c1.2-0.1,1.7-1.3,1.9-2.4c0.2-1.1,0.5-2,0.1-3.1
					c0,0,1.9,0.2,2,0.3c0.7,0.1,1.4,0.2,2,0.4C204.7,152.5,205.2,152.6,205.7,152.9z"/>
			</g>
			<g>
				<path fill="#FFFFFF" d="M200.6,163.8c-1.1,1-2.3,1.9-3.5,2.6c0,0-0.1,0-0.1-0.1c-1.1-1.1-1.1-2.4-0.7-3.7
					C197.8,161.7,199.4,162.1,200.6,163.8z"/>
			</g>
			<g>
				<path fill="#FFFFFF" d="M205.3,152.5c0.2,0.1,0.3,0.3,0.4,0.3c0.7,0.5,1.4,1,1.8,1.6c-0.3,0.7-0.6,1.3-1,2
					C205,155.8,204.6,153.9,205.3,152.5z"/>
			</g>
			<g>
				<path fill="#E23929" d="M205.1,153.1c-0.1,0.2-0.1,0.5-0.1,0.7c0,0.3,0,0.7,0.1,1c0.3,0.7,0.8,1.3,1.5,1.7
					c-1.5,2.7-3.5,5.2-6,7.3c-1.2-1.7-2.9-2.1-4.3-1.2c0.1-0.4,0.3-0.8,0.4-1.2c0.5-1.2,1-2.3,1.4-3.5c1.6,0.8,3.4-0.5,4.2-1.7
					c0.7-1,1-2.1,0.6-3.3c-0.1-0.3-0.3-0.7-0.4-1c0.3,0,0.6-0.1,0.9,0c0.3,0,0.6,0.1,0.9,0.2c0.1,0,0.9,0.4,0.9,0.4
					C205.2,152.7,205.2,152.9,205.1,153.1z"/>
			</g>
			<g>
				<path fill="#D4D4D4" d="M207.6,154.5c0.2,0.3,1.1,1.1,1,1.5c-0.9,3.5-3.9,6.9-6.4,9c-0.3,0.3-4.1,3.3-4.3,2.6
					c-0.1-0.4-0.7-1.2-1.1-1.5c2.4-1.1,4.7-2.9,6.6-5C205.1,159.2,206.6,157,207.6,154.5z"/>
			</g>
		</g>
		<path fill="#D4D4D4" d="M197.9,158.4c0.7-0.1,1.5-0.1,1.9,0.2c0.2,0.2,0.2,0.5,0,0.8c0,0.1-0.1,0.1-0.2,0.2c0.1,0.2,0,0.3-0.2,0.5
			c-0.3,0.3-0.8,0.4-1.1,0.2c0,0,0,0,0,0c0,0,0,0,0,0c0,0-0.1,0-0.2,0c0,0,0,0,0,0c0,0,0,0,0,0c-0.1,0-0.2,0-0.3,0c0,0,0,0,0,0
			c0,0,0,0-0.1,0c-0.1,0-0.1,0-0.2,0c-0.4,0.1-0.8-0.1-0.8-0.4c0-0.2,0.2-0.4,0.5-0.6C197.1,159,197.4,158.5,197.9,158.4z"/>
	</g>
	<g>
		<path fill="#4299AD" d="M197.4,132.7c-0.2-0.2-0.4-0.4-0.7-0.6c-3-2.2-7.6,0.3-10.1,2.2c-2.1,1.6-2.2,3.9-2.3,6.4
			c-0.1,3.5,1.5,6.1,3.9,8.6c2.1,2.2,4,4.5,6.2,6.6c1.2,1.1,3,3.7,4.8,2.9c1.1-0.5,1.6-1.8,2.3-2.6c0.9-1.1,1.9-1.9,2.6-3.2
			c0.8-1.5-0.7-1.7-1.8-2.6c-1.2-1-2.5-1.8-3.4-3c-1.1-1.6-0.3-3.6,0.2-5.4C200.1,138.9,199.8,135,197.4,132.7z"/>
	</g>
	<g>
		<path fill="#4FAAC3" d="M192.3,131.5c-14.5,0.2-9.6,12.6-10.8,22.5c-0.2,1.7-2.3,5.4-1.9,7c0.5,2.1,4,2.9,6.1,3.5
			c1.5,0.2,4.8,1.1,6.1-0.1c1.1-1.2,1-5.6,1.2-7.1c0.4-2.2,0.5-4.7,1.1-6.7c0.8-2.5,3-3.9,3.5-6.5
			C198.7,139.6,198.4,131.4,192.3,131.5z"/>
	</g>
	<g>
		<path fill="#FEB402" d="M195.6,106.8c-4.5-0.3-9.3,10.5-10.8,13.9c-2.5,5.8-3.6,12.1-4.8,18.2c-0.9,5,20.3,3.9,20.3-3.9
			c0-5.1-0.3-14.6-0.9-20C199.1,111.9,199.4,107,195.6,106.8z"/>
	</g>
	<g>
		<path fill="#EFB7A3" d="M189.1,112.3c0.4-0.8,1.6-1.6,2.6-2.1c1-0.5,4.7-1.7,5.6-0.9c0.7,0.7-0.9,2.4-1.7,2.9
			C194.1,113.3,187.6,115.5,189.1,112.3z"/>
	</g>
	<g>
		<path fill="#F3A402" d="M191.9,108.9c-0.5-0.3-1.2-0.2-1.7-0.5c0.1,0.1-0.3,1.2-0.3,1.3c-0.1,0.4-0.3,0.9-0.5,1.3
			c-0.3,0.8-0.7,1.5-0.9,2.3c0.1,0,0.2,0,0.3,0.1c-0.3,0.2-0.4,0.4-0.5,0.8c0,0.5-0.2,1-0.2,1.5c0.1-0.2,0.2-0.3,0.3-0.5
			c0.3-0.4,0.6-0.9,0.8-1.4c0.4-0.9,0.8-1.7,1.1-2.6c0.2-0.4,0.4-0.8,0.7-1.1C191,109.9,191.8,108.9,191.9,108.9z"/>
	</g>
	<g>
		<path fill="#F3A402" d="M192,112.8c1.7-0.5,5.9-1.4,6.3-3.3c1,0.1,1.7,1.7,2.1,2.6c-1.3-0.2-2.6,0.5-3.7,1.1
			c-0.3,0.2-3.3,2.3-3.3,2.3c-0.3-0.5-0.5-1.3-0.9-1.7c0,0.4-0.1,1.1-0.2,1.4c-0.3,0.6-3.5,0.3-4.2,0.5c0.1-0.6,0.3-1.3,0.3-2
			C188.3,113.7,191.6,113,192,112.8z"/>
	</g>
	<g>
		<g>
			<g>
				<path fill="#A46148" d="M175.7,92.2c0.1,0.1,0.2,0.2,0.2,0.3c1.4,2.7,2.4,5.3,4.5,7.6c2.1,2.2,4.7,3.9,7.4,5.3
					c2.7,1.3,6.7,3.7,9.7,3.7c2.1,0,5.1-1.3,6.8-2.6c-1.6,3.2,1.1,7.4,4.1,3.9c-0.8,2.7,1.7,2.5,3.5,1.7c3-1.4,6.2-3.8,6.1-7.5
					c-0.1-2.6-1.4-6-2.9-8.1c-3.7-5.2-9-9.5-14.8-12.1c-4.2-1.9-8.7-2.7-13.3-2.8c-3.9-0.1-8.1-0.5-10.9,2.8
					c-0.7,0.8-2.1,3.4,0.1,3.1c-0.9,0.4-2.6,1.1-2.5,2.4C173.8,90.8,175,91.5,175.7,92.2z"/>
			</g>
			<g>
				<path fill="#FEC9B4" d="M197.7,68.9c-3.1-0.1-7.8-0.4-10.6,1c-3.3,1.6-6.1,6.3-7.7,9.4c-1.9,3.6-2.6,7.5-4,11.2
					c-1.4,3.8-2.2,5.9,0.5,9.6c4,5.5,9.7,9.8,16.4,11.4c4.3,1.1,14.1,1.6,16.8-3.3c-0.8,5.6,9.1,4.2,9.5-0.6
					c0.3-3.7-7.5-7.4-8.3-3.5c4.1-1.7,9-4.7,9.7-9.6c0.6-4.7-0.7-9.8-2.9-13.9c-1.8-3.3-4-7-7.2-9.1C206.3,69.1,201.8,69,197.7,68.9
					z"/>
			</g>
			<g>
				<path fill="#E49192" d="M197.2,103.1c-0.7,2.3-5.3,1.2-5.6-1.1c-0.2-1.3,1.5-2,3.1-1.8C196.3,100.5,197.7,101.8,197.2,103.1z"/>
			</g>
			<g>
				<path fill="#E49192" d="M178.1,93.9c-1.1,1.2-3.8-0.9-3.3-2.5c0.3-0.9,1.6-0.8,2.5-0.2C178.3,92,178.7,93.2,178.1,93.9z"/>
			</g>
			<g>
				<path fill="#65253E" d="M193.4,101.6c-2.1-1.4,0.5-5.2,2.7-4.2C199,98.8,195.5,103,193.4,101.6z"/>
			</g>
			<g>
				<path fill="#65253E" d="M183.1,84.2c0.2,0.2,0.2,1.2-0.1,1.5c-0.5,0.4-1.2-0.3-1.7-0.4c-0.4-0.1-1.4,0.4-1.2-0.3
					C180.2,84.5,182.7,83.9,183.1,84.2z"/>
			</g>
			<g>
				<path fill="#65253E" d="M197.6,93.4c0.4,0.5,1.3,1.9,1,2.6c-0.4,0.8-0.9-0.5-1.3-0.8C197.2,95,196,94,196,94
					C196.4,93.2,196.8,92.4,197.6,93.4z"/>
			</g>
			<g>
				<path fill="#65253E" d="M177.9,92.3c-1.8-0.7-0.5-3.9,1.2-3.5C181.5,89.3,179.7,93,177.9,92.3z"/>
			</g>
			<g>
				<path fill="#F5787D" d="M182.7,103.4c0.5,1.4,1.7,2.4,2.9,3.2c1.4,0.9,2.8,1.3,4.1,0.3c0.7-0.6,2-1.7,0.6-2.4
					c-1.2-0.6-2.3,0.4-3.5,0.3c-1.2-0.1-2.2-1.3-3-2c-0.2-0.2-0.8-0.7-1.1-0.4C182.5,102.5,182.5,102.9,182.7,103.4z"/>
			</g>
			<g>
				<path fill="#D14E56" d="M190.3,104.5c-1.2-0.6-2.3,0.4-3.5,0.3c-0.1,0-0.2,0-0.2,0c-0.8,0.2-1.6,0.6-1.9,1.2
					c0.3,0.2,0.6,0.4,0.9,0.6c1.4,0.9,2.8,1.3,4.1,0.3C190.4,106.3,191.7,105.2,190.3,104.5z"/>
			</g>
			<g>
				<g>
					<path fill="#FFFFFF" d="M188.9,105.7c0.6-0.3,0.9-0.7,1.1-1.3c-1.1-0.3-2.1,0.5-3.2,0.4c-1.2-0.1-2.2-1.3-3-2
						c-0.1-0.1-0.2-0.2-0.4-0.3C183.3,104.6,186.9,106.2,188.9,105.7z"/>
				</g>
			</g>
		</g>
		<g>
			<path fill="#A46148" d="M207.9,95.3c-0.7-1-1.2-1.9-1.4-2.3c-1.1-2.2-1.7-5-0.7-7.3c-1.7,1.2-4.9,1.2-6.5-0.2
				c-1.4-1.2-2.2-5,0.6-4.5c-1.1-1-2.3-1.5-3.6-2c-3.4-1.4-7.4-1.9-11-1.3c-3.9,0.7-8.1,4.3-8.5,8.4c-1.2-3.4,1-7.7,3.3-10.2
				c0.9-1,2.2-1.7,3.1-2.7c1.8-2.1-1.4-4.2-2.3-6.2c-1.3-2.7-0.6-5,1.8-6.8c4.3-3.3,9.1-1.4,11.5,3.2c-3-6,0.2-13.5,7.4-10.4
				c4.7,2,7.6,5.6,8.5,10.6c0.2,1.3,0.3,2.7,0.6,3.9c1.6-4,4.8-0.9,6.1,1.8c1.1,2.5,1.5,5.3,2.5,7.9c1.2,3.5,2.6,6.9,4.2,10.2
				c0.3-1.7,1.5-4.7,3-2.6c1.1,1.4-0.1,3.9-0.5,5.3c2.8,0.3,3.2,3.9,0,2.4c0.9,1.1,4.6,6.1,2,7.3c-1.7,0.8-2.5-2.5-2.7-3.7
				c-0.5,2.5-1.8,4.3-3.3,6.4c-0.4,0.5-3.2,4-2.9,4.5c-0.9-2-3.5-4.2-5.9-3.7c-2.2,0.5-3.4,4.7-5.9,3.5c-2-1-0.9-3.5,1-3.7
				c-5.5,0.6-1.1-4.9,2.7-4.7C210.1,98.3,208.8,96.8,207.9,95.3z"/>
		</g>
		<g>
			<g>
				<g>
					<path fill="#8E4D39" d="M203.5,66.1c-0.1-2.7-0.1-9-2.8-10.6c-3.7-2.2-4.7,5.5-4.8,7.5c-0.1,3.2,0.2,11.4,4.5,12
						c3.9,0.6,1.7-5.6,0.6-7.2c-0.6-0.9-0.9,0.8-0.7,1.2c1.4,3.9,2.6,13.5,8.8,9.8c0.6-0.4,0.3-2.3-0.3-1.9
						c-5.5,3.4-6.4-5.3-7.7-8.9c-0.2,0.4-0.5,0.8-0.7,1.2c1,1.1,0.9,2.4-0.1,3.8c-0.9-1.2-1.8-2.3-2.7-3.5c-0.7-1.4-0.7-3.2-0.8-4.7
						c-0.1-2-0.2-4.5,0.7-6.3c3.3-6.3,5.4,4.9,5.4,7.5C202.9,66.9,203.6,66.8,203.5,66.1L203.5,66.1z"/>
				</g>
			</g>
			<g>
				<g>
					<path fill="#8E4D39" d="M214.9,83.8c0.4,0.9,0.6,1.4,1.4,2c0.2,0.1,0.4,0.1,0.5-0.1c0.9-2.2,1.6-6.5-0.7-8.1
						c-2.6-1.9-4.7,1.8-5.2,3.9c-0.9,3.7-0.8,15.7,5.9,12.3c-0.1-0.6-0.2-1.3-0.3-1.9c-3.3,1.9-7.8,5.1-3.5,8.7
						c0.7,0.6,0.9-1.2,0.5-1.6c-1.5-1.5,0.2-3.2,1.3-4c0.6-0.4,1.3-0.8,2-1.2c0.6-0.4,0.4-2.3-0.3-1.9c-3.9,2-4.9-2.7-5-5.7
						c0-1.4,0.1-3,0.5-4.4c0.3-1,0.7-1.9,1.7-2.5c0.4-0.2,0.8-0.3,1.3-0.5c2.3,1.6,2.6,3,0.7,4.2C215.2,82.3,214.7,83.3,214.9,83.8
						L214.9,83.8z"/>
				</g>
			</g>
			<g>
				<g>
					<path fill="#8E4D39" d="M189.3,66c-0.6-1.7-3.6-7.4-5.3-3.4c-1.8,4.2,0.4,9.1,3.6,11.8c0.1-0.6,0.2-1.2,0.3-1.7
						c-2.7-1.9-5.5,0.1-5.2,3.2c0.1,0.8,0.8,0.7,0.8,0c0.3-2.3,2.5-2.4,4.1-1.4c0.6,0.4,0.7-1.5,0.2-1.8c-1.2-0.9-2.2-2.1-2.8-3.4
						c-0.7-1.5-1.3-4-0.4-5.6c1.5-2.5,3.7,2,4.1,3.1C189,67.5,189.5,66.4,189.3,66L189.3,66z"/>
				</g>
			</g>
			<g>
				<g>
					<path fill="#8E4D39" d="M202.5,81.6c-0.3,0.2-0.8,0.6-1.2,0.5c-0.7-0.2-0.7-0.6-0.2-1c0.5-0.4,1.4-0.4,1.9-0.4
						c1.3-0.1,2.7,0.1,4,0.6c0-0.6,0-1.2,0-1.7c-1.4,1.2-2.1,3.5-2,5.4c0,1.7,1.3,3.7,3.1,2c0.3-0.3,0.3-1.5-0.2-1.4
						c-1.2,0.1-2,0.5-1.8-1.2c0.1-1.1,0.6-2.4,1.4-3.1c0.3-0.3,0.3-1.5-0.2-1.6c-1.9-0.7-5.5-1.3-7,0.5c-1.6,1.9,0.2,4.7,2.6,3.5
						C203.4,83.1,202.9,81.3,202.5,81.6L202.5,81.6z"/>
				</g>
			</g>
			<g>
				<g>
					<path fill="#8E4D39" d="M211.5,65.5c-1.7,2.9-2.7,6.6-1,9.8c0.4,0.7,0.6-0.6,0.5-0.9c-0.8-2.8-0.9-5.3,0.7-7.8
						C212,66.3,211.7,65.2,211.5,65.5L211.5,65.5z"/>
				</g>
			</g>
			<g>
				<g>
					<path fill="#8E4D39" d="M221.8,94c0.1,2.2-0.6,5-2.7,6.2c-1.1,0.6-4.9,0.7-3.5-1.6c0.4-0.6,2.5-2.9,3.5-2.2
						c0.6,0.4-0.4,0.9-0.8,1c-0.2,0-0.6,0-0.7,0.1c-0.4,0.2-0.4,1.9,0.3,1.2c0.2-0.3,0.3-1.7-0.2-1.6c-0.8,0.1-1.1,1.2-0.7,1.9
						c0.3,0.7,1.1,0.6,1.7,0.4c1.7-0.6,2.7-3.8,0.8-4.8c-1.8-1-4.4,2-4.9,3.4c-0.8,2.4,0.7,5.1,3.4,4.6c3.8-0.7,4.7-5.4,4.8-8.6
						C222.8,92.8,221.7,92.8,221.8,94L221.8,94z"/>
				</g>
			</g>
			<g>
				<g>
					<path fill="#8E4D39" d="M189.7,74c1.2,1.4,2.6,3.1,4.4,3.6c1.9,0.5,2.2-1.9,1.8-3.3c-0.3-1-1-1.8-1.6-2.6
						c-0.5-0.5-1.3-1.5-2.1-1.5c-2.1,0.1-1.1,4.6,0.8,4.4c0.6-0.1,0.4-1.4,0.1-1.6c-0.3-0.2-0.6-0.4-0.8-0.6
						c-0.1-0.1-0.2-0.3-0.3-0.4c-0.1,0.4,0,0.5,0.3,0.3c0.5,0.3,0.9,0.4,1.3,0.9c0.4,0.4,2,2,1.6,2.6c-0.8,1.2-4.6-2.1-5-2.9
						C189.7,72,189.3,73.6,189.7,74L189.7,74z"/>
				</g>
			</g>
		</g>
		<g>
			<g>
				<path fill="#CB526A" d="M183.2,95.4c0-0.3-0.1,0-0.3,0c-0.3,0.1-0.6,0-0.9,0c-0.7-0.1-1.4-0.4-2.1-0.6c-0.4-0.1-0.6,0.6-0.7,0.8
					c-0.8,2.4,0.6,6.1,3.6,5.6c1.2-0.2,1.3-1.7,0.8-2.6c-0.7-1.2-2-0.9-2.8,0c-0.4,0.5-0.4,1.3-0.1,1.9c0.2,0.5,0.7,0.7,1,0.1
					c0.1-0.2,0.9-0.8,1.1-0.3c0-0.3-0.1-0.6-0.1-0.9c0.2-1.8,0.5-0.5,0.2-0.6c-0.1,0-0.3,0-0.4,0c-0.2,0-0.5,0-0.8-0.1
					c-0.3-0.1-0.5-0.2-0.8-0.4c-0.2-0.1-0.3-0.4-0.5-0.5c0-0.1-0.1-0.1-0.1-0.2c-0.3,0.6-0.4,0.8,0,0.5c-0.1,0-0.3,0-0.4,0
					c1,0.4,2.2,0.7,3.3,0.3c1.4-0.5,1.4-2.1,1.4-3.4c0-0.4-0.2-1.3-0.7-1.2C183.1,94,183.2,95,183.2,95.4L183.2,95.4z"/>
			</g>
		</g>
	</g>
	<g>
		<path fill="#F3A402" d="M191.3,117.5c1.4-1.1,2.8-2.3,4.3-3.4c2.1-1.6,4.3-1.5,4.6,1.5c0.4,3.1-3.3,7.4-5.6,9.1
			c-4.3,3.3-9.6,5.1-14.8,6.5c-2.2,0.6-4.6,1-7,1.2c-3.6,0.2-3,0.2-3.6-2.6c-0.2-1.5-1.6-4.6-0.2-5.7c1.3-1,4.6-1.2,6.1-1.5
			c4.3-0.8,8.8-0.5,12.6-2.8C189.1,119.2,190.2,118.3,191.3,117.5z"/>
	</g>
</g>
</svg>
