<svg version="1.1" id="Layer_1" xmlns="http://www.w3.org/2000/svg" xmlns:xlink="http://www.w3.org/1999/xlink" x="0px" y="0px"
	 viewBox="0 0 411.3 197.9" enable-background="new 0 0 411.3 197.9" xml:space="preserve">
<path fill-rule="evenodd" clip-rule="evenodd" fill="#D30223" d="M54.7,125.6c-6.8,0.8-9-0.2-15.5-1.5
	c-58.4-11.8-47.4,74.4,5.9,73.7C99,197.1,115.1,121.3,54.7,125.6z M5.8,145.9L5.8,145.9z M5.8,145.9c3.6-22.7,32.9-26.3,38.5-12.3
	c-8.9,6-8-6-22.5-1.4C17.1,133.7,10,142.3,5.8,145.9z M22.7,145.4L22.7,145.4z M22.7,145.4c1.6-7.5,2.3-7.4,9.2-4
	C28.4,145.8,28,147,22.7,145.4z"/>
<path fill-rule="evenodd" clip-rule="evenodd" fill="#D30223" d="M118,100.3l-12.9,7.7c-63.9,19-9.5,86,38,63.1
	C198.2,144.4,164.5,66.6,118,100.3z M80.6,142.1L80.6,142.1z M80.6,142.1c-0.3-16.2,9.6-36.4,29.5-27.6c-5.8,10.6-8.2-0.2-18.3,8.7
	c-4.4,3.8-5.9,10.7-6.8,12.6C81.4,143.2,84.1,138.4,80.6,142.1z"/>
<path fill-rule="evenodd" clip-rule="evenodd" fill="#349A04" d="M40.3,135.5c3,2,5.4,2.9,8.2,3.3c2.8,0.4,7.8,0.2,8.3-0.4
	c0.6-0.7-2.8-0.8-2.8-1.6c0.3-7,10.9-65,21.9-72.2c6.1,20.8,35.1,46,37.9,53.8c-0.8,1.8,4.9,1.8,7.3-0.3c0.8-0.8,2.1-2.1,2.3-3.8
	l0.3-2.3c-16.6-3.1-38.3-34.1-43.4-49.4c14,4.7,18.7,9.9,36,11.1c36.7,2.7,82.6-30.8,85.1-48.1c-16.8-8.9-57.5-5.6-75.9-0.3
	c-27.3,7.9-31,14.4-47.6,29.6c-1.3,1.2-2.7,2.4-4.2,3.7c1.2-16.9-2.1-29.9-13.5-41.8C52.3,8.7,34.7-0.1,22.8,0
	c-5.5,37.1,11.9,54.5,47.9,59.6c-4.8,16.8-16.6,37.1-23.1,68.9c-0.4,2-1.3,7.4-2.6,7.3L40.3,135.5z"/>
<path fill-rule="evenodd" clip-rule="evenodd" fill="#006328" d="M75.9,58.5c15.8,4.4,65.1-9.4,81.4-16.1
	c9.2-3.8,36.1-15.1,44.1-16.8c-7.6-10-87.7-5.9-107.1,12.9C84.5,48.1,79.8,49.6,75.9,58.5z"/>
<path fill-rule="evenodd" clip-rule="evenodd" fill="#FFFFFF" d="M136.9,49.3c2.9,0.2,40.6-15.5,55.7-20.8c0.4-0.1,6.1-2.2,6.6-2.1
	C199.7,26.4,157.7,45.3,136.9,49.3z"/>
<path fill="none" stroke="#FFFFFF" stroke-width="2.830000e-02" stroke-miterlimit="7.6613" d="M136.9,49.3
	c2.9,0.2,40.6-15.5,55.7-20.8c0.4-0.1,6.1-2.2,6.6-2.1C199.7,26.4,157.7,45.3,136.9,49.3z"/>
<path fill-rule="evenodd" clip-rule="evenodd" fill="#FFFFFF" d="M51.1,35.1c-1.6-1-19.5-22.7-25.2-31.2c-0.2-0.2-2.8-3.8-3.1-3.9
	c-0.2-0.2,1.8,1.2,2,1.5C28.3,5,46.8,30.7,51.1,35.1z"/>
<path fill="none" stroke="#FFFFFF" stroke-width="5.660000e-02" stroke-miterlimit="7.6613" d="M51.1,35.1
	c-1.6-1-19.5-22.7-25.2-31.2c-0.2-0.2-2.8-3.8-3.1-3.9c-0.2-0.2,1.8,1.2,2,1.5C28.3,5,46.8,30.7,51.1,35.1z"/>
<path fill-rule="evenodd" clip-rule="evenodd" fill="#D30223" d="M113.1,147.7c-3.9-2.9-0.5,1.3-5.2-5.3c-1.2-1.6-19.7-0.4-24.4-3.3
	c-12.3-7.3-0.2-5.3-2.8-12.7C103.8,96.5,122.3,111.1,113.1,147.7z"/>
<path fill-rule="evenodd" clip-rule="evenodd" fill="#E8F5FA" d="M84.6,147.5c3-3.9,0.9,1.1,3.7-6.5c0.7-1.9,1.6-8.9,5.4-13
	c8.8-9.5,11.8,1,16.4-9.8C91,110.7,83.2,131.4,84.6,147.5z"/>
<path fill-rule="evenodd" clip-rule="evenodd" fill="#FFFFFF" d="M96.3,138.4c6.2,1.2,6.4-0.3,9.7-5.6
	C97.9,129.7,97.2,129.7,96.3,138.4z"/>
<path fill-rule="evenodd" clip-rule="evenodd" fill="#D30223" d="M56.9,126.1c2.3,4-2.5,6.5-1.6,1.4c51.2,0.8,15.3,77.2-9.6,69.3
	C99.4,197,115.8,130.1,56.9,126.1z"/>
<path fill-rule="evenodd" clip-rule="evenodd" fill="#00481F" d="M50.3,136.9c0,0-5.2-0.8-5.2-0.6c3.3-1.9,3.1-8.4,4.7-11.3
	C49.1,128.1,50.3,136.3,50.3,136.9z"/>
<path fill-rule="evenodd" clip-rule="evenodd" fill="#006328" d="M72,59c-3.4-7.4-26-28.7-32.2-36.9C36.4,17.6,25.5,3.8,22.8,0
	C10.4,36.4,48.3,63.8,72,59z"/>
<path fill-rule="evenodd" clip-rule="evenodd" fill="#00481F" d="M118,114.9c0,0-3.6,3.8-3.5,4c0.4-3.9-5.3-7.6-6.7-10.6
	C109.9,110.7,117.5,114.5,118,114.9z"/>
<path fill-rule="evenodd" clip-rule="evenodd" fill="#00481F" d="M114.4,115.9c0,0.1,0.2,2.8,0.1,2.9c4.3-0.2,8.3-3.7,6.4-7.5
	C119.7,114.5,115.2,117.1,114.4,115.9z"/>
<path fill-rule="evenodd" clip-rule="evenodd" fill="#00481F" d="M112.7,112.2c0,0,0.3,1.9,0.2,2c2.8,1.9,7,1.6,7.6-1.7
	C118.2,115.8,112.3,113.6,112.7,112.2z"/>
<path fill="none" stroke="#00481F" stroke-width="0.2264" stroke-miterlimit="7.6613" d="M112.7,112.2c0,0,0.3,1.9,0.2,2
	c2.8,1.9,7,1.6,7.6-1.7C118.2,115.8,112.3,113.6,112.7,112.2z"/>
<path fill-rule="evenodd" clip-rule="evenodd" fill="#1B1918" d="M392.6,96.7c-0.7-0.4-1.3-1.1-1.8-2.2c-0.4-0.8-0.7-1.8-1-3
	c-0.2-1.1-0.4-2.3-0.4-3.4c0-1.4,0.3-2.9,0.9-4.4c0.6-1.5,1.3-2.7,2.3-3.4c1.1-1,2.3-1.8,3.7-2.2c1.4-0.4,2.9-0.6,4.7-0.6
	c1.2,0,2.8,0.4,4.8,1.1c1.4,0.8,2.5,1.7,3.4,2.6c0.8,0.9,1.5,2.1,1.8,3.6c0.2,0.7,0.3,1.6,0.3,2.6c0,1.9-0.4,3.7-1.2,5.5
	c-0.7,1.8-1.9,3.3-3.3,4.4h-0.5l-0.2-0.4c0.1-0.6,0.4-2,1-4.3c0.6-2.2,0.8-3.8,0.8-4.8s-0.3-2.1-0.9-3.2c-0.7-1.2-1.5-2.1-2.6-2.8
	s-2.3-1.1-3.5-1.1c-1.4,0-2.7,0.2-3.7,0.5c-1,0.4-2,1-2.9,2c-1,1.4-1.5,3.1-1.5,4.9c0,0.5,0,1.1,0.1,1.7c0,0.4,0.3,0.6,0.9,0.6
	c0.5,0,1,0.2,1.2,0.5c1,1.4,1.5,2.9,1.5,4.5c-0.2,0.5-0.5,0.8-1,1.2c-0.5,0.3-1,0.5-1.6,0.5C393.5,97.1,393.1,96.9,392.6,96.7z
	 M342,89.2L342,89.2z M342,89.2c0.2,0.2,0.4,0.3,0.6,0.4c0.2,0,0.7,0,1.4,0c0.2-0.5,0.6-0.8,1.2-0.8c0.3,0,0.5,0,0.7,0.1
	c0,0.2,0.2,0.7,0.6,1.5c0,0.5-0.2,1.1-0.6,1.9c-0.2,0-0.5,0.2-0.9,0.6c-0.5,0.3-0.9,0.5-1.3,0.6c-0.8,0-1.3-0.1-1.7-0.1
	c-0.4-0.1-0.7-0.3-1.1-0.5c-0.4-0.2-0.8-0.6-1.3-1c-1-2-1.5-4-1.7-6c0-2,0.5-4.1,1.4-6.2c2-2.7,4.7-4.1,8-4.1c1.4,0,2.9,0.3,4.5,0.8
	c2.1,0.8,3.8,2.5,5,4.9c1.2,2.4,2.1,5.4,2.5,9c0.5,3.5,0.7,7.5,0.7,12c0,2.9,0,5.7-0.1,8.4c-0.1,2.6-0.3,5.4-0.5,8.6
	c-0.2,3.2-0.4,6.4-0.5,9.7c-0.2,3.3-0.3,6.2-0.3,8.8c0,1.1,0.1,2.6,0.2,4.5h0.7c1.6-2.8,2.6-6.3,2.6-10.3c0-2-0.1-4.8-0.3-8.2
	c-0.2-3.4-0.3-5.8-0.3-7c0-1.3,0.1-2.6,0.3-3.9c0.2-1.3,0.5-2.5,0.9-3.7l1-0.8c0.3,0.3,0.5,0.8,0.5,1.4c0,0.5-0.2,1.1-0.6,1.7
	c0,0.6,0,1,0,1.3c0,0.4,0,0.7,0,1.1c0,1.1,0,3.1,0.1,6c0.1,2.9,0.2,5.5,0.4,7.8c0.1,2.3,0.2,3.5,0.3,3.5c-0.1,1.5-0.2,3-0.4,4.6
	c-0.2,1.6-0.5,3.1-0.9,4.6c-0.3,1.5-0.7,2.8-1.2,3.9c-0.5,1.1-1,1.9-1.5,2.3c-0.3,0.3-0.8,0.5-1.5,0.5c-0.8,0-1.4-0.2-1.8-0.8
	c-1.9-1.7-2.8-4.5-2.8-8.5c0-1,0-2,0.1-3s0.1-1.9,0.2-2.7c0.1-0.8,0.2-1.7,0.3-2.6c0.3-3.8,0.5-6.3,0.6-7.6c0.1-1.3,0.3-3,0.5-5.3
	c0.1-2.2,0.3-4.5,0.4-6.9c0.1-2.4,0.1-4.7,0.1-6.8c0-11.3-1.4-18.7-4.3-22c-1.4-1.3-3-2-4.9-2c-0.7,0-1.1,0.1-1.4,0.2
	c-0.9,0.2-1.6,0.4-2.2,0.8c-0.6,0.3-1.1,0.8-1.6,1.5c-0.6,1.3-0.9,3-0.9,5.2c0,0.6,0,1,0.1,1.2c0.1,0.3,0.1,0.5,0.3,0.7
	C341.7,88.7,341.9,88.9,342,89.2z M326.2,79.3L326.2,79.3z M326.2,79.3c-1.7,0.9-2.8,2.2-3.1,3.8c0,0.2,0.2,1.2,0.7,2.8
	c0.5,1.7,0.7,2.8,0.7,3.3l-1.4,0.9l-1.6-0.7c-0.2-0.4-0.7-1.6-1.3-3.5c-0.8-2-1.5-3.4-2.4-4.5c-0.8-1-2.1-1.7-3.7-1.9
	c-1.3,0-2.1,0.5-2.5,1.8c0,0.8,0.1,1.4,0.2,1.8c0.1,0.5,0.3,1.2,0.5,2.2c0.3,1.1,0.5,1.9,0.6,2.3c0.1,0.5,0.2,1.1,0.2,1.7l-1.5,0.9
	l-1.6-0.7c-1.1-4.4-3.3-7.6-6.8-9.7c-0.6-0.2-1.2-0.3-1.8-0.3c-1.3,0-2.5,0.5-3.5,1.6c-1,1.1-1.5,2.8-1.5,5c0.1,1.1,0.2,1.8,0.3,2.1
	c0.4,0.8,1.3,1.8,2.7,2.9c1.4,1.2,3.1,2.4,5.1,3.6c2,1.3,4.1,2.6,6.3,4c2.2,1.4,3.8,2.4,4.8,3.2c2.1,1.5,3.9,3,5.4,4.6
	c1.4,1.6,2.9,3.5,4.3,5.7c1.7,2.5,2.9,5.2,3.5,8.3c0.7,3,1,6.3,1,9.9c0,0.8-0.1,2-0.3,3.6c-0.4,4-2.3,7.7-5.6,11.1
	c-0.6,0.5-1.3,0.9-2.2,1.2c-0.9,0.4-1.6,0.6-2.2,0.6c-1.1,0-2.2-0.6-3.3-1.8c0-0.4-0.2-0.9-0.5-1.7c-0.3-0.8-0.5-1.5-0.5-2.1
	c0.5,0,1.1,0.3,1.8,0.8c0.6,0.6,1.2,0.9,1.7,1.1c0.7,0,1.2-0.1,1.7-0.4s1-0.6,1.4-1.1c0.4-0.5,0.8-0.9,1.2-1.4
	c2.2-2.5,3.4-5.7,3.4-9.5c0-1.9-0.1-3.7-0.2-5.2c-0.2-1.5-0.5-3.1-1-4.7c-0.4-1.7-1.1-3.3-2-4.8c-2.1-4.4-5.2-8-9.1-10.9
	c-0.6-0.7-1.9-1.6-3.9-2.7c-2-1.2-4.4-2.7-7.4-4.5c-3-1.9-5.4-3.6-7.1-5.3c-1.7-1.6-2.7-3.3-2.9-4.9c-0.2-0.5-0.3-1-0.3-1.5
	c0-2,0.4-3.7,1.1-5c0.7-1.4,1.6-2.5,2.7-3.2c1-0.7,2-1.2,3-1.5c1-0.3,1.9-0.4,2.7-0.4c1.3,0,2.5,0.3,3.6,1.1c0.3,0.1,0.8,0.5,1.3,1
	c0.6,0.4,1.1,0.8,1.5,1c2-2,3.8-3,5.6-3c1.4,0,2.8,0.5,4.4,1.6c1.1,0.7,2.1,1.6,2.8,2.6c1.8-2.9,4.2-4.4,7.1-4.4
	c1.6,0.2,2.9,0.7,3.9,1.3c1,0.7,1.9,1.7,2.6,3.1c0.5,1.2,0.8,2.6,0.8,3.9c0,2-0.4,4-1.2,5.8c-0.7,1.8-1.7,3.3-3.1,4.3l-0.7-0.4
	c0-0.2,0.2-1.1,0.6-2.7c0.3-1.5,0.5-2.7,0.7-3.5c0.1-0.7,0.2-1.6,0.2-2.6c0-2.8-0.7-4.6-2.2-5.5c-0.2-0.1-0.4-0.2-0.6-0.3
	c-0.2-0.2-0.5-0.3-0.8-0.4c-0.2-0.1-0.6-0.2-0.9-0.2C327.1,78.9,326.6,79.1,326.2,79.3z M253.1,76.8L253.1,76.8z M253.1,76.8
	c3.8,0.1,6.5,2.3,8,6.7c1.5,4.5,2.3,10.6,2.3,18.3c0,3-0.1,6.2-0.3,9.5c-0.1,3.3-0.3,6.8-0.6,10.6c-0.2,3.7-0.4,7-0.5,9.9
	c-0.2,2.8-0.2,5.1-0.2,6.6c0,1.9,0,3.3,0,4.2h0.8c1.6-2.9,2.5-6.4,2.6-10.4c0-1.7-0.1-4.3-0.4-7.9c-0.2-3.6-0.3-6-0.3-7.3
	c0-2.9,0.5-5.3,1.2-7.5l1.1-0.9c0.2,0.3,0.4,0.8,0.4,1.5c0,0.5-0.2,1.1-0.5,1.7c0,0.5,0,0.9,0,1.2c0,0.4-0.1,0.7-0.1,1.1
	c0,1.1,0.1,3.1,0.2,6c0.1,2.9,0.2,5.5,0.3,7.9c0.1,2.3,0.2,3.4,0.2,3.4c0,1.5-0.1,3-0.3,4.6s-0.5,3.1-0.8,4.6
	c-0.4,1.5-0.8,2.8-1.2,3.9c-0.5,1.2-1,1.9-1.6,2.3c-0.3,0.4-0.8,0.6-1.4,0.6c-0.8,0-1.5-0.3-1.9-0.8c-1-1-1.8-2.2-2.2-3.7
	s-0.6-3.1-0.6-4.9c0-1,0.1-2.4,0.3-4.3c0.1-1.9,0.2-3.2,0.3-4c0.4-4.1,0.8-8.5,1.1-13.1c0.4-4.6,0.5-9.1,0.5-13.5
	c0-11.3-1.4-18.7-4.2-22c-0.7-0.7-1.5-1-2.4-1s-1.9,0.2-3,0.5c-1.1,0.3-1.7,0.8-2,1.5c0,0.2,0.2,0.9,0.6,2c0.3,1.2,0.5,2.2,0.5,2.9
	c0,1.5-0.2,2.3-0.5,2.7c-0.2,0.2-0.3,0.3-0.5,0.4c-0.2,0.1-0.3,0.2-0.5,0.2c-0.1,0-0.4,0-1,0c-1.2-0.8-2-2.2-2.4-4.1
	c-0.4-1.9-0.8-3.4-1.2-4.6c-0.5-1.2-1.6-2-3.5-2.3c-0.1,0-0.5-0.1-0.9-0.2c-0.5-0.1-0.9-0.2-1.4-0.2c-0.4-0.1-0.8-0.1-1.2-0.1
	s-0.8,0-1.3,0.1c-0.9,0.2-1.6,0.8-2.3,1.7c-0.6,0.9-0.9,1.9-0.9,2.9c0,0.3,0,0.7,0.1,1.1c0.4,1.3,0.9,2.4,1.5,3.2
	c0.6,0.9,1.7,1.4,3.4,1.8c0.7-0.7,1.4-1,2.1-1c0.2,0,0.4,0.1,0.8,0.2c0.4,0.1,0.8,0.4,1,0.8c0.2,0.4,0.3,0.8,0.3,1.3
	c0,0.8-0.2,1.3-0.5,1.6c-0.2,0.2-1.1,0.3-2.5,0.3c-1,0-1.9-0.1-2.6-0.5c-0.8-0.3-1.8-0.8-3-1.6c-0.9-0.6-1.6-1.3-2-2
	c-0.3-0.6-0.7-1.5-1-2.8c-0.1-0.9-0.2-1.7-0.2-2.4c0-2.8,0.9-4.8,2.8-6.1c1.3-1,2.8-1.4,4.5-1.4c3.1,0,6.2,0.9,9.3,2.7
	c2.1-0.7,3.7-1.2,4.6-1.5C251,76.9,252,76.8,253.1,76.8z M216.7,79.3L216.7,79.3z M216.7,79.3c-1.7,0.9-2.8,2.2-3.1,3.8
	c0,0.2,0.2,1.2,0.7,2.8c0.5,1.7,0.7,2.8,0.7,3.3l-1.4,0.9l-1.6-0.7c-0.2-0.4-0.6-1.6-1.3-3.5c-0.8-2-1.5-3.4-2.4-4.5
	c-0.8-1-2.1-1.7-3.7-1.9c-1.3,0-2.1,0.5-2.4,1.8c0,0.8,0,1.4,0.1,1.8c0.1,0.5,0.2,1.2,0.5,2.2c0.3,1.1,0.5,1.9,0.6,2.3
	c0.1,0.5,0.2,1.1,0.2,1.7l-1.4,0.9l-1.7-0.7c-1.1-4.4-3.3-7.6-6.8-9.7c-0.6-0.2-1.2-0.3-1.8-0.3c-1.3,0-2.5,0.5-3.5,1.6
	c-1,1.1-1.5,2.8-1.5,5c0.1,1.1,0.2,1.8,0.3,2.1c0.4,0.8,1.3,1.8,2.7,2.9c1.4,1.2,3.1,2.4,5.1,3.6c2,1.3,4.1,2.6,6.3,4
	c2.2,1.4,3.8,2.4,4.8,3.2c2.1,1.5,3.9,3,5.3,4.6c1.5,1.6,3,3.5,4.4,5.7c1.7,2.5,2.9,5.2,3.5,8.3c0.7,3,1,6.3,1,9.9
	c0,0.8-0.1,2-0.3,3.6c-0.4,4-2.3,7.7-5.6,11.1c-0.6,0.5-1.3,0.9-2.2,1.2c-0.8,0.4-1.6,0.6-2.2,0.6c-1,0-2.2-0.6-3.3-1.8
	c0-0.4-0.2-0.9-0.5-1.7c-0.3-0.8-0.5-1.5-0.5-2.1c0.5,0,1.1,0.3,1.8,0.8c0.6,0.6,1.2,0.9,1.7,1.1c0.7,0,1.2-0.1,1.7-0.4
	s1-0.6,1.4-1.1c0.4-0.5,0.8-0.9,1.2-1.4c2.3-2.5,3.4-5.7,3.4-9.5c0-1.9-0.1-3.7-0.2-5.2c-0.2-1.5-0.5-3.1-1-4.7
	c-0.4-1.7-1.1-3.3-1.9-4.8c-2.2-4.4-5.3-8-9.2-10.9c-0.6-0.7-1.9-1.6-3.9-2.7c-1.9-1.2-4.4-2.7-7.4-4.5c-3-1.9-5.4-3.6-7.1-5.3
	c-1.7-1.6-2.7-3.3-2.9-4.9c-0.2-0.5-0.3-1-0.3-1.5c0-2,0.4-3.7,1.1-5c0.7-1.4,1.6-2.5,2.7-3.2c1-0.7,2.1-1.2,3-1.5
	c1-0.3,1.9-0.4,2.7-0.4c1.3,0,2.5,0.3,3.6,1.1c0.3,0.1,0.8,0.5,1.4,1c0.5,0.4,1,0.8,1.4,1c1.9-2,3.8-3,5.6-3c1.4,0,2.8,0.5,4.4,1.6
	c1.2,0.7,2.1,1.6,2.8,2.6c1.8-2.9,4.2-4.4,7.1-4.4c1.6,0.2,2.9,0.7,3.9,1.3c1.1,0.7,1.9,1.7,2.6,3.1c0.5,1.2,0.8,2.6,0.8,3.9
	c0,2-0.4,4-1.1,5.8s-1.8,3.3-3.2,4.3l-0.7-0.4c0.1-0.2,0.2-1.1,0.6-2.7c0.3-1.5,0.5-2.7,0.7-3.5c0.2-0.7,0.2-1.6,0.2-2.6
	c0-2.8-0.7-4.6-2.2-5.5c-0.2-0.1-0.4-0.2-0.6-0.3c-0.2-0.2-0.5-0.3-0.8-0.4c-0.2-0.1-0.6-0.2-0.9-0.2
	C217.6,78.9,217.2,79.1,216.7,79.3z M164.8,79.1L164.8,79.1z M164.8,79.1c-0.3-0.2-0.6-0.6-0.8-1.1s-0.3-0.9-0.3-1.2
	c0-1.1,0.4-2.2,1.1-3.2c1.7-1.7,3.5-3.1,5.4-4c-0.3,0.6-0.7,1.3-1.3,2.1c-0.6,0.9-1,1.6-1.4,2.1c-0.3,0.6-0.6,1.2-0.8,2
	c0.1,0.6,0.9,1,2.3,1.3c1.4,0.2,2.8,0.4,4.4,0.6c1.4,0.2,2.8,0.5,4.1,1.1c1.3,0.6,2.2,1.6,2.8,2.9c0.1,0.7,0.2,1.3,0.2,1.7
	c0,1.5-0.3,3-0.8,4.4c-0.5,1.5-1.2,2.8-2.2,4.1c-0.9,1.2-1.9,2.2-3,3.1c-0.8,0.5-1.8,0.9-3.1,1.4c-1.3,0.4-2.5,0.6-3.5,0.6
	c-1.7,0-3.7-0.7-5.8-2c-2.2-1.3-3.7-2.9-4.5-4.8c-0.6-1.5-0.9-3.4-0.9-5.7c0-1,0.2-1.9,0.6-2.8c0.6-1.1,1.5-1.7,2.6-1.9
	c0.6,0,1.1,0.1,1.4,0.5c0.2,0.3,0.4,0.8,0.4,1.2c0,0.6-0.3,1.6-1,2.7c-0.6,1.2-0.9,2.3-0.9,3.2c0.4,1.2,1,2.3,2,3.3
	c0.9,1.1,2,1.8,3.2,2.4c1.2,0.6,2.3,0.9,3.5,0.9c0.6,0,1.1-0.1,1.5-0.3c1.5-0.2,2.7-1,3.9-2.3c1.1-1.2,1.9-2.6,2.6-4.2
	c0.7-1.7,1-3.1,1-4.4c-0.4-0.7-1.1-1.3-2.1-1.6s-2-0.5-3.2-0.6c-1.1-0.2-2.4-0.3-3.9-0.6C166.8,79.8,165.6,79.5,164.8,79.1z"/>
<path fill-rule="evenodd" clip-rule="evenodd" fill="#E30016" d="M376.7,93.7c1.4-0.1,2.8-0.7,4-1.6c1.2-1,2-2.1,2.4-3.4
	c0.3-0.3,0.4-0.9,0.4-1.7c0-0.6-0.1-1.2-0.2-1.7c-0.2-1-0.5-2-1-2.9c-0.5-0.9-1.1-1.6-2-2.1c-1.2-0.8-2.7-1.3-4.6-1.3
	c-0.8,0.1-1.7,0.3-2.6,0.7c-1.2,0.7-2.1,1.6-2.7,2.6c-0.6,1.1-0.9,2.1-0.9,3.1c0,2.1,0.4,3.7,1.3,5c1,1.2,1.9,2,2.8,2.4
	C374.4,93.2,375.4,93.5,376.7,93.7z M376.7,97.3L376.7,97.3z M376.7,97.3c-3.6,0-6.6-1.7-8.9-4.8c-1.4-1.9-2-4.5-2-7.7
	c0-1.4,0.5-3,1.4-4.6c1-1.6,2.3-2.9,4.1-3.9c1.6-0.7,2.9-1,3.9-1.1c3,0,5.4,0.7,7.3,2.1c2.1,1.3,3.6,3.8,4.4,7.5
	c0.2,1.1,0.2,1.9,0.2,2.2c0,1.1-0.2,2.1-0.5,3c-0.6,2-1.9,3.7-3.7,5.1C381.1,96.6,379,97.3,376.7,97.3z M378.4,70.6L378.4,70.6z
	 M378.4,70.6c0-0.3,0.3-1.5,0.8-3.5s0.7-3.6,0.7-4.6c0-2-0.6-3.7-1.7-5.2c-0.7-0.8-2.1-2.1-4.1-3.6c-2.1-1.6-3.5-2.7-4.3-3.4
	c-0.7-0.7-1.5-1.8-2.4-3.2c-0.8-1.4-1.2-3.1-1.2-5c0.2-1.5,1-3.3,2.3-5.5c1.3-2.2,2.9-4.2,4.8-6c1.7-1.8,3.4-2.9,4.8-3.3
	c0.2-0.1,0.7-0.1,1.3-0.1c0.7,0,1.5,0.2,2.5,0.7c0.8,0.6,1.3,1.3,1.4,2.1c0,0.3-0.2,0.6-0.5,0.8c-0.7,0.1-1.3,0.1-1.8,0.1
	s-1.2,0-2.2-0.1c-1.5,0.1-2.7,0.6-3.5,1.5c-0.9,0.8-2.2,2.6-3.9,5.1c-0.9,1.5-1.4,2.6-1.7,3.1c-0.2,0.6-0.3,1.2-0.3,2.1
	c0,0.9,0.3,2,0.8,3.1c0.3,0.7,0.7,1.2,1.3,1.7c0.5,0.5,1.4,1.2,2.5,1.9c1.1,0.8,1.9,1.5,2.5,2.1c1.4,1.1,2.6,2,3.4,2.9
	c0.9,0.9,1.7,2,2.3,3.4c0.6,1.3,0.9,2.8,0.9,4.6c-0.6,3.6-1.9,6.4-4,8.3H378.4z M279.7,93.7L279.7,93.7z M279.7,93.7
	c1.4-0.1,2.8-0.7,4-1.6c1.3-1,2.1-2.1,2.5-3.4c0.2-0.3,0.3-0.9,0.3-1.7c0-0.6-0.1-1.2-0.2-1.7c-0.2-1-0.5-2-1-2.9
	c-0.5-0.9-1.1-1.6-1.9-2.1c-1.3-0.8-2.8-1.3-4.7-1.3c-0.8,0.1-1.7,0.3-2.6,0.7c-1.1,0.7-2,1.6-2.7,2.6c-0.6,1.1-0.9,2.1-0.9,3.1
	c0,2.1,0.4,3.7,1.3,5c1,1.2,2,2,2.8,2.4C277.4,93.2,278.5,93.5,279.7,93.7z M279.8,97.3L279.8,97.3z M279.8,97.3
	c-3.7,0-6.7-1.7-9-4.8c-1.3-1.9-2-4.5-2-7.7c0-1.4,0.5-3,1.5-4.6c0.9-1.6,2.3-2.9,4-3.9c1.6-0.7,2.9-1,3.9-1.1c3,0,5.4,0.7,7.3,2.1
	c2.2,1.3,3.6,3.8,4.4,7.5c0.2,1.1,0.3,1.9,0.3,2.2c0,1.1-0.2,2.1-0.6,3c-0.6,2-1.8,3.7-3.7,5.1C284.1,96.6,282.1,97.3,279.8,97.3z
	 M281.4,70.6L281.4,70.6z M281.4,70.6c0.1-0.3,0.3-1.5,0.8-3.5s0.8-3.6,0.8-4.6c0-2-0.6-3.7-1.8-5.2c-0.7-0.8-2-2.1-4.1-3.6
	c-2-1.6-3.4-2.7-4.2-3.4c-0.8-0.7-1.6-1.8-2.5-3.2c-0.8-1.4-1.2-3.1-1.2-5c0.2-1.5,1-3.3,2.3-5.5c1.4-2.2,3-4.2,4.7-6
	c1.9-1.8,3.5-2.9,4.9-3.3c0.3-0.1,0.7-0.1,1.3-0.1c0.7,0,1.6,0.2,2.5,0.7c0.8,0.6,1.3,1.3,1.4,2.1c0,0.3-0.1,0.6-0.4,0.8
	c-0.8,0.1-1.4,0.1-1.9,0.1s-1.2,0-2.1-0.1c-1.6,0.1-2.8,0.6-3.6,1.5c-0.8,0.8-2.1,2.6-3.9,5.1c-0.8,1.5-1.4,2.6-1.6,3.1
	c-0.3,0.6-0.4,1.2-0.4,2.1c0,0.9,0.3,2,0.8,3.1c0.3,0.7,0.8,1.2,1.3,1.7c0.6,0.5,1.4,1.2,2.5,1.9c1.1,0.8,2,1.5,2.5,2.1
	c1.5,1.1,2.6,2,3.5,2.9c0.8,0.9,1.6,2,2.2,3.4c0.6,1.3,0.9,2.8,0.9,4.6c-0.6,3.6-1.9,6.4-4,8.3H281.4z"/>
</svg>