<?xml version="1.0" encoding="utf-8"?>
<!-- Generator: Adobe Illustrator 21.0.0, SVG Export Plug-In . SVG Version: 6.00 Build 0)  -->
<svg version="1.1" xmlns="http://www.w3.org/2000/svg" xmlns:xlink="http://www.w3.org/1999/xlink" x="0px" y="0px"
	 viewBox="0 0 600 200" enable-background="new 0 0 600 200" xml:space="preserve">
<g id="Layer_1">
	<g id="L_1_">
		<g id="L">
			<path id="L1" fill-rule="evenodd" clip-rule="evenodd" fill="#D30223" d="M448.9,134.9c1.2-5.6,1.7-5.6,6.8-2.9
				C453.2,135.1,452.9,136.1,448.9,134.9L448.9,134.9z M436.1,135.2c2.7-17,24.7-19.7,28.9-9.2c-6.7,4.5-6-4.6-17-1.1
				C444.6,126.1,439.3,132.5,436.1,135.2L436.1,135.2z M472.8,120c-5.1,0.6-6.8-0.1-11.6-1.1c-43.8-8.8-35.5,55.8,4.4,55.3
				C506,173.7,518.1,116.8,472.8,120L472.8,120z M472.8,120"/>
			<path id="L2" fill-rule="evenodd" clip-rule="evenodd" fill="#D30223" d="M474.5,120.4c1.7,3-1.9,4.9-1.2,1
				c38.4,0.6,11.4,57.8-7.2,52C506.3,173.6,518.7,123.4,474.5,120.4L474.5,120.4z M474.5,120.4"/>
		</g>
		<g>
			<path fill="#349A04" d="M488.6,70.1c0.9-12.7-1.6-22.4-10.2-31.3c-5.9-6.1-19.1-12.7-28-12.6c-4.2,27.8,8.9,40.9,35.9,44.7
				c-3.6,12.6-12.4,27.8-17.4,51.6c-0.3,1.5-0.9,5.5-2,5.5l-3.5-0.2c2.3,1.5,4.1,2.2,6.1,2.5c2.1,0.3,5.9,0.2,6.3-0.3
				c0.4-0.5-2.1-0.6-2.1-1.2c0.2-4.3,5.5-34.2,12-47.9C486.6,79,488.4,74.2,488.6,70.1C488.7,70,488.7,70,488.6,70.1z"/>
			<path fill-rule="evenodd" clip-rule="evenodd" fill="#00481F" d="M471,128.7c0,0-3.8-0.6-3.8-0.5c2.5-1.4,2.3-6.3,3.5-8.4
				C470.1,122.2,471,128.3,471,128.7L471,128.7z M471,128.7"/>
			<path fill-rule="evenodd" clip-rule="evenodd" fill="#006328" d="M487.3,70.3c-2.5-5.6-19.4-21.5-24.1-27.7
				c-2.6-3.4-10.8-13.8-12.8-16.6C441.2,53.4,469.5,74,487.3,70.3L487.3,70.3z M487.3,70.3"/>
			<path fill-rule="evenodd" clip-rule="evenodd" fill="#FFFFFF" d="M471.6,52.1c-1.2-0.8-14.6-17-18.9-23.3c-0.1-0.2-2.1-2.9-2.3-3
				c-0.2-0.1,1.3,0.9,1.5,1.2C454.5,29.6,468.3,48.8,471.6,52.1L471.6,52.1z M471.6,52.1"/>
		</g>
	</g>
	<g id="R_1_">
		<g id="R">
			<path id="R1" fill-rule="evenodd" clip-rule="evenodd" fill="#D30223" d="M492.3,132.4c-0.3-12.1,7.2-27.3,22.1-20.6
				c-4.4,7.9-6.1-0.2-13.7,6.5c-3.3,2.9-4.4,8.1-5.1,9.4C492.9,133.3,494.9,129.6,492.3,132.4L492.3,132.4z M520.3,101.1l-9.7,5.8
				c-47.9,14.3-7.1,64.4,28.5,47.3C580.4,134.2,555.2,75.8,520.3,101.1L520.3,101.1z M520.3,101.1"/>
			<path id="R2" fill-rule="evenodd" clip-rule="evenodd" fill="#D30223" d="M516.6,136.6c-2.9-2.2-0.4,0.9-3.9-4
				c-0.9-1.2-15.2,4.4-18.7,2.2c-9.3-5.4,0.3-8.7-1.6-14.2C509.6,98.2,523.5,109.1,516.6,136.6L516.6,136.6z M516.6,136.6"/>
			<path id="R3" fill-rule="evenodd" clip-rule="evenodd" fill="#E8F5FA" d="M495.3,136.5c2.2-2.9,0.6,0.8,2.7-4.9
				c0.5-1.4,1.2-6.6,4.1-9.7c6.6-7.1,8.8,0.8,12.3-7.3C500,108.9,494.2,124.4,495.3,136.5L495.3,136.5z M495.3,136.5"/>
			<path fill-rule="evenodd" clip-rule="evenodd" fill="#FFFFFF" d="M504.1,129.6c4.6,0.9,4.8-0.2,7.2-4.2
				C505.3,123.1,504.7,123.1,504.1,129.6L504.1,129.6z M504.1,129.6"/>
		</g>
		<g>
			<path fill="#349A04" d="M488.8,69.7c-0.1,0-0.5,3.9-0.1,4.6c4.6,15.5,26.4,34.5,28.5,40.3c-0.6,1.4,3.6,1.4,5.4-0.2
				c0.6-0.6,1.6-1.6,1.8-2.8l0.2-1.7c-12.5-2.3-28.8-25.6-32.6-37c10.5,3.5,14.1,7.4,27,8.3c27.5,2,61.9-23.1,63.8-36.1
				c-12.6-6.7-43.1-4.2-56.9-0.3c-20.5,5.9-23.2,10.8-35.7,22.2"/>
			<path fill-rule="evenodd" clip-rule="evenodd" fill="#006328" d="M488.8,69.7c11.8,3.3,48.8-7,61-12c6.9-2.8,27.1-11.4,33.1-12.6
				c-5.7-7.6-65.8-4.5-80.3,9.7C495.2,61.9,491.6,63.1,488.8,69.7L488.8,69.7z M488.8,69.7"/>
			<path fill-rule="evenodd" clip-rule="evenodd" fill="#FFFFFF" d="M534.5,62.8c2.2,0.1,30.4-11.6,41.7-15.5c0.3-0.1,4.6-1.7,5-1.6
				C581.6,45.7,550.1,59.8,534.5,62.8L534.5,62.8z M534.5,62.8"/>
			<path fill="none" stroke="#00481F" stroke-width="0.162" d="M516.3,110c0,0,0.2,1.5,0.1,1.5c2.1,1.4,5.2,1.2,5.7-1.2
				C520.4,112.7,516,111,516.3,110L516.3,110z M516.3,110"/>
			<path fill-rule="evenodd" clip-rule="evenodd" fill="#00481F" d="M520.3,112c0,0-2.8,2.8-2.7,3c0.3-2.9-4-5.6-5.1-7.9
				C514.3,108.9,520,111.7,520.3,112L520.3,112z M520.3,112"/>
			<path fill-rule="evenodd" clip-rule="evenodd" fill="#00481F" d="M517.6,112.8c0,0,0.1,2,0.1,2.1c3.2-0.1,6.2-2.8,4.8-5.6
				C521.6,111.7,518.2,113.6,517.6,112.8L517.6,112.8z M517.6,112.8"/>
			<path fill-rule="evenodd" clip-rule="evenodd" fill="#00481F" d="M516.3,110c0,0,0.2,1.5,0.1,1.5c2.1,1.4,5.2,1.2,5.7-1.2
				C520.4,112.7,516,111,516.3,110L516.3,110z M516.3,110"/>
		</g>
	</g>
</g>
<g id="Layer_1_copy_2">
	<g id="L_4_">
		<g id="L_5_">
			<path id="L1_2_" fill-rule="evenodd" clip-rule="evenodd" fill="#D30223" d="M67.5,134.9c1.2-5.6,1.7-5.6,6.8-2.9
				C71.8,135.1,71.5,136.1,67.5,134.9L67.5,134.9z M54.8,135.2c2.7-17,24.7-19.7,28.9-9.2c-6.7,4.5-6-4.6-17-1.1
				C63.3,126.1,58,132.5,54.8,135.2L54.8,135.2z M91.5,120c-5.1,0.6-6.8-0.1-11.6-1.1c-43.8-8.8-35.5,55.8,4.4,55.3
				C124.7,173.7,136.8,116.8,91.5,120L91.5,120z M91.5,120"/>
			<path id="L2_2_" fill-rule="evenodd" clip-rule="evenodd" fill="#D30223" d="M93.2,120.4c1.7,3-1.9,4.9-1.2,1
				c38.4,0.6,11.4,57.8-7.2,52C125,173.6,137.4,123.4,93.2,120.4L93.2,120.4z M93.2,120.4"/>
		</g>
		<g>
			<path fill="#349A04" d="M132.3,47.5c-5.1-0.3-14.7,5.2-18.6,8.6c-5.8,5-5.9,7.1-8.3,12.7l-0.1,1.1c0,0,0,0.1,0.1,0.3l1.5,0.3
				c4-0.5,5.7,0.3,10.1-1.4C126.3,65.4,133.7,52,132.3,47.5z"/>
			<path fill-rule="evenodd" clip-rule="evenodd" fill="#006328" d="M105.4,69.8c4.4-0.7,14.8-9.7,18.1-13.2c1.8-2,7.1-7.8,8.9-9.1
				c-3-1.6-22.1,8.5-24.7,15.4C106.3,66.3,105.3,67.2,105.4,69.8L105.4,69.8z M105.4,69.8"/>
			<path fill-rule="evenodd" clip-rule="evenodd" fill="#FFFFFF" d="M119.2,60.6c0.7-0.3,8.2-8.4,11.3-11.4c0.1-0.1,1.2-1.2,1.4-1.3
				C132,47.8,123.9,57.3,119.2,60.6L119.2,60.6z M119.2,60.6"/>
		</g>
		<g>
			<path fill="#349A04" d="M107.3,70.1c0.9-12.7-1.6-22.4-10.2-31.3c-5.9-6.1-19.1-12.7-28-12.6C65,53.9,78.1,67,105,70.8
				c-3.6,12.6-12.4,27.8-17.4,51.6c-0.3,1.5-0.9,5.5-2,5.5l-3.5-0.2c2.3,1.5,4.1,2.2,6.1,2.5c2.1,0.3,5.9,0.2,6.3-0.3
				c0.4-0.5-2.1-0.6-2.1-1.2c0.2-4.3,5.5-34.2,12-47.9C105.2,79,107.1,74.2,107.3,70.1C107.3,70,107.3,70,107.3,70.1z"/>
			<path fill-rule="evenodd" clip-rule="evenodd" fill="#00481F" d="M89.7,128.7c0,0-3.8-0.6-3.8-0.5c2.5-1.4,2.3-6.3,3.5-8.4
				C88.8,122.2,89.7,128.3,89.7,128.7L89.7,128.7z M89.7,128.7"/>
			<path fill-rule="evenodd" clip-rule="evenodd" fill="#006328" d="M106,70.3c-2.5-5.6-19.4-21.5-24.1-27.7
				c-2.6-3.4-10.8-13.8-12.8-16.6C59.8,53.4,88.2,74,106,70.3L106,70.3z M106,70.3"/>
			<path fill-rule="evenodd" clip-rule="evenodd" fill="#FFFFFF" d="M90.3,52.1c-1.2-0.8-14.6-17-18.9-23.3c-0.1-0.2-2.1-2.9-2.3-3
				c-0.2-0.1,1.3,0.9,1.5,1.2C73.2,29.6,87,48.8,90.3,52.1L90.3,52.1z M90.3,52.1"/>
		</g>
	</g>
</g>
<g id="Layer_1_copy">
	<g id="R_2_">
		<g id="R_3_">
			<path id="R1_1_" fill-rule="evenodd" clip-rule="evenodd" fill="#D30223" d="M246.7,139.4c-0.3-12.1,7.2-27.3,22.1-20.6
				c-4.4,7.9-6.1-0.2-13.7,6.5c-3.3,2.9-4.4,8.1-5.1,9.4C247.3,140.3,249.3,136.6,246.7,139.4L246.7,139.4z M274.8,108.1l-9.7,5.8
				c-47.9,14.3-7.1,64.4,28.5,47.3C334.9,141.2,309.6,82.8,274.8,108.1L274.8,108.1z M274.8,108.1"/>
			<path id="R2_1_" fill-rule="evenodd" clip-rule="evenodd" fill="#D30223" d="M271.1,143.6c-2.9-2.2-0.4,0.9-3.9-4
				c-0.9-1.2-15.2,4.4-18.7,2.2c-9.3-5.4,0.3-8.7-1.6-14.2C264.1,105.2,278,116.1,271.1,143.6L271.1,143.6z M271.1,143.6"/>
			<path id="R3_1_" fill-rule="evenodd" clip-rule="evenodd" fill="#E8F5FA" d="M249.7,143.5c2.2-2.9,0.6,0.8,2.7-4.9
				c0.5-1.4,1.2-6.6,4.1-9.7c6.6-7.1,8.8,0.8,12.3-7.3C254.5,115.9,248.7,131.4,249.7,143.5L249.7,143.5z M249.7,143.5"/>
			<path fill-rule="evenodd" clip-rule="evenodd" fill="#FFFFFF" d="M258.5,136.6c4.6,0.9,4.8-0.2,7.2-4.2
				C259.7,130.1,259.1,130.1,258.5,136.6L258.5,136.6z M258.5,136.6"/>
		</g>
		<path fill="#349A04" d="M243.1,81.3c4.6,15.5,26.4,34.5,28.5,40.3c-0.6,1.4,3.6,1.4,5.4-0.2c0.6-0.6,1.6-1.6,1.8-2.8l0.2-1.7
			c-12.5-2.3-28.8-25.6-32.6-37c0,0,0,0,0,0l-3.4-2.4C243,78.6,242.8,80.8,243.1,81.3z"/>
		<g>
			<path fill="none" stroke="#00481F" stroke-width="0.162" d="M270.8,117c0,0,0.2,1.5,0.1,1.5c2.1,1.4,5.2,1.2,5.7-1.2
				C274.8,119.7,270.5,118,270.8,117L270.8,117z M270.8,117"/>
			<path fill-rule="evenodd" clip-rule="evenodd" fill="#00481F" d="M274.8,119c0,0-2.8,2.8-2.7,3c0.3-2.9-4-5.6-5.1-7.9
				C268.7,115.9,274.4,118.7,274.8,119L274.8,119z M274.8,119"/>
			<path fill-rule="evenodd" clip-rule="evenodd" fill="#00481F" d="M272.1,119.8c0,0,0.1,2,0.1,2.1c3.2-0.1,6.2-2.8,4.8-5.6
				C276.1,118.7,272.7,120.6,272.1,119.8L272.1,119.8z M272.1,119.8"/>
			<path fill-rule="evenodd" clip-rule="evenodd" fill="#00481F" d="M270.8,117c0,0,0.2,1.5,0.1,1.5c2.1,1.4,5.2,1.2,5.7-1.2
				C274.8,119.7,270.5,118,270.8,117L270.8,117z M270.8,117"/>
		</g>
		<g>
			<path fill="#349A04" d="M298.5,60.5c-7.9-3.3-26-0.3-34,2.8c-11.9,4.6-13.3,7.7-20.2,15.1l-0.8,1.7c0,0,0,0.2,0,0.4l2.1,1.3
				c6.5,1.5,8.8,3.7,16.6,3.6C278.8,85.1,298.1,68.3,298.5,60.5z"/>
			<path fill-rule="evenodd" clip-rule="evenodd" fill="#006328" d="M243.6,80.1c7.2,1.4,28.8-6.7,35.8-10.4
				c4-2.1,15.6-8.2,19.1-9.3c-3.8-4.2-39.5,0.8-47.5,10C247,75.1,244.9,76,243.6,80.1L243.6,80.1z M243.6,80.1"/>
			<path fill-rule="evenodd" clip-rule="evenodd" fill="#FFFFFF" d="M270.6,73.6c1.3,0,17.6-8.5,24.1-11.5c0.2-0.1,2.6-1.2,2.9-1.2
				C297.8,60.9,279.7,71,270.6,73.6L270.6,73.6z M270.6,73.6"/>
		</g>
		<g>
			<path fill="#349A04" d="M219.8,58c5.1-0.3,14.7,5.2,18.6,8.6c5.8,5,5.9,7.1,8.3,12.7l0.1,1.1c0,0,0,0.1-0.1,0.3l-1.5,0.3
				c-4-0.5-5.7,0.3-10.1-1.4C225.8,75.9,218.4,62.5,219.8,58z"/>
			<path fill-rule="evenodd" clip-rule="evenodd" fill="#006328" d="M246.7,80.3c0.1-2.6-0.9-3.5-2.2-7c-2.6-6.8-21.7-17-24.7-15.4
				c1.8,1.3,7,7.2,8.9,9.1C231.9,70.6,242.3,79.6,246.7,80.3L246.7,80.3z M246.7,80.3"/>
			<path fill-rule="evenodd" clip-rule="evenodd" fill="#FFFFFF" d="M232.8,71.1c-4.6-3.3-12.8-12.7-12.6-12.7s1.3,1.2,1.4,1.3
				C224.7,62.7,232.1,70.8,232.8,71.1L232.8,71.1z M232.8,71.1"/>
		</g>
	</g>
	<path fill="#349A04" d="M216,103.2v7.9c0,2.4-1.7,4.4-3.8,4.4h-17.5v17.4c0,2.1-1.9,3.8-4.4,3.8h-7.8c-2.5,0-4.4-1.7-4.4-3.8v-17.4
		h-17.5c-2.1,0-3.8-2-3.8-4.4v-7.9c0-2.5,1.7-4.5,3.8-4.5H178V81.3c0-2.1,1.9-3.8,4.4-3.8h7.8c2.5,0,4.4,1.7,4.4,3.8v17.4h17.5
		C214.2,98.7,216,100.7,216,103.2L216,103.2z"/>
	<path fill="#349A04" d="M371.7,112.8h-10.3h-7.1c-2.1,0-3.8,1.9-3.8,4.4v7.8c0,2.5,1.7,4.4,3.8,4.4h7.1h10.3h16.7h13.9h3.5
		c2.1,0,3.8-1.9,3.8-4.4v-7.8c0-2.5-1.7-4.4-3.8-4.4h-15.3h-2.2H371.7z"/>
	<path fill="#349A04" d="M371.7,85.5h-10.3h-7.1c-2.1,0-3.8,1.9-3.8,4.4v7.8c0,2.5,1.7,4.4,3.8,4.4h7.1h10.3h16.7h13.9h3.5
		c2.1,0,3.8-1.9,3.8-4.4v-7.8c0-2.5-1.7-4.4-3.8-4.4h-15.3h-2.2H371.7z"/>
	<g>
		<g id="_x25_">
			<path fill="#FFFFFF" stroke="#006328" stroke-width="1.5" stroke-miterlimit="10" d="M564.2,163.8c-3.4,0-6.1-2.7-6.1-6.1
				c0-3.4,2.7-6.2,6.1-6.2c3.4,0,6.2,2.8,6.2,6.2C570.4,161,567.6,163.8,564.2,163.8z"/>
			<path fill="#FFFFFF" stroke="#006328" stroke-width="1.5" stroke-miterlimit="10" d="M541.1,170.9c-1,0-1.9-0.3-2.7-0.9
				c-1.2-0.9-1.8-2.2-1.8-3.6c0-1,0.3-1.9,0.9-2.7l24.7-33c0.8-1.2,2.2-1.8,3.6-1.8c1,0,2,0.3,2.8,1c1.1,0.8,1.8,2.1,1.8,3.6
				c0,1-0.3,1.9-0.9,2.7l-24.7,33C543.9,170.3,542.5,170.9,541.1,170.9z"/>
			<path fill="#FFFFFF" stroke="#006328" stroke-width="1.5" stroke-miterlimit="10" d="M542.6,148.3c-3.4,0-6.1-2.7-6.1-6.1
				c0-3.4,2.7-6.2,6.1-6.2c3.4,0,6.2,2.8,6.2,6.2C548.8,145.6,546,148.3,542.6,148.3z"/>
		</g>
		<path fill="#FFFFFF" stroke="#006328" stroke-width="1.5" stroke-miterlimit="10" d="M518.8,171c-8.4,0-14.5-7.5-14.5-17.8v-6.6
			c0-10.2,6.2-17.8,14.5-17.8c3.9,0,7.8,1.9,10.5,5.2c2.6,3.2,4,7.6,4,12.6v6.6C533.3,163.5,527.2,171,518.8,171z M518.8,138
			c-3.5,0-5.4,4.5-5.4,8.6v6.6c0,5.2,2.2,8.6,5.4,8.6c3.2,0,5.4-3.6,5.4-8.6v-6.6C524.2,142.4,522.3,138,518.8,138z"/>
		<path fill="#FFFFFF" stroke="#006328" stroke-width="1.5" stroke-miterlimit="10" d="M490.8,166.5c0,2.5,2,4.6,4.6,4.6
			c2.5,0,4.6-2,4.6-4.6v-33.1c0-2.5-2-4.6-4.5-4.6c-3,0.3-4.3,2-4.6,4.6V166.5z"/>
	</g>
	<path fill="#FFFFFF" stroke="#006328" stroke-width="1.5" stroke-miterlimit="10" d="M468.2,153.6c-1.7,0-3.1-1.4-3.1-3.2
		c0-1.8,1.4-3.2,3.1-3.2H483c1.7,0,3.2,1.4,3.2,3.2c0,1.8-1.4,3.2-3.2,3.2H468.2z"/>
</g>
</svg>
