<?xml version="1.0" encoding="utf-8"?>
<!-- Generator: Adobe Illustrator 21.0.0, SVG Export Plug-In . SVG Version: 6.00 Build 0)  -->
<svg version="1.1" id="Layer_1" xmlns="http://www.w3.org/2000/svg" xmlns:xlink="http://www.w3.org/1999/xlink" x="0px" y="0px"
	 viewBox="0 0 328.7 318.6" enable-background="new 0 0 328.7 318.6" xml:space="preserve">
<g>
	<g>
		<g>
			<path fill="#96353A" d="M209.6,225.7c2.7-2,5.3-4.3,7.5-7c15.7-18.8,29-41.2,29.2-70c0.2-32.1-9.7-66.5-30.3-90.4
				c-20.6-24-44.4-33.9-70.6-33.7C116.9,24.8,81.2,36.4,66.4,64C50.6,93.6,48.8,131.1,59,166.2c1.3,4.5,2.7,9,4.1,13.5
				c-2.5-1.8-4.9-2.4-7.4-4.7c11.2,28.8,35.6,47.1,60.7,56.4c20.5,7.6,43,9.1,62.8,5.7C189.7,235.3,200.7,232.1,209.6,225.7z"/>
			<path fill="#FBB78B" d="M202,118.3c6.5-2.1,14.4-1.2,18.5,2.6c9.3,9.2-8.6,19.4-18,12.6L202,118.3z"/>
			<path fill="#FBB78B" d="M74.2,123.4c-13.6-3.3-7.2-14.9,3.4-16.6C75.6,112.3,74.9,117.9,74.2,123.4z"/>
			<path fill="#FDC896" d="M76.3,101.9c-3.9,12.5-4.3,16.7-4.9,29.6c-0.9,22,6.7,34.8,28.8,41.4c7.5,2,34.1,3.1,34.1,6.2
				c0,6.9,0.8,9.9,5,11.4c5,2,11.9-2.4,11.5-8.9c-0.6-10.1,25.3-3.9,37.5-6.3c18.1-4.5,21.1-15.5,24.6-32.3
				c2.7-14.7,1.9-20.1,3-33.8C215.9,109.2,81.5,102.5,76.3,101.9z"/>
			<g>
				<path d="M142.9,160.4c-2.2,0.3-4.5-0.4-6.8-2c-3.2-2.7-4.3-8.3-3.3-11.9c0.1-0.3,0.4-0.5,0.7-0.4c0.3,0.1,0.5,0.4,0.4,0.7
					c-0.8,3.1,0.2,8.3,2.9,10.7c3,2.1,6,2.4,8.6,0.8c3.2-2,5.2-6.9,4.6-11.1c0-0.2,0-0.4,0.2-0.5c0.1-0.1,0.4-0.2,0.5-0.1
					c0.6,0.2,1.2,0.4,1.9,0.6c1.4,0.4,3,0.9,4.6,1.6c0.3,0.1,0.4,0.4,0.3,0.7c-0.1,0.3-0.4,0.4-0.7,0.3c-1.6-0.6-3.1-1.1-4.5-1.5
					c-0.4-0.1-0.7-0.2-1.1-0.3c0.3,4.5-1.8,9.2-5.2,11.3C144.9,159.9,143.9,160.2,142.9,160.4z"/>
			</g>
			<path fill="#F79A7A" d="M89.1,141.3c0.6,0.6,1.3,1,2.2,1.4c5.5,2.5,21.4,1.9,12.6-5.9C99.3,132.7,81,133.1,89.1,141.3z"/>
			<path fill="#F79A7A" d="M194.3,146.4c-0.6,0.6-1.5,1.1-2.4,1.5c-6.2,2.5-23.5,1-13.5-7.2C183.5,136.5,203.6,137.9,194.3,146.4z"
				/>
			
				<ellipse transform="matrix(0.9998 -1.903250e-02 1.903250e-02 0.9998 -2.3232 2.126)" fill="#010101" cx="110.5" cy="123.1" rx="5.6" ry="9"/>
			
				<ellipse transform="matrix(5.604427e-02 -0.9984 0.9984 5.604427e-02 40.5775 295.6727)" fill="#010101" cx="176.7" cy="126.4" rx="9" ry="5.6"/>
			<g>
				<path fill="#FDC896" d="M252.2,169.7c0.2-2.6-6.3-3.1-8.1-3.4c1.6-1.3,6.6-4.9,4.9-7.4c-1.9-2.7-7.6,2-9.2,3.3
					c1.2-2,5.6-9.1,2.4-10.7c-3.2-1.6-7.4,5.7-8.6,7.8c-1.1-2.7-7.4-12.1-6.6-4.4c0.3,3.4,2.7,5.5,0,8.5c-3.1,3.4-8.6,5.5-12.6,7.5
					c-9.5,4.7-4.5,2.3-14.3,6.5c-4.1,1.8-8.2,3.5-12.3,5.2c-6.5,2.6-11.5,1.5-17.8-0.3c-5-1.4-9.9-2-14.9-3.2
					c-1.7-0.4-2.2-1.9-1.9-3.5c-7.3,0.1-14.4,0.3-21.2,0.9c0.2,0.3,0.4,0.7,0.6,1.1c-0.1,0.3-0.3,0.7-0.6,1c-2.9,3-7.1,2.5-10.9,2.8
					c-5.2,0.3-9.9,1.6-14.4,3.4c-2.1,14.4-3.8,28.5-3.9,44.2c0,2.3-0.5,4.5-1.4,6.5l0.3,12.4c6.7-0.2,13.6-6.4,15.9,0.2
					c1.7,4.9,3.1,10,4.5,15c0.1,0.3,0.2,0.7,0.3,1c0.9,0,1.8,0,2.9,0c9.4,0.1,15.1,0.4,24.3,0.1c11.6-0.4,23.1-1.8,34.6-3.5
					c0.1-1.1,0.2-2.2,0.3-3.4c0.7-9.7,1.8-9.5,1.8-19.2c0-7.5,0-15.4,0-22.7c0.4,0.1,0.7,0.3,1.1,0.4c0-0.9,0-1.9,0-2.8
					c1.5-0.7,3-1.4,4.5-2.1c5.1-2.4,10.4-5,14.8-8.4c6.4-4.9,11.7-10.7,18.4-15.3c4-2.7,8.8-10.2,13.6-10.9c2.1-0.3,9,4.4,9.9,2
					c0.8-2.1-4.8-5.9-6.3-6.8C244.4,172.1,252,172.6,252.2,169.7z"/>
			</g>
			<g>
				<path fill="#FDC896" d="M108.4,186.7c-2.3-1.1-7-3.2-7.6-3.6c-2.7-1.6-5.2-3.3-7.7-5c-6-4.1-12.2-7.9-18.2-12
					c-1.7-1.1-4.7-2.1-4.6-4.4c0.1-1.4,0-1.6,0.1-3c0.1-0.8,0.6-6.1-1.6-5.1c-1.8,0.8-4,7.7-4,7.7s-1.5-7.3-4.3-8
					c-3.4-0.8-1.3,8.2-1.3,8.2s-8-5.2-8.8-1.3c-0.5,2.6,6.4,6.4,6.4,6.4s-10-2.2-10.7,0.8c-0.9,3.9,10,5.7,10,5.7s-6.1,5.1-5.4,7.6
					c0.6,2.1,6.4-2.2,9-4.1c0.9,0.4,2.3,1.4,3.8,2.5c6.9,6.6,21.4,23.8,37.8,32.4c3.2,1.7,6.3,3.2,9.4,4.7
					C109.8,206.4,108.9,196.5,108.4,186.7z"/>
			</g>
			<g>
				<path fill="#FDC896" d="M29.8,306.3c3.4-2,8.9-9.4,13.6-10.1c4.7-0.7,5.9,4.2,5.9,4.2s1.7,0.6,8.6-1.6c10.2-3.3,20.2-6.9,29-9.1
					c0.3-0.1,0.6-0.2,1-0.2c6.3,6.5,13.4,12,21,16.4c-24.4,4.2-57.1,10.3-68.6,11.9c-16.8,2.4-24-0.8-24.2-6.3
					C15.9,306,26.4,308.4,29.8,306.3z"/>
				<path fill="#EE4481" d="M29.1,303.2c3.4-2,9.6-6.3,14.3-7c4.7-0.7,5.9,4.2,5.9,4.2l0,0c-1.9,2.2-6.1,6.3-12.5,8.3
					c-5.3,1.6-8,1.5-11.3,4.2c-1.9,1.6-2.1,3.6-2,4.9c-4.9-1.1-7.2-3.4-7.4-6.4C15.9,306,25.8,305.3,29.1,303.2z"/>
				<g>
					<path fill="#EE4481" d="M54.6,315.4c-0.6,0.1-1.1,0.2-1.6,0.3c-0.3-1.3-0.5-2.7-0.7-4c0.4-1,0.8-1.9,1.3-2.8
						C53.7,311.1,54.1,313.3,54.6,315.4z"/>
					<path fill="#EE4481" d="M51.1,300.4c0.4,0,1-0.1,1.6-0.2c0.1,1.4,0.2,3.4,0.5,5.6c-0.5,0.9-0.9,1.8-1.3,2.7
						C51.4,305.3,51.2,302.4,51.1,300.4z"/>
					<path fill="#EE4481" d="M49.1,316c0.6-2.6,1.6-5.1,2.7-7.5c0.4-0.9,0.9-1.8,1.3-2.7c0.9-1.7,2.3-4.5,3.3-6.5
						c0.5-0.1,0.9-0.3,1.5-0.4c0.4-0.1,0.7-0.2,1.1-0.3c-1.4,2.3-3.9,7.1-5.5,10.4c-0.4,0.9-0.9,1.9-1.3,2.8
						c-0.6,1.4-1.1,2.9-1.5,4.4c-0.4,0.1-0.7,0.1-1.1,0.2C49.5,316.2,49.3,316.1,49.1,316z"/>
				</g>
			</g>
			<g>
				<path fill="#FDC896" d="M264.7,296.7c-3.5-1.8-9.6-8.7-14.3-9.1c-4.7-0.4-5.6,4.6-5.6,4.6s-1.7,0.7-8.7-1
					c-10.4-2.5-20.7-5.4-29.6-6.9c-0.3-0.1-0.7-0.1-1-0.2c-5.8,6.9-12.5,12.9-19.7,17.9c24.6,2.4,57.7,6,69.3,6.8
					c16.9,1.1,23.9-2.6,23.7-8C278.6,295.4,268.3,298.5,264.7,296.7z"/>
				<path fill="#EE4481" d="M265.2,293.6c-3.5-1.8-10-5.6-14.8-6c-4.7-0.4-5.6,4.6-5.6,4.6l0,0c2.1,2,6.6,5.9,13.1,7.3
					c5.4,1.2,8.1,0.9,11.6,3.4c2,1.4,2.4,3.4,2.3,4.8c4.8-1.4,7-3.9,6.9-6.9C278.6,295.4,268.7,295.4,265.2,293.6z"/>
				<g>
					<path fill="#EE4481" d="M240.8,307.6c0.6,0.1,1.1,0.1,1.7,0.2c0.2-1.3,0.3-2.7,0.4-4c-0.5-0.9-1-1.8-1.5-2.7
						C241.2,303.2,241,305.5,240.8,307.6z"/>
					<path fill="#EE4481" d="M243.1,292.4c-0.4,0-1-0.1-1.6-0.1c0,1.4,0,3.4,0,5.6c0.5,0.8,1,1.7,1.5,2.6
						C243.1,297.3,243.1,294.3,243.1,292.4z"/>
					<path fill="#EE4481" d="M246.2,307.8c-0.8-2.5-2-5-3.2-7.3c-0.5-0.9-1-1.8-1.5-2.6c-1-1.6-2.6-4.4-3.8-6.3
						c-0.5-0.1-1-0.2-1.5-0.3c-0.4-0.1-0.7-0.2-1.1-0.3c1.5,2.2,4.4,6.8,6.2,10c0.5,0.9,1,1.8,1.5,2.7c0.7,1.4,1.3,2.8,1.8,4.3
						c0.4,0,0.7,0.1,1.1,0.1C245.9,307.9,246.1,307.8,246.2,307.8z"/>
				</g>
			</g>
			<path fill="#832990" d="M149.2,254.2c65.8-2.8,82.3,21.3,84.8,23.1c0,0,0,0,0,0c0.6,3.4-0.6,6.8-3.1,9.5
				c-2.5,2.6-6.2,4.1-10.1,4.3c-0.3,3.4-2.3,6.5-5.4,8.5c-2.3,1.5-5.1,2.4-8,2.4c-1,0-1.9,0-2.9-0.2c-1.2,3.2-3.8,5.8-7.3,7.3
				c-3.5,1.4-7.5,1.5-11,0.3c-1.8,2.9-5,5-8.7,5.8c-3.7,0.8-7.5,0.3-10.7-1.5c-2.4,2.5-5.8,4.1-9.6,4.4c-0.3,0-0.6,0-0.9,0
				c-3.4,0.1-6.7-0.9-9.3-2.9c-2.7,2.2-6.3,3.3-10.1,3.2c-3.7-0.2-7.3-1.7-9.7-4.1c-3.1,1.8-7,2.5-10.7,1.8
				c-3.7-0.7-6.9-2.8-8.9-5.6c-3.5,1.3-7.5,1.4-11,0c-3.5-1.3-6.3-3.9-7.5-7.1c-0.8,0.2-1.7,0.2-2.5,0.3c-3,0.1-5.9-0.7-8.4-2.3
				c-3.2-2-5.2-5-5.6-8.4c-3.9,0-7.6-1.5-10.2-4c-2.6-2.6-3.8-6-3.3-9.4c2.7-1.9,4.2-2.6,9.4-5.8
				C72.8,271.3,110.4,255.9,149.2,254.2z"/>
			<path fill="#EE4481" d="M144.9,265.3c15.4-1.7,43-1.2,44-7c0.2-1.2-3.4-6.2-3-11.2c0.7-7.7,0-4.5,0.7-12.2
				c0.6-6.4,0.1-15.1,2.3-21.2c-1.8-0.9-6.5-3.7-7.5-7.7c-1.2-4.3-0.6-18.5,0.7-22c-2,0-3.9,0.1-5.6,0c-0.8,3.6,1.9,17.6-4.6,21.4
				c-8.5,5-38.1,6.9-50.1,1.6c-7.5-3.3-9.6-20.7-8.9-24.2c-1.9,0.1-4.4,1.5-6.7,2.2c0.2,3.1,7,20.5,5.4,24.6
				c-2.2,5.5-6.8,5.7-9.2,6.5c-0.5,5-1.7,34.4,1.1,47.7C106.7,264.1,126.1,267.4,144.9,265.3z"/>
			<path fill="#FFFFFF" d="M187.8,255.3c0.6,1.5,1.2,2.6,1.1,3.1c-1,5.8-28.6,5.3-44,7c-18.8,2.1-38.2-1.2-41.5-1.5
				c-0.3-1.6-0.6-3.4-0.9-5.3C147,263.6,176.9,257.9,187.8,255.3z"/>
		</g>
	</g>
	<g>
		<g>
			<path fill="#34BDB6" d="M126.7,54.1c0,0,0.6-5.7-1.7-14.1c-2.3-8.4-8.4-18.7-8.4-18.7s4.7,0.7,10.8,4.1c6.3,3.6,9.4,6.6,9.4,6.6
				s-0.3-4.9,1.9-11.7c3-9.1,6.8-14.7,6.8-14.7s7.1,12.4,9.4,19.4c3.7-6.3,13.3-16.5,13.3-16.5s2.1,6,3.3,14c1,7.1-0.6,14-0.6,14
				s3.8-2.2,10.8-4c6.8-1.8,11.5-1.3,11.5-1.3s-8.5,8.3-12.9,15.9c-4.4,7.6-5.3,13.2-5.3,13.2S150.7,51,126.7,54.1z"/>
			
				<ellipse transform="matrix(0.1283 -0.9917 0.9917 0.1283 79.928 129.7969)" fill="#904199" cx="113.8" cy="19.4" rx="2.2" ry="2.2"/>
			
				<ellipse transform="matrix(0.1283 -0.9917 0.9917 0.1283 141.0517 221.2263)" fill="#904199" cx="196.4" cy="30.4" rx="2.2" ry="2.2"/>
			
				<ellipse transform="matrix(0.1283 -0.9917 0.9917 0.1283 124.9259 146.4955)" fill="#904199" cx="145.8" cy="2.2" rx="2.2" ry="2.2"/>
			
				<ellipse transform="matrix(0.1283 -0.9917 0.9917 0.1283 142.0854 172.0013)" fill="#904199" cx="168.9" cy="5.2" rx="2.2" ry="2.2"/>
		</g>
	</g>
	<g>
		<g>
			<path fill="#832990" d="M152.8,210.7c0.1,1.7-1,4.1-2.4,4.2c-1.4,0.1-6.3-2.1-6.4-3.7c-0.1-1.7,4.7-4.6,6.2-4.6
				C151.6,206.5,152.7,209.1,152.8,210.7z"/>
			<path fill="#832990" d="M135.5,211.2c0.1,1.5,1.2,3.7,2.5,3.6c1.3-0.1,5.6-2.4,5.6-3.9c-0.1-1.5-4.7-3.9-6-3.8
				C136.2,207.2,135.4,209.7,135.5,211.2z"/>
		</g>
		
			<ellipse transform="matrix(0.9991 -4.130892e-02 4.130892e-02 0.9991 -8.6036 6.1194)" fill="#F1F2F2" cx="143.8" cy="211.2" rx="1.9" ry="2.2"/>
	</g>
	<circle fill="#FFFFFF" cx="101.5" cy="286.5" r="4"/>
	<circle fill="#FFFFFF" cx="147" cy="294.5" r="4"/>
	<circle fill="#FFFFFF" cx="199.5" cy="279" r="4"/>
	<g>
		<path fill="#FFFFFF" d="M73.6,273.7c-0.5-0.6-1.4-0.6-1.9-0.1c-0.6,0.5-0.6,1.4-0.1,2c0.5,0.6,1.4,0.6,2,0.1
			C74,275.1,74.1,274.3,73.6,273.7z"/>
		<path fill="#FFFFFF" d="M75.2,277.5c-0.5,0.5-0.6,1.4,0,2c0.5,0.6,1.4,0.5,2,0c0.5-0.5,0.5-1.4,0-1.9
			C76.6,277,75.8,276.9,75.2,277.5z"/>
		<path fill="#FFFFFF" d="M81.1,283c0.5-0.6,0.4-1.4-0.1-1.9c-0.6-0.5-1.4-0.5-1.9,0.1c-0.5,0.6-0.5,1.4,0.1,2
			C79.7,283.6,80.6,283.6,81.1,283z"/>
		<path fill="#FFFFFF" d="M83,284.6c-0.5,0.6-0.4,1.5,0.2,1.9c0.6,0.5,1.5,0.4,1.9-0.2c0.5-0.6,0.3-1.5-0.2-1.9
			C84.3,283.9,83.5,284,83,284.6z"/>
		<path fill="#FFFFFF" d="M89.1,287.5c-0.6-0.4-1.5-0.3-1.9,0.3c-0.4,0.6-0.3,1.5,0.4,1.9c0.6,0.4,1.5,0.3,1.9-0.4
			C89.9,288.8,89.7,287.9,89.1,287.5z"/>
		<path fill="#FFFFFF" d="M93.9,292.2c0.4-0.7,0.2-1.5-0.5-1.9c-0.6-0.4-1.5-0.2-1.9,0.4c-0.4,0.6-0.2,1.5,0.5,1.9
			C92.7,293,93.6,292.8,93.9,292.2z"/>
		<path fill="#FFFFFF" d="M98.6,294.7c0.3-0.7,0.1-1.5-0.6-1.8c-0.7-0.4-1.5-0.1-1.9,0.6c-0.4,0.7-0.1,1.5,0.6,1.9
			C97.4,295.6,98.2,295.4,98.6,294.7z"/>
		<path fill="#FFFFFF" d="M103.4,296.9c0.3-0.7,0-1.5-0.7-1.8c-0.7-0.3-1.5,0-1.8,0.7c-0.3,0.7,0,1.5,0.7,1.8
			C102.2,297.9,103.1,297.6,103.4,296.9z"/>
		<path fill="#FFFFFF" d="M107.5,297.1c-0.7-0.3-1.5,0.1-1.8,0.8c-0.3,0.7,0.1,1.5,0.8,1.8c0.7,0.3,1.5-0.1,1.8-0.8
			C108.5,298.2,108.2,297.4,107.5,297.1z"/>
		<path fill="#FFFFFF" d="M113.3,300.5c0.2-0.7-0.2-1.5-0.9-1.7c-0.7-0.2-1.5,0.2-1.7,0.9c-0.2,0.7,0.2,1.5,0.9,1.7
			C112.3,301.7,113.1,301.2,113.3,300.5z"/>
		<path fill="#FFFFFF" d="M117.4,300.2c-0.7-0.2-1.5,0.2-1.7,1c-0.2,0.7,0.2,1.5,1,1.7c0.8,0.2,1.5-0.3,1.7-1
			C118.6,301.2,118.1,300.4,117.4,300.2z"/>
		<path fill="#FFFFFF" d="M123.6,303c0.1-0.7-0.4-1.5-1.1-1.6c-0.7-0.2-1.5,0.3-1.6,1.1c-0.2,0.7,0.3,1.5,1.1,1.6
			C122.7,304.2,123.4,303.7,123.6,303z"/>
		<path fill="#FFFFFF" d="M128.8,303.8c0.1-0.8-0.4-1.4-1.2-1.5c-0.7-0.1-1.4,0.4-1.6,1.1c-0.1,0.7,0.4,1.4,1.2,1.6
			C128,305.1,128.7,304.6,128.8,303.8z"/>
		<path fill="#FFFFFF" d="M134,304.4c0.1-0.8-0.5-1.4-1.2-1.5c-0.8-0.1-1.4,0.5-1.5,1.2c-0.1,0.8,0.5,1.4,1.2,1.5
			C133.3,305.7,134,305.1,134,304.4z"/>
		<path fill="#FFFFFF" d="M139.3,304.7c0-0.8-0.6-1.4-1.3-1.4c-0.8,0-1.4,0.5-1.5,1.3c0,0.8,0.5,1.4,1.3,1.4
			C138.6,306.1,139.3,305.5,139.3,304.7z"/>
		<path fill="#FFFFFF" d="M143.2,303.4c-0.8,0-1.4,0.6-1.4,1.4c0,0.8,0.6,1.4,1.4,1.4c0.8,0,1.4-0.6,1.4-1.4
			C144.6,304,143.9,303.4,143.2,303.4z"/>
		<path fill="#FFFFFF" d="M148.5,306.1c0.8,0,1.4-0.7,1.3-1.4c0-0.8-0.7-1.3-1.4-1.3c-0.8,0-1.4,0.7-1.3,1.4
			C147.1,305.5,147.7,306.1,148.5,306.1z"/>
		<path fill="#FFFFFF" d="M153.6,303c-0.8,0.1-1.3,0.7-1.3,1.5c0.1,0.8,0.7,1.3,1.5,1.3c0.8-0.1,1.3-0.7,1.3-1.5
			C155,303.5,154.4,303,153.6,303z"/>
		<path fill="#FFFFFF" d="M159.2,305.2c0.8-0.1,1.3-0.8,1.2-1.5c-0.1-0.8-0.8-1.3-1.5-1.2c-0.7,0.1-1.3,0.8-1.2,1.5
			C157.7,304.8,158.4,305.3,159.2,305.2z"/>
		<path fill="#FFFFFF" d="M164,301.7c-0.7,0.1-1.2,0.8-1.1,1.6c0.1,0.7,0.8,1.3,1.6,1.1c0.8-0.1,1.3-0.9,1.1-1.6
			C165.4,302.1,164.7,301.6,164,301.7z"/>
		<path fill="#FFFFFF" d="M169.7,303.3c0.8-0.2,1.2-0.9,1-1.7c-0.2-0.7-0.9-1.2-1.7-1c-0.7,0.2-1.2,0.9-1,1.6
			C168.2,303,168.9,303.5,169.7,303.3z"/>
		<path fill="#FFFFFF" d="M174.1,299.4c-0.7,0.2-1.2,1-1,1.7c0.2,0.7,1,1.2,1.7,0.9c0.7-0.2,1.2-1,0.9-1.7
			C175.6,299.6,174.8,299.1,174.1,299.4z"/>
		<path fill="#FFFFFF" d="M180,300.4c0.7-0.3,1.1-1,0.9-1.8c-0.3-0.7-1-1.1-1.8-0.8c-0.7,0.2-1.1,1-0.9,1.7
			C178.4,300.2,179.2,300.6,180,300.4z"/>
		<path fill="#FFFFFF" d="M183.9,295.9c-0.7,0.3-1,1.1-0.8,1.8c0.3,0.7,1.1,1,1.8,0.8c0.7-0.3,1.1-1.1,0.8-1.8
			C185.4,296,184.6,295.7,183.9,295.9z"/>
		<path fill="#FFFFFF" d="M188.7,293.8c-0.7,0.3-1,1.1-0.7,1.8c0.3,0.7,1.1,1,1.8,0.7c0.7-0.3,1-1.2,0.7-1.8
			C190.2,293.8,189.4,293.5,188.7,293.8z"/>
		<path fill="#FFFFFF" d="M193.3,291.5c-0.7,0.4-0.9,1.2-0.6,1.9c0.3,0.7,1.2,0.9,1.9,0.6c0.7-0.4,0.9-1.2,0.6-1.9
			C194.8,291.3,194,291.1,193.3,291.5z"/>
		<path fill="#FFFFFF" d="M199.3,291.2c0.7-0.4,0.9-1.3,0.5-1.9c-0.4-0.6-1.3-0.8-1.9-0.4c-0.6,0.4-0.8,1.2-0.5,1.9
			C197.8,291.4,198.6,291.6,199.3,291.2z"/>
		<path fill="#FFFFFF" d="M202.2,286c-0.6,0.4-0.8,1.3-0.4,1.9c0.4,0.6,1.3,0.8,1.9,0.3c0.6-0.4,0.8-1.3,0.3-1.9
			C203.7,285.7,202.8,285.6,202.2,286z"/>
		<path fill="#FFFFFF" d="M208.3,283.1c-0.5-0.6-1.3-0.7-1.9-0.2c-0.6,0.5-0.7,1.3-0.3,1.9c0.5,0.6,1.3,0.7,1.9,0.2
			C208.7,284.6,208.8,283.7,208.3,283.1z"/>
		<path fill="#FFFFFF" d="M212.2,281.7c0.6-0.5,0.6-1.4,0.1-2c-0.5-0.6-1.4-0.6-1.9-0.1c-0.6,0.5-0.6,1.4-0.2,1.9
			C210.7,282.1,211.6,282.2,212.2,281.7z"/>
		<path fill="#FFFFFF" d="M214.2,276.1c-0.5,0.5-0.6,1.4-0.1,1.9c0.5,0.6,1.4,0.6,2,0c0.6-0.5,0.6-1.4,0-2
			C215.7,275.6,214.8,275.6,214.2,276.1z"/>
		<path fill="#FFFFFF" d="M217.9,272.4c-0.5,0.6-0.5,1.4,0,1.9c0.5,0.5,1.4,0.5,2-0.1c0.5-0.6,0.5-1.4-0.1-2
			C219.3,271.8,218.4,271.8,217.9,272.4z"/>
		<path fill="#FFFFFF" d="M221.4,268.5c-0.5,0.6-0.4,1.4,0.1,1.9c0.6,0.5,1.4,0.4,1.9-0.2c0.4-0.5,0.4-1.2,0-1.7
			c-0.2-0.2-0.5-0.3-0.8-0.5C222.2,267.9,221.7,268.1,221.4,268.5z"/>
	</g>
</g>
<g>
	<path fill="#34BDB6" d="M291.8,65.4c0,0,16.3,1,19.4,9.6c2.9,8.1-6.2,18.2-16.6,17.8c-7.7-0.3-7.1-16.2-7.1-16.2
		s-14.2,11.3-18.8,5.2c-5.9-7.8-2.8-20.2,3-22.1C282.5,56.2,291.8,65.4,291.8,65.4z"/>
	<path fill="#EE4481" d="M297.1,57.9c0,0,20.4-10.1,28.9,0.6c6.6,8.3,0.6,23.3-11.4,22.7C300.1,80.6,295,63.7,295,63.7
		s-26.1,3.5-29.1-5.3c-3.4-9.7-0.1-26.3,9.7-25.4C291.3,34.3,297.1,57.9,297.1,57.9z"/>
	<g>
		<path fill="#34BDB6" d="M300,51.2C300,51.2,300,51.3,300,51.2c0.3,0.2,0.7,0.1,0.8-0.1c0.1-0.1,7.5-12.8,12.9-12.3
			c2.7,0.2,4.4,1.5,4.5,3.5c0.2,2.3-1.6,4.9-3.8,5.4c-2,0.5-3.7-0.2-4.3-1.1c-0.3-0.4-0.5-1,0-1.8c0.6-1,1.3-1.5,1.8-1.5
			c0.7,0,1.2,0.7,1.2,0.7c0.2,0.3,0.5,0.3,0.7,0.1c0.2-0.2,0.3-0.5,0.1-0.7c0,0-0.8-1.2-2.1-1.2c-1,0-1.9,0.7-2.7,2
			c-0.6,0.9-0.6,2.1,0.1,3c1,1.4,3.3,2,5.4,1.5c2.7-0.7,4.9-3.7,4.6-6.6c-0.1-1.2-0.9-4-5.5-4.4c-6.1-0.5-13.6,12.3-13.9,12.8
			C299.7,50.8,299.8,51.1,300,51.2L300,51.2z"/>
	</g>
	<g>
		<path fill="#34BDB6" d="M298.1,51.3c0,0,0.1,0.1,0.1,0.1c0.3,0.1,0.5,0,0.7-0.3c0.2-0.5,5.6-13.2,1.9-17.4
			c-2.9-3.3-5.4-2.2-6.3-1.7c-2.3,1.4-3.3,4.6-2.3,7.1c0.8,1.9,2.5,3.3,4.1,3.2c1,0,1.9-0.6,2.2-1.6c0.5-1.3,0.5-2.4,0-3.1
			c-0.7-0.9-2-0.9-2-0.9c-0.3,0-0.5,0.2-0.5,0.5c0,0.3,0.2,0.5,0.5,0.5c0,0,0.8,0,1.2,0.5c0.3,0.4,0.3,1.2-0.1,2.2
			c-0.3,0.8-0.9,0.9-1.3,0.9c-1,0-2.4-0.8-3.1-2.6c-0.8-2,0.1-4.7,1.9-5.8c1.6-1,3.4-0.5,5.1,1.5c3.3,3.8-2,16.3-2.1,16.4
			C297.9,50.9,297.9,51.2,298.1,51.3L298.1,51.3z"/>
	</g>
	<path fill="#F8B72E" d="M289.6,66.5c-4.2,10.3-6.9,18.8-4.9,19.6c2,0.8,7.1-6.9,11.3-17.2c4.2-10.3,6.1-19.4,4-20.2
		C298.1,48,293.9,56.2,289.6,66.5z"/>
</g>
<g>
	<polygon fill="#EE4481" points="78.9,27.7 65,16.5 63.7,0.8 50.9,9.8 33.3,6.2 38.6,22.6 29.3,37.7 48,34.2 57.1,50.9 62.8,34.1 	
		"/>
	<polygon fill="#F8B72E" points="29.5,51.6 19,50.3 13.6,42.8 9.9,51.3 0,54.9 7.7,61.5 7.7,71.9 16,64.4 25.7,69.9 23.4,59.7 	"/>
	<polygon fill="#832990" points="26.7,95.7 21.3,91.3 20.8,85.2 15.8,88.7 9,87.3 11.1,93.7 7.4,99.6 14.7,98.2 18.3,104.7 
		20.5,98.2 	"/>
</g>
<g>
	<polygon fill="#832990" points="264.6,144.7 282.5,146 294.1,135.4 297.3,150.8 312.6,160.1 297.5,168.5 294.1,185.9 282.8,170.5 
		264.7,176.4 272,160.3 	"/>
	<polygon fill="#F7941D" points="284.4,195.9 292.9,202.1 302,200.3 298.9,209 303.7,218.4 293.5,217.9 286.4,225.6 285.5,214.4 
		274.6,211.8 283.3,206 	"/>
	<polygon fill="#EE4481" points="256.3,229.9 263.2,230.5 267.7,226.3 269,232.3 274.9,235.9 269.1,239.2 267.7,246 263.3,240 
		256.3,242.3 259.1,236 	"/>
</g>
</svg>
