<?xml version="1.0" encoding="utf-8"?>
<!-- Generator: Adobe Illustrator 21.0.0, SVG Export Plug-In . SVG Version: 6.00 Build 0)  -->
<svg version="1.1" id="Layer_1" xmlns="http://www.w3.org/2000/svg" xmlns:xlink="http://www.w3.org/1999/xlink" x="0px" y="0px"
	 viewBox="0 0 800 500" enable-background="new 0 0 800 500" xml:space="preserve">
<linearGradient id="SVGID_1_" gradientUnits="userSpaceOnUse" x1="400.0697" y1="500" x2="400.0697" y2="-9.094947e-13">
	<stop  offset="0" style="stop-color:#FFFFFF"/>
	<stop  offset="0.1188" style="stop-color:#FAFEFF"/>
	<stop  offset="0.2651" style="stop-color:#EBFBFF"/>
	<stop  offset="0.4259" style="stop-color:#D2F5FF"/>
	<stop  offset="0.5972" style="stop-color:#AFEEFF"/>
	<stop  offset="0.7766" style="stop-color:#82E4FF"/>
	<stop  offset="0.9604" style="stop-color:#4CD9FF"/>
	<stop  offset="1" style="stop-color:#3FD6FF"/>
</linearGradient>
<rect x="1.1" fill="url(#SVGID_1_)" width="798" height="500"/>
<g>
	<path fill="#E7EDF7" d="M269.5,109.9c-0.7-10.1-14.8-12.8-21.1-7c0.3-4.4-1.6-8.8-6.2-10.4c-3.3-1.2-7.1,0.5-9.4,2.8
		c-0.5,0.5-0.9,1-1.3,1.6c-0.9-4.8-4.5-8.7-10.2-9c-7-0.3-10.6,6.6-9.9,12.8c-1.9-2.7-4.6-4.6-8.4-4c-2.2,0.3-4.3,1.5-5.8,3.2
		c-1.4,1.5-2.4,3.4-2.7,5.5c-4.1-1.3-9.4-0.1-9.6,4.9c-0.3,6.6,6.9,9.7,12.4,9.9c0.8,0,1.5,0,2.3-0.1c3,0.3,6.2-0.6,9.3-2
		c0.4,0.1,0.7,0.2,1.1,0.3c2.6,0.6,5.3,0.3,7.7-0.7c2,0.9,4.1,1.5,5.9,2c8.1,2.2,17.6,1.5,24.1-3.8
		C254.2,121.8,270.1,119.8,269.5,109.9z"/>
	<path fill="#F0F3F0" d="M685.6,109.3c-0.6-9-13.2-11.4-18.8-6.3c0.3-3.9-1.5-7.8-5.5-9.3c-3-1.1-6.3,0.4-8.4,2.5
		c-0.4,0.4-0.8,0.9-1.1,1.4c-0.8-4.2-4-7.8-9.1-8c-6.2-0.3-9.4,5.9-8.9,11.4c-1.7-2.4-4.1-4.1-7.5-3.6c-2,0.3-3.8,1.4-5.2,2.9
		c-1.3,1.3-2.1,3.1-2.4,4.9c-3.6-1.1-8.3-0.1-8.6,4.4c-0.3,5.9,6.1,8.7,11.1,8.8c0.7,0,1.3,0,2-0.1c2.7,0.2,5.5-0.5,8.3-1.8
		c0.3,0.1,0.6,0.2,0.9,0.3c2.3,0.6,4.7,0.3,6.9-0.6c1.8,0.8,3.7,1.4,5.2,1.8c7.2,1.9,15.7,1.4,21.5-3.4
		C672,119.9,686.2,118.1,685.6,109.3z"/>
	<path fill="#F0F3F0" d="M63,52.5c0.4-6.6,9.7-8.4,13.8-4.6c-0.2-2.9,1.1-5.8,4.1-6.8c2.2-0.8,4.6,0.3,6.2,1.8
		c0.3,0.3,0.6,0.7,0.8,1c0.6-3.1,3-5.7,6.7-5.9c4.6-0.2,6.9,4.3,6.5,8.4c1.2-1.8,3-3,5.5-2.6c1.5,0.2,2.8,1,3.8,2.1
		c0.9,1,1.6,2.3,1.8,3.6c2.7-0.8,6.2-0.1,6.3,3.2c0.2,4.4-4.5,6.4-8.2,6.5c-0.5,0-1,0-1.5-0.1c-2,0.2-4.1-0.4-6.1-1.3
		c-0.2,0.1-0.5,0.1-0.7,0.2c-1.7,0.4-3.5,0.2-5.1-0.4c-1.3,0.6-2.7,1-3.9,1.3c-5.3,1.4-11.5,1-15.8-2.5C73,60.2,62.6,58.9,63,52.5z"
		/>
</g>
<path fill="#F0F3F0" d="M136.6,202.6c-0.8-12.7-18.6-16.1-26.5-8.9c0.4-5.5-2.1-11-7.8-13.1c-4.2-1.5-8.9,0.6-11.9,3.5
	c-0.6,0.6-1.2,1.3-1.6,2c-1.2-6-5.7-11-12.9-11.3c-8.8-0.4-13.3,8.3-12.5,16.1c-2.4-3.4-5.8-5.8-10.5-5.1c-2.8,0.4-5.4,1.9-7.3,4
	c-1.8,1.9-3,4.3-3.4,6.9c-5.1-1.6-11.8-0.2-12.1,6.2c-0.4,8.3,8.6,12.2,15.7,12.4c1,0,1.9,0,2.8-0.2c3.8,0.3,7.8-0.8,11.7-2.5
	c0.5,0.1,0.9,0.3,1.3,0.4c3.3,0.8,6.6,0.4,9.7-0.9c2.5,1.1,5.2,1.9,7.4,2.5c10.2,2.7,22.1,1.9,30.3-4.8
	C117.4,217.5,137.4,215,136.6,202.6z"/>
<path fill="#E7EDF7" d="M768.3,226.4c-0.7-10.1-14.8-12.8-21.1-7c0.3-4.4-1.6-8.8-6.2-10.4c-3.3-1.2-7.1,0.5-9.4,2.8
	c-0.5,0.5-0.9,1-1.3,1.6c-0.9-4.8-4.5-8.7-10.2-9c-7-0.3-10.6,6.6-9.9,12.8c-1.9-2.7-4.6-4.6-8.4-4c-2.2,0.3-4.3,1.5-5.8,3.2
	c-1.4,1.5-2.4,3.4-2.7,5.5c-4.1-1.3-9.4-0.1-9.6,4.9c-0.3,6.6,6.9,9.7,12.4,9.9c0.8,0,1.5,0,2.3-0.1c3,0.3,6.2-0.6,9.3-2
	c0.4,0.1,0.7,0.2,1.1,0.3c2.6,0.6,5.3,0.3,7.7-0.7c2,0.9,4.1,1.5,5.9,2c8.1,2.2,17.6,1.5,24.1-3.8
	C753,238.3,768.9,236.3,768.3,226.4z"/>
<path fill="#D4DFF0" d="M125.9,313.6c-0.8-11.7-15.9-15.5-24.4-10.4c-0.9,0.5-2,0-2.1-1c-0.4-4.6-2.9-8.8-7.8-10.5
	c-4.2-1.5-8.9,0.6-11.9,3.5c0,0,0,0,0,0c-0.7,0.7-1.9,0.5-2.3-0.5c-1.8-4.9-6-8.6-12.2-8.9c-7.5-0.3-11.9,6-12.5,12.6
	c-0.1,1.1-1.4,1.6-2.3,0.9c-2.2-1.9-4.9-3-8.2-2.4c-2.8,0.4-5.4,1.9-7.3,4c-1.5,1.5-2.6,3.5-3.1,5.6c-0.2,0.7-0.9,1.1-1.6,1
	c-4.9-1-10.5,0.7-10.8,6.6c-0.4,8.3,8.6,12.2,15.7,12.4c0.9,0,1.8,0,2.7-0.1c0.1,0,0.2,0,0.2,0c3.6,0.3,7.4-0.7,11.2-2.3
	c0.3-0.1,0.6-0.1,0.9-0.1c0.3,0.1,0.6,0.2,0.9,0.2c3.1,0.7,6.3,0.4,9.2-0.7c0.3-0.1,0.7-0.1,1,0c2.4,1,4.8,1.7,6.9,2.3
	c9.8,2.7,21.3,2,29.5-4.1c0.5-0.4,1.1-0.4,1.6,0C107.9,328.4,126.7,325.6,125.9,313.6z"/>
</svg>
