<?xml version="1.0" encoding="utf-8"?>
<!-- Generator: Adobe Illustrator 21.0.0, SVG Export Plug-In . SVG Version: 6.00 Build 0)  -->
<svg version="1.1" xmlns="http://www.w3.org/2000/svg" xmlns:xlink="http://www.w3.org/1999/xlink" x="0px" y="0px"
	 viewBox="0 0 1440 400" enable-background="new 0 0 1440 400" xml:space="preserve">
<g id="bg">
</g>
<g id="clouds">
	<g>
		<path fill="#FFFFFF" d="M302.3,9c-28.2,0-54.4,15.3-68.2,39.9l-2.1,3.7l-3.3-2.7c-12.2-9.9-27-15.1-42.7-15.1
			c-26,0-50.1,15.2-61.3,38.7l-1.3,2.8l-2.9-0.9c-6-1.8-12.3-2.7-18.5-2.7c-36.5,0-66.2,29.7-66.2,66.2c0,11.6,3.1,23.1,8.9,33.1
			l1.9,3.3l-3.5,1.7C16.5,190.1,0,216.4,0,245.9c0,42.1,34.3,76.4,76.4,76.4c5.3,0,10.6-0.5,15.8-1.6l3.3-0.7l0.9,3.3
			c9.6,36.4,42.7,61.7,80.3,61.7c23.1,0,44.6-9.3,60.4-26.1l2.6-2.8l2.6,2.8c11,11.5,25.8,17.9,41.7,17.9c11,0,21.7-3.1,31-9.1
			l2.5-1.6l2,2.1c1,1,2,2,3.1,3V11.7C316.1,9.9,309.2,9,302.3,9z"/>
		<path fill="#FFFFFF" d="M1370.4,124.5l-2.9-0.3l-0.3-2.9c-3.7-33.1-31.6-58.1-64.9-58.1c-13.8,0-26.9,4.2-38.1,12.3l-4.1,3
			l-1.4-4.9c-8.9-30.1-37-51.2-68.4-51.2c-12.1,0-24.1,3.1-34.6,9l-2.3,1.3l-1.9-1.8c-9.6-9.3-21.3-15.8-33.9-19.2v359.5
			c13.7,12.8,31.3,19.8,50.2,19.8c30.4,0,58.1-19.1,68.9-47.5l1.8-4.7l3.9,3.2c13.3,11.1,30.2,17.1,47.5,17.1
			c41.1,0,74.5-33.4,74.5-74.4l0-3.5l3.4-0.2c38-2.5,69-33,72.1-70.9c0.3-2.6,0.4-5.3,0.4-8C1440,162.1,1410.1,128.7,1370.4,124.5z"
			/>
	</g>
	<circle fill="#FFFFFF" cx="310.6" cy="85.9" r="82.5"/>
	<circle fill="#FFFFFF" cx="385.1" cy="85.9" r="82.5"/>
	<circle fill="#FFFFFF" cx="441.6" cy="94.2" r="82.5"/>
	<circle fill="#FFFFFF" cx="377.6" cy="187.9" r="82.5"/>
	<circle fill="#FFFFFF" cx="359.1" cy="302.4" r="82.5"/>
	<circle fill="#FFFFFF" cx="433.9" cy="351.2" r="48.8"/>
	<circle fill="#FFFFFF" cx="502.9" cy="52.2" r="48.8"/>
	<circle fill="#FFFFFF" cx="551.7" cy="68.2" r="48.8"/>
	<circle fill="#FFFFFF" cx="600.5" cy="60.5" r="48.8"/>
	<g>
		<g>
			<path fill="#D1D3D4" d="M666.1,111.3c7.7,0,7.7-11.9,0-11.9C658.4,99.4,658.4,111.3,666.1,111.3L666.1,111.3z"/>
		</g>
	</g>
	<g>
		<g>
			<path fill="#D1D3D4" d="M719.9,95.1c1.2,7.5,1.5,14.3-6.8,17.1c-8.4,2.8-17.5,2.9-26.3,3.2c-18.2,0.6-36.5,0.7-54.7,0.6
				c-4.6,0-9.1,0-13.7-0.1c-4.5,0-9.5,0.6-13.9-0.3c-6-1.2-5.5-7.6-2.2-11.7c4.3-5.3,13.2-5.2,19.4-5.1c4,0.1,8.1,0.4,12.1,0.6
				c3.8,0.2,8-0.1,11.7,0.8c1.8,0.4,2.1,0,1.6,1.1c-0.6,1.5-3,2.5-4.3,3.1c-3.7,1.8-7.7,3-11.7,3.9c-4,0.9-8.1,1.3-12.2,1.3
				c-1.1,0-2.4-0.2-3.5-0.1c-1,0.1-2.1-0.8-1.2,0.4c0.7,1.1,0.9-2.6,1.3-3.6c3-7.3,11.7-9.5,18.8-10.6c8.3-1.2,16.9-1.2,25.3-0.4
				c7.9,0.8,17.9,2.2,25.1,5.9c3.1,1.6,1.1,4.2-1.3,5.6c-3.5,2.1-8.1,2.7-12,3.5c-17.1,3.4-35.1,3-52-1c-3.1-0.7-8.7-1.5-6.8-5.9
				c1.5-3.6,6.8-5.3,10.1-6.4c7.5-2.5,16.7-5,24.7-4.3c2.5,0.2,5.9,0.8,6.7,3.7c1,3.7-2.8,6.9-5.7,8.3c-8.5,4.2-19.7,3.7-28.7,1.8
				c-7.5-1.6-10.7,9.8-3.2,11.5c12,2.6,25.9,2.8,37.2-2.6c9.8-4.7,16.4-17.1,9.5-26.9c-5.9-8.5-17.6-8.2-26.8-6.7
				c-10.9,1.8-25.3,4.1-32.6,13.4c-3.1,3.9-4.6,9.3-3.3,14.2c1.6,6,6.8,9.2,12.4,10.8c12.6,3.7,26.6,4.9,39.7,4.4
				c11.6-0.4,26.4-1.3,36.7-7.3c9.2-5.3,12.9-19.2,2.5-25.5c-5-3-11.6-4.5-17.3-5.8c-6.4-1.4-12.9-2.4-19.5-2.8
				c-12.2-0.7-26.5-0.3-37.7,5.3c-9,4.5-17.5,15.7-13.8,26.2c3.9,11.1,24,6.8,32.4,4.7c9.4-2.4,26-8.5,23.3-21.2
				c-2.6-12.3-19.9-10.5-29.2-11c-11.2-0.6-23.8-1.6-33.3,5.5c-7.3,5.4-11.1,16-7.5,24.6c5.7,13.4,24.2,10.3,35.9,10.3
				c16,0.1,31.9,0.1,47.9-0.2c14.6-0.3,30.8,0.6,44.7-4.5c14.3-5.2,15.7-17.8,13.6-31.2C730.2,84.4,718.7,87.6,719.9,95.1
				L719.9,95.1z"/>
		</g>
	</g>
	<g>
		<g>
			<path fill="#D1D3D4" d="M570.1,154.8c7.7,0,7.7-11.9,0-11.9C562.4,142.9,562.4,154.8,570.1,154.8L570.1,154.8z"/>
		</g>
	</g>
	<g>
		<g>
			<path fill="#FFFFFF" d="M1027.5,350.5c16.4,0.6,31.7-2.8,45.9-10.3c14.8-4.8,27.5-13,38.3-24.6c11.6-10.8,19.8-23.6,24.6-38.3
				c7.5-14.2,10.9-29.5,10.3-45.9c-1.4-10.6-2.8-21.1-4.3-31.7c-5.7-20.2-15.9-37.7-30.6-52.5c-8-6.2-16.1-12.4-24.1-18.6
				c-18.6-10.8-38.6-16.2-60.1-16.3c-16.4-0.6-31.7,2.8-45.9,10.3c-14.8,4.8-27.5,13-38.3,24.6c-11.6,10.8-19.8,23.6-24.6,38.3
				c-7.5,14.2-10.9,29.5-10.3,45.9c1.4,10.6,2.8,21.1,4.3,31.7c5.7,20.2,15.9,37.7,30.6,52.5c8,6.2,16.1,12.4,24.1,18.6
				C986,345,1006.1,350.4,1027.5,350.5L1027.5,350.5z"/>
		</g>
	</g>
	<g>
		<g>
			<path fill="#FFFFFF" d="M1071,233.5c16.4,0.6,31.7-2.8,45.9-10.3c14.8-4.8,27.5-13,38.3-24.6c11.6-10.8,19.8-23.6,24.6-38.3
				c7.5-14.2,10.9-29.5,10.3-45.9c-1.4-10.6-2.8-21.1-4.3-31.7c-5.7-20.2-15.9-37.7-30.6-52.5c-8-6.2-16.1-12.4-24.1-18.6
				c-18.6-10.8-38.6-16.2-60.1-16.3c-16.4-0.6-31.7,2.8-45.9,10.3c-14.8,4.8-27.5,13-38.3,24.6C975.2,41,967,53.8,962.2,68.5
				c-7.5,14.2-10.9,29.5-10.3,45.9c1.4,10.6,2.8,21.1,4.3,31.7c5.7,20.2,15.9,37.7,30.6,52.5c8,6.2,16.1,12.4,24.1,18.6
				C1029.5,228,1049.6,233.4,1071,233.5L1071,233.5z"/>
		</g>
	</g>
	<g>
		<g>
			<path fill="#FFFFFF" d="M888.1,242.5c16.4,0.6,31.7-2.8,45.9-10.3c14.8-4.8,27.5-13,38.3-24.6c11.6-10.8,19.8-23.6,24.6-38.3
				c7.5-14.2,10.9-29.5,10.3-45.9c-1.4-10.6-2.8-21.1-4.3-31.7c-5.7-20.2-15.9-37.7-30.6-52.5c-8-6.2-16.1-12.4-24.1-18.6
				C929.6,9.8,909.5,4.4,888.1,4.3c-16.4-0.6-31.7,2.8-45.9,10.3c-14.8,4.8-27.5,13-38.3,24.6c-11.6,10.8-19.8,23.6-24.6,38.3
				c-7.5,14.2-10.9,29.5-10.3,45.9c1.4,10.6,2.8,21.1,4.3,31.7c5.7,20.2,15.9,37.7,30.6,52.5c8,6.2,16.1,12.4,24.1,18.6
				C846.5,237,866.6,242.4,888.1,242.5L888.1,242.5z"/>
		</g>
	</g>
	<g>
		<g>
			<path fill="#D1D3D4" d="M709.6,296.5c16.4,0.6,31.7-2.8,45.9-10.3c14.8-4.8,27.5-13,38.3-24.6c11.6-10.8,19.8-23.6,24.6-38.3
				c7.5-14.2,10.9-29.5,10.3-45.9c-1.4-10.6-2.8-21.1-4.3-31.7c-5.7-20.2-15.9-37.7-30.6-52.5c-8-6.2-16.1-12.4-24.1-18.6
				c-18.6-10.8-38.6-16.2-60.1-16.3c-16.4-0.6-31.7,2.8-45.9,10.3c-14.8,4.8-27.5,13-38.3,24.6c-11.6,10.8-19.8,23.6-24.6,38.3
				c-7.5,14.2-10.9,29.5-10.3,45.9c1.4,10.6,2.8,21.1,4.3,31.7c5.7,20.2,15.9,37.7,30.6,52.5c8,6.2,16.1,12.4,24.1,18.6
				C668,291,688.1,296.4,709.6,296.5L709.6,296.5z"/>
		</g>
	</g>
	<g>
		<g>
			<path fill="#FFFFFF" d="M535.6,313c16.4,0.6,31.7-2.8,45.9-10.3c14.8-4.8,27.5-13,38.3-24.6c11.6-10.8,19.8-23.6,24.6-38.3
				c7.5-14.2,10.9-29.5,10.3-45.9c-1.4-10.6-2.8-21.1-4.3-31.7c-5.7-20.2-15.9-37.7-30.6-52.5c-8-6.2-16.1-12.4-24.1-18.6
				c-18.6-10.8-38.6-16.2-60.1-16.3c-16.4-0.6-31.7,2.8-45.9,10.3c-14.8,4.8-27.5,13-38.3,24.6c-11.6,10.8-19.8,23.6-24.6,38.3
				c-7.5,14.2-10.9,29.5-10.3,45.9c1.4,10.6,2.8,21.1,4.3,31.7c5.7,20.2,15.9,37.7,30.6,52.5c8,6.2,16.1,12.4,24.1,18.6
				C494.1,307.5,514.1,312.9,535.6,313L535.6,313z"/>
		</g>
	</g>
	<g>
		<g>
			<path fill="#FFFFFF" d="M498.1,388c16.4,0.6,31.7-2.8,45.9-10.3c14.8-4.8,27.5-13,38.3-24.6c11.6-10.8,19.8-23.6,24.6-38.3
				c7.5-14.2,10.9-29.5,10.3-45.9c-1.4-10.6-2.8-21.1-4.3-31.7c-5.7-20.2-15.9-37.7-30.6-52.5c-8-6.2-16.1-12.4-24.1-18.6
				c-18.6-10.8-38.6-16.2-60.1-16.3c-16.4-0.6-31.7,2.8-45.9,10.3c-14.8,4.8-27.5,13-38.3,24.6c-11.6,10.8-19.8,23.6-24.6,38.3
				c-7.5,14.2-10.9,29.5-10.3,45.9c1.4,10.6,2.8,21.1,4.3,31.7c5.7,20.2,15.9,37.7,30.6,52.5c8,6.2,16.1,12.4,24.1,18.6
				C456.6,382.5,476.6,387.9,498.1,388L498.1,388z"/>
		</g>
	</g>
	<g>
		<g>
			<path fill="#FFFFFF" d="M646.6,386.5c16.4,0.6,31.7-2.8,45.9-10.3c14.8-4.8,27.5-13,38.3-24.6c11.6-10.8,19.8-23.6,24.6-38.3
				c7.5-14.2,10.9-29.5,10.3-45.9c-1.4-10.6-2.8-21.1-4.3-31.7c-5.7-20.2-15.9-37.7-30.6-52.5c-8-6.2-16.1-12.4-24.1-18.6
				c-18.6-10.8-38.6-16.2-60.1-16.3c-16.4-0.6-31.7,2.8-45.9,10.3c-14.8,4.8-27.5,13-38.3,24.6c-11.6,10.8-19.8,23.6-24.6,38.3
				c-7.5,14.2-10.9,29.5-10.3,45.9c1.4,10.6,2.8,21.1,4.3,31.7c5.7,20.2,15.9,37.7,30.6,52.5c8,6.2,16.1,12.4,24.1,18.6
				C605,381,625.1,386.4,646.6,386.5L646.6,386.5z"/>
		</g>
	</g>
	<g>
		<g>
			<path fill="#FFFFFF" d="M768.1,395.5c16.4,0.6,31.7-2.8,45.9-10.3c14.8-4.8,27.5-13,38.3-24.6c11.6-10.8,19.8-23.6,24.6-38.3
				c7.5-14.2,10.9-29.5,10.3-45.9c-1.4-10.6-2.8-21.1-4.3-31.7c-5.7-20.2-15.9-37.7-30.6-52.5c-8-6.2-16.1-12.4-24.1-18.6
				c-18.6-10.8-38.6-16.2-60.1-16.3c-16.4-0.6-31.7,2.8-45.9,10.3c-14.8,4.8-27.5,13-38.3,24.6c-11.6,10.8-19.8,23.6-24.6,38.3
				c-7.5,14.2-10.9,29.5-10.3,45.9c1.4,10.6,2.8,21.1,4.3,31.7c5.7,20.2,15.9,37.7,30.6,52.5c8,6.2,16.1,12.4,24.1,18.6
				C726.5,390,746.6,395.4,768.1,395.5L768.1,395.5z"/>
		</g>
	</g>
	<g>
		<g>
			<path fill="#FFFFFF" d="M883.6,379c16.4,0.6,31.7-2.8,45.9-10.3c14.8-4.8,27.5-13,38.3-24.6c11.6-10.8,19.8-23.6,24.6-38.3
				c7.5-14.2,10.9-29.5,10.3-45.9c-1.4-10.6-2.8-21.1-4.3-31.7c-5.7-20.2-15.9-37.7-30.6-52.5c-8-6.2-16.1-12.4-24.1-18.6
				c-18.6-10.8-38.6-16.2-60.1-16.3c-16.4-0.6-31.7,2.8-45.9,10.3c-14.8,4.8-27.5,13-38.3,24.6c-11.6,10.8-19.8,23.6-24.6,38.3
				c-7.5,14.2-10.9,29.5-10.3,45.9c1.4,10.6,2.8,21.1,4.3,31.7c5.7,20.2,15.9,37.7,30.6,52.5c8,6.2,16.1,12.4,24.1,18.6
				C842,373.5,862.1,378.9,883.6,379L883.6,379z"/>
		</g>
	</g>
	<g>
		<g>
			<path fill="#FFFFFF" d="M976.6,388c16.4,0.6,31.7-2.8,45.9-10.3c14.8-4.8,27.5-13,38.3-24.6c11.6-10.8,19.8-23.6,24.6-38.3
				c7.5-14.2,10.9-29.5,10.3-45.9c-1.4-10.6-2.8-21.1-4.3-31.7c-5.7-20.2-15.9-37.7-30.6-52.5c-8-6.2-16.1-12.4-24.1-18.6
				c-18.6-10.8-38.6-16.2-60.1-16.3c-16.4-0.6-31.7,2.8-45.9,10.3c-14.8,4.8-27.5,13-38.3,24.6c-11.6,10.8-19.8,23.6-24.6,38.3
				c-7.5,14.2-10.9,29.5-10.3,45.9c1.4,10.6,2.8,21.1,4.3,31.7c5.7,20.2,15.9,37.7,30.6,52.5c8,6.2,16.1,12.4,24.1,18.6
				C935,382.5,955.1,387.9,976.6,388L976.6,388z"/>
		</g>
	</g>
	<g>
		<g>
			<path fill="#FFFFFF" d="M1081.5,398.4c16.4,0.6,31.7-2.8,45.9-10.3c14.8-4.8,27.5-13,38.3-24.6c11.6-10.8,19.8-23.6,24.6-38.3
				c7.5-14.2,10.9-29.5,10.3-45.9c-1.4-10.6-2.8-21.1-4.3-31.7c-5.7-20.2-15.9-37.7-30.6-52.5c-8-6.2-16.1-12.4-24.1-18.6
				c-18.6-10.8-38.6-16.2-60.1-16.3c-16.4-0.6-31.7,2.8-45.9,10.3c-14.8,4.8-27.5,13-38.3,24.6c-11.6,10.8-19.8,23.6-24.6,38.3
				c-7.5,14.2-10.9,29.5-10.3,45.9c1.4,10.6,2.8,21.1,4.3,31.7c5.7,20.2,15.9,37.7,30.6,52.5c8,6.2,16.1,12.4,24.1,18.6
				C1040,393,1060.1,398.4,1081.5,398.4L1081.5,398.4z"/>
		</g>
	</g>
	<g>
		<g>
			<path fill="#FFFFFF" d="M718.6,254.5c16.4,0.6,31.7-2.8,45.9-10.3c14.8-4.8,27.5-13,38.3-24.6c11.6-10.8,19.8-23.6,24.6-38.3
				c7.5-14.2,10.9-29.5,10.3-45.9c-1.4-10.6-2.8-21.1-4.3-31.7c-5.7-20.2-15.9-37.7-30.6-52.5c-8-6.2-16.1-12.4-24.1-18.6
				c-18.6-10.8-38.6-16.2-60.1-16.3c-16.4-0.6-31.7,2.8-45.9,10.3c-14.8,4.8-27.5,13-38.3,24.6c-11.6,10.8-19.8,23.6-24.6,38.3
				c-7.5,14.2-10.9,29.5-10.3,45.9c1.4,10.6,2.8,21.1,4.3,31.7c5.7,20.2,15.9,37.7,30.6,52.5c8,6.2,16.1,12.4,24.1,18.6
				C677,249,697.1,254.4,718.6,254.5L718.6,254.5z"/>
		</g>
	</g>
</g>
<g id="text" display="none">
	<g display="inline">
		<path fill="#4EB9F3" d="M650.4,190.2l-4.7-9.8c2.4-1.1,3.8-3.5,3.8-6.8c0-4.3-2.9-6.6-5.6-6.6h-6.7v24h3.3v-10.2h1.7l5.2,10.8
			L650.4,190.2z M640.4,170.1h2.3c2.3,0,3.3,1,3.3,3.5c0,2.7-0.9,4.1-2.7,4.1h-2.9V170.1z"/>
		<path fill="#4EB9F3" d="M667.5,191.6l3.3-1.2l-5.9-18.4h-3.7l-5.9,18.4l3.3,1.2l1.7-5.5h5.6L667.5,191.6z M661.2,183l1.8-6l1.8,6
			H661.2z"/>
		<polygon fill="#4EB9F3" points="687.9,187.9 685.3,187.9 685.3,175.1 687.9,175.1 687.9,172 679.5,172 679.5,175.1 682,175.1 
			682,187.9 679.5,187.9 679.5,191 687.9,191 		"/>
		<polygon fill="#4EB9F3" points="710.9,191 710.9,172 707.5,172 707.5,183 707.6,185.2 701.5,172 697.8,172 697.8,191 701.2,191 
			701.2,180.1 701.1,177.8 707.1,191 		"/>
		<path fill="#4EB9F3" d="M732.6,185.4c0-2-0.9-3.6-2.5-4.5c1-0.9,1.5-2.1,1.5-3.6c0-3.5-2.4-5.3-7-5.3h-6.2v3.1h1.9v12.8h-1.9v3.1
			h7.8C730.2,191,732.6,188.9,732.6,185.4z M728.1,177.3c0,1.5-0.9,2.4-2.5,2.4h-2.1v-4.6h1.9C727.3,175.1,728.1,175.9,728.1,177.3z
			 M723.6,182.8h2.7c1.8,0,2.9,1,2.9,2.7c0,1.7-1,2.4-3.4,2.4h-2.2V182.8z"/>
		<path fill="#4EB9F3" d="M752.6,181.5c0-9.1-5.3-9.8-6.9-9.8s-6.9,0.7-6.9,9.8c0,9.1,5.3,9.8,6.9,9.8
			C752.1,191.3,752.6,183.8,752.6,181.5z M745.7,188.1c-3,0-3.4-4.1-3.4-6.6c0-3,0.6-6.6,3.4-6.6s3.4,3.6,3.4,6.6
			C749.1,184,748.7,188.1,745.7,188.1z"/>
		<polygon fill="#4EB9F3" points="771.3,191.5 774.1,171.9 770.7,171.5 769.4,182.5 767,175.4 765.7,175.4 763.2,182.5 762,171.5 
			758.6,171.9 761.3,191.5 763,191.5 766.3,181.5 769.7,191.5 		"/>
		<path fill="#4EB9F3" d="M573.2,218.1c-3.6-2.2-3.7-2.6-3.7-4.2c0-1,0.2-3.2,2.5-3.2c1.3,0,2.2,1,2.7,3l0.1,0.5l3.3-0.5l-0.1-0.5
			c-0.7-3.7-2.8-5.6-5.9-5.6c-3.3,0-5.9,2.7-5.9,6.4c0,3.7,2.2,5,4.7,6.5l0.2,0.1c2.2,1.3,3.9,2.2,3.9,4.9c0,2.3-1,3.6-2.9,3.6
			c-2.2,0-2.8-1.4-3.1-4l-0.1-0.5l-3.3,0.4l0,0.5c0.4,4.6,2.5,6.8,6.4,6.8c3.8,0,6.3-2.7,6.3-7C578.2,221.4,576.1,219.9,573.2,218.1
			z"/>
		<polygon fill="#4EB9F3" points="599.5,214.3 596.9,212.2 590.6,220.6 590.5,220.6 590.5,212.9 587.2,212.9 587.2,231.9 
			590.5,231.9 590.5,223.5 590.6,223.5 598,232.6 600.6,230.4 593.5,221.9 		"/>
		<polygon fill="#4EB9F3" points="613.1,221.1 608.6,212.3 605.5,213.9 611.4,224.6 611.4,231.9 614.8,231.9 614.8,224.6 
			620.8,213.9 617.7,212.3 		"/>
		<path fill="#4EB9F3" d="M656.5,219c1.3-1,1.9-2.5,1.9-4.4c0-4.1-2.9-6.3-5.6-6.3h-7.5v3.1h1.9v17.8h-1.9v3.1h7.9
			c3,0,6.3-1.9,6.3-7.4C659.5,222.1,658.6,220.2,656.5,219z M652,217.8h-1.5v-6.3h0.8c2.7,0,3.7,0.9,3.7,3.2
			C655,216.8,654.1,217.8,652,217.8z M650.5,220.9h2c2.5,0,3.6,1.2,3.6,4c0,2.8-1.1,4.3-3,4.3h-2.6V220.9z"/>
		<path fill="#4EB9F3" d="M670.7,213.4l-5.9,18.4l3.3,1.2l1.7-5.5h5.6l1.7,5.5l3.3-1.2l-5.9-18.4H670.7z M670.8,224.3l1.8-6l1.8,6
			H670.8z"/>
		<path fill="#4EB9F3" d="M697.4,226.8c-1,1.5-1.9,2.7-3.8,2.7c-3.3,0-3.8-4.1-3.8-6.6c0-1.5,0.3-6.6,3.8-6.6c1.3,0,2.2,0.8,3.1,2.4
			l0.2,0.5l3-1.5l-0.3-0.5c-1.5-2.8-3.4-4.1-6.1-4.1c-3.3,0-7.2,2.6-7.2,9.8c0,2.3,0.5,9.8,7.4,9.8c2.7,0,4.6-1.2,6.4-4l0.3-0.4
			l-2.7-1.9L697.4,226.8z"/>
		<polygon fill="#4EB9F3" points="721,214.7 718.4,212.7 712.1,221 712,221 712,213.4 708.7,213.4 708.7,232.3 712,232.3 712,223.9 
			712,223.9 719.5,233 722,230.9 715,222.3 		"/>
		<path fill="#4EB9F3" d="M734.9,216.3c1.8,0,2.9,1.2,3.5,2.3l0.3,0.5l2.8-1.8l-0.3-0.4c-1.4-2.3-3.7-3.7-6.2-3.7
			c-6.7,0-7.2,7.5-7.2,9.8c0,3,0.7,9.8,7.3,9.8c1.9,0,4.3-0.8,5.9-2.2l0.1-0.1v-8.7h-7.6v3.1h4.3v3.9c-0.8,0.5-1.8,0.7-2.8,0.7
			c-3.2,0-3.7-4.1-3.7-6.5C731.3,220.9,731.7,216.3,734.9,216.3z"/>
		<path fill="#4EB9F3" d="M762.1,218.8c0-3.4-2.1-5.4-5.9-5.4h-6.6v19h3.3v-7.7h2.5l4.7,8.3l2.9-1.7l-4.4-7.2
			C760.7,223.2,762.1,221,762.1,218.8z M752.9,216.5h3.2c1.6,0,2.5,0.8,2.5,2.3c0,1.7-1.2,2.8-3.2,2.8h-2.5V216.5z"/>
		<path fill="#4EB9F3" d="M775.9,213c-1.6,0-6.9,0.7-6.9,9.8c0,9.1,5.3,9.8,6.9,9.8c6.4,0,6.9-7.5,6.9-9.8
			C782.8,213.8,777.5,213,775.9,213z M775.9,229.4c-3,0-3.4-4.1-3.4-6.6c0-3,0.6-6.6,3.4-6.6c2.8,0,3.4,3.6,3.4,6.6
			C779.4,225.3,778.9,229.4,775.9,229.4z"/>
		<path fill="#4EB9F3" d="M799.4,226.1c0,2.4-0.4,3.3-3,3.3c-2,0-2.6-0.8-2.6-3.3v-12.7h-3.3v13.7c0,2.6,1.6,5.6,6.1,5.6
			c4.3,0,6.2-2.7,6.2-5.4v-13.8h-3.3V226.1z"/>
		<polygon fill="#4EB9F3" points="820.4,224.3 820.5,226.6 814.5,213.4 810.8,213.4 810.8,232.3 814.1,232.3 814.1,221.4 814,219.1 
			820.1,232.3 823.8,232.3 823.8,213.4 820.4,213.4 		"/>
		<path fill="#4EB9F3" d="M837.7,213.4h-6.5v3.1h1.9v12.8h-1.9v3.1h6.5c6.6,0,7.9-3.7,7.9-9.7C845.6,216,843.3,213.4,837.7,213.4z
			 M842.2,222.9c0,5.3-1.4,6.4-3.9,6.4h-1.9v-12.8h1.9C840.7,216.5,842.2,217.5,842.2,222.9z"/>
	</g>
</g>
</svg>
